<?xml version="1.0" encoding="UTF-8" standalone="no"?>
<svg
   xmlns:dc="http://purl.org/dc/elements/1.1/"
   xmlns:cc="http://creativecommons.org/ns#"
   xmlns:rdf="http://www.w3.org/1999/02/22-rdf-syntax-ns#"
   xmlns:svg="http://www.w3.org/2000/svg"
   xmlns="http://www.w3.org/2000/svg"
   xmlns:sodipodi="http://sodipodi.sourceforge.net/DTD/sodipodi-0.dtd"
   xmlns:inkscape="http://www.inkscape.org/namespaces/inkscape"
   width="362.8345"
   height="36.078701"
   viewBox="0 0 362.8345 36.0787"
   version="1.2"
   id="svg108"
   sodipodi:docname="melodia-carateristicas-shape.svg"
   inkscape:version="0.92.3 (2405546, 2018-03-11)">
  <metadata
     id="metadata114">
    <rdf:RDF>
      <cc:Work
         rdf:about="">
        <dc:format>image/svg+xml</dc:format>
        <dc:type
           rdf:resource="http://purl.org/dc/dcmitype/StillImage" />
        <dc:title>Title</dc:title>
      </cc:Work>
    </rdf:RDF>
  </metadata>
  <defs
     id="defs112" />
  <sodipodi:namedview
     pagecolor="#ffffff"
     bordercolor="#666666"
     borderopacity="1"
     objecttolerance="10"
     gridtolerance="10"
     guidetolerance="10"
     inkscape:pageopacity="0"
     inkscape:pageshadow="2"
     inkscape:window-width="1853"
     inkscape:window-height="1025"
     id="namedview110"
     showgrid="false"
     inkscape:zoom="2.2426904"
     inkscape:cx="258.31482"
     inkscape:cy="36.814698"
     inkscape:window-x="67"
     inkscape:window-y="27"
     inkscape:window-maximized="1"
     inkscape:current-layer="svg108" />
  <title
     id="title2">Title</title>
  <desc
     id="desc4">Generated by MuseScore 2.1.0</desc>
  <polyline
     class="StaffLines"
     points="28.3465,63.3487 391.181,63.3487"
     id="polyline6"
     style="fill:none;stroke:#000000;stroke-width:0.40000001;stroke-linejoin:bevel"
     transform="translate(-28.3465,-55.0215)" />
  <polyline
     class="StaffLines"
     points="28.3465,68.349 391.181,68.349"
     id="polyline8"
     style="fill:none;stroke:#000000;stroke-width:0.40000001;stroke-linejoin:bevel"
     transform="translate(-28.3465,-55.0215)" />
  <polyline
     class="StaffLines"
     points="28.3465,73.3493 391.181,73.3493"
     id="polyline10"
     style="fill:none;stroke:#000000;stroke-width:0.40000001;stroke-linejoin:bevel"
     transform="translate(-28.3465,-55.0215)" />
  <polyline
     class="StaffLines"
     points="28.3465,78.3496 391.181,78.3496"
     id="polyline12"
     style="fill:none;stroke:#000000;stroke-width:0.40000001;stroke-linejoin:bevel"
     transform="translate(-28.3465,-55.0215)" />
  <polyline
     class="StaffLines"
     points="28.3465,83.3499 391.181,83.3499"
     id="polyline14"
     style="fill:none;stroke:#000000;stroke-width:0.40000001;stroke-linejoin:bevel"
     transform="translate(-28.3465,-55.0215)" />
  <polyline
     class="BarLine"
     points="386.281,63.3487 386.281,83.3499"
     id="polyline16"
     style="fill:none;stroke:#000000;stroke-width:0.80000001;stroke-linejoin:bevel"
     transform="translate(-28.3465,-55.0215)" />
  <polyline
     class="BarLine"
     points="389.931,63.3487 389.931,83.3499"
     id="polyline18"
     style="fill:none;stroke:#000000;stroke-width:2.5;stroke-linejoin:bevel"
     transform="translate(-28.3465,-55.0215)" />
  <polyline
     class="BarLine"
     points="318.19,63.3487 318.19,83.3499"
     id="polyline20"
     style="fill:none;stroke:#000000;stroke-width:0.80000001;stroke-linejoin:bevel"
     transform="translate(-28.3465,-55.0215)" />
  <polyline
     class="BarLine"
     points="225.35,63.3487 225.35,83.3499"
     id="polyline22"
     style="fill:none;stroke:#000000;stroke-width:0.80000001;stroke-linejoin:bevel"
     transform="translate(-28.3465,-55.0215)" />
  <polyline
     class="BarLine"
     points="132.509,63.3487 132.509,83.3499"
     id="polyline24"
     style="fill:none;stroke:#000000;stroke-width:0.80000001;stroke-linejoin:bevel"
     transform="translate(-28.3465,-55.0215)" />
  <polyline
     class="LedgerLine"
     points="323.091,88.3502 332.674,88.3502"
     id="polyline26"
     style="fill:none;stroke:#000000;stroke-width:0.80000001;stroke-linecap:square;stroke-linejoin:bevel"
     transform="translate(-28.3465,-55.0215)" />
  <polyline
     class="LedgerLine"
     points="64.4362,88.3502 74.0196,88.3502"
     id="polyline28"
     style="fill:none;stroke:#000000;stroke-width:0.80000001;stroke-linecap:square;stroke-linejoin:bevel"
     transform="translate(-28.3465,-55.0215)" />
  <polyline
     class="Stem"
     points="330.849,87.4111 330.849,70.8491"
     id="polyline30"
     style="fill:none;stroke:#000000;stroke-width:0.64999998;stroke-linecap:round;stroke-linejoin:bevel"
     transform="translate(-28.3465,-55.0215)" />
  <polyline
     class="Stem"
     points="311.396,77.4105 311.396,58.3483"
     id="polyline32"
     style="fill:none;stroke:#000000;stroke-width:0.64999998;stroke-linecap:round;stroke-linejoin:bevel"
     transform="translate(-28.3465,-55.0215)" />
  <polyline
     class="Stem"
     points="291.151,74.9103 291.151,58.3483"
     id="polyline34"
     style="fill:none;stroke:#000000;stroke-width:0.64999998;stroke-linecap:round;stroke-linejoin:bevel"
     transform="translate(-28.3465,-55.0215)" />
  <polyline
     class="Stem"
     points="270.906,72.4102 270.906,58.3483"
     id="polyline36"
     style="fill:none;stroke:#000000;stroke-width:0.64999998;stroke-linecap:round;stroke-linejoin:bevel"
     transform="translate(-28.3465,-55.0215)" />
  <polyline
     class="Stem"
     points="250.661,74.9103 250.661,58.3483"
     id="polyline38"
     style="fill:none;stroke:#000000;stroke-width:0.64999998;stroke-linecap:round;stroke-linejoin:bevel"
     transform="translate(-28.3465,-55.0215)" />
  <polyline
     class="Stem"
     points="238.008,77.4105 238.008,58.3483"
     id="polyline40"
     style="fill:none;stroke:#000000;stroke-width:0.64999998;stroke-linecap:round;stroke-linejoin:bevel"
     transform="translate(-28.3465,-55.0215)" />
  <polyline
     class="Stem"
     points="210.963,79.9106 210.963,64.5987"
     id="polyline42"
     style="fill:none;stroke:#000000;stroke-width:0.64999998;stroke-linecap:round;stroke-linejoin:bevel"
     transform="translate(-28.3465,-55.0215)" />
  <polyline
     class="Stem"
     points="190.719,77.4105 190.719,63.3487"
     id="polyline44"
     style="fill:none;stroke:#000000;stroke-width:0.64999998;stroke-linecap:round;stroke-linejoin:bevel"
     transform="translate(-28.3465,-55.0215)" />
  <polyline
     class="Stem"
     points="178.066,79.9106 178.066,64.5987"
     id="polyline46"
     style="fill:none;stroke:#000000;stroke-width:0.64999998;stroke-linecap:round;stroke-linejoin:bevel"
     transform="translate(-28.3465,-55.0215)" />
  <polyline
     class="Stem"
     points="165.413,82.4108 165.413,64.5987"
     id="polyline48"
     style="fill:none;stroke:#000000;stroke-width:0.64999998;stroke-linecap:round;stroke-linejoin:bevel"
     transform="translate(-28.3465,-55.0215)" />
  <polyline
     class="Stem"
     points="145.168,79.9106 145.168,64.5987"
     id="polyline50"
     style="fill:none;stroke:#000000;stroke-width:0.64999998;stroke-linecap:round;stroke-linejoin:bevel"
     transform="translate(-28.3465,-55.0215)" />
  <polyline
     class="Stem"
     points="119.986,82.4108 119.986,68.349"
     id="polyline52"
     style="fill:none;stroke:#000000;stroke-width:0.64999998;stroke-linecap:round;stroke-linejoin:bevel"
     transform="translate(-28.3465,-55.0215)" />
  <polyline
     class="Stem"
     points="101.605,84.9109 101.605,69.599"
     id="polyline54"
     style="fill:none;stroke:#000000;stroke-width:0.64999998;stroke-linecap:round;stroke-linejoin:bevel"
     transform="translate(-28.3465,-55.0215)" />
  <polyline
     class="Stem"
     points="72.1945,87.4111 72.1945,70.8491"
     id="polyline56"
     style="fill:none;stroke:#000000;stroke-width:0.64999998;stroke-linecap:round;stroke-linejoin:bevel"
     transform="translate(-28.3465,-55.0215)" />
  <path
     class="Note"
     d="m 300.6345,30.5787 c 0.625,0 1.157,0.1615 1.594,0.4844 0.396,0.3542 0.594,0.7969 0.594,1.3281 0,0.8959 -0.458,1.7344 -1.375,2.5157 -0.938,0.7812 -1.943,1.1718 -3.016,1.1718 -0.625,0 -1.151,-0.1614 -1.578,-0.4843 -0.406,-0.3542 -0.609,-0.7969 -0.609,-1.3282 0,-0.8958 0.468,-1.7343 1.406,-2.5156 0.917,-0.7812 1.911,-1.1719 2.984,-1.1719"
     id="path58"
     inkscape:connector-curvature="0" />
  <path
     class="Note"
     d="m 281.1815,20.5781 c 0.625,0 1.156,0.1615 1.594,0.4844 0.396,0.3541 0.593,0.7968 0.593,1.3281 0,0.8958 -0.458,1.7344 -1.375,2.5156 -0.937,0.7813 -1.942,1.1719 -3.015,1.1719 -0.625,0 -1.151,-0.1615 -1.578,-0.4844 -0.407,-0.3541 -0.61,-0.7969 -0.61,-1.3281 0,-0.8958 0.469,-1.7344 1.407,-2.5156 0.916,-0.7813 1.911,-1.1719 2.984,-1.1719"
     id="path60"
     inkscape:connector-curvature="0" />
  <path
     class="Note"
     d="m 260.9365,18.0779 c 0.625,0 1.157,0.1615 1.594,0.4844 0.396,0.3542 0.594,0.7969 0.594,1.3281 0,0.8959 -0.459,1.7344 -1.375,2.5157 -0.938,0.7812 -1.943,1.1718 -3.016,1.1718 -0.625,0 -1.151,-0.1614 -1.578,-0.4843 -0.406,-0.3542 -0.609,-0.7969 -0.609,-1.3282 0,-0.8958 0.468,-1.7343 1.406,-2.5156 0.917,-0.7812 1.911,-1.1719 2.984,-1.1719"
     id="path62"
     inkscape:connector-curvature="0" />
  <path
     class="Note"
     d="m 240.6925,15.5778 c 0.625,0 1.156,0.1614 1.593,0.4844 0.396,0.3541 0.594,0.7968 0.594,1.3281 0,0.8958 -0.458,1.7344 -1.375,2.5156 -0.937,0.7813 -1.943,1.1719 -3.016,1.1719 -0.625,0 -1.151,-0.1615 -1.578,-0.4844 -0.406,-0.3542 -0.609,-0.7969 -0.609,-1.3281 0,-0.8958 0.469,-1.7344 1.406,-2.5156 0.917,-0.7813 1.912,-1.1719 2.985,-1.1719"
     id="path64"
     inkscape:connector-curvature="0" />
  <path
     class="Note"
     d="m 220.4475,18.0779 c 0.625,0 1.156,0.1615 1.594,0.4844 0.395,0.3542 0.593,0.7969 0.593,1.3281 0,0.8959 -0.458,1.7344 -1.375,2.5157 -0.937,0.7812 -1.942,1.1718 -3.015,1.1718 -0.625,0 -1.151,-0.1614 -1.578,-0.4843 -0.407,-0.3542 -0.61,-0.7969 -0.61,-1.3282 0,-0.8958 0.469,-1.7343 1.406,-2.5156 0.917,-0.7812 1.912,-1.1719 2.985,-1.1719"
     id="path66"
     inkscape:connector-curvature="0" />
  <path
     class="Note"
     d="m 207.7945,20.5781 c 0.625,0 1.156,0.1615 1.594,0.4844 0.395,0.3541 0.593,0.7968 0.593,1.3281 0,0.8958 -0.458,1.7344 -1.375,2.5156 -0.937,0.7813 -1.942,1.1719 -3.015,1.1719 -0.625,0 -1.151,-0.1615 -1.578,-0.4844 -0.407,-0.3541 -0.61,-0.7969 -0.61,-1.3281 0,-0.8958 0.469,-1.7344 1.407,-2.5156 0.916,-0.7813 1.911,-1.1719 2.984,-1.1719"
     id="path68"
     inkscape:connector-curvature="0" />
  <path
     class="Note"
     d="m 180.7495,23.0783 c 0.625,0 1.156,0.1614 1.594,0.4843 0.395,0.3542 0.593,0.7969 0.593,1.3282 0,0.8958 -0.458,1.7343 -1.375,2.5156 -0.937,0.7812 -1.942,1.1719 -3.015,1.1719 -0.625,0 -1.151,-0.1615 -1.578,-0.4844 -0.407,-0.3542 -0.61,-0.7969 -0.61,-1.3281 0,-0.8959 0.469,-1.7344 1.406,-2.5157 0.917,-0.7812 1.912,-1.1718 2.985,-1.1718"
     id="path70"
     inkscape:connector-curvature="0" />
  <path
     class="Note"
     d="m 160.5045,20.5781 c 0.625,0 1.156,0.1615 1.594,0.4844 0.396,0.3541 0.594,0.7968 0.594,1.3281 0,0.8958 -0.459,1.7344 -1.375,2.5156 -0.938,0.7813 -1.943,1.1719 -3.016,1.1719 -0.625,0 -1.151,-0.1615 -1.578,-0.4844 -0.406,-0.3541 -0.61,-0.7969 -0.61,-1.3281 0,-0.8958 0.469,-1.7344 1.407,-2.5156 0.916,-0.7813 1.911,-1.1719 2.984,-1.1719"
     id="path72"
     inkscape:connector-curvature="0" />
  <path
     class="Note"
     d="m 147.8515,23.0783 c 0.625,0 1.156,0.1614 1.594,0.4843 0.396,0.3542 0.594,0.7969 0.594,1.3282 0,0.8958 -0.459,1.7343 -1.375,2.5156 -0.938,0.7812 -1.943,1.1719 -3.016,1.1719 -0.625,0 -1.151,-0.1615 -1.578,-0.4844 -0.406,-0.3542 -0.609,-0.7969 -0.609,-1.3281 0,-0.8959 0.468,-1.7344 1.406,-2.5157 0.916,-0.7812 1.911,-1.1718 2.984,-1.1718"
     id="path74"
     inkscape:connector-curvature="0" />
  <path
     class="Note"
     d="m 135.1985,25.5784 c 0.625,0 1.156,0.1615 1.594,0.4844 0.396,0.3542 0.594,0.7969 0.594,1.3281 0,0.8958 -0.459,1.7344 -1.375,2.5156 -0.938,0.7813 -1.943,1.1719 -3.016,1.1719 -0.625,0 -1.151,-0.1614 -1.578,-0.4844 -0.406,-0.3541 -0.609,-0.7968 -0.609,-1.3281 0,-0.8958 0.468,-1.7344 1.406,-2.5156 0.916,-0.7813 1.911,-1.1719 2.984,-1.1719"
     id="path76"
     inkscape:connector-curvature="0" />
  <path
     class="Note"
     d="m 114.9535,23.0783 c 0.625,0 1.157,0.1614 1.594,0.4843 0.396,0.3542 0.594,0.7969 0.594,1.3282 0,0.8958 -0.458,1.7343 -1.375,2.5156 -0.938,0.7812 -1.943,1.1719 -3.016,1.1719 -0.625,0 -1.151,-0.1615 -1.578,-0.4844 -0.406,-0.3542 -0.609,-0.7969 -0.609,-1.3281 0,-0.8959 0.469,-1.7344 1.406,-2.5157 0.917,-0.7812 1.912,-1.1718 2.984,-1.1718"
     id="path78"
     inkscape:connector-curvature="0" />
  <path
     class="Note"
     d="m 89.7725,25.5784 c 0.625,0 1.156,0.1615 1.593,0.4844 0.396,0.3542 0.594,0.7969 0.594,1.3281 0,0.8958 -0.458,1.7344 -1.375,2.5156 -0.937,0.7813 -1.943,1.1719 -3.015,1.1719 -0.625,0 -1.152,-0.1614 -1.579,-0.4844 -0.406,-0.3541 -0.609,-0.7968 -0.609,-1.3281 0,-0.8958 0.469,-1.7344 1.406,-2.5156 0.917,-0.7813 1.912,-1.1719 2.985,-1.1719"
     id="path80"
     inkscape:connector-curvature="0" />
  <path
     class="Note"
     d="m 71.3907,28.0786 c 0.6248,0 1.1558,0.1614 1.5938,0.4843 0.396,0.3542 0.594,0.7969 0.594,1.3282 0,0.8958 -0.459,1.7343 -1.375,2.5156 -0.9378,0.7812 -1.943,1.1719 -3.0159,1.1719 -0.625,0 -1.151,-0.1615 -1.5781,-0.4844 -0.4063,-0.3542 -0.6094,-0.7969 -0.6094,-1.3281 0,-0.8959 0.4687,-1.7344 1.4062,-2.5157 0.9167,-0.7812 1.9115,-1.1718 2.9844,-1.1718"
     id="path82"
     inkscape:connector-curvature="0" />
  <path
     class="Note"
     d="m 41.9804,30.5787 c 0.625,0 1.1563,0.1615 1.5938,0.4844 0.3958,0.3542 0.5937,0.7969 0.5937,1.3281 0,0.8959 -0.4583,1.7344 -1.375,2.5157 -0.9375,0.7812 -1.9427,1.1718 -3.0156,1.1718 -0.625,0 -1.151,-0.1614 -1.5781,-0.4843 -0.4063,-0.3542 -0.6094,-0.7969 -0.6094,-1.3282 0,-0.8958 0.4688,-1.7343 1.4063,-2.5156 0.9166,-0.7812 1.9114,-1.1719 2.9843,-1.1719"
     id="path84"
     inkscape:connector-curvature="0" />
  <path
     class="Clef"
     d="m 10.5439,18.2031 c 0,0 0.0417,0 0.125,0 0.0521,-0.0104 0.0938,-0.0156 0.125,-0.0156 1.4583,0 2.6563,0.5156 3.5938,1.5468 0.9375,1.0105 1.4062,2.1928 1.4062,3.5469 0,1.6875 -0.6927,3.0573 -2.0781,4.1094 -0.3646,0.2917 -0.8438,0.526 -1.4375,0.7031 0.0729,0.8438 0.1094,1.5261 0.1094,2.0469 0,0.1042 -0.0157,0.4844 -0.0469,1.1406 -0.0521,1.2084 -0.4688,2.2552 -1.25,3.1406 -0.75,0.875 -1.6875,1.3125 -2.8125,1.3125 -1.0521,0 -1.9479,-0.3697 -2.6875,-1.1093 -0.75,-0.7604 -1.125,-1.6719 -1.125,-2.7344 0,-0.5625 0.2187,-1.0417 0.6562,-1.4375 0.4375,-0.3854 0.9479,-0.5781 1.5313,-0.5781 0.5208,0 0.9583,0.2031 1.3125,0.6093 0.3646,0.375 0.5469,0.8438 0.5469,1.4063 0,0.5 -0.1823,0.9323 -0.5469,1.2969 -0.3646,0.3646 -0.8021,0.5468 -1.3125,0.5468 -0.2084,0 -0.4063,-0.0364 -0.5938,-0.1093 0.5729,0.8437 1.3334,1.2656 2.2813,1.2656 0.8958,0 1.6302,-0.3646 2.2031,-1.0938 0.6042,-0.75 0.9323,-1.6302 0.9844,-2.6406 0.0208,-0.625 0.0312,-0.9791 0.0312,-1.0625 0,-0.7291 -0.026,-1.3281 -0.0781,-1.7969 -0.6458,0.1042 -1.224,0.1563 -1.7344,0.1563 -1.8125,0 -3.3541,-0.7188 -4.625,-2.1563 -1.25,-1.4479 -1.875,-3.1666 -1.875,-5.1562 0,-0.4167 0.0365,-0.8385 0.1094,-1.2656 0.0833,-0.3542 0.1823,-0.7396 0.2969,-1.1563 0.0625,-0.2396 0.2396,-0.6198 0.5312,-1.1406 0.1042,-0.1563 0.2214,-0.3516 0.3516,-0.5859 0.1302,-0.2344 0.2213,-0.3881 0.2734,-0.461 0.125,-0.2604 0.375,-0.6146 0.75,-1.0625 0.1042,-0.1146 0.2136,-0.2422 0.3282,-0.3828 0.1145,-0.1406 0.2109,-0.2578 0.289,-0.3516 0.0781,-0.0937 0.1354,-0.1666 0.1719,-0.2187 0.0364,-0.0521 0.3307,-0.3958 0.8828,-1.0313 0.125,-0.1354 0.25,-0.276 0.375,-0.4218 0.125,-0.1459 0.2266,-0.263 0.3047,-0.3516 0.0781,-0.0885 0.138,-0.1484 0.1797,-0.1797 C 7.622,10.9791 7.3252,9.7396 7.2002,8.8125 7.1168,8.0729 7.0752,7.0573 7.0752,5.7656 7.0752,4.6302 7.3356,3.5677 7.8564,2.5781 8.3564,1.5573 9.0647,0.7187 9.9814,0.0625 10.0439,0.0208 10.1064,0 10.1689,0 c 0.0938,0 0.1615,0.0208 0.2031,0.0625 0.6979,0.8437 1.3021,1.9427 1.8125,3.2968 0.5209,1.3542 0.7813,2.5886 0.7813,3.7032 0,1.25 -0.2969,2.4218 -0.8906,3.5156 -0.6771,1.1562 -1.5521,2.3542 -2.625,3.5937 0.2708,0.8542 0.6354,2.198 1.0937,4.0313 m 1.6563,9.0937 c 0.677,-0.25 1.2083,-0.6718 1.5937,-1.2656 0.4167,-0.5729 0.625,-1.2187 0.625,-1.9375 0,-0.9271 -0.3125,-1.75 -0.9375,-2.4687 -0.6458,-0.7396 -1.4635,-1.1563 -2.4531,-1.25 0.5625,2.75 0.9531,5.0573 1.1719,6.9218 M 4.6533,22.7812 c 0,1.2917 0.5208,2.4271 1.5625,3.4063 1.0625,0.9479 2.2604,1.4218 3.5937,1.4218 0.5417,0 1.0729,-0.0416 1.5938,-0.125 -0.2084,-1.9791 -0.6198,-4.3489 -1.2344,-7.1093 -0.7396,0.0833 -1.3281,0.3437 -1.7656,0.7812 -0.4375,0.4584 -0.6563,0.974 -0.6563,1.5469 0,0.9896 0.5313,1.7917 1.5938,2.4062 0.0833,0.0938 0.125,0.1928 0.125,0.2969 0,0.1042 -0.0417,0.1979 -0.125,0.2813 -0.0834,0.0937 -0.1823,0.1406 -0.2969,0.1406 -0.0104,0 -0.0677,-0.0104 -0.1719,-0.0313 -0.75,-0.4062 -1.3229,-0.927 -1.7187,-1.5625 -0.3854,-0.6875 -0.5781,-1.375 -0.5781,-2.0625 0,-0.8958 0.2812,-1.7083 0.8437,-2.4375 0.5833,-0.7291 1.3438,-1.1979 2.2813,-1.4062 -0.3646,-1.4583 -0.6615,-2.599 -0.8907,-3.4219 -0.2083,0.2396 -0.4583,0.5235 -0.75,0.8516 -0.2916,0.3281 -0.4635,0.5286 -0.5156,0.6015 -0.4687,0.6042 -0.8281,1.0782 -1.0781,1.4219 -0.4479,0.6146 -0.7761,1.1406 -0.9844,1.5781 -0.2187,0.5 -0.4115,1.0417 -0.5781,1.625 -0.1667,0.5625 -0.25,1.1615 -0.25,1.7969 M 11.1689,2.9218 C 10.1897,3.401 9.4241,4.0885 8.872,4.9843 8.2991,5.9114 8.0127,6.9062 8.0127,7.9687 c 0,0.9375 0.2343,2.2031 0.7031,3.7969 0.9375,-1.1354 1.6406,-2.1823 2.1094,-3.1406 0.4895,-1.0209 0.7343,-2.0834 0.7343,-3.1875 0,-0.8334 -0.1302,-1.6719 -0.3906,-2.5157"
     id="path86"
     inkscape:connector-curvature="0" />
  <path
     class="TimeSig"
     d="m 25.7607,18.3275 c -0.3959,0 -0.75,-0.0703 -1.0625,-0.211 -0.3125,-0.1406 -0.5313,-0.289 -0.6563,-0.4453 -0.1771,-0.1979 -0.3489,-0.3489 -0.5156,-0.4531 -0.2083,-0.1458 -0.4219,-0.2188 -0.6406,-0.2188 -0.3438,0 -0.625,0.1042 -0.8438,0.3125 -0.2292,0.198 -0.3594,0.4636 -0.3906,0.7969 -0.0208,0.1459 -0.099,0.2188 -0.2344,0.2188 -0.1562,0 -0.2344,-0.0729 -0.2344,-0.2188 0,-0.5 0.1198,-0.9531 0.3594,-1.3594 0.2292,-0.4166 0.5156,-0.7604 0.8594,-1.0312 0.2812,-0.25 0.6562,-0.5521 1.125,-0.9063 0.0833,-0.0625 0.25,-0.1979 0.5,-0.4062 0.25,-0.2083 0.4635,-0.3854 0.6406,-0.5313 0.3333,-0.2812 0.625,-0.6614 0.875,-1.1406 0.2292,-0.4687 0.3438,-0.9739 0.3438,-1.5156 0,-0.6667 -0.1094,-1.2396 -0.3282,-1.7188 -0.2291,-0.4687 -0.5885,-0.7031 -1.0781,-0.7031 -0.2917,0 -0.5312,0.0625 -0.7187,0.1875 -0.198,0.1354 -0.2969,0.3125 -0.2969,0.5313 0,0.1875 0.1172,0.4166 0.3515,0.6875 0.2344,0.2708 0.3516,0.5 0.3516,0.6875 0,0.3854 -0.1354,0.7135 -0.4062,0.9843 -0.2605,0.2605 -0.5782,0.3907 -0.9532,0.3907 -0.3958,0 -0.7291,-0.1354 -1,-0.4063 -0.2604,-0.2812 -0.3906,-0.6041 -0.3906,-0.9687 0,-0.75 0.2995,-1.3646 0.8984,-1.8438 0.599,-0.4791 1.3204,-0.7187 2.1641,-0.7187 1.0104,0 1.8854,0.2708 2.625,0.8125 0.7396,0.5208 1.1094,1.2135 1.1094,2.0781 0,0.5833 -0.1042,1.0833 -0.3125,1.5 -0.1979,0.4479 -0.4896,0.7969 -0.875,1.0469 -0.4479,0.2812 -0.8333,0.5 -1.1563,0.6562 -0.4583,0.2084 -0.9114,0.4063 -1.3593,0.5938 -0.5521,0.2187 -0.9792,0.4271 -1.2813,0.625 0.1771,-0.0417 0.3542,-0.0625 0.5313,-0.0625 0.6041,0 1.2291,0.1927 1.875,0.5781 0.6666,0.3958 1.1823,0.5937 1.5468,0.5937 0.2188,0 0.3959,-0.0416 0.5313,-0.125 0.125,-0.0729 0.2083,-0.1562 0.25,-0.25 0.0521,-0.125 0.0989,-0.2135 0.1406,-0.2656 0.0521,-0.0833 0.1146,-0.125 0.1875,-0.125 0.1563,0 0.2344,0.0781 0.2344,0.2344 0,0.3646 -0.2604,0.8073 -0.7813,1.3281 -0.5104,0.5209 -1.1718,0.7813 -1.9843,0.7813"
     id="path88"
     inkscape:connector-curvature="0" />
  <path
     class="TimeSig"
     d="m 25.3388,18.5781 c 0.3854,0 0.7161,-0.0443 0.9922,-0.1328 0.276,-0.0886 0.4505,-0.1328 0.5234,-0.1328 0.0937,0 0.1667,0.026 0.2187,0.0781 0.0417,0.0312 0.0677,0.0729 0.0782,0.125 0,0.0312 -0.0157,0.0729 -0.0469,0.125 L 21.4325,25.25 h 3.3281 v -2.625 c 0,-0.1667 0.0469,-0.3125 0.1407,-0.4375 0.1562,-0.125 0.2864,-0.2032 0.3906,-0.2344 0.1667,-0.0729 0.375,-0.2552 0.625,-0.5469 0.2083,-0.2291 0.4583,-0.6354 0.75,-1.2187 0.0312,-0.0834 0.0885,-0.125 0.1719,-0.125 0.1562,0 0.2448,0.0937 0.2656,0.2812 V 25.25 h 1.4375 c 0.1771,0 0.2812,0.0937 0.3125,0.2812 0,0.1979 -0.1042,0.2969 -0.3125,0.2969 h -1.4375 v 0.1562 c 0,0.5209 0.1302,0.9636 0.3906,1.3282 0.3021,0.3646 0.6563,0.5468 1.0625,0.5468 0.1563,0 0.2344,0.0782 0.2344,0.2344 0,0.1563 -0.0781,0.2344 -0.2344,0.2344 -0.2708,0 -0.7135,-0.0365 -1.3281,-0.1094 -0.5625,-0.0937 -1,-0.1406 -1.3125,-0.1406 -0.3229,0 -0.7604,0.0469 -1.3125,0.1406 -0.5833,0.0729 -1.0156,0.1094 -1.2969,0.1094 -0.1562,0 -0.2344,-0.0781 -0.2344,-0.2344 0,-0.1562 0.0782,-0.2344 0.2344,-0.2344 0.3958,0 0.7448,-0.1822 1.0469,-0.5468 0.2708,-0.3646 0.4062,-0.8073 0.4062,-1.3282 v -0.1562 h -3.3281 c -0.2292,0 -0.3854,-0.0521 -0.4687,-0.1563 -0.1146,-0.0729 -0.1719,-0.177 -0.1719,-0.3125 0,-0.0416 0.0989,-0.177 0.2969,-0.4062 0.2291,-0.2604 0.4635,-0.5781 0.7031,-0.9531 0.2917,-0.4479 0.5677,-0.9063 0.8281,-1.375 0.2813,-0.5313 0.5104,-1.1459 0.6875,-1.8438 0.1875,-0.6979 0.2813,-1.4114 0.2813,-2.1406 0,-0.2083 0.0937,-0.3125 0.2812,-0.3125 0.0417,0 0.125,0.0208 0.25,0.0625 0.0417,0.0104 0.125,0.0286 0.25,0.0547 0.125,0.026 0.224,0.0495 0.2969,0.0703 0.2396,0.0417 0.4635,0.0625 0.6719,0.0625"
     id="path90"
     inkscape:connector-curvature="0" />
  <path
     class="Rest"
     d="m 326.7645,16.7653 c 0,-0.2396 0.135,-0.5 0.406,-0.7813 0.187,-0.2083 0.474,-0.4583 0.859,-0.75 0.282,-0.1875 0.558,-0.4791 0.828,-0.875 0.261,-0.375 0.391,-0.7864 0.391,-1.2343 0,-0.5209 -0.167,-0.9792 -0.5,-1.375 l -0.703,-0.8438 c -0.052,-0.0521 -0.078,-0.1172 -0.078,-0.1953 0,-0.0781 0.036,-0.1484 0.109,-0.2109 0.094,-0.073 0.172,-0.1094 0.235,-0.1094 0.093,0 0.166,0.0417 0.218,0.125 l 3.032,3.5937 c 0.125,0.1667 0.187,0.3334 0.187,0.5 0,0.2396 -0.13,0.5 -0.391,0.7813 -0.166,0.1875 -0.442,0.4375 -0.828,0.75 -0.302,0.1771 -0.588,0.4687 -0.859,0.875 -0.26,0.375 -0.391,0.7864 -0.391,1.2344 0,0.552 0.157,1.0156 0.469,1.3906 l 1.672,1.9687 c 0.042,0.0417 0.073,0.1094 0.094,0.2032 0,0.0833 -0.032,0.1614 -0.094,0.2343 -0.094,0.0625 -0.172,0.0938 -0.234,0.0938 -0.021,0 -0.125,-0.0729 -0.313,-0.2188 -0.198,-0.1562 -0.458,-0.3073 -0.781,-0.4531 -0.365,-0.1354 -0.724,-0.2031 -1.078,-0.2031 -0.323,0 -0.589,0.0885 -0.797,0.2656 -0.177,0.1875 -0.266,0.5417 -0.266,1.0625 0,0.7917 0.188,1.4167 0.563,1.875 0.041,0.0521 0.047,0.1146 0.015,0.1875 -0.02,0.0521 -0.067,0.0781 -0.14,0.0781 -0.084,0 -0.282,-0.2343 -0.594,-0.7031 -0.333,-0.4896 -0.641,-1.0573 -0.922,-1.7031 -0.302,-0.6771 -0.453,-1.2344 -0.453,-1.6719 0,-0.5625 0.266,-0.8437 0.797,-0.8437 0.614,0 1.411,0.2083 2.39,0.625 l -2.64,-3.1719 c -0.136,-0.1667 -0.203,-0.3333 -0.203,-0.5"
     id="path92"
     inkscape:connector-curvature="0" />
  <path
     class="Beam"
     d="m 209.3365,2.0768 h 74.038 v 2.5001 h -74.038 V 2.0768"
     id="path94"
     inkscape:connector-curvature="0"
     style="fill-rule:evenodd" />
  <path
     class="Beam"
     d="m 209.3365,5.827 h 6.601 v 2.5002 h -6.601 V 5.827"
     id="path96"
     inkscape:connector-curvature="0"
     style="fill-rule:evenodd" />
  <path
     class="Beam"
     d="m 283.3745,5.827 h -6.601 v 2.5002 h 6.601 V 5.827"
     id="path98"
     inkscape:connector-curvature="0"
     style="fill-rule:evenodd" />
  <path
     class="Beam"
     d="m 162.0475,7.0369 20.894,1.2903 v 2.5001 L 162.0475,9.5371 V 7.0369"
     id="path100"
     inkscape:connector-curvature="0"
     style="fill-rule:evenodd" />
  <path
     class="Beam"
     d="m 116.4965,8.3272 h 33.548 v 2.5001 h -33.548 V 8.3272"
     id="path102"
     inkscape:connector-curvature="0"
     style="fill-rule:evenodd" />
  <path
     class="Beam"
     d="m 136.7415,12.0774 h 13.303 v 2.5001 h -13.303 v -2.5001"
     id="path104"
     inkscape:connector-curvature="0"
     style="fill-rule:evenodd" />
  <path
     class="Beam"
     d="m 72.9335,13.3717 19.031,-1.2943 v 2.5001 l -19.031,1.2943 v -2.5001"
     id="path106"
     inkscape:connector-curvature="0"
     style="fill-rule:evenodd" />
  <path
     style="fill:none;stroke:#f90000;stroke-width:2;stroke-linecap:butt;stroke-linejoin:miter;stroke-miterlimit:4;stroke-dasharray:none;stroke-opacity:1"
     d="m 40.672923,27.713996 c 29.952928,-2.522352 11.192936,0.315294 29.952928,-2.522352 18.759992,-2.837645 -5.990586,-0.315294 18.759992,-2.837645 24.750577,-2.522352 21.282347,-3.310587 24.750577,-2.522352 3.46823,0.788235 18.28705,4.098821 21.43999,3.468234 3.15294,-0.630588 11.08043,-2.840981 12.61176,-3.625881 1.53133,-0.7849 8.67058,-3.310587 12.76941,-2.364705 4.09882,0.945882 13.87293,4.571763 20.65175,3.625881 6.77882,-0.945882 20.02117,-2.049411 25.38117,-3.15294 5.35999,-1.103529 12.36095,-3.68805 15.324,-3.893436 2.96305,-0.205386 16.71755,-3.375991 20.245,-2.5001 3.52745,0.875891 13.45921,2.610008 18.97685,3.55589 5.51765,0.945882 13.87294,-0.472941 19.23294,2.522352 5.35999,2.995293 19.07528,10.562348 19.07528,10.562348 h -0.31529 v 0"
     id="path973"
     inkscape:connector-curvature="0" />
</svg>
