<?xml version="1.0" encoding="UTF-8" standalone="no"?>
<!-- Created with Inkscape (http://www.inkscape.org/) -->

<svg
   xmlns:dc="http://purl.org/dc/elements/1.1/"
   xmlns:cc="http://creativecommons.org/ns#"
   xmlns:rdf="http://www.w3.org/1999/02/22-rdf-syntax-ns#"
   xmlns:svg="http://www.w3.org/2000/svg"
   xmlns="http://www.w3.org/2000/svg"
   xmlns:sodipodi="http://sodipodi.sourceforge.net/DTD/sodipodi-0.dtd"
   xmlns:inkscape="http://www.inkscape.org/namespaces/inkscape"
   width="53.131588mm"
   height="98.72496mm"
   viewBox="0 0 53.131588 98.72496"
   version="1.1"
   id="svg5298"
   inkscape:version="0.92.3 (2405546, 2018-03-11)"
   sodipodi:docname="brazo3.svg">
  <sodipodi:namedview
     id="base"
     pagecolor="#ffffff"
     bordercolor="#666666"
     borderopacity="1.0"
     inkscape:pageopacity="0.0"
     inkscape:pageshadow="2"
     inkscape:zoom="2.0716434"
     inkscape:cx="-9.4100471"
     inkscape:cy="186.97402"
     inkscape:document-units="mm"
     inkscape:current-layer="layer1"
     showgrid="false"
     inkscape:window-width="1853"
     inkscape:window-height="1025"
     inkscape:window-x="1987"
     inkscape:window-y="27"
     inkscape:window-maximized="1"
     inkscape:snap-text-baseline="true" />
  <defs
     id="defs5292">
    <linearGradient
       gradientUnits="userSpaceOnUse"
       y2="44.706001"
       y1="43.591999"
       x2="244.67999"
       x1="244.34"
       id="a"
       gradientTransform="matrix(0.26458333,0,0,0.26458333,5.8602701,43.038603)">
      <stop
         id="stop7"
         offset="0"
         stop-color="#f4d58d" />
      <stop
         id="stop9"
         offset=".10723"
         stop-color="#efd18a" />
      <stop
         id="stop11"
         offset=".23406"
         stop-color="#e1c482" />
      <stop
         id="stop13"
         offset=".3708"
         stop-color="#c9af74" />
      <stop
         id="stop15"
         offset=".51462"
         stop-color="#a79261" />
      <stop
         id="stop17"
         offset=".66394"
         stop-color="#7d6d48" />
      <stop
         id="stop19"
         offset=".81786"
         stop-color="#483f2a" />
      <stop
         id="stop21"
         offset=".97282"
         stop-color="#0b0a07" />
      <stop
         id="stop23"
         offset="1" />
    </linearGradient>
    <linearGradient
       gradientUnits="userSpaceOnUse"
       y2="69.057999"
       y1="80.678001"
       x2="229.53"
       x1="229.64999"
       id="b"
       gradientTransform="matrix(0.26458333,0,0,0.26458333,5.8602701,43.038603)">
      <stop
         id="stop2"
         offset="0"
         stop-color="#fff" />
      <stop
         id="stop4"
         offset="1" />
    </linearGradient>
  </defs>
  <metadata
     id="metadata5295">
    <rdf:RDF>
      <cc:Work
         rdf:about="">
        <dc:format>image/svg+xml</dc:format>
        <dc:type
           rdf:resource="http://purl.org/dc/dcmitype/StillImage" />
        <dc:title />
      </cc:Work>
    </rdf:RDF>
  </metadata>
  <g
     transform="translate(-66.309614,-71.006335)"
     id="layer1"
     inkscape:groupmode="layer"
     inkscape:label="Camada 1">
    <path
       inkscape:connector-curvature="0"
       id="path28"
       transform="scale(0.26458333)"
       d="m 281.33398,269.25977 c -0.2025,3.36692 -0.29593,6.928 -0.084,10.07031 0,0 -0.41462,2.24638 0.89453,5.11719 1.30915,2.8708 4.30717,6.42964 10.83594,9.47656 l 0.008,0.008 c 0,0 14.1018,6.46767 24.38281,13.54688 5.2667,3.62648 8.68062,4.75944 12.17969,5.55859 3.49908,0.79915 7.04678,1.28325 13.01367,3.7207 l 0.0879,0.0371 0.0899,0.0137 c 0,0 3.34335,0.56586 7.77929,4.23829 4.43595,3.67241 9.8711,10.44139 13.65821,22.89843 l 0.006,0.0293 0.0156,0.0293 c 0,0 7.28947,19.25668 1.54297,33.04882 l -0.0449,0.10352 -0.0137,0.10352 c 0,0 -0.68983,4.60892 -0.77539,10.3125 -0.0851,5.67469 0.36886,12.44422 2.8789,17.07617 0.1252,0.37241 6.20385,18.57243 5.03516,39.26172 l -0.0156,0.24414 0.11719,0.2207 c 0,0 4.7596,8.88673 9.51563,18.80273 2.378,4.95799 4.75871,10.16859 6.5332,14.64454 1.77445,4.4759 2.91601,8.3082 2.91601,10.05468 v 0.0156 0.006 c 0,0 0.13166,6.73085 0.45118,13.9375 0.15987,3.60332 0.36193,7.32442 0.62695,10.39453 0.13266,1.53505 0.27865,2.90719 0.44336,4.0293 0.16479,1.1221 0.33076,1.96684 0.58984,2.59961 l -0.0312,-0.082 9.69532,31.98633 c 0.0511,0.34127 0.42585,2.50069 2.21875,4.82031 1.90851,2.46928 5.50571,5.01523 11.68554,5.7793 0,0 16.92453,8.68963 26.09571,20.35938 l 4.9375,6.41601 c 0.0189,0.10583 0.26622,1.3687 -0.20508,1.94141 -0.24567,0.2982 -0.6839,0.58401 -1.89063,0.50781 -1.20673,-0.0764 -3.10357,-0.58871 -5.85351,-1.88086 l -0.11914,-0.0527 -0.125,-0.0215 c 0,0 -0.62708,-0.0742 -1.60938,-0.73828 -0.9823,-0.66406 -2.23904,-1.89605 -3.24023,-4.25976 l -0.22852,-0.53125 -0.57617,-0.008 c 0,0 -1.4075,-0.0233 -3.07813,-0.48047 -1.67058,-0.45762 -3.50204,-1.34607 -4.42968,-2.91601 l -0.16211,-0.2793 -0.30274,-0.10351 c 0,0 -1.0507,-0.4225 -2.22851,-0.0449 -0.58893,0.1886 -1.21186,0.6183 -1.63086,1.32227 -0.41904,0.70401 -0.64258,1.64172 -0.64258,2.87891 v 0.0293 l 3.6543,46.63867 c -0.0113,0.0726 -0.33294,2.0429 -0.92383,3.18946 -0.15043,0.29178 -0.30838,0.50999 -0.42774,0.61914 -0.11943,0.10923 -0.15014,0.10585 -0.17773,0.10547 -0.0265,-7.6e-4 -0.14988,-0.0155 -0.40625,-0.24414 -0.25625,-0.22942 -0.60815,-0.66337 -1.00391,-1.33594 l -1.64648,0.56055 c 0,0 0.0962,0.7984 0.11133,1.83789 0.0151,1.03948 -0.0804,2.31734 -0.36914,3.11523 -0.14438,0.39897 -0.3279,0.6459 -0.47266,0.75195 -0.14476,0.10621 -0.25652,0.16304 -0.62695,0.0742 -0.74071,-0.17726 -2.32185,-1.2469 -4.57031,-3.91211 l -1.2754,-1.50586 -0.28906,1.95704 c 0,0 -0.38394,1.91191 -1.07812,2.67968 -0.34696,0.38389 -0.54658,0.52248 -1.14453,0.33203 -0.59645,-0.19011 -1.64436,-0.94398 -2.98829,-2.73242 -0.003,-0.004 -0.004,-0.003 -0.008,-0.008 l -4.19336,-6.08984 -0.70117,1.25586 c 0,0 -0.33017,0.53697 -0.83398,0.77539 -0.25172,0.11905 -0.51782,0.17494 -0.90821,0.0801 -0.39038,-0.0949 -0.93286,-0.37021 -1.61718,-1.05468 l -0.0137,-0.008 -0.008,-0.0156 c 0,0 -11.05352,-10.23007 -15.40625,-26.4707 l -0.0234,-0.0742 -0.0293,-0.0586 c 0,0 -2.09783,-4.70808 -3.84571,-11.08789 -1.74791,-6.37976 -3.10379,-14.41808 -1.71289,-20.88281 l 0.008,-0.0391 0.008,-0.043 c 0,0 0.30629,-2.62545 0.10937,-5.75781 -0.19226,-3.06428 -0.81134,-6.6716 -2.95703,-8.94532 l -24.45117,-49.40234 -0.008,-0.0215 c -0.0147,-0.0378 -6.91015,-17.49295 -6.91016,-31.31446 v -0.24414 l -5.29297,-8.88672 -1.1875,-14.77148 -0.082,-0.15625 c 0,0 -6.9225,-13.9463 -8.08203,-24.55078 l -0.008,-0.10352 -2.42969,-6.98437 -0.67773,3.07226 c 0,0 -4.59293,20.93615 -6.12696,28.09571 l -0.008,0.043 -0.008,0.0449 c 0,0 -2.06825,18.06041 -0.16211,30.70898 0.005,0.0575 0.58894,7.02766 1.0332,14.43164 0.22303,3.71721 0.40928,7.52815 0.46484,10.58594 0.028,1.52889 0.0179,2.87018 -0.0293,3.9043 -0.0473,1.03415 -0.18139,1.82016 -0.22852,1.9414 -0.30164,0.77639 -0.45168,1.19438 -0.53125,1.49024 -0.02,0.0741 -0.0402,0.1402 -0.0527,0.24414 -0.006,0.0518 -0.0113,0.10851 0,0.22265 0.006,0.0571 0.0518,0.23369 0.0527,0.23633 4.7e-4,10e-4 0.0873,0.16721 0.0879,0.16797 6e-4,9.5e-4 0.16921,0.19884 0.16993,0.19922 7.1e-4,6e-4 0.26479,0.15587 0.26562,0.15625 5.7e-4,1.9e-4 0.11271,0.0182 0.19922,0.0371 0.25335,1.38664 2.18615,11.94754 3.61719,21.87891 h 1.80664 c -1.6072,-11.29699 -3.90821,-23.79688 -3.90821,-23.79688 l -0.043,-0.2207 c 0.24301,-0.64003 0.29604,-1.39533 0.3457,-2.48047 0.0502,-1.0978 0.0515,-2.46428 0.0234,-4.01563 -0.0564,-3.10272 -0.241,-6.93716 -0.46485,-10.66797 -0.44771,-7.46158 -1.04101,-14.5332 -1.04101,-14.5332 l -0.008,-0.0234 v -0.0312 c -1.8374,-12.19245 0.16433,-30.16277 0.16993,-30.21289 1.37092,-6.39639 4.63391,-21.24428 5.44726,-24.95117 l 0.29688,0.85742 c 1.24224,11.04009 8.00594,24.5424 8.16211,24.85352 l 1.19726,14.875 5.31445,8.91797 c 0.1101,14.35563 6.98243,31.65234 6.98243,31.65234 l 0.0156,0.0371 24.5957,49.70313 0.10352,0.10351 c 1.65249,1.65162 2.38473,5.00235 2.57031,7.95703 0.18175,2.89377 -0.0807,5.27552 -0.0918,5.375 -1.49728,6.98097 -0.0396,15.19047 1.74414,21.70117 1.76424,6.43945 3.84126,11.10399 3.89062,11.21485 4.49201,16.76028 15.85584,27.26297 15.89258,27.29687 l 0.008,0.008 c 0.84423,0.84189 1.65541,1.32205 2.44336,1.51367 0.79075,0.19238 1.5327,0.0642 2.08985,-0.19922 0.46445,-0.21997 0.41685,-0.35901 0.67968,-0.63477 l 2.85547,4.14063 0.0156,0.0156 c 1.46018,1.94672 2.66929,2.98112 3.875,3.36524 1.2057,0.38407 2.35256,-0.11134 3.00586,-0.83399 0.84502,-0.93464 0.81231,-1.58137 0.98046,-2.33984 1.71565,1.84225 3.25433,3.35696 4.4961,3.6543 0.76263,0.18255 1.54215,0.0379 2.0957,-0.36914 0.55355,-0.40604 0.87635,-0.97887 1.09375,-1.58008 0.38177,-1.05562 0.40739,-2.23876 0.41211,-3.29102 0.37304,0.25739 0.75308,0.51969 1.18164,0.53125 0.56296,0.0151 1.06496,-0.24525 1.41797,-0.56836 0.35301,-0.32315 0.60693,-0.71278 0.81836,-1.12304 0.84578,-1.641 1.10742,-3.81641 1.10742,-3.81641 l 0.0156,-0.0957 -3.66211,-46.75782 c 0,-1.01915 0.18921,-1.62907 0.39257,-1.9707 0.20334,-0.34167 0.40754,-0.46185 0.64844,-0.53906 0.32906,-0.10557 0.64395,-0.0613 0.85547,-0.0195 1.31659,1.93528 3.45988,2.89419 5.25781,3.38672 1.66421,0.45584 2.73277,0.46135 3.07032,0.47265 1.08007,2.22255 2.39377,3.80269 3.52929,4.57031 1.24445,0.84125 2.30254,1.01528 2.31641,1.01758 1.1e-4,4e-5 0.0156,0.008 0.0156,0.008 2.69719,1.23992 4.74234,1.86754 6.25196,1.9629 1.57032,0.099 2.72666,-0.36278 3.375,-1.1504 1.29672,-1.57522 0.55273,-3.64648 0.55273,-3.64648 l -0.0527,-0.16406 -5.21094,-6.77539 c -9.55884,-12.16305 -26.68555,-20.84766 -26.68555,-20.84766 l -0.14062,-0.0723 -0.16211,-0.0156 c -6.01202,-0.65938 -9.10612,-3.02715 -10.77734,-5.18945 -1.6712,-2.16235 -1.89063,-4.07422 -1.89063,-4.07422 l -0.006,-0.082 -9.73828,-32.11914 -0.0137,-0.0371 c -0.12397,-0.3035 -0.31619,-1.11984 -0.47266,-2.18555 -0.15647,-1.06571 -0.30504,-2.41253 -0.43555,-3.92578 -0.26154,-3.02653 -0.46776,-6.73101 -0.62695,-10.32031 -0.31786,-7.17098 -0.44309,-13.86466 -0.44336,-13.87891 0,-2.424 -1.2406,-6.16168 -3.04101,-10.70312 -1.80046,-4.54141 -4.18962,-9.78381 -6.57813,-14.76368 -4.72853,-9.85867 -9.36162,-18.49765 -9.45703,-18.67578 1.13079,-21.18827 -5.14453,-39.72265 -5.14453,-39.72265 l -0.0234,-0.0742 -0.043,-0.0664 c -2.22268,-4.04844 -2.77894,-10.68676 -2.69531,-16.26172 0.0814,-5.42312 0.70764,-9.75425 0.74219,-9.99023 6.06832,-14.77809 -1.54572,-34.18298 -1.56055,-34.22071 -3.87247,-12.71062 -9.50151,-19.81209 -14.21094,-23.71093 -4.71506,-3.9035 -8.60742,-4.6211 -8.60742,-4.6211 -5.97146,-2.41206 -9.75516,-2.99308 -13.10351,-3.75781 -3.39543,-0.77547 -6.44811,-1.76671 -11.56641,-5.29101 -10.48658,-7.22075 -24.64196,-13.6904 -24.64844,-13.69336 h -0.008 c -6.234,-2.91108 -8.84847,-6.15935 -9.96484,-8.60743 -1.1168,-2.44899 -0.76758,-4.03125 -0.76758,-4.03125 l 0.0293,-0.11914 -0.0137,-0.125 c -0.22927,-3.09635 -0.12992,-6.72725 0.0859,-10.17382 z"
       style="color:#000000;font-style:normal;font-variant:normal;font-weight:normal;font-stretch:normal;font-size:medium;line-height:normal;font-family:sans-serif;font-variant-ligatures:normal;font-variant-position:normal;font-variant-caps:normal;font-variant-numeric:normal;font-variant-alternates:normal;font-feature-settings:normal;text-indent:0;text-align:start;text-decoration:none;text-decoration-line:none;text-decoration-style:solid;text-decoration-color:#000000;letter-spacing:normal;word-spacing:normal;text-transform:none;writing-mode:lr-tb;direction:ltr;text-orientation:mixed;dominant-baseline:auto;baseline-shift:baseline;text-anchor:start;white-space:normal;shape-padding:0;clip-rule:nonzero;display:inline;overflow:visible;visibility:visible;opacity:1;isolation:auto;mix-blend-mode:normal;color-interpolation:sRGB;color-interpolation-filters:linearRGB;solid-color:#000000;solid-opacity:1;vector-effect:none;fill:#9d9fa1;fill-opacity:1;fill-rule:nonzero;stroke:#9d9fa1;stroke-width:1.77839994;stroke-linecap:butt;stroke-linejoin:miter;stroke-miterlimit:4;stroke-dasharray:none;stroke-dashoffset:0;stroke-opacity:1;color-rendering:auto;image-rendering:auto;shape-rendering:auto;text-rendering:auto;enable-background:accumulate" />
    <g
       id="g7840"
       inkscape:label="Voronoi" />
    <g
       style="fill:#000000;stroke-width:0.8;stroke-miterlimit:4;stroke-dasharray:none"
       id="g1922">
      <path
         style="fill:#000000;fill-rule:evenodd;stroke:#000000;stroke-width:0.8;stroke-linecap:butt;stroke-linejoin:miter;stroke-opacity:1;stroke-miterlimit:4;stroke-dasharray:none"
         d="M 73.926796,89.283164 V 104.85161"
         id="path1842"
         inkscape:connector-curvature="0" />
      <path
         style="fill:#000000;fill-rule:evenodd;stroke:#000000;stroke-width:0.8;stroke-linecap:butt;stroke-linejoin:miter;stroke-opacity:1;stroke-miterlimit:4;stroke-dasharray:none"
         d="m 71.65205,90.59649 2.274746,-1.313326"
         id="path1846"
         inkscape:connector-curvature="0" />
      <path
         style="fill:#000000;fill-rule:evenodd;stroke:#000000;stroke-width:0.8;stroke-linecap:butt;stroke-linejoin:miter;stroke-opacity:1;stroke-miterlimit:4;stroke-dasharray:none"
         d="m 71.58671,92.144804 2.274746,-1.313326"
         id="path1846-0"
         inkscape:connector-curvature="0" />
      <path
         style="fill:#000000;fill-rule:evenodd;stroke:#000000;stroke-width:0.8;stroke-linecap:butt;stroke-linejoin:miter;stroke-opacity:1;stroke-miterlimit:4;stroke-dasharray:none"
         d="m 71.653527,93.681604 2.274746,-1.313326"
         id="path1846-5"
         inkscape:connector-curvature="0" />
      <path
         style="fill:#000000;fill-rule:evenodd;stroke:#000000;stroke-width:0.8;stroke-linecap:butt;stroke-linejoin:miter;stroke-opacity:1;stroke-miterlimit:4;stroke-dasharray:none"
         d="M 71.551824,95.212646 73.82657,93.89932"
         id="path1846-6"
         inkscape:connector-curvature="0" />
      <path
         style="fill:#000000;fill-rule:evenodd;stroke:#000000;stroke-width:0.8;stroke-linecap:butt;stroke-linejoin:miter;stroke-opacity:1;stroke-miterlimit:4;stroke-dasharray:none"
         d="M 71.486484,96.76096 73.76123,95.447634"
         id="path1846-0-7"
         inkscape:connector-curvature="0" />
      <path
         style="fill:#000000;fill-rule:evenodd;stroke:#000000;stroke-width:0.8;stroke-linecap:butt;stroke-linejoin:miter;stroke-opacity:1;stroke-miterlimit:4;stroke-dasharray:none"
         d="m 71.553301,98.29776 2.274746,-1.313326"
         id="path1846-5-7"
         inkscape:connector-curvature="0" />
      <path
         style="fill:#000000;fill-rule:evenodd;stroke:#000000;stroke-width:0.8;stroke-linecap:butt;stroke-linejoin:miter;stroke-opacity:1;stroke-miterlimit:4;stroke-dasharray:none"
         d="m 71.551823,99.889863 2.274746,-1.313326"
         id="path1846-4"
         inkscape:connector-curvature="0" />
      <path
         style="fill:#000000;fill-rule:evenodd;stroke:#000000;stroke-width:0.8;stroke-linecap:butt;stroke-linejoin:miter;stroke-opacity:1;stroke-miterlimit:4;stroke-dasharray:none"
         d="m 71.486483,101.43818 2.274746,-1.31333"
         id="path1846-0-0"
         inkscape:connector-curvature="0" />
      <path
         style="fill:#000000;fill-rule:evenodd;stroke:#000000;stroke-width:0.8;stroke-linecap:butt;stroke-linejoin:miter;stroke-opacity:1;stroke-miterlimit:4;stroke-dasharray:none"
         d="m 71.5533,102.97498 2.274746,-1.31333"
         id="path1846-5-6"
         inkscape:connector-curvature="0" />
      <path
         style="fill:#000000;fill-rule:evenodd;stroke:#000000;stroke-width:0.8;stroke-linecap:butt;stroke-linejoin:miter;stroke-opacity:1;stroke-miterlimit:4;stroke-dasharray:none"
         d="m 71.71739,104.61662 2.274746,-1.31332"
         id="path1846-47"
         inkscape:connector-curvature="0" />
      <path
         style="fill:#000000;fill-rule:evenodd;stroke:#000000;stroke-width:0.8;stroke-linecap:butt;stroke-linejoin:miter;stroke-opacity:1;stroke-miterlimit:4;stroke-dasharray:none"
         d="m 71.65205,106.16494 2.274746,-1.31333"
         id="path1846-0-4"
         inkscape:connector-curvature="0" />
    </g>
    <path
       inkscape:connector-curvature="0"
       id="path1972"
       d="m 73.963632,96.592899 h 15.308035 l 6.236608,24.473961 7.937495,25.51339 3.3073,9.16592"
       style="fill:none;fill-rule:evenodd;stroke:#000000;stroke-width:0.8;stroke-linecap:butt;stroke-linejoin:miter;stroke-opacity:1;stroke-miterlimit:4;stroke-dasharray:none" />
    <path
       inkscape:connector-curvature="0"
       id="path1932"
       d="m 76.468286,94.006779 7.612321,4.669932 v -4.838724 l -7.612321,5.063783 z"
       style="fill:#e1e1e1;fill-opacity:1;fill-rule:evenodd;stroke:#000000;stroke-width:0.80000001;stroke-linecap:butt;stroke-linejoin:miter;stroke-miterlimit:4;stroke-dasharray:none;stroke-opacity:1" />
    <path
       inkscape:connector-curvature="0"
       id="path1932-2"
       d="m 101.02458,129.98129 -2.505084,8.57207 4.668614,-1.27173 -6.886437,-6.01383 z"
       style="fill:#e1e1e1;fill-opacity:1;fill-rule:evenodd;stroke:#000000;stroke-width:0.80000001;stroke-linecap:butt;stroke-linejoin:miter;stroke-miterlimit:4;stroke-dasharray:none;stroke-opacity:1" />
    <ellipse
       ry="2.9481869"
       rx="2.8536928"
       cy="146.67474"
       cx="103.16229"
       id="path1934-8"
       style="opacity:1;fill:#e1e1e1;fill-opacity:1;fill-rule:evenodd;stroke:#252525;stroke-width:0.80000001;stroke-linecap:round;stroke-linejoin:round;stroke-miterlimit:4;stroke-dasharray:none;stroke-dashoffset:20;stroke-opacity:1;paint-order:fill markers stroke" />
    <ellipse
       ry="2.9481869"
       rx="2.8536928"
       cy="121.16136"
       cx="95.31929"
       id="path1934-5"
       style="opacity:1;fill:#e1e1e1;fill-opacity:1;fill-rule:evenodd;stroke:#252525;stroke-width:0.80000001;stroke-linecap:round;stroke-linejoin:round;stroke-miterlimit:4;stroke-dasharray:none;stroke-dashoffset:20;stroke-opacity:1;paint-order:fill markers stroke" />
    <ellipse
       ry="2.9481869"
       rx="2.8536928"
       cy="96.82914"
       cx="89.318916"
       id="path1934"
       style="opacity:1;fill:#e1e1e1;fill-opacity:1;fill-rule:evenodd;stroke:#252525;stroke-width:0.80000001;stroke-linecap:round;stroke-linejoin:round;stroke-miterlimit:4;stroke-dasharray:none;stroke-dashoffset:20;stroke-opacity:1;paint-order:fill markers stroke" />
    <g
       id="g3001"
       transform="matrix(1.603467,0,0,1.6161116,-48.754976,15.744309)"
       style="stroke-width:0.12424082;stroke-miterlimit:4;stroke-dasharray:none">
      <g
         word-spacing="normal"
         letter-spacing="normal"
         font-size-adjust="none"
         font-stretch="normal"
         font-weight="normal"
         font-variant="normal"
         font-style="normal"
         stroke-miterlimit="10.433"
         xml:space="preserve"
         transform="matrix(0.07590227,0,0,-0.07590227,-13.282897,74.04372)"
         id="g2999"
         style="font-style:normal;font-variant:normal;font-weight:normal;font-stretch:normal;letter-spacing:normal;word-spacing:normal;text-anchor:start;fill:none;fill-opacity:1;fill-rule:evenodd;stroke:#000000;stroke-width:1.6368525;stroke-linecap:butt;stroke-linejoin:miter;stroke-miterlimit:4;stroke-dasharray:none;stroke-dashoffset:0;stroke-opacity:1"><path
           id="path2995"
           d="m 1239.9,371.35 v 0.32 0.34 0.35 0.37 0.39 l -0.1,0.4 v 0.4 l -0.1,0.42 v 0.42 l -0.1,0.42 -0.1,0.42 -0.1,0.43 -0.1,0.42 -0.1,0.42 -0.2,0.42 -0.1,0.4 -0.2,0.4 -0.2,0.38 -0.2,0.38 -0.2,0.35 -0.2,0.34 -0.3,0.32 -0.3,0.3 -0.3,0.27 -0.3,0.25 -0.1,0.12 -0.2,0.11 -0.2,0.1 -0.1,0.09 -0.2,0.08 -0.2,0.08 -0.2,0.07 -0.2,0.06 -0.2,0.05 -0.2,0.05 -0.2,0.03 -0.3,0.03 -0.2,0.01 -0.2,0.01 -0.1,-1.1 c 2.5,0 2.8,-3.18 2.8,-6.03 0,-2.44 -0.4,-4.98 -1.6,-9.92 h -10.4 c 0.8,3.2 1.8,7.19 3.8,10.72 1.3,2.44 3.2,5.23 5.4,5.23 l 0.1,1.1 c -6.9,0 -14.6,-14.05 -14.6,-25.46 0,-4.68 1.4,-10.22 6,-10.22 v 1.1 c -1.7,0 -2.7,1.45 -2.7,6.08 0,2.09 0.2,4.98 1.5,9.86 h 10.4 c -0.5,-2.29 -1.6,-6.52 -3.5,-10.11 -1.7,-3.39 -3.6,-5.83 -5.7,-5.83 v -1.1 c 7,0 14.5,14.3 14.5,25.46 z"
           inkscape:connector-curvature="0"
           style="fill:#000000;stroke-width:1.6368525;stroke-miterlimit:4;stroke-dasharray:none" /><path
           id="path2997"
           d="m 1252.3,361.04 v 0.04 0.04 0.04 0.04 0.04 0.04 0.04 0.03 0.03 0.04 0.03 0.03 0.03 0.03 0.02 0.03 0.03 0.02 0.05 0.04 0.04 0.03 l -0.1,0.03 v 0.03 0.02 0.03 l -0.1,0.02 v 0.01 0.02 l -0.1,0.01 v 0.01 0.01 h -0.1 v 0.01 0 0 l -0.1,0.01 v 0 0 h -0.1 v 0 0.01 h -0.1 v 0 0 h -0.1 v 0 h -0.1 v 0 h -0.1 v 0 c -2.2,-2.2 -5.4,-2.23 -6.8,-2.23 v -1.25 c 0.8,0 3.1,0 5,0.96 v -17.76 c 0,-1.16 0,-1.61 -3.5,-1.61 h -1.3 v -1.25 c 0.6,0.03 4.9,0.14 6.2,0.14 1.1,0 5.5,-0.11 6.3,-0.14 v 1.25 h -1.4 c -3.5,0 -3.5,0.45 -3.5,1.61 z"
           inkscape:connector-curvature="0"
           style="fill:#000000;stroke-width:1.6368525;stroke-miterlimit:4;stroke-dasharray:none" /></g>    </g>
    <g
       id="g935"
       transform="matrix(1.603467,0,0,1.6161116,-35.88974,16.90706)"
       style="stroke-width:0.12424082;stroke-miterlimit:4;stroke-dasharray:none">
      <g
         id="content"
         transform="matrix(0.07590227,0,0,-0.07590227,-13.282897,74.04372)"
         xml:space="preserve"
         stroke-miterlimit="10.433"
         font-style="normal"
         font-variant="normal"
         font-weight="normal"
         font-stretch="normal"
         font-size-adjust="none"
         letter-spacing="normal"
         word-spacing="normal"
         style="font-style:normal;font-variant:normal;font-weight:normal;font-stretch:normal;letter-spacing:normal;word-spacing:normal;text-anchor:start;fill:none;fill-opacity:1;fill-rule:evenodd;stroke:#000000;stroke-width:1.6368525;stroke-linecap:butt;stroke-linejoin:miter;stroke-miterlimit:4;stroke-dasharray:none;stroke-dashoffset:0;stroke-opacity:1"><path
           d="m 1239.9,371.35 v 0.32 0.34 0.35 0.37 0.39 l -0.1,0.4 v 0.4 l -0.1,0.42 v 0.42 l -0.1,0.42 -0.1,0.42 -0.1,0.43 -0.1,0.42 -0.1,0.42 -0.2,0.42 -0.1,0.4 -0.2,0.4 -0.2,0.38 -0.2,0.38 -0.2,0.35 -0.2,0.34 -0.3,0.32 -0.3,0.3 -0.3,0.27 -0.3,0.25 -0.1,0.12 -0.2,0.11 -0.2,0.1 -0.1,0.09 -0.2,0.08 -0.2,0.08 -0.2,0.07 -0.2,0.06 -0.2,0.05 -0.2,0.05 -0.2,0.03 -0.3,0.03 -0.2,0.01 -0.2,0.01 -0.1,-1.1 c 2.5,0 2.8,-3.18 2.8,-6.03 0,-2.44 -0.4,-4.98 -1.6,-9.92 h -10.4 c 0.8,3.2 1.8,7.19 3.8,10.72 1.3,2.44 3.2,5.23 5.4,5.23 l 0.1,1.1 c -6.9,0 -14.6,-14.05 -14.6,-25.46 0,-4.68 1.4,-10.22 6,-10.22 v 1.1 c -1.7,0 -2.7,1.45 -2.7,6.08 0,2.09 0.2,4.98 1.5,9.86 h 10.4 c -0.5,-2.29 -1.6,-6.52 -3.5,-10.11 -1.7,-3.39 -3.6,-5.83 -5.7,-5.83 v -1.1 c 7,0 14.5,14.3 14.5,25.46 z"
           id="path930"
           inkscape:connector-curvature="0"
           style="fill:#000000;stroke-width:1.6368525;stroke-miterlimit:4;stroke-dasharray:none" /><path
           d="m 1258.3,345.22 h -1.2 c -0.1,-0.76 -0.5,-2.83 -0.9,-3.17 -0.3,-0.2 -3,-0.2 -3.5,-0.2 h -6.4 c 3.7,3.23 4.9,4.2 7,5.84 2.6,2.06 5,4.22 5,7.53 0,4.22 -3.7,6.8 -8.2,6.8 -4.3,0 -7.2,-3.03 -7.2,-6.23 0,-1.79 1.5,-1.96 1.8,-1.96 0.9,0 1.9,0.6 1.9,1.85 0,0.62 -0.3,1.84 -2.1,1.84 1.1,2.47 3.5,3.23 5.1,3.23 3.5,0 5.3,-2.7 5.3,-5.53 0,-3.03 -2.2,-5.43 -3.3,-6.68 l -8.4,-8.3 c -0.3,-0.31 -0.3,-0.39 -0.3,-1.36 h 14.3 z"
           id="path932"
           inkscape:connector-curvature="0"
           style="fill:#000000;stroke-width:1.6368525;stroke-miterlimit:4;stroke-dasharray:none" /></g>    </g>
    <g
       id="g1035"
       transform="matrix(1.603467,0,0,1.6161116,-27.022512,42.560112)"
       style="stroke-width:0.12424082;stroke-miterlimit:4;stroke-dasharray:none">
      <g
         word-spacing="normal"
         letter-spacing="normal"
         font-size-adjust="none"
         font-stretch="normal"
         font-weight="normal"
         font-variant="normal"
         font-style="normal"
         stroke-miterlimit="10.433"
         xml:space="preserve"
         transform="matrix(0.07590227,0,0,-0.07590227,-13.282897,74.04372)"
         id="g1033"
         style="font-style:normal;font-variant:normal;font-weight:normal;font-stretch:normal;letter-spacing:normal;word-spacing:normal;text-anchor:start;fill:none;fill-opacity:1;fill-rule:evenodd;stroke:#000000;stroke-width:1.6368525;stroke-linecap:butt;stroke-linejoin:miter;stroke-miterlimit:4;stroke-dasharray:none;stroke-dashoffset:0;stroke-opacity:1"><path
           id="path1029"
           d="m 1239.9,371.35 v 0.32 0.34 0.35 0.37 0.39 l -0.1,0.4 v 0.4 l -0.1,0.42 v 0.42 l -0.1,0.42 -0.1,0.42 -0.1,0.43 -0.1,0.42 -0.1,0.42 -0.2,0.42 -0.1,0.4 -0.2,0.4 -0.2,0.38 -0.2,0.38 -0.2,0.35 -0.2,0.34 -0.3,0.32 -0.3,0.3 -0.3,0.27 -0.3,0.25 -0.1,0.12 -0.2,0.11 -0.2,0.1 -0.1,0.09 -0.2,0.08 -0.2,0.08 -0.2,0.07 -0.2,0.06 -0.2,0.05 -0.2,0.05 -0.2,0.03 -0.3,0.03 -0.2,0.01 -0.2,0.01 -0.1,-1.1 c 2.5,0 2.8,-3.18 2.8,-6.03 0,-2.44 -0.4,-4.98 -1.6,-9.92 h -10.4 c 0.8,3.2 1.8,7.19 3.8,10.72 1.3,2.44 3.2,5.23 5.4,5.23 l 0.1,1.1 c -6.9,0 -14.6,-14.05 -14.6,-25.46 0,-4.68 1.4,-10.22 6,-10.22 v 1.1 c -1.7,0 -2.7,1.45 -2.7,6.08 0,2.09 0.2,4.98 1.5,9.86 h 10.4 c -0.5,-2.29 -1.6,-6.52 -3.5,-10.11 -1.7,-3.39 -3.6,-5.83 -5.7,-5.83 v -1.1 c 7,0 14.5,14.3 14.5,25.46 z"
           inkscape:connector-curvature="0"
           style="fill:#000000;stroke-width:1.6368525;stroke-miterlimit:4;stroke-dasharray:none" /><path
           id="path1031"
           d="m 1250.2,350.52 0.3,-0.01 0.2,-0.01 0.2,-0.03 0.3,-0.04 0.2,-0.05 0.2,-0.06 0.3,-0.07 0.2,-0.08 0.2,-0.1 0.2,-0.1 0.2,-0.12 0.2,-0.12 0.2,-0.14 0.1,-0.15 0.2,-0.16 0.2,-0.17 0.1,-0.18 0.1,-0.19 0.2,-0.21 0.1,-0.21 0.1,-0.23 0.1,-0.23 0.1,-0.25 0.1,-0.25 0.1,-0.27 0.1,-0.28 v -0.29 l 0.1,-0.3 v -0.31 -0.32 l 0.1,-0.34 v -0.34 c 0,-4.33 -2.6,-5.61 -4.6,-5.61 -1.4,0 -4.4,0.38 -5.9,2.44 1.6,0.06 2,1.22 2,1.95 0,1.11 -0.8,1.91 -1.9,1.91 -1,0 -1.9,-0.6 -1.9,-2.02 0,-3.28 3.6,-5.4 7.8,-5.4 4.8,0 8.2,3.25 8.2,6.73 0,2.72 -2.2,5.44 -6.1,6.23 3.7,1.33 5,3.94 5,6.07 0,2.75 -3.2,4.81 -7,4.81 -3.9,0 -6.8,-1.89 -6.8,-4.67 0,-1.19 0.7,-1.85 1.8,-1.85 1,0 1.7,0.8 1.7,1.77 0,1.02 -0.7,1.75 -1.7,1.81 1.2,1.55 3.6,1.92 4.9,1.92 1.5,0 3.7,-0.76 3.7,-3.79 0,-1.47 -0.4,-3.07 -1.4,-4.14 -1.1,-1.33 -2.1,-1.41 -3.8,-1.5 -0.9,-0.08 -1,-0.08 -1.1,-0.11 -0.1,0 -0.4,-0.07 -0.4,-0.46 0,-0.48 0.3,-0.48 0.9,-0.48 z"
           inkscape:connector-curvature="0"
           style="fill:#000000;stroke-width:1.6368525;stroke-miterlimit:4;stroke-dasharray:none" /></g>    </g>
    <g
       id="g1143"
       transform="matrix(1.603467,0,0,1.6161116,-22.242096,57.375241)"
       style="stroke-width:0.12424082;stroke-miterlimit:4;stroke-dasharray:none">
      <g
         id="g1141"
         transform="matrix(0.07590227,0,0,-0.07590227,-13.282897,74.04372)"
         xml:space="preserve"
         stroke-miterlimit="10.433"
         font-style="normal"
         font-variant="normal"
         font-weight="normal"
         font-stretch="normal"
         font-size-adjust="none"
         letter-spacing="normal"
         word-spacing="normal"
         style="font-style:normal;font-variant:normal;font-weight:normal;font-stretch:normal;letter-spacing:normal;word-spacing:normal;text-anchor:start;fill:none;fill-opacity:1;fill-rule:evenodd;stroke:#000000;stroke-width:1.6368525;stroke-linecap:butt;stroke-linejoin:miter;stroke-miterlimit:4;stroke-dasharray:none;stroke-dashoffset:0;stroke-opacity:1"><path
           d="m 1239.9,371.35 v 0.32 0.34 0.35 0.37 0.39 l -0.1,0.4 v 0.4 l -0.1,0.42 v 0.42 l -0.1,0.42 -0.1,0.42 -0.1,0.43 -0.1,0.42 -0.1,0.42 -0.2,0.42 -0.1,0.4 -0.2,0.4 -0.2,0.38 -0.2,0.38 -0.2,0.35 -0.2,0.34 -0.3,0.32 -0.3,0.3 -0.3,0.27 -0.3,0.25 -0.1,0.12 -0.2,0.11 -0.2,0.1 -0.1,0.09 -0.2,0.08 -0.2,0.08 -0.2,0.07 -0.2,0.06 -0.2,0.05 -0.2,0.05 -0.2,0.03 -0.3,0.03 -0.2,0.01 -0.2,0.01 -0.1,-1.1 c 2.5,0 2.8,-3.18 2.8,-6.03 0,-2.44 -0.4,-4.98 -1.6,-9.92 h -10.4 c 0.8,3.2 1.8,7.19 3.8,10.72 1.3,2.44 3.2,5.23 5.4,5.23 l 0.1,1.1 c -6.9,0 -14.6,-14.05 -14.6,-25.46 0,-4.68 1.4,-10.22 6,-10.22 v 1.1 c -1.7,0 -2.7,1.45 -2.7,6.08 0,2.09 0.2,4.98 1.5,9.86 h 10.4 c -0.5,-2.29 -1.6,-6.52 -3.5,-10.11 -1.7,-3.39 -3.6,-5.83 -5.7,-5.83 v -1.1 c 7,0 14.5,14.3 14.5,25.46 z"
           id="path1137"
           inkscape:connector-curvature="0"
           style="fill:#000000;stroke-width:1.6368525;stroke-miterlimit:4;stroke-dasharray:none" /><path
           d="m 1259.1,344.6 v 1.25 h -3.9 v 15.54 c 0,0.72 0,0.97 -0.7,0.97 -0.4,0 -0.6,0 -0.9,-0.48 L 1242,345.85 v -1.25 h 10.3 l 0.2,1.25 h -9.2 l 9.2,12.75 v -12.75 l -0.2,-1.25 v -2.86 c 0,-1.19 0,-1.61 -2.8,-1.61 h -1 v -1.25 c 1.8,0.06 4,0.14 5.2,0.14 1.3,0 3.6,-0.08 5.3,-0.14 v 1.25 h -0.9 c -2.9,0 -2.9,0.42 -2.9,1.61 v 2.86 z"
           id="path1139"
           inkscape:connector-curvature="0"
           style="fill:#000000;stroke-width:1.6368525;stroke-miterlimit:4;stroke-dasharray:none" /></g>    </g>
    <g
       id="g1259"
       transform="matrix(1.603467,0,0,1.6161116,-19.374399,68.878749)"
       style="stroke-width:0.12424082;stroke-miterlimit:4;stroke-dasharray:none">
      <g
         word-spacing="normal"
         letter-spacing="normal"
         font-size-adjust="none"
         font-stretch="normal"
         font-weight="normal"
         font-variant="normal"
         font-style="normal"
         stroke-miterlimit="10.433"
         xml:space="preserve"
         transform="matrix(0.07590227,0,0,-0.07590227,-13.282897,74.04372)"
         id="g1257"
         style="font-style:normal;font-variant:normal;font-weight:normal;font-stretch:normal;letter-spacing:normal;word-spacing:normal;text-anchor:start;fill:none;fill-opacity:1;fill-rule:evenodd;stroke:#000000;stroke-width:1.6368525;stroke-linecap:butt;stroke-linejoin:miter;stroke-miterlimit:4;stroke-dasharray:none;stroke-dashoffset:0;stroke-opacity:1"><path
           id="path1253"
           d="m 1239.9,371.35 v 0.32 0.34 0.35 0.37 0.39 l -0.1,0.4 v 0.4 l -0.1,0.42 v 0.42 l -0.1,0.42 -0.1,0.42 -0.1,0.43 -0.1,0.42 -0.1,0.42 -0.2,0.42 -0.1,0.4 -0.2,0.4 -0.2,0.38 -0.2,0.38 -0.2,0.35 -0.2,0.34 -0.3,0.32 -0.3,0.3 -0.3,0.27 -0.3,0.25 -0.1,0.12 -0.2,0.11 -0.2,0.1 -0.1,0.09 -0.2,0.08 -0.2,0.08 -0.2,0.07 -0.2,0.06 -0.2,0.05 -0.2,0.05 -0.2,0.03 -0.3,0.03 -0.2,0.01 -0.2,0.01 -0.1,-1.1 c 2.5,0 2.8,-3.18 2.8,-6.03 0,-2.44 -0.4,-4.98 -1.6,-9.92 h -10.4 c 0.8,3.2 1.8,7.19 3.8,10.72 1.3,2.44 3.2,5.23 5.4,5.23 l 0.1,1.1 c -6.9,0 -14.6,-14.05 -14.6,-25.46 0,-4.68 1.4,-10.22 6,-10.22 v 1.1 c -1.7,0 -2.7,1.45 -2.7,6.08 0,2.09 0.2,4.98 1.5,9.86 h 10.4 c -0.5,-2.29 -1.6,-6.52 -3.5,-10.11 -1.7,-3.39 -3.6,-5.83 -5.7,-5.83 v -1.1 c 7,0 14.5,14.3 14.5,25.46 z"
           inkscape:connector-curvature="0"
           style="fill:#000000;stroke-width:1.6368525;stroke-miterlimit:4;stroke-dasharray:none" /><path
           id="path1255"
           d="m 1246.1,358.32 0.2,-0.05 0.1,-0.03 0.2,-0.04 0.1,-0.03 0.2,-0.03 0.1,-0.03 0.1,-0.03 0.2,-0.03 0.1,-0.02 0.1,-0.02 0.2,-0.02 0.1,-0.02 0.1,-0.01 0.1,-0.02 0.1,-0.01 0.1,-0.01 0.1,-0.01 0.1,-0.01 0.1,-0.01 h 0.1 l 0.1,-0.01 h 0.1 l 0.1,-0.01 v 0 h 0.1 0.1 l 0.1,-0.01 v 0 h 0.1 v 0 h 0.1 0.1 c 4.6,0 7.3,3.14 7.3,3.68 0,0.37 -0.3,0.48 -0.4,0.48 -0.1,0 -0.2,0 -0.3,-0.11 -0.9,-0.31 -2.7,-1.02 -5.3,-1.02 -1,0 -2.8,0.08 -5.1,0.96 -0.3,0.17 -0.4,0.17 -0.4,0.17 -0.5,0 -0.5,-0.39 -0.5,-0.94 V 350.8 c 0,-0.59 0,-1.01 0.6,-1.01 0.3,0 0.3,0.06 0.7,0.48 1.5,1.92 3.6,2.2 4.8,2.2 2.1,0 3.1,-1.67 3.2,-1.95 0.7,-1.16 0.9,-2.47 0.9,-4.5 0,-1.05 0,-3.09 -1.1,-4.63 -0.8,-1.26 -2.3,-2.09 -4.1,-2.09 -2.2,0 -4.6,1.25 -5.4,3.55 1.3,-0.1 1.9,0.76 1.9,1.7 0,1.5 -1.2,1.78 -1.7,1.78 0,0 -1.7,0 -1.7,-1.87 0,-3.14 2.8,-6.28 7,-6.28 4.5,0 8.4,3.31 8.4,7.7 0,3.94 -3,7.56 -7.3,7.56 -1.6,0 -3.4,-0.37 -4.9,-1.7 z"
           inkscape:connector-curvature="0"
           style="fill:#000000;stroke-width:1.6368525;stroke-miterlimit:4;stroke-dasharray:none" /></g>    </g>
  </g>
</svg>
