<?xml version="1.0" encoding="UTF-8" standalone="no"?>
<svg width="297.638px" height="419.527px" viewBox="0 0 297.638 419.527"
 xmlns="http://www.w3.org/2000/svg" xmlns:xlink="http://www.w3.org/1999/xlink" version="1.2" baseProfile="tiny">
<title>Title</title>
<desc>Generated by MuseScore 2.1.0</desc>
<polyline class="StaffLines" fill="none" stroke="#000000" stroke-width="0.40" stroke-linejoin="bevel" points="28.3465,63.3487 269.292,63.3487"/>
<polyline class="StaffLines" fill="none" stroke="#000000" stroke-width="0.40" stroke-linejoin="bevel" points="28.3465,68.349 269.292,68.349"/>
<polyline class="StaffLines" fill="none" stroke="#000000" stroke-width="0.40" stroke-linejoin="bevel" points="28.3465,73.3493 269.292,73.3493"/>
<polyline class="StaffLines" fill="none" stroke="#000000" stroke-width="0.40" stroke-linejoin="bevel" points="28.3465,78.3496 269.292,78.3496"/>
<polyline class="StaffLines" fill="none" stroke="#000000" stroke-width="0.40" stroke-linejoin="bevel" points="28.3465,83.3499 269.292,83.3499"/>
<path class="SlurSegment" stroke="#000000" stroke-width="0.35" stroke-linecap="round" stroke-linejoin="round" fill-rule="evenodd" d="M69.7365,66.2214 C80.2666,54.0556 122.653,50.1155 140.381,59.6545 C122.727,50.9121 80.3406,54.8522 69.7365,66.2214"/>
<polyline class="BarLine" stroke="#000000" stroke-width="0.80" stroke-linejoin="bevel" points="264.391,63.3487 264.391,83.3499"/>
<polyline class="BarLine" stroke="#000000" stroke-width="2.50" stroke-linejoin="bevel" points="268.041,63.3487 268.041,83.3499"/>
<polyline class="BarLine" stroke="#000000" stroke-width="0.80" stroke-linejoin="bevel" points="160.983,63.3487 160.983,83.3499"/>
<polyline class="Stem" stroke="#000000" stroke-width="0.65" stroke-linecap="round" stroke-linejoin="bevel" points="243.414,79.9106 243.414,63.3487"/>
<polyline class="Stem" stroke="#000000" stroke-width="0.65" stroke-linecap="round" stroke-linejoin="bevel" points="189.28,72.6919 189.28,61.0985"/>
<polyline class="Stem" stroke="#000000" stroke-width="0.65" stroke-linecap="round" stroke-linejoin="bevel" points="200.477,77.4105 200.477,61.4735"/>
<polyline class="Stem" stroke="#000000" stroke-width="0.65" stroke-linecap="round" stroke-linejoin="bevel" points="173.642,74.9103 173.642,59.5984"/>
<polyline class="Stem" stroke="#000000" stroke-width="0.65" stroke-linecap="round" stroke-linejoin="bevel" points="136.821,77.4105 136.821,63.3487"/>
<polyline class="Stem" stroke="#000000" stroke-width="0.65" stroke-linecap="round" stroke-linejoin="bevel" points="121.434,77.4105 121.434,63.3487"/>
<polyline class="Stem" stroke="#000000" stroke-width="0.65" stroke-linecap="round" stroke-linejoin="bevel" points="85.6173,75.1921 85.6173,63.5987"/>
<polyline class="Stem" stroke="#000000" stroke-width="0.65" stroke-linecap="round" stroke-linejoin="bevel" points="90.881,84.289 90.881,98.3509"/>
<polyline class="Stem" stroke="#000000" stroke-width="0.65" stroke-linecap="round" stroke-linejoin="bevel" points="66.2613,79.2887 66.2613,94.6006"/>
<path class="Note" d="M241.546,78.0998 C242.171,78.0998 242.703,78.2612 243.14,78.5841 C243.536,78.9383 243.734,79.381 243.734,79.9123 C243.734,80.8081 243.276,81.6466 242.359,82.4279 C241.421,83.2091 240.416,83.5998 239.343,83.5998 C238.718,83.5998 238.192,83.4383 237.765,83.1154 C237.359,82.7612 237.156,82.3185 237.156,81.7873 C237.156,80.8914 237.624,80.0529 238.562,79.2716 C239.479,78.4904 240.473,78.0998 241.546,78.0998"/>
<path class="Note" transform="matrix(0.700044,0,0,0.700044,184.997,73.3493)" d="M4.39063,-2.75 C5.01563,-2.75 5.54688,-2.58854 5.98438,-2.26563 C6.38021,-1.91146 6.57813,-1.46875 6.57813,-0.9375 C6.57813,-0.0416667 6.11979,0.796875 5.20313,1.57813 C4.26563,2.35938 3.26042,2.75 2.1875,2.75 C1.5625,2.75 1.03646,2.58854 0.609375,2.26563 C0.203125,1.91146 0,1.46875 0,0.9375 C0,0.0416667 0.46875,-0.796875 1.40625,-1.57813 C2.32292,-2.35938 3.31771,-2.75 4.39063,-2.75"/>
<path class="Note" d="M198.61,75.5996 C199.235,75.5996 199.766,75.7611 200.203,76.084 C200.599,76.4381 200.797,76.8808 200.797,77.4121 C200.797,78.3079 200.339,79.1465 199.422,79.9277 C198.485,80.709 197.479,81.0996 196.406,81.0996 C195.781,81.0996 195.255,80.9381 194.828,80.6152 C194.422,80.2611 194.219,79.8183 194.219,79.2871 C194.219,78.3913 194.688,77.5527 195.625,76.7715 C196.542,75.9902 197.537,75.5996 198.61,75.5996"/>
<path class="Note" d="M171.774,73.0994 C172.399,73.0994 172.93,73.2609 173.368,73.5838 C173.764,73.938 173.962,74.3807 173.962,74.9119 C173.962,75.8078 173.503,76.6463 172.587,77.4276 C171.649,78.2088 170.644,78.5994 169.571,78.5994 C168.946,78.5994 168.42,78.438 167.993,78.1151 C167.587,77.7609 167.383,77.3182 167.383,76.7869 C167.383,75.8911 167.852,75.0526 168.79,74.2713 C169.706,73.4901 170.701,73.0994 171.774,73.0994"/>
<path class="Note" d="M134.953,75.5996 C135.578,75.5996 136.11,75.7611 136.547,76.084 C136.943,76.4381 137.141,76.8808 137.141,77.4121 C137.141,78.3079 136.683,79.1465 135.766,79.9277 C134.828,80.709 133.823,81.0996 132.75,81.0996 C132.125,81.0996 131.599,80.9381 131.172,80.6152 C130.766,80.2611 130.563,79.8183 130.563,79.2871 C130.563,78.3913 131.032,77.5527 131.969,76.7715 C132.886,75.9902 133.881,75.5996 134.953,75.5996"/>
<path class="Note" d="M119.566,75.5996 C120.191,75.5996 120.722,75.7611 121.16,76.084 C121.556,76.4381 121.754,76.8808 121.754,77.4121 C121.754,78.3079 121.295,79.1465 120.379,79.9277 C119.441,80.709 118.436,81.0996 117.363,81.0996 C116.738,81.0996 116.212,80.9381 115.785,80.6152 C115.379,80.2611 115.176,79.8183 115.176,79.2871 C115.176,78.3913 115.644,77.5527 116.582,76.7715 C117.498,75.9902 118.493,75.5996 119.566,75.5996"/>
<path class="Note" transform="matrix(0.700044,0,0,0.700044,81.3341,75.8494)" d="M4.39063,-2.75 C5.01563,-2.75 5.54688,-2.58854 5.98438,-2.26563 C6.38021,-1.91146 6.57813,-1.46875 6.57813,-0.9375 C6.57813,-0.0416667 6.11979,0.796875 5.20313,1.57813 C4.26563,2.35938 3.26042,2.75 2.1875,2.75 C1.5625,2.75 1.03646,2.58854 0.609375,2.26563 C0.203125,1.91146 0,1.46875 0,0.9375 C0,0.0416667 0.46875,-0.796875 1.40625,-1.57813 C2.32292,-2.35938 3.31771,-2.75 4.39063,-2.75"/>
<path class="Note" d="M94.9466,80.5999 C95.5716,80.5999 96.1028,80.7614 96.5403,81.0843 C96.9361,81.4385 97.1341,81.8812 97.1341,82.4124 C97.1341,83.3082 96.6757,84.1468 95.7591,84.928 C94.8216,85.7093 93.8164,86.0999 92.7434,86.0999 C92.1184,86.0999 91.5924,85.9385 91.1653,85.6155 C90.7591,85.2614 90.5559,84.8187 90.5559,84.2874 C90.5559,83.3916 91.0247,82.553 91.9622,81.7718 C92.8789,80.9905 93.8736,80.5999 94.9466,80.5999"/>
<path class="Note" d="M70.3269,75.5996 C70.9519,75.5996 71.4832,75.7611 71.9207,76.084 C72.3165,76.4381 72.5144,76.8808 72.5144,77.4121 C72.5144,78.3079 72.0561,79.1465 71.1394,79.9277 C70.2019,80.709 69.1967,81.0996 68.1238,81.0996 C67.4988,81.0996 66.9728,80.9381 66.5457,80.6152 C66.1394,80.2611 65.9363,79.8183 65.9363,79.2871 C65.9363,78.3913 66.4051,77.5527 67.3426,76.7715 C68.2592,75.9902 69.254,75.5996 70.3269,75.5996"/>
<path class="Clef" d="M38.8904,73.2246 C38.8904,73.2246 38.9321,73.2246 39.0154,73.2246 C39.0675,73.2142 39.1092,73.209 39.1404,73.209 C40.5987,73.209 41.7967,73.7246 42.7342,74.7558 C43.6717,75.7663 44.1404,76.9486 44.1404,78.3027 C44.1404,79.9902 43.4477,81.36 42.0623,82.4121 C41.6977,82.7038 41.2185,82.9381 40.6248,83.1152 C40.6977,83.959 40.7342,84.6413 40.7342,85.1621 C40.7342,85.2663 40.7185,85.6465 40.6873,86.3027 C40.6352,87.5111 40.2185,88.5579 39.4373,89.4433 C38.6873,90.3183 37.7498,90.7558 36.6248,90.7558 C35.5727,90.7558 34.6769,90.3861 33.9373,89.6465 C33.1873,88.8861 32.8123,87.9746 32.8123,86.9121 C32.8123,86.3496 33.031,85.8704 33.4685,85.4746 C33.906,85.0892 34.4164,84.8965 34.9998,84.8965 C35.5206,84.8965 35.9581,85.0996 36.3123,85.5058 C36.6769,85.8808 36.8592,86.3496 36.8592,86.9121 C36.8592,87.4121 36.6769,87.8444 36.3123,88.209 C35.9477,88.5736 35.5102,88.7558 34.9998,88.7558 C34.7914,88.7558 34.5935,88.7194 34.406,88.6465 C34.9789,89.4902 35.7394,89.9121 36.6873,89.9121 C37.5831,89.9121 38.3175,89.5475 38.8904,88.8183 C39.4946,88.0683 39.8227,87.1881 39.8748,86.1777 C39.8956,85.5527 39.906,85.1986 39.906,85.1152 C39.906,84.3861 39.88,83.7871 39.8279,83.3183 C39.1821,83.4225 38.6039,83.4746 38.0935,83.4746 C36.281,83.4746 34.7394,82.7558 33.4685,81.3183 C32.2185,79.8704 31.5935,78.1517 31.5935,76.1621 C31.5935,75.7454 31.63,75.3236 31.7029,74.8965 C31.7862,74.5423 31.8852,74.1569 31.9998,73.7402 C32.0623,73.5006 32.2394,73.1204 32.531,72.5996 C32.6352,72.4433 32.7524,72.248 32.8826,72.0137 C33.0128,71.7793 33.1039,71.6256 33.156,71.5527 C33.281,71.2923 33.531,70.9381 33.906,70.4902 C34.0102,70.3756 34.1196,70.248 34.2342,70.1074 C34.3487,69.9668 34.4451,69.8496 34.5232,69.7558 C34.6013,69.6621 34.6586,69.5892 34.6951,69.5371 C34.7315,69.485 35.0258,69.1413 35.5779,68.5058 C35.7029,68.3704 35.8279,68.2298 35.9529,68.084 C36.0779,67.9381 36.1795,67.821 36.2576,67.7324 C36.3357,67.6439 36.3956,67.584 36.4373,67.5527 C35.9685,66.0006 35.6717,64.7611 35.5467,63.834 C35.4633,63.0944 35.4217,62.0788 35.4217,60.7871 C35.4217,59.6517 35.6821,58.5892 36.2029,57.5996 C36.7029,56.5788 37.4112,55.7402 38.3279,55.084 C38.3904,55.0423 38.4529,55.0215 38.5154,55.0215 C38.6092,55.0215 38.6769,55.0423 38.7185,55.084 C39.4164,55.9277 40.0206,57.0267 40.531,58.3808 C41.0519,59.735 41.3123,60.9694 41.3123,62.084 C41.3123,63.334 41.0154,64.5058 40.4217,65.5996 C39.7446,66.7558 38.8696,67.9538 37.7967,69.1933 C38.0675,70.0475 38.4321,71.3913 38.8904,73.2246 M40.5467,82.3183 C41.2237,82.0683 41.755,81.6465 42.1404,81.0527 C42.5571,80.4798 42.7654,79.834 42.7654,79.1152 C42.7654,78.1881 42.4529,77.3652 41.8279,76.6465 C41.1821,75.9069 40.3644,75.4902 39.3748,75.3965 C39.9373,78.1465 40.3279,80.4538 40.5467,82.3183 M32.9998,77.8027 C32.9998,79.0944 33.5206,80.2298 34.5623,81.209 C35.6248,82.1569 36.8227,82.6308 38.156,82.6308 C38.6977,82.6308 39.2289,82.5892 39.7498,82.5058 C39.5414,80.5267 39.13,78.1569 38.5154,75.3965 C37.7758,75.4798 37.1873,75.7402 36.7498,76.1777 C36.3123,76.6361 36.0935,77.1517 36.0935,77.7246 C36.0935,78.7142 36.6248,79.5163 37.6873,80.1308 C37.7706,80.2246 37.8123,80.3236 37.8123,80.4277 C37.8123,80.5319 37.7706,80.6256 37.6873,80.709 C37.6039,80.8027 37.505,80.8496 37.3904,80.8496 C37.38,80.8496 37.3227,80.8392 37.2185,80.8183 C36.4685,80.4121 35.8956,79.8913 35.4998,79.2558 C35.1144,78.5683 34.9217,77.8808 34.9217,77.1933 C34.9217,76.2975 35.2029,75.485 35.7654,74.7558 C36.3487,74.0267 37.1092,73.5579 38.0467,73.3496 C37.6821,71.8913 37.3852,70.7506 37.156,69.9277 C36.9477,70.1673 36.6977,70.4512 36.406,70.7793 C36.1144,71.1074 35.9425,71.3079 35.8904,71.3808 C35.4217,71.985 35.0623,72.459 34.8123,72.8027 C34.3644,73.4173 34.0362,73.9433 33.8279,74.3808 C33.6092,74.8808 33.4164,75.4225 33.2498,76.0058 C33.0831,76.5683 32.9998,77.1673 32.9998,77.8027 M39.5154,57.9433 C38.5362,58.4225 37.7706,59.11 37.2185,60.0058 C36.6456,60.9329 36.3592,61.9277 36.3592,62.9902 C36.3592,63.9277 36.5935,65.1933 37.0623,66.7871 C37.9998,65.6517 38.7029,64.6048 39.1717,63.6465 C39.6612,62.6256 39.906,61.5631 39.906,60.459 C39.906,59.6256 39.7758,58.7871 39.5154,57.9433"/>
<path class="TimeSig" d="M54.1072,73.349 C53.7113,73.349 53.3572,73.2787 53.0447,73.138 C52.7322,72.9974 52.5134,72.849 52.3884,72.6927 C52.2113,72.4948 52.0395,72.3438 51.8728,72.2396 C51.6645,72.0938 51.4509,72.0208 51.2322,72.0208 C50.8884,72.0208 50.6072,72.125 50.3884,72.3333 C50.1592,72.5313 50.029,72.7969 49.9978,73.1302 C49.977,73.2761 49.8988,73.349 49.7634,73.349 C49.6072,73.349 49.529,73.2761 49.529,73.1302 C49.529,72.6302 49.6488,72.1771 49.8884,71.7708 C50.1176,71.3542 50.404,71.0104 50.7478,70.7396 C51.029,70.4896 51.404,70.1875 51.8728,69.8333 C51.9561,69.7708 52.1228,69.6354 52.3728,69.4271 C52.6228,69.2188 52.8363,69.0417 53.0134,68.8958 C53.3467,68.6146 53.6384,68.2344 53.8884,67.7552 C54.1176,67.2865 54.2322,66.7813 54.2322,66.2396 C54.2322,65.5729 54.1228,65 53.904,64.5208 C53.6749,64.0521 53.3155,63.8177 52.8259,63.8177 C52.5342,63.8177 52.2947,63.8802 52.1072,64.0052 C51.9092,64.1406 51.8103,64.3177 51.8103,64.5365 C51.8103,64.724 51.9275,64.9531 52.1618,65.224 C52.3962,65.4948 52.5134,65.724 52.5134,65.9115 C52.5134,66.2969 52.378,66.625 52.1072,66.8958 C51.8467,67.1563 51.529,67.2865 51.154,67.2865 C50.7582,67.2865 50.4249,67.1511 50.154,66.8802 C49.8936,66.599 49.7634,66.2761 49.7634,65.9115 C49.7634,65.1615 50.0629,64.5469 50.6618,64.0677 C51.2608,63.5886 51.9822,63.349 52.8259,63.349 C53.8363,63.349 54.7113,63.6198 55.4509,64.1615 C56.1905,64.6823 56.5603,65.375 56.5603,66.2396 C56.5603,66.8229 56.4561,67.3229 56.2478,67.7396 C56.0499,68.1875 55.7582,68.5365 55.3728,68.7865 C54.9249,69.0677 54.5395,69.2865 54.2165,69.4427 C53.7582,69.6511 53.3051,69.849 52.8572,70.0365 C52.3051,70.2552 51.878,70.4636 51.5759,70.6615 C51.753,70.6198 51.9301,70.599 52.1072,70.599 C52.7113,70.599 53.3363,70.7917 53.9822,71.1771 C54.6488,71.5729 55.1645,71.7708 55.529,71.7708 C55.7478,71.7708 55.9249,71.7292 56.0603,71.6458 C56.1853,71.5729 56.2686,71.4896 56.3103,71.3958 C56.3624,71.2708 56.4092,71.1823 56.4509,71.1302 C56.503,71.0469 56.5655,71.0052 56.6384,71.0052 C56.7947,71.0052 56.8728,71.0833 56.8728,71.2396 C56.8728,71.6042 56.6124,72.0469 56.0915,72.5677 C55.5811,73.0886 54.9197,73.349 54.1072,73.349"/>
<path class="TimeSig" d="M53.6853,73.5996 C54.0707,73.5996 54.4014,73.5553 54.6775,73.4668 C54.9535,73.3782 55.128,73.334 55.2009,73.334 C55.2946,73.334 55.3676,73.36 55.4196,73.4121 C55.4613,73.4433 55.4873,73.485 55.4978,73.5371 C55.4978,73.5683 55.4821,73.61 55.4509,73.6621 L49.779,80.2715 L53.1071,80.2715 L53.1071,77.6465 C53.1071,77.4798 53.154,77.334 53.2478,77.209 C53.404,77.084 53.5342,77.0058 53.6384,76.9746 C53.8051,76.9017 54.0134,76.7194 54.2634,76.4277 C54.4717,76.1986 54.7217,75.7923 55.0134,75.209 C55.0446,75.1256 55.1019,75.084 55.1853,75.084 C55.3415,75.084 55.4301,75.1777 55.4509,75.3652 L55.4509,80.2715 L56.8884,80.2715 C57.0655,80.2715 57.1696,80.3652 57.2009,80.5527 C57.2009,80.7506 57.0967,80.8496 56.8884,80.8496 L55.4509,80.8496 L55.4509,81.0058 C55.4509,81.5267 55.5811,81.9694 55.8415,82.334 C56.1436,82.6986 56.4978,82.8808 56.904,82.8808 C57.0603,82.8808 57.1384,82.959 57.1384,83.1152 C57.1384,83.2715 57.0603,83.3496 56.904,83.3496 C56.6332,83.3496 56.1905,83.3131 55.5759,83.2402 C55.0134,83.1465 54.5759,83.0996 54.2634,83.0996 C53.9405,83.0996 53.503,83.1465 52.9509,83.2402 C52.3676,83.3131 51.9353,83.3496 51.654,83.3496 C51.4978,83.3496 51.4196,83.2715 51.4196,83.1152 C51.4196,82.959 51.4978,82.8808 51.654,82.8808 C52.0498,82.8808 52.3988,82.6986 52.7009,82.334 C52.9717,81.9694 53.1071,81.5267 53.1071,81.0058 L53.1071,80.8496 L49.779,80.8496 C49.5498,80.8496 49.3936,80.7975 49.3103,80.6933 C49.1957,80.6204 49.1384,80.5163 49.1384,80.3808 C49.1384,80.3392 49.2373,80.2038 49.4353,79.9746 C49.6644,79.7142 49.8988,79.3965 50.1384,79.0215 C50.4301,78.5736 50.7061,78.1152 50.9665,77.6465 C51.2478,77.1152 51.4769,76.5006 51.654,75.8027 C51.8415,75.1048 51.9353,74.3913 51.9353,73.6621 C51.9353,73.4538 52.029,73.3496 52.2165,73.3496 C52.2582,73.3496 52.3415,73.3704 52.4665,73.4121 C52.5082,73.4225 52.5915,73.4407 52.7165,73.4668 C52.8415,73.4928 52.9405,73.5163 53.0134,73.5371 C53.253,73.5788 53.4769,73.5996 53.6853,73.5996"/>
<path class="Beam" fill-rule="evenodd" d="M121.109,62.0986 L137.146,62.0986 L137.146,64.5987 L121.109,64.5987 L121.109,62.0986 "/>
<path class="Beam" fill-rule="evenodd" d="M121.109,65.8488 L127.709,65.8488 L127.709,68.349 L121.109,68.349 L121.109,65.8488 "/>
<path class="Beam" fill-rule="evenodd" d="M65.9363,93.3505 L91.206,97.1998 L91.206,99.7 L65.9363,95.8507 L65.9363,93.3505 "/>
<path class="Hook" d="M243.089,68.3487 L243.089,63.3487 L243.714,63.3487 C243.714,64.0882 243.86,64.833 244.151,65.583 C244.464,66.3851 244.808,67.0882 245.183,67.6924 C245.453,68.1195 245.865,68.7757 246.417,69.6612 C246.834,70.3382 247.185,71.0466 247.472,71.7862 C247.758,72.5257 247.901,73.2705 247.901,74.0205 C247.901,75.3747 247.62,76.7549 247.058,78.1612 C246.964,78.3174 246.839,78.3955 246.683,78.3955 C246.558,78.3955 246.443,78.3434 246.339,78.2393 C246.256,78.1559 246.214,78.057 246.214,77.9424 L246.214,77.8487 C246.776,76.557 247.058,75.2809 247.058,74.0205 C247.058,73.3643 246.86,72.6612 246.464,71.9112 C246.078,71.1403 245.683,70.5257 245.276,70.0674 C244.818,69.5362 244.297,68.9632 243.714,68.3487 L243.089,68.3487 "/>
<path class="Hook" transform="matrix(0.700044,0,0,0.700044,188.955,61.0985)" d="M0,5 L0,0 L0.625,0 C0.625,0.739583 0.770833,1.48438 1.0625,2.23438 C1.375,3.03646 1.71875,3.73958 2.09375,4.34375 C2.36458,4.77083 2.77604,5.42708 3.32813,6.3125 C3.74479,6.98958 4.09635,7.69792 4.38281,8.4375 C4.66927,9.17708 4.8125,9.92188 4.8125,10.6719 C4.8125,12.026 4.53125,13.4063 3.96875,14.8125 C3.875,14.9688 3.75,15.0469 3.59375,15.0469 C3.46875,15.0469 3.35417,14.9948 3.25,14.8906 C3.16667,14.8073 3.125,14.7083 3.125,14.5938 L3.125,14.5 C3.6875,13.2083 3.96875,11.9323 3.96875,10.6719 C3.96875,10.0156 3.77083,9.3125 3.375,8.5625 C2.98958,7.79167 2.59375,7.17708 2.1875,6.71875 C1.72917,6.1875 1.20833,5.61458 0.625,5 L0,5 "/>
<path class="Hook" d="M173.317,64.5984 L173.317,59.5984 L173.942,59.5984 C173.942,60.338 174.087,61.0828 174.379,61.8328 C174.692,62.6349 175.035,63.338 175.41,63.9422 C175.681,64.3693 176.093,65.0255 176.645,65.9109 C177.061,66.588 177.413,67.2963 177.699,68.0359 C177.986,68.7755 178.129,69.5203 178.129,70.2703 C178.129,71.6245 177.848,73.0047 177.285,74.4109 C177.192,74.5672 177.067,74.6453 176.91,74.6453 C176.785,74.6453 176.671,74.5932 176.567,74.489 C176.483,74.4057 176.442,74.3068 176.442,74.1922 L176.442,74.0984 C177.004,72.8068 177.285,71.5307 177.285,70.2703 C177.285,69.614 177.087,68.9109 176.692,68.1609 C176.306,67.3901 175.91,66.7755 175.504,66.3172 C175.046,65.7859 174.525,65.213 173.942,64.5984 L173.317,64.5984 "/>
<path class="Hook" transform="matrix(0.700044,0,0,0.700044,85.2923,63.5987)" d="M0,5 L0,0 L0.625,0 C0.625,0.739583 0.770833,1.48438 1.0625,2.23438 C1.375,3.03646 1.71875,3.73958 2.09375,4.34375 C2.36458,4.77083 2.77604,5.42708 3.32813,6.3125 C3.74479,6.98958 4.09635,7.69792 4.38281,8.4375 C4.66927,9.17708 4.8125,9.92188 4.8125,10.6719 C4.8125,12.026 4.53125,13.4063 3.96875,14.8125 C3.875,14.9688 3.75,15.0469 3.59375,15.0469 C3.46875,15.0469 3.35417,14.9948 3.25,14.8906 C3.16667,14.8073 3.125,14.7083 3.125,14.5938 L3.125,14.5 C3.6875,13.2083 3.96875,11.9323 3.96875,10.6719 C3.96875,10.0156 3.77083,9.3125 3.375,8.5625 C2.98958,7.79167 2.59375,7.17708 2.1875,6.71875 C1.72917,6.1875 1.20833,5.61458 0.625,5 L0,5 "/>
<path class="NoteDot" d="M139.232,76.6541 C139.008,76.4302 138.896,76.1619 138.896,75.8494 C138.896,75.5369 139.008,75.2687 139.232,75.0448 C139.456,74.8208 139.724,74.7088 140.037,74.7088 C140.349,74.7088 140.615,74.8208 140.834,75.0448 C141.052,75.2687 141.162,75.5369 141.162,75.8494 C141.162,76.1619 141.052,76.4302 140.834,76.6541 C140.615,76.8781 140.349,76.9901 140.037,76.9901 C139.724,76.9901 139.456,76.8781 139.232,76.6541"/>
</svg>
