<?xml version="1.0" encoding="UTF-8" standalone="no"?>
<svg width="419.527px" height="595.275px" viewBox="0 0 419.527 595.275"
 xmlns="http://www.w3.org/2000/svg" xmlns:xlink="http://www.w3.org/1999/xlink" version="1.2" baseProfile="tiny">
<title>Title</title>
<desc>Generated by MuseScore 2.1.0</desc>
<polyline class="StaffLines" fill="none" stroke="#000000" stroke-width="0.40" stroke-linejoin="bevel" points="28.3465,63.3487 391.181,63.3487"/>
<polyline class="StaffLines" fill="none" stroke="#000000" stroke-width="0.40" stroke-linejoin="bevel" points="28.3465,68.349 391.181,68.349"/>
<polyline class="StaffLines" fill="none" stroke="#000000" stroke-width="0.40" stroke-linejoin="bevel" points="28.3465,73.3493 391.181,73.3493"/>
<polyline class="StaffLines" fill="none" stroke="#000000" stroke-width="0.40" stroke-linejoin="bevel" points="28.3465,78.3496 391.181,78.3496"/>
<polyline class="StaffLines" fill="none" stroke="#000000" stroke-width="0.40" stroke-linejoin="bevel" points="28.3465,83.3499 391.181,83.3499"/>
<polyline class="BarLine" fill="none" stroke="#000000" stroke-width="0.80" stroke-linejoin="bevel" points="386.281,63.3487 386.281,83.3499"/>
<polyline class="BarLine" fill="none" stroke="#000000" stroke-width="2.50" stroke-linejoin="bevel" points="389.931,63.3487 389.931,83.3499"/>
<polyline class="BarLine" fill="none" stroke="#000000" stroke-width="0.80" stroke-linejoin="bevel" points="322.612,63.3487 322.612,83.3499"/>
<polyline class="BarLine" fill="none" stroke="#000000" stroke-width="0.80" stroke-linejoin="bevel" points="226.796,63.3487 226.796,83.3499"/>
<polyline class="BarLine" fill="none" stroke="#000000" stroke-width="0.80" stroke-linejoin="bevel" points="142.324,63.3487 142.324,83.3499"/>
<path class="Accidental" d="M275.409,69.583 C275.409,69.833 275.286,69.958 275.041,69.958 C274.797,69.958 274.674,69.833 274.674,69.583 L274.674,66.6924 L273.018,67.3174 L273.018,70.4737 C273.018,70.7237 272.893,70.8487 272.643,70.8487 C272.393,70.8487 272.268,70.7237 272.268,70.4737 L272.268,67.5674 L271.643,67.8018 C271.633,67.8122 271.581,67.8174 271.487,67.8174 C271.383,67.8174 271.291,67.7783 271.213,67.7002 C271.135,67.6221 271.096,67.5309 271.096,67.4268 L271.096,66.2237 C271.096,66.0257 271.179,65.9007 271.346,65.8487 L272.268,65.5362 L272.268,62.333 L271.643,62.5518 C271.633,62.5622 271.581,62.5674 271.487,62.5674 C271.383,62.5674 271.291,62.5283 271.213,62.4502 C271.135,62.3721 271.096,62.2809 271.096,62.1768 L271.096,60.958 C271.096,60.7809 271.179,60.6664 271.346,60.6143 L272.268,60.2549 L272.268,57.1143 C272.268,56.8643 272.393,56.7393 272.643,56.7393 C272.893,56.7393 273.018,56.8643 273.018,57.1143 L273.018,60.0049 L274.674,59.3799 L274.674,56.2237 C274.674,55.9737 274.797,55.8487 275.041,55.8487 C275.286,55.8487 275.409,55.9737 275.409,56.2237 L275.409,59.1299 L276.065,58.8955 C276.075,58.8851 276.117,58.8799 276.19,58.8799 C276.284,58.8799 276.383,58.9164 276.487,58.9893 C276.57,59.0726 276.612,59.1664 276.612,59.2705 L276.612,60.4737 C276.612,60.6612 276.518,60.7862 276.331,60.8487 L275.409,61.1612 L275.409,64.3643 L276.065,64.1455 C276.075,64.1351 276.117,64.1299 276.19,64.1299 C276.284,64.1299 276.383,64.1716 276.487,64.2549 C276.57,64.3278 276.612,64.4164 276.612,64.5205 L276.612,65.7393 C276.612,65.9059 276.518,66.0205 276.331,66.083 L275.409,66.4424 L275.409,69.583 M274.674,61.458 L273.018,62.0362 L273.018,65.2393 L274.674,64.6612 L274.674,61.458 "/>
<polyline class="Stem" fill="none" stroke="#000000" stroke-width="0.65" stroke-linecap="round" stroke-linejoin="bevel" points="335.632,77.5816 335.632,61.4735"/>
<polyline class="Stem" fill="none" stroke="#000000" stroke-width="0.65" stroke-linecap="round" stroke-linejoin="bevel" points="300.283,69.2881 300.283,83.3499"/>
<polyline class="Stem" fill="none" stroke="#000000" stroke-width="0.65" stroke-linecap="round" stroke-linejoin="bevel" points="278.029,64.2878 278.029,78.3496"/>
<polyline class="Stem" fill="none" stroke="#000000" stroke-width="0.65" stroke-linecap="round" stroke-linejoin="bevel" points="255.775,69.2881 255.775,83.3499"/>
<polyline class="Stem" fill="none" stroke="#000000" stroke-width="0.65" stroke-linecap="round" stroke-linejoin="bevel" points="233.522,74.2884 233.522,88.3502"/>
<polyline class="Stem" fill="none" stroke="#000000" stroke-width="0.65" stroke-linecap="round" stroke-linejoin="bevel" points="198.133,74.9103 198.133,59.5984"/>
<polyline class="Stem" fill="none" stroke="#000000" stroke-width="0.65" stroke-linecap="round" stroke-linejoin="bevel" points="170.625,71.7883 170.625,84.6"/>
<polyline class="Stem" fill="none" stroke="#000000" stroke-width="0.65" stroke-linecap="round" stroke-linejoin="bevel" points="149.049,69.2881 149.049,83.3499"/>
<polyline class="Stem" fill="none" stroke="#000000" stroke-width="0.65" stroke-linecap="round" stroke-linejoin="bevel" points="129.185,69.91 129.185,57.0983"/>
<polyline class="Stem" fill="none" stroke="#000000" stroke-width="0.65" stroke-linecap="round" stroke-linejoin="bevel" points="110.188,74.9103 110.188,59.5984"/>
<polyline class="Stem" fill="none" stroke="#000000" stroke-width="0.65" stroke-linecap="round" stroke-linejoin="bevel" points="91.1913,72.4102 91.1913,58.3483"/>
<polyline class="Stem" fill="none" stroke="#000000" stroke-width="0.65" stroke-linecap="round" stroke-linejoin="bevel" points="72.1945,77.4105 72.1945,63.3487"/>
<path class="Note" d="M335.325,77.0371 C335.325,76.8183 335.242,76.6308 335.075,76.4746 C334.898,76.3079 334.7,76.2246 334.481,76.2246 C334.096,76.2246 333.31,76.6152 332.122,77.3965 C330.893,78.1881 330.143,78.7558 329.872,79.0996 C329.726,79.2767 329.653,79.4642 329.653,79.6621 C329.653,79.8808 329.742,80.0683 329.919,80.2246 C330.075,80.3913 330.268,80.4746 330.497,80.4746 C330.872,80.4746 331.669,80.084 332.888,79.3027 C334.086,78.5215 334.825,77.9538 335.106,77.5996 C335.252,77.4329 335.325,77.2454 335.325,77.0371 M334.294,75.5996 C335.408,75.5996 335.966,76.0788 335.966,77.0371 C335.966,77.5058 335.83,78.0527 335.56,78.6777 C335.289,79.2923 334.924,79.7611 334.466,80.084 C333.466,80.7611 332.211,81.0996 330.7,81.0996 C329.575,81.0996 329.013,80.6204 329.013,79.6621 C329.013,79.235 329.148,78.6933 329.419,78.0371 C329.679,77.4121 330.044,76.9381 330.513,76.6152 C331.523,75.9381 332.783,75.5996 334.294,75.5996"/>
<path class="Note" d="M304.349,65.599 C304.974,65.599 305.505,65.7604 305.943,66.0833 C306.339,66.4375 306.536,66.8802 306.536,67.4115 C306.536,68.3073 306.078,69.1458 305.161,69.9271 C304.224,70.7083 303.219,71.099 302.146,71.099 C301.521,71.099 300.995,70.9375 300.568,70.6146 C300.161,70.2604 299.958,69.8177 299.958,69.2865 C299.958,68.3906 300.427,67.5521 301.365,66.7708 C302.281,65.9896 303.276,65.599 304.349,65.599"/>
<path class="Note" d="M282.095,60.5987 C282.72,60.5987 283.251,60.7601 283.689,61.083 C284.085,61.4372 284.283,61.8799 284.283,62.4112 C284.283,63.307 283.824,64.1455 282.908,64.9268 C281.97,65.708 280.965,66.0987 279.892,66.0987 C279.267,66.0987 278.741,65.9372 278.314,65.6143 C277.908,65.2601 277.704,64.8174 277.704,64.2862 C277.704,63.3903 278.173,62.5518 279.111,61.7705 C280.027,60.9893 281.022,60.5987 282.095,60.5987"/>
<path class="Note" d="M259.841,65.599 C260.466,65.599 260.997,65.7604 261.435,66.0833 C261.831,66.4375 262.029,66.8802 262.029,67.4115 C262.029,68.3073 261.57,69.1458 260.654,69.9271 C259.716,70.7083 258.711,71.099 257.638,71.099 C257.013,71.099 256.487,70.9375 256.06,70.6146 C255.654,70.2604 255.45,69.8177 255.45,69.2865 C255.45,68.3906 255.919,67.5521 256.857,66.7708 C257.773,65.9896 258.768,65.599 259.841,65.599"/>
<path class="Note" d="M237.587,70.5993 C238.212,70.5993 238.743,70.7607 239.181,71.0837 C239.577,71.4378 239.775,71.8805 239.775,72.4118 C239.775,73.3076 239.316,74.1462 238.4,74.9274 C237.462,75.7087 236.457,76.0993 235.384,76.0993 C234.759,76.0993 234.233,75.9378 233.806,75.6149 C233.4,75.2607 233.197,74.818 233.197,74.2868 C233.197,73.391 233.665,72.5524 234.603,71.7712 C235.519,70.9899 236.514,70.5993 237.587,70.5993"/>
<path class="Note" d="M196.266,73.0994 C196.891,73.0994 197.422,73.2609 197.86,73.5838 C198.255,73.938 198.453,74.3807 198.453,74.9119 C198.453,75.8078 197.995,76.6463 197.078,77.4276 C196.141,78.2088 195.136,78.5994 194.063,78.5994 C193.438,78.5994 192.912,78.438 192.485,78.1151 C192.078,77.7609 191.875,77.3182 191.875,76.7869 C191.875,75.8911 192.344,75.0526 193.281,74.2713 C194.198,73.4901 195.193,73.0994 196.266,73.0994"/>
<path class="Note" d="M174.69,68.0991 C175.315,68.0991 175.846,68.2606 176.284,68.5835 C176.68,68.9377 176.878,69.3804 176.878,69.9116 C176.878,70.8075 176.419,71.646 175.503,72.4273 C174.565,73.2085 173.56,73.5991 172.487,73.5991 C171.862,73.5991 171.336,73.4377 170.909,73.1148 C170.503,72.7606 170.3,72.3179 170.3,71.7866 C170.3,70.8908 170.768,70.0523 171.706,69.271 C172.622,68.4898 173.617,68.0991 174.69,68.0991"/>
<path class="Note" d="M153.115,65.599 C153.74,65.599 154.271,65.7604 154.708,66.0833 C155.104,66.4375 155.302,66.8802 155.302,67.4115 C155.302,68.3073 154.844,69.1458 153.927,69.9271 C152.99,70.7083 151.984,71.099 150.911,71.099 C150.286,71.099 149.76,70.9375 149.333,70.6146 C148.927,70.2604 148.724,69.8177 148.724,69.2865 C148.724,68.3906 149.193,67.5521 150.13,66.7708 C151.047,65.9896 152.042,65.599 153.115,65.599"/>
<path class="Note" d="M127.317,68.0991 C127.942,68.0991 128.474,68.2606 128.911,68.5835 C129.307,68.9377 129.505,69.3804 129.505,69.9116 C129.505,70.8075 129.047,71.646 128.13,72.4273 C127.192,73.2085 126.187,73.5991 125.114,73.5991 C124.489,73.5991 123.963,73.4377 123.536,73.1148 C123.13,72.7606 122.927,72.3179 122.927,71.7866 C122.927,70.8908 123.395,70.0523 124.333,69.271 C125.25,68.4898 126.244,68.0991 127.317,68.0991"/>
<path class="Note" d="M108.321,73.0994 C108.946,73.0994 109.477,73.2609 109.914,73.5838 C110.31,73.938 110.508,74.3807 110.508,74.9119 C110.508,75.8078 110.05,76.6463 109.133,77.4276 C108.196,78.2088 107.19,78.5994 106.117,78.5994 C105.492,78.5994 104.966,78.438 104.539,78.1151 C104.133,77.7609 103.93,77.3182 103.93,76.7869 C103.93,75.8911 104.399,75.0526 105.336,74.2713 C106.253,73.4901 107.248,73.0994 108.321,73.0994"/>
<path class="Note" d="M89.3238,70.5993 C89.9488,70.5993 90.48,70.7607 90.9175,71.0837 C91.3133,71.4378 91.5113,71.8805 91.5113,72.4118 C91.5113,73.3076 91.0529,74.1462 90.1363,74.9274 C89.1988,75.7087 88.1935,76.0993 87.1206,76.0993 C86.4956,76.0993 85.9696,75.9378 85.5425,75.6149 C85.1363,75.2607 84.9331,74.818 84.9331,74.2868 C84.9331,73.391 85.4019,72.5524 86.3394,71.7712 C87.256,70.9899 88.2508,70.5993 89.3238,70.5993"/>
<path class="Note" d="M70.3269,75.5996 C70.9519,75.5996 71.4832,75.7611 71.9207,76.084 C72.3165,76.4381 72.5144,76.8808 72.5144,77.4121 C72.5144,78.3079 72.0561,79.1465 71.1394,79.9277 C70.2019,80.709 69.1967,81.0996 68.1238,81.0996 C67.4988,81.0996 66.9728,80.9381 66.5457,80.6152 C66.1394,80.2611 65.9363,79.8183 65.9363,79.2871 C65.9363,78.3913 66.4051,77.5527 67.3426,76.7715 C68.2592,75.9902 69.254,75.5996 70.3269,75.5996"/>
<path class="Clef" d="M38.8904,73.2246 C38.8904,73.2246 38.9321,73.2246 39.0154,73.2246 C39.0675,73.2142 39.1092,73.209 39.1404,73.209 C40.5987,73.209 41.7967,73.7246 42.7342,74.7558 C43.6717,75.7663 44.1404,76.9486 44.1404,78.3027 C44.1404,79.9902 43.4477,81.36 42.0623,82.4121 C41.6977,82.7038 41.2185,82.9381 40.6248,83.1152 C40.6977,83.959 40.7342,84.6413 40.7342,85.1621 C40.7342,85.2663 40.7185,85.6465 40.6873,86.3027 C40.6352,87.5111 40.2185,88.5579 39.4373,89.4433 C38.6873,90.3183 37.7498,90.7558 36.6248,90.7558 C35.5727,90.7558 34.6769,90.3861 33.9373,89.6465 C33.1873,88.8861 32.8123,87.9746 32.8123,86.9121 C32.8123,86.3496 33.031,85.8704 33.4685,85.4746 C33.906,85.0892 34.4164,84.8965 34.9998,84.8965 C35.5206,84.8965 35.9581,85.0996 36.3123,85.5058 C36.6769,85.8808 36.8592,86.3496 36.8592,86.9121 C36.8592,87.4121 36.6769,87.8444 36.3123,88.209 C35.9477,88.5736 35.5102,88.7558 34.9998,88.7558 C34.7914,88.7558 34.5935,88.7194 34.406,88.6465 C34.9789,89.4902 35.7394,89.9121 36.6873,89.9121 C37.5831,89.9121 38.3175,89.5475 38.8904,88.8183 C39.4946,88.0683 39.8227,87.1881 39.8748,86.1777 C39.8956,85.5527 39.906,85.1986 39.906,85.1152 C39.906,84.3861 39.88,83.7871 39.8279,83.3183 C39.1821,83.4225 38.6039,83.4746 38.0935,83.4746 C36.281,83.4746 34.7394,82.7558 33.4685,81.3183 C32.2185,79.8704 31.5935,78.1517 31.5935,76.1621 C31.5935,75.7454 31.63,75.3236 31.7029,74.8965 C31.7862,74.5423 31.8852,74.1569 31.9998,73.7402 C32.0623,73.5006 32.2394,73.1204 32.531,72.5996 C32.6352,72.4433 32.7524,72.248 32.8826,72.0137 C33.0128,71.7793 33.1039,71.6256 33.156,71.5527 C33.281,71.2923 33.531,70.9381 33.906,70.4902 C34.0102,70.3756 34.1196,70.248 34.2342,70.1074 C34.3487,69.9668 34.4451,69.8496 34.5232,69.7558 C34.6013,69.6621 34.6586,69.5892 34.6951,69.5371 C34.7315,69.485 35.0258,69.1413 35.5779,68.5058 C35.7029,68.3704 35.8279,68.2298 35.9529,68.084 C36.0779,67.9381 36.1795,67.821 36.2576,67.7324 C36.3357,67.6439 36.3956,67.584 36.4373,67.5527 C35.9685,66.0006 35.6717,64.7611 35.5467,63.834 C35.4633,63.0944 35.4217,62.0788 35.4217,60.7871 C35.4217,59.6517 35.6821,58.5892 36.2029,57.5996 C36.7029,56.5788 37.4112,55.7402 38.3279,55.084 C38.3904,55.0423 38.4529,55.0215 38.5154,55.0215 C38.6092,55.0215 38.6769,55.0423 38.7185,55.084 C39.4164,55.9277 40.0206,57.0267 40.531,58.3808 C41.0519,59.735 41.3123,60.9694 41.3123,62.084 C41.3123,63.334 41.0154,64.5058 40.4217,65.5996 C39.7446,66.7558 38.8696,67.9538 37.7967,69.1933 C38.0675,70.0475 38.4321,71.3913 38.8904,73.2246 M40.5467,82.3183 C41.2237,82.0683 41.755,81.6465 42.1404,81.0527 C42.5571,80.4798 42.7654,79.834 42.7654,79.1152 C42.7654,78.1881 42.4529,77.3652 41.8279,76.6465 C41.1821,75.9069 40.3644,75.4902 39.3748,75.3965 C39.9373,78.1465 40.3279,80.4538 40.5467,82.3183 M32.9998,77.8027 C32.9998,79.0944 33.5206,80.2298 34.5623,81.209 C35.6248,82.1569 36.8227,82.6308 38.156,82.6308 C38.6977,82.6308 39.2289,82.5892 39.7498,82.5058 C39.5414,80.5267 39.13,78.1569 38.5154,75.3965 C37.7758,75.4798 37.1873,75.7402 36.7498,76.1777 C36.3123,76.6361 36.0935,77.1517 36.0935,77.7246 C36.0935,78.7142 36.6248,79.5163 37.6873,80.1308 C37.7706,80.2246 37.8123,80.3236 37.8123,80.4277 C37.8123,80.5319 37.7706,80.6256 37.6873,80.709 C37.6039,80.8027 37.505,80.8496 37.3904,80.8496 C37.38,80.8496 37.3227,80.8392 37.2185,80.8183 C36.4685,80.4121 35.8956,79.8913 35.4998,79.2558 C35.1144,78.5683 34.9217,77.8808 34.9217,77.1933 C34.9217,76.2975 35.2029,75.485 35.7654,74.7558 C36.3487,74.0267 37.1092,73.5579 38.0467,73.3496 C37.6821,71.8913 37.3852,70.7506 37.156,69.9277 C36.9477,70.1673 36.6977,70.4512 36.406,70.7793 C36.1144,71.1074 35.9425,71.3079 35.8904,71.3808 C35.4217,71.985 35.0623,72.459 34.8123,72.8027 C34.3644,73.4173 34.0362,73.9433 33.8279,74.3808 C33.6092,74.8808 33.4164,75.4225 33.2498,76.0058 C33.0831,76.5683 32.9998,77.1673 32.9998,77.8027 M39.5154,57.9433 C38.5362,58.4225 37.7706,59.11 37.2185,60.0058 C36.6456,60.9329 36.3592,61.9277 36.3592,62.9902 C36.3592,63.9277 36.5935,65.1933 37.0623,66.7871 C37.9998,65.6517 38.7029,64.6048 39.1717,63.6465 C39.6612,62.6256 39.906,61.5631 39.906,60.459 C39.906,59.6256 39.7758,58.7871 39.5154,57.9433"/>
<path class="TimeSig" d="M54.1072,73.349 C53.7113,73.349 53.3572,73.2787 53.0447,73.138 C52.7322,72.9974 52.5134,72.849 52.3884,72.6927 C52.2113,72.4948 52.0395,72.3438 51.8728,72.2396 C51.6645,72.0938 51.4509,72.0208 51.2322,72.0208 C50.8884,72.0208 50.6072,72.125 50.3884,72.3333 C50.1592,72.5313 50.029,72.7969 49.9978,73.1302 C49.977,73.2761 49.8988,73.349 49.7634,73.349 C49.6072,73.349 49.529,73.2761 49.529,73.1302 C49.529,72.6302 49.6488,72.1771 49.8884,71.7708 C50.1176,71.3542 50.404,71.0104 50.7478,70.7396 C51.029,70.4896 51.404,70.1875 51.8728,69.8333 C51.9561,69.7708 52.1228,69.6354 52.3728,69.4271 C52.6228,69.2188 52.8363,69.0417 53.0134,68.8958 C53.3467,68.6146 53.6384,68.2344 53.8884,67.7552 C54.1176,67.2865 54.2322,66.7813 54.2322,66.2396 C54.2322,65.5729 54.1228,65 53.904,64.5208 C53.6749,64.0521 53.3155,63.8177 52.8259,63.8177 C52.5342,63.8177 52.2947,63.8802 52.1072,64.0052 C51.9092,64.1406 51.8103,64.3177 51.8103,64.5365 C51.8103,64.724 51.9275,64.9531 52.1618,65.224 C52.3962,65.4948 52.5134,65.724 52.5134,65.9115 C52.5134,66.2969 52.378,66.625 52.1072,66.8958 C51.8467,67.1563 51.529,67.2865 51.154,67.2865 C50.7582,67.2865 50.4249,67.1511 50.154,66.8802 C49.8936,66.599 49.7634,66.2761 49.7634,65.9115 C49.7634,65.1615 50.0629,64.5469 50.6618,64.0677 C51.2608,63.5886 51.9822,63.349 52.8259,63.349 C53.8363,63.349 54.7113,63.6198 55.4509,64.1615 C56.1905,64.6823 56.5603,65.375 56.5603,66.2396 C56.5603,66.8229 56.4561,67.3229 56.2478,67.7396 C56.0499,68.1875 55.7582,68.5365 55.3728,68.7865 C54.9249,69.0677 54.5395,69.2865 54.2165,69.4427 C53.7582,69.6511 53.3051,69.849 52.8572,70.0365 C52.3051,70.2552 51.878,70.4636 51.5759,70.6615 C51.753,70.6198 51.9301,70.599 52.1072,70.599 C52.7113,70.599 53.3363,70.7917 53.9822,71.1771 C54.6488,71.5729 55.1645,71.7708 55.529,71.7708 C55.7478,71.7708 55.9249,71.7292 56.0603,71.6458 C56.1853,71.5729 56.2686,71.4896 56.3103,71.3958 C56.3624,71.2708 56.4092,71.1823 56.4509,71.1302 C56.503,71.0469 56.5655,71.0052 56.6384,71.0052 C56.7947,71.0052 56.8728,71.0833 56.8728,71.2396 C56.8728,71.6042 56.6124,72.0469 56.0915,72.5677 C55.5811,73.0886 54.9197,73.349 54.1072,73.349"/>
<path class="TimeSig" d="M53.6853,73.5996 C54.0707,73.5996 54.4014,73.5553 54.6775,73.4668 C54.9535,73.3782 55.128,73.334 55.2009,73.334 C55.2946,73.334 55.3676,73.36 55.4196,73.4121 C55.4613,73.4433 55.4873,73.485 55.4978,73.5371 C55.4978,73.5683 55.4821,73.61 55.4509,73.6621 L49.779,80.2715 L53.1071,80.2715 L53.1071,77.6465 C53.1071,77.4798 53.154,77.334 53.2478,77.209 C53.404,77.084 53.5342,77.0058 53.6384,76.9746 C53.8051,76.9017 54.0134,76.7194 54.2634,76.4277 C54.4717,76.1986 54.7217,75.7923 55.0134,75.209 C55.0446,75.1256 55.1019,75.084 55.1853,75.084 C55.3415,75.084 55.4301,75.1777 55.4509,75.3652 L55.4509,80.2715 L56.8884,80.2715 C57.0655,80.2715 57.1696,80.3652 57.2009,80.5527 C57.2009,80.7506 57.0967,80.8496 56.8884,80.8496 L55.4509,80.8496 L55.4509,81.0058 C55.4509,81.5267 55.5811,81.9694 55.8415,82.334 C56.1436,82.6986 56.4978,82.8808 56.904,82.8808 C57.0603,82.8808 57.1384,82.959 57.1384,83.1152 C57.1384,83.2715 57.0603,83.3496 56.904,83.3496 C56.6332,83.3496 56.1905,83.3131 55.5759,83.2402 C55.0134,83.1465 54.5759,83.0996 54.2634,83.0996 C53.9405,83.0996 53.503,83.1465 52.9509,83.2402 C52.3676,83.3131 51.9353,83.3496 51.654,83.3496 C51.4978,83.3496 51.4196,83.2715 51.4196,83.1152 C51.4196,82.959 51.4978,82.8808 51.654,82.8808 C52.0498,82.8808 52.3988,82.6986 52.7009,82.334 C52.9717,81.9694 53.1071,81.5267 53.1071,81.0058 L53.1071,80.8496 L49.779,80.8496 C49.5498,80.8496 49.3936,80.7975 49.3103,80.6933 C49.1957,80.6204 49.1384,80.5163 49.1384,80.3808 C49.1384,80.3392 49.2373,80.2038 49.4353,79.9746 C49.6644,79.7142 49.8988,79.3965 50.1384,79.0215 C50.4301,78.5736 50.7061,78.1152 50.9665,77.6465 C51.2478,77.1152 51.4769,76.5006 51.654,75.8027 C51.8415,75.1048 51.9353,74.3913 51.9353,73.6621 C51.9353,73.4538 52.029,73.3496 52.2165,73.3496 C52.2582,73.3496 52.3415,73.3704 52.4665,73.4121 C52.5082,73.4225 52.5915,73.4407 52.7165,73.4668 C52.8415,73.4928 52.9405,73.5163 53.0134,73.5371 C53.253,73.5788 53.4769,73.5996 53.6853,73.5996"/>
<path class="Beam" fill-rule="evenodd" d="M277.704,77.0995 L300.608,82.2459 L300.608,84.7461 L277.704,79.5997 L277.704,77.0995 "/>
<path class="Beam" fill-rule="evenodd" d="M233.197,87.1002 L256.1,81.9538 L256.1,84.4539 L233.197,89.6003 L233.197,87.1002 "/>
<path class="Beam" fill-rule="evenodd" d="M148.724,82.0998 L170.95,83.3876 L170.95,85.8877 L148.724,84.6 L148.724,82.0998 "/>
<path class="Beam" fill-rule="evenodd" d="M109.863,58.4339 L129.51,55.8482 L129.51,58.3483 L109.863,60.934 L109.863,58.4339 "/>
<path class="Beam" fill-rule="evenodd" d="M71.8695,62.2697 L91.5164,57.0983 L91.5164,59.5984 L71.8695,64.7698 L71.8695,62.2697 "/>
<path class="Lyrics" d="M331.922,102.148 L331.922,97.273 C331.922,96.8668 331.862,96.6064 331.743,96.4918 C331.623,96.3772 331.328,96.3043 330.86,96.273 L330.86,96.0699 L334.125,96.0699 L334.125,96.273 C333.657,96.2939 333.36,96.3642 333.235,96.484 C333.11,96.6038 333.047,96.8668 333.047,97.273 L333.047,102.148 C333.047,102.554 333.112,102.817 333.243,102.937 C333.373,103.057 333.667,103.127 334.125,103.148 L334.125,103.351 L330.86,103.351 L330.86,103.148 C331.318,103.127 331.61,103.06 331.735,102.945 C331.86,102.83 331.922,102.565 331.922,102.148"/>
<path class="Lyrics" d="M307.016,96.0699 L307.016,96.273 C306.734,96.2939 306.539,96.3616 306.43,96.4762 C306.32,96.5908 306.177,96.8668 306,97.3043 L303.547,103.476 L303.391,103.476 L300.687,97.4293 C300.469,96.9501 300.289,96.6428 300.148,96.5074 C300.008,96.372 299.797,96.2939 299.516,96.273 L299.516,96.0699 L302.437,96.0699 L302.437,96.273 C302.239,96.2939 302.135,96.3043 302.125,96.3043 C301.792,96.3251 301.625,96.4345 301.625,96.6324 C301.625,96.7887 301.771,97.2001 302.062,97.8668 L303.734,101.586 L305.344,97.5387 C305.489,97.1845 305.562,96.9189 305.562,96.7418 C305.562,96.5855 305.503,96.4736 305.383,96.4059 C305.263,96.3382 305.052,96.2939 304.75,96.273 L304.75,96.0699 L307.016,96.0699 "/>
<path class="Lyrics" d="M192.807,102.148 L192.807,97.273 C192.807,96.8668 192.748,96.6064 192.628,96.4918 C192.508,96.3772 192.214,96.3043 191.745,96.273 L191.745,96.0699 L195.011,96.0699 L195.011,96.273 C194.542,96.2939 194.245,96.3642 194.12,96.484 C193.995,96.6038 193.932,96.8668 193.932,97.273 L193.932,102.148 C193.932,102.554 193.998,102.817 194.128,102.937 C194.258,103.057 194.552,103.127 195.011,103.148 L195.011,103.351 L191.745,103.351 L191.745,103.148 C192.203,103.127 192.495,103.06 192.62,102.945 C192.745,102.83 192.807,102.565 192.807,102.148 M196.401,102.148 L196.401,97.273 C196.401,96.8668 196.341,96.6064 196.221,96.4918 C196.102,96.3772 195.807,96.3043 195.339,96.273 L195.339,96.0699 L198.604,96.0699 L198.604,96.273 C198.136,96.2939 197.839,96.3642 197.714,96.484 C197.589,96.6038 197.526,96.8668 197.526,97.273 L197.526,102.148 C197.526,102.554 197.591,102.817 197.721,102.937 C197.852,103.057 198.146,103.127 198.604,103.148 L198.604,103.351 L195.339,103.351 L195.339,103.148 C195.797,103.127 196.089,103.06 196.214,102.945 C196.339,102.83 196.401,102.565 196.401,102.148"/>
<path class="Lyrics" d="M169.185,102.148 L169.185,97.273 C169.185,96.8668 169.125,96.6064 169.005,96.4918 C168.885,96.3772 168.591,96.3043 168.122,96.273 L168.122,96.0699 L171.388,96.0699 L171.388,96.273 C170.919,96.2939 170.622,96.3642 170.497,96.484 C170.372,96.6038 170.31,96.8668 170.31,97.273 L170.31,102.148 C170.31,102.554 170.375,102.817 170.505,102.937 C170.635,103.057 170.93,103.127 171.388,103.148 L171.388,103.351 L168.122,103.351 L168.122,103.148 C168.581,103.127 168.872,103.06 168.997,102.945 C169.122,102.83 169.185,102.565 169.185,102.148 M179.154,96.0699 L179.154,96.273 C178.872,96.2939 178.677,96.3616 178.568,96.4762 C178.458,96.5908 178.315,96.8668 178.138,97.3043 L175.685,103.476 L175.529,103.476 L172.826,97.4293 C172.607,96.9501 172.427,96.6428 172.286,96.5074 C172.146,96.372 171.935,96.2939 171.654,96.273 L171.654,96.0699 L174.576,96.0699 L174.576,96.273 C174.378,96.2939 174.273,96.3043 174.263,96.3043 C173.93,96.3251 173.763,96.4345 173.763,96.6324 C173.763,96.7887 173.909,97.2001 174.201,97.8668 L175.872,101.586 L177.482,97.5387 C177.628,97.1845 177.701,96.9189 177.701,96.7418 C177.701,96.5855 177.641,96.4736 177.521,96.4059 C177.401,96.3382 177.19,96.2939 176.888,96.273 L176.888,96.0699 L179.154,96.0699 "/>
<path class="VoltaSegment" d="M237.918,48.0528 C237.876,47.8445 237.845,47.6986 237.824,47.6153 C237.803,47.532 237.764,47.407 237.707,47.2403 C237.65,47.0736 237.587,46.9538 237.519,46.8809 C237.452,46.808 237.355,46.7195 237.23,46.6153 C237.105,46.5111 236.962,46.433 236.801,46.3809 C236.639,46.3288 236.441,46.2846 236.207,46.2481 C235.973,46.2116 235.704,46.1934 235.402,46.1934 C235.121,46.1934 234.934,46.2299 234.84,46.3028 C234.746,46.3757 234.699,46.5163 234.699,46.7247 L234.699,49.2872 C235.251,49.2872 235.644,49.17 235.879,48.9356 C236.113,48.7012 236.283,48.2663 236.387,47.6309 L236.652,47.6309 L236.652,51.3653 L236.387,51.3653 C236.314,50.7299 236.155,50.2898 235.91,50.045 C235.665,49.8002 235.262,49.6674 234.699,49.6465 L234.699,52.209 C234.699,52.5111 234.775,52.7116 234.926,52.8106 C235.077,52.9096 235.408,52.9695 235.918,52.9903 L235.918,53.2715 L231.949,53.2715 L231.949,52.9903 C232.366,52.9486 232.631,52.8809 232.746,52.7872 C232.861,52.6934 232.918,52.5007 232.918,52.209 L232.918,46.8965 C232.918,46.6049 232.853,46.407 232.723,46.3028 C232.592,46.1986 232.335,46.1361 231.949,46.1153 L231.949,45.834 L238.184,45.834 L238.184,48.0528 L237.918,48.0528 M242.465,49.6622 C242.298,49.6622 242.15,49.6075 242.019,49.4981 C241.889,49.3887 241.783,49.282 241.699,49.1778 C241.616,49.0736 241.548,49.0215 241.496,49.0215 C241.309,49.0215 241.15,49.1231 241.019,49.3262 C240.889,49.5294 240.824,49.7715 240.824,50.0528 L240.824,52.1309 C240.824,52.4851 240.874,52.7143 240.973,52.8184 C241.072,52.9226 241.288,52.9851 241.621,53.0059 L241.621,53.2715 L238.715,53.2715 L238.715,53.0059 C238.954,52.9643 239.111,52.9018 239.184,52.8184 C239.256,52.7351 239.293,52.5788 239.293,52.3497 L239.293,49.1153 C239.293,48.8965 239.254,48.7403 239.176,48.6465 C239.098,48.5528 238.944,48.4903 238.715,48.459 L238.715,48.1934 L240.777,48.1934 L240.777,49.0997 C241.038,48.7351 241.283,48.4721 241.512,48.3106 C241.741,48.1491 241.991,48.0684 242.262,48.0684 C242.522,48.0684 242.736,48.1491 242.902,48.3106 C243.069,48.4721 243.152,48.6778 243.152,48.9278 C243.152,49.1361 243.087,49.3106 242.957,49.4512 C242.827,49.5919 242.663,49.6622 242.465,49.6622 M244.824,48.834 C244.824,48.8757 244.879,48.9747 244.988,49.1309 C245.098,49.2872 245.152,49.4278 245.152,49.5528 C245.152,49.7403 245.082,49.8913 244.941,50.0059 C244.801,50.1205 244.621,50.1778 244.402,50.1778 C244.173,50.1778 243.996,50.1153 243.871,49.9903 C243.746,49.8653 243.684,49.6882 243.684,49.459 C243.684,49.0424 243.874,48.7064 244.254,48.4512 C244.634,48.196 245.137,48.0684 245.762,48.0684 C246.428,48.0684 246.957,48.2038 247.348,48.4747 C247.738,48.7455 247.934,49.1153 247.934,49.584 L247.934,52.4278 C247.934,52.6049 248.012,52.6934 248.168,52.6934 C248.22,52.6934 248.262,52.683 248.293,52.6622 L248.402,52.5528 L248.574,52.7715 C248.178,53.209 247.767,53.4278 247.34,53.4278 C247.069,53.4278 246.866,53.3679 246.73,53.2481 C246.595,53.1283 246.496,52.9226 246.434,52.6309 C245.871,53.1622 245.293,53.4278 244.699,53.4278 C244.345,53.4278 244.053,53.3158 243.824,53.0919 C243.595,52.8679 243.48,52.584 243.48,52.2403 C243.48,52.0111 243.54,51.8002 243.66,51.6075 C243.78,51.4148 243.921,51.2585 244.082,51.1387 C244.243,51.0189 244.465,50.8965 244.746,50.7715 C245.027,50.6465 245.267,50.5502 245.465,50.4825 C245.663,50.4148 245.923,50.334 246.246,50.2403 C246.329,50.2195 246.392,50.2038 246.434,50.1934 L246.434,49.3965 C246.434,49.0632 246.361,48.8184 246.215,48.6622 C246.069,48.5059 245.835,48.4278 245.512,48.4278 C245.324,48.4278 245.163,48.4669 245.027,48.545 C244.892,48.6231 244.824,48.7195 244.824,48.834 M246.418,52.1465 L246.418,50.5684 C245.522,50.7976 245.074,51.2403 245.074,51.8965 C245.074,52.1153 245.126,52.2898 245.23,52.42 C245.335,52.5502 245.47,52.6153 245.637,52.6153 C245.887,52.6153 246.147,52.459 246.418,52.1465 M250.824,48.0684 C251.022,48.0684 251.256,48.1075 251.527,48.1856 C251.798,48.2637 251.965,48.3028 252.027,48.3028 C252.142,48.3028 252.23,48.2299 252.293,48.084 L252.527,48.084 L252.527,49.6934 L252.262,49.6934 C251.97,48.8497 251.522,48.4278 250.918,48.4278 C250.71,48.4278 250.535,48.4877 250.394,48.6075 C250.254,48.7273 250.184,48.8809 250.184,49.0684 C250.184,49.2351 250.249,49.3861 250.379,49.5215 C250.509,49.657 250.671,49.7663 250.863,49.8497 C251.056,49.933 251.262,50.032 251.48,50.1465 C251.699,50.2611 251.905,50.3783 252.098,50.4981 C252.29,50.6179 252.449,50.7872 252.574,51.0059 C252.699,51.2247 252.762,51.4747 252.762,51.7559 C252.762,52.2455 252.605,52.6465 252.293,52.959 C251.98,53.2715 251.574,53.4278 251.074,53.4278 C250.772,53.4278 250.467,53.3757 250.16,53.2715 C249.853,53.1674 249.678,53.1153 249.637,53.1153 C249.553,53.1153 249.454,53.2143 249.34,53.4122 L249.074,53.4122 L249.074,51.5997 L249.371,51.5997 C249.611,52.5788 250.116,53.0684 250.887,53.0684 C251.137,53.0684 251.337,53.0007 251.488,52.8653 C251.639,52.7299 251.715,52.558 251.715,52.3497 C251.715,52.1518 251.624,51.9799 251.441,51.834 C251.259,51.6882 251.04,51.558 250.785,51.4434 C250.53,51.3288 250.275,51.2012 250.019,51.0606 C249.764,50.92 249.546,50.7325 249.363,50.4981 C249.181,50.2637 249.09,49.9903 249.09,49.6778 C249.09,49.2195 249.254,48.8366 249.582,48.5294 C249.91,48.2221 250.324,48.0684 250.824,48.0684 M254.996,50.5684 C255.006,50.7663 255.022,50.946 255.043,51.1075 C255.064,51.2689 255.1,51.4486 255.152,51.6465 C255.204,51.8445 255.277,52.0085 255.371,52.1387 C255.465,52.2689 255.59,52.3809 255.746,52.4747 C255.902,52.5684 256.09,52.6153 256.309,52.6153 C256.538,52.6153 256.749,52.5606 256.941,52.4512 C257.134,52.3419 257.34,52.157 257.559,51.8965 L257.824,52.0372 C257.46,52.558 257.124,52.92 256.816,53.1231 C256.509,53.3262 256.131,53.4278 255.684,53.4278 C254.996,53.4278 254.447,53.183 254.035,52.6934 C253.624,52.2038 253.418,51.558 253.418,50.7559 C253.418,49.9538 253.629,49.3054 254.051,48.8106 C254.473,48.3158 255.027,48.0684 255.715,48.0684 C256.965,48.0684 257.647,48.9018 257.762,50.5684 L254.996,50.5684 M256.418,50.0059 C256.408,49.7768 256.4,49.5997 256.394,49.4747 C256.389,49.3497 256.371,49.209 256.34,49.0528 C256.309,48.8965 256.269,48.782 256.223,48.709 C256.176,48.6361 256.111,48.571 256.027,48.5137 C255.944,48.4564 255.84,48.4278 255.715,48.4278 C255.444,48.4278 255.251,48.5554 255.137,48.8106 C255.022,49.0658 254.954,49.5163 254.934,50.1622 L256.418,50.1622 L256.418,50.0059 M265.277,52.084 L265.48,52.2872 C265.158,52.6934 264.832,52.9851 264.504,53.1622 C264.176,53.3393 263.798,53.4278 263.371,53.4278 C262.694,53.4278 262.134,53.183 261.691,52.6934 C261.249,52.2038 261.027,51.584 261.027,50.834 C261.027,50.0424 261.272,49.3835 261.762,48.8575 C262.251,48.3314 262.871,48.0684 263.621,48.0684 C264.1,48.0684 264.504,48.183 264.832,48.4122 C265.16,48.6413 265.324,48.9278 265.324,49.2715 C265.324,49.4903 265.259,49.6622 265.129,49.7872 C264.999,49.9122 264.814,49.9747 264.574,49.9747 C264.168,49.9747 263.965,49.7143 263.965,49.1934 C263.965,48.8913 263.944,48.7038 263.902,48.6309 C263.829,48.4955 263.694,48.4278 263.496,48.4278 C263.215,48.4278 262.991,48.5919 262.824,48.92 C262.658,49.2481 262.574,49.6934 262.574,50.2559 C262.574,50.9955 262.715,51.5866 262.996,52.0294 C263.277,52.4721 263.658,52.6934 264.137,52.6934 C264.366,52.6934 264.561,52.6491 264.723,52.5606 C264.884,52.4721 265.069,52.3132 265.277,52.084 M268.293,48.0684 C269.001,48.0684 269.59,48.3236 270.059,48.834 C270.527,49.3445 270.762,49.9851 270.762,50.7559 C270.762,51.5163 270.527,52.1518 270.059,52.6622 C269.59,53.1726 269.001,53.4278 268.293,53.4278 C267.574,53.4278 266.98,53.1726 266.512,52.6622 C266.043,52.1518 265.809,51.5059 265.809,50.7247 C265.809,49.9747 266.048,49.3445 266.527,48.834 C267.006,48.3236 267.595,48.0684 268.293,48.0684 M268.293,48.4278 C267.96,48.4278 267.73,48.6023 267.605,48.9512 C267.48,49.3002 267.418,49.9538 267.418,50.9122 C267.418,51.7143 267.483,52.2741 267.613,52.5919 C267.743,52.9096 267.97,53.0684 268.293,53.0684 C268.616,53.0684 268.84,52.9018 268.965,52.5684 C269.09,52.2351 269.152,51.6518 269.152,50.8184 C269.152,49.9226 269.09,49.3002 268.965,48.9512 C268.84,48.6023 268.616,48.4278 268.293,48.4278 M274.277,48.7872 C274.079,48.7872 273.874,48.8757 273.66,49.0528 C273.447,49.2299 273.34,49.3549 273.34,49.4278 L273.34,52.3809 C273.34,52.5893 273.379,52.7377 273.457,52.8262 C273.535,52.9148 273.673,52.9747 273.871,53.0059 L273.871,53.2715 L271.23,53.2715 L271.23,53.0059 C271.48,52.9538 271.639,52.8887 271.707,52.8106 C271.775,52.7325 271.809,52.5788 271.809,52.3497 L271.809,49.1153 C271.809,48.8861 271.772,48.7299 271.699,48.6465 C271.626,48.5632 271.47,48.5007 271.23,48.459 L271.23,48.1934 L273.324,48.1934 L273.324,49.0215 C273.73,48.3861 274.256,48.0684 274.902,48.0684 C275.35,48.0684 275.71,48.209 275.98,48.4903 C276.251,48.7715 276.387,49.1465 276.387,49.6153 L276.387,52.3809 C276.387,52.6101 276.423,52.7689 276.496,52.8575 C276.569,52.946 276.71,52.9955 276.918,53.0059 L276.918,53.2715 L274.34,53.2715 L274.34,53.0059 C274.527,52.9851 274.66,52.9278 274.738,52.834 C274.816,52.7403 274.855,52.5893 274.855,52.3809 L274.855,49.709 C274.855,49.0945 274.663,48.7872 274.277,48.7872 M279.262,48.0684 C279.46,48.0684 279.694,48.1075 279.965,48.1856 C280.236,48.2637 280.402,48.3028 280.465,48.3028 C280.579,48.3028 280.668,48.2299 280.73,48.084 L280.965,48.084 L280.965,49.6934 L280.699,49.6934 C280.408,48.8497 279.96,48.4278 279.355,48.4278 C279.147,48.4278 278.973,48.4877 278.832,48.6075 C278.691,48.7273 278.621,48.8809 278.621,49.0684 C278.621,49.2351 278.686,49.3861 278.816,49.5215 C278.947,49.657 279.108,49.7663 279.301,49.8497 C279.493,49.933 279.699,50.032 279.918,50.1465 C280.137,50.2611 280.342,50.3783 280.535,50.4981 C280.728,50.6179 280.887,50.7872 281.012,51.0059 C281.137,51.2247 281.199,51.4747 281.199,51.7559 C281.199,52.2455 281.043,52.6465 280.73,52.959 C280.418,53.2715 280.012,53.4278 279.512,53.4278 C279.21,53.4278 278.905,53.3757 278.598,53.2715 C278.29,53.1674 278.116,53.1153 278.074,53.1153 C277.991,53.1153 277.892,53.2143 277.777,53.4122 L277.512,53.4122 L277.512,51.5997 L277.809,51.5997 C278.048,52.5788 278.553,53.0684 279.324,53.0684 C279.574,53.0684 279.775,53.0007 279.926,52.8653 C280.077,52.7299 280.152,52.558 280.152,52.3497 C280.152,52.1518 280.061,51.9799 279.879,51.834 C279.697,51.6882 279.478,51.558 279.223,51.4434 C278.967,51.3288 278.712,51.2012 278.457,51.0606 C278.202,50.92 277.983,50.7325 277.801,50.4981 C277.618,50.2637 277.527,49.9903 277.527,49.6778 C277.527,49.2195 277.691,48.8366 278.019,48.5294 C278.348,48.2221 278.762,48.0684 279.262,48.0684 M283.434,50.5684 C283.444,50.7663 283.46,50.946 283.48,51.1075 C283.501,51.2689 283.538,51.4486 283.59,51.6465 C283.642,51.8445 283.715,52.0085 283.809,52.1387 C283.902,52.2689 284.027,52.3809 284.184,52.4747 C284.34,52.5684 284.527,52.6153 284.746,52.6153 C284.975,52.6153 285.186,52.5606 285.379,52.4512 C285.572,52.3419 285.777,52.157 285.996,51.8965 L286.262,52.0372 C285.897,52.558 285.561,52.92 285.254,53.1231 C284.947,53.3262 284.569,53.4278 284.121,53.4278 C283.434,53.4278 282.884,53.183 282.473,52.6934 C282.061,52.2038 281.855,51.558 281.855,50.7559 C281.855,49.9538 282.066,49.3054 282.488,48.8106 C282.91,48.3158 283.465,48.0684 284.152,48.0684 C285.402,48.0684 286.085,48.9018 286.199,50.5684 L283.434,50.5684 M284.855,50.0059 C284.845,49.7768 284.837,49.5997 284.832,49.4747 C284.827,49.3497 284.809,49.209 284.777,49.0528 C284.746,48.8965 284.707,48.782 284.66,48.709 C284.613,48.6361 284.548,48.571 284.465,48.5137 C284.381,48.4564 284.277,48.4278 284.152,48.4278 C283.881,48.4278 283.689,48.5554 283.574,48.8106 C283.46,49.0658 283.392,49.5163 283.371,50.1622 L284.855,50.1622 L284.855,50.0059 M290.105,54.334 L290.105,52.8028 C289.689,53.2195 289.241,53.4278 288.762,53.4278 C288.158,53.4278 287.668,53.1882 287.293,52.709 C286.918,52.2299 286.73,51.6153 286.73,50.8653 C286.73,50.0424 286.957,49.3705 287.41,48.8497 C287.863,48.3288 288.449,48.0684 289.168,48.0684 C289.439,48.0684 289.676,48.1127 289.879,48.2012 C290.082,48.2898 290.329,48.459 290.621,48.709 L291.48,48.084 L291.637,48.084 L291.637,54.6309 C291.637,54.8497 291.673,54.9981 291.746,55.0762 C291.819,55.1544 291.986,55.2143 292.246,55.2559 L292.246,55.5215 L289.309,55.5215 L289.309,55.2559 C289.673,55.183 289.897,55.0971 289.98,54.9981 C290.064,54.8991 290.105,54.6778 290.105,54.334 M290.105,52.1934 L290.105,49.3028 C290.105,49.0424 290.038,48.8314 289.902,48.67 C289.767,48.5085 289.59,48.4278 289.371,48.4278 C288.673,48.4278 288.324,49.1778 288.324,50.6778 C288.324,52.1049 288.668,52.8184 289.355,52.8184 C289.741,52.8184 289.991,52.6101 290.105,52.1934 M296.277,53.4122 L296.277,52.6934 C295.954,52.9747 295.678,53.1674 295.449,53.2715 C295.22,53.3757 294.965,53.4278 294.684,53.4278 C294.225,53.4278 293.866,53.2898 293.605,53.0137 C293.345,52.7377 293.215,52.3601 293.215,51.8809 L293.215,49.1153 C293.215,48.8861 293.176,48.7325 293.098,48.6544 C293.019,48.5762 292.866,48.5111 292.637,48.459 L292.637,48.1934 L294.746,48.1934 L294.746,51.9278 C294.746,52.1986 294.79,52.3939 294.879,52.5137 C294.967,52.6335 295.126,52.6934 295.355,52.6934 C295.637,52.6934 295.939,52.532 296.262,52.209 L296.262,49.1153 C296.262,48.8757 296.215,48.7116 296.121,48.6231 C296.027,48.5346 295.845,48.4799 295.574,48.459 L295.574,48.1934 L297.793,48.1934 L297.793,52.1465 C297.793,52.3861 297.84,52.5502 297.934,52.6387 C298.027,52.7273 298.194,52.7768 298.434,52.7872 L298.434,53.0372 L297.73,53.1153 C297.116,53.1882 296.631,53.2872 296.277,53.4122 M300.496,50.5684 C300.506,50.7663 300.522,50.946 300.543,51.1075 C300.564,51.2689 300.6,51.4486 300.652,51.6465 C300.704,51.8445 300.777,52.0085 300.871,52.1387 C300.965,52.2689 301.09,52.3809 301.246,52.4747 C301.402,52.5684 301.59,52.6153 301.809,52.6153 C302.038,52.6153 302.249,52.5606 302.441,52.4512 C302.634,52.3419 302.84,52.157 303.059,51.8965 L303.324,52.0372 C302.96,52.558 302.624,52.92 302.316,53.1231 C302.009,53.3262 301.631,53.4278 301.184,53.4278 C300.496,53.4278 299.947,53.183 299.535,52.6934 C299.124,52.2038 298.918,51.558 298.918,50.7559 C298.918,49.9538 299.129,49.3054 299.551,48.8106 C299.973,48.3158 300.527,48.0684 301.215,48.0684 C302.465,48.0684 303.147,48.9018 303.262,50.5684 L300.496,50.5684 M301.918,50.0059 C301.908,49.7768 301.9,49.5997 301.894,49.4747 C301.889,49.3497 301.871,49.209 301.84,49.0528 C301.809,48.8965 301.769,48.782 301.723,48.709 C301.676,48.6361 301.611,48.571 301.527,48.5137 C301.444,48.4564 301.34,48.4278 301.215,48.4278 C300.944,48.4278 300.751,48.5554 300.637,48.8106 C300.522,49.0658 300.454,49.5163 300.434,50.1622 L301.918,50.1622 L301.918,50.0059 M306.762,48.7872 C306.564,48.7872 306.358,48.8757 306.144,49.0528 C305.931,49.2299 305.824,49.3549 305.824,49.4278 L305.824,52.3809 C305.824,52.5893 305.863,52.7377 305.941,52.8262 C306.019,52.9148 306.158,52.9747 306.355,53.0059 L306.355,53.2715 L303.715,53.2715 L303.715,53.0059 C303.965,52.9538 304.124,52.8887 304.191,52.8106 C304.259,52.7325 304.293,52.5788 304.293,52.3497 L304.293,49.1153 C304.293,48.8861 304.256,48.7299 304.184,48.6465 C304.111,48.5632 303.954,48.5007 303.715,48.459 L303.715,48.1934 L305.809,48.1934 L305.809,49.0215 C306.215,48.3861 306.741,48.0684 307.387,48.0684 C307.835,48.0684 308.194,48.209 308.465,48.4903 C308.736,48.7715 308.871,49.1465 308.871,49.6153 L308.871,52.3809 C308.871,52.6101 308.908,52.7689 308.98,52.8575 C309.053,52.946 309.194,52.9955 309.402,53.0059 L309.402,53.2715 L306.824,53.2715 L306.824,53.0059 C307.012,52.9851 307.144,52.9278 307.223,52.834 C307.301,52.7403 307.34,52.5893 307.34,52.3809 L307.34,49.709 C307.34,49.0945 307.147,48.7872 306.762,48.7872 M312.934,48.1934 L312.934,48.6778 L311.902,48.6778 L311.902,51.9747 C311.902,52.1934 311.936,52.3523 312.004,52.4512 C312.072,52.5502 312.184,52.5997 312.34,52.5997 C312.559,52.5997 312.767,52.4122 312.965,52.0372 L313.23,52.1465 C313.012,52.6049 312.777,52.9278 312.527,53.1153 C312.277,53.3028 311.97,53.3965 311.605,53.3965 C311.23,53.3965 310.931,53.295 310.707,53.0919 C310.483,52.8887 310.371,52.6101 310.371,52.2559 L310.371,48.6778 L309.809,48.6778 L309.809,48.3809 C310.163,48.0893 310.47,47.795 310.73,47.4981 C310.991,47.2012 311.293,46.8132 311.637,46.334 L311.902,46.334 L311.902,48.1934 L312.934,48.1934 M315.137,50.5684 C315.147,50.7663 315.163,50.946 315.184,51.1075 C315.204,51.2689 315.241,51.4486 315.293,51.6465 C315.345,51.8445 315.418,52.0085 315.512,52.1387 C315.605,52.2689 315.73,52.3809 315.887,52.4747 C316.043,52.5684 316.23,52.6153 316.449,52.6153 C316.678,52.6153 316.889,52.5606 317.082,52.4512 C317.275,52.3419 317.48,52.157 317.699,51.8965 L317.965,52.0372 C317.6,52.558 317.264,52.92 316.957,53.1231 C316.65,53.3262 316.272,53.4278 315.824,53.4278 C315.137,53.4278 314.587,53.183 314.176,52.6934 C313.764,52.2038 313.559,51.558 313.559,50.7559 C313.559,49.9538 313.769,49.3054 314.191,48.8106 C314.613,48.3158 315.168,48.0684 315.855,48.0684 C317.105,48.0684 317.788,48.9018 317.902,50.5684 L315.137,50.5684 M316.559,50.0059 C316.548,49.7768 316.54,49.5997 316.535,49.4747 C316.53,49.3497 316.512,49.209 316.48,49.0528 C316.449,48.8965 316.41,48.782 316.363,48.709 C316.316,48.6361 316.251,48.571 316.168,48.5137 C316.085,48.4564 315.98,48.4278 315.855,48.4278 C315.585,48.4278 315.392,48.5554 315.277,48.8106 C315.163,49.0658 315.095,49.5163 315.074,50.1622 L316.559,50.1622 L316.559,50.0059 "/>
<polyline class="VoltaSegment" fill="none" stroke="#000000" stroke-width="0.50" stroke-linecap="square" stroke-linejoin="bevel" points="229.23,43.7709 389.672,43.7709"/>
<polyline class="VoltaSegment" fill="none" stroke="#000000" stroke-width="0.50" stroke-linecap="square" stroke-linejoin="bevel" points="229.23,43.7709 229.23,53.2715"/>
<polyline class="VoltaSegment" fill="none" stroke="#000000" stroke-width="0.50" stroke-linecap="square" stroke-linejoin="bevel" points="389.672,43.7709 389.672,53.2715"/>
<path class="VoltaSegment" d="M74.5184,48.0528 C74.4768,47.8445 74.4455,47.6986 74.4247,47.6153 C74.4038,47.532 74.3648,47.407 74.3075,47.2403 C74.2502,47.0736 74.1877,46.9538 74.12,46.8809 C74.0523,46.808 73.9559,46.7195 73.8309,46.6153 C73.7059,46.5111 73.5627,46.433 73.4012,46.3809 C73.2398,46.3288 73.0419,46.2846 72.8075,46.2481 C72.5731,46.2116 72.3049,46.1934 72.0028,46.1934 C71.7215,46.1934 71.534,46.2299 71.4403,46.3028 C71.3465,46.3757 71.2997,46.5163 71.2997,46.7247 L71.2997,49.2872 C71.8518,49.2872 72.245,49.17 72.4794,48.9356 C72.7137,48.7012 72.883,48.2663 72.9872,47.6309 L73.2528,47.6309 L73.2528,51.3653 L72.9872,51.3653 C72.9143,50.7299 72.7554,50.2898 72.5106,50.045 C72.2658,49.8002 71.8622,49.6674 71.2997,49.6465 L71.2997,52.209 C71.2997,52.5111 71.3752,52.7116 71.5262,52.8106 C71.6773,52.9096 72.008,52.9695 72.5184,52.9903 L72.5184,53.2715 L68.5497,53.2715 L68.5497,52.9903 C68.9663,52.9486 69.232,52.8809 69.3465,52.7872 C69.4611,52.6934 69.5184,52.5007 69.5184,52.209 L69.5184,46.8965 C69.5184,46.6049 69.4533,46.407 69.3231,46.3028 C69.1929,46.1986 68.9351,46.1361 68.5497,46.1153 L68.5497,45.834 L74.784,45.834 L74.784,48.0528 L74.5184,48.0528 M79.0653,49.6622 C78.8986,49.6622 78.7502,49.6075 78.62,49.4981 C78.4898,49.3887 78.383,49.282 78.2997,49.1778 C78.2163,49.0736 78.1486,49.0215 78.0965,49.0215 C77.909,49.0215 77.7502,49.1231 77.62,49.3262 C77.4898,49.5294 77.4247,49.7715 77.4247,50.0528 L77.4247,52.1309 C77.4247,52.4851 77.4741,52.7143 77.5731,52.8184 C77.6721,52.9226 77.8882,52.9851 78.2215,53.0059 L78.2215,53.2715 L75.3153,53.2715 L75.3153,53.0059 C75.5549,52.9643 75.7111,52.9018 75.784,52.8184 C75.857,52.7351 75.8934,52.5788 75.8934,52.3497 L75.8934,49.1153 C75.8934,48.8965 75.8544,48.7403 75.7762,48.6465 C75.6981,48.5528 75.5445,48.4903 75.3153,48.459 L75.3153,48.1934 L77.3778,48.1934 L77.3778,49.0997 C77.6382,48.7351 77.883,48.4721 78.1122,48.3106 C78.3413,48.1491 78.5913,48.0684 78.8622,48.0684 C79.1226,48.0684 79.3361,48.1491 79.5028,48.3106 C79.6695,48.4721 79.7528,48.6778 79.7528,48.9278 C79.7528,49.1361 79.6877,49.3106 79.5575,49.4512 C79.4273,49.5919 79.2632,49.6622 79.0653,49.6622 M81.4247,48.834 C81.4247,48.8757 81.4794,48.9747 81.5887,49.1309 C81.6981,49.2872 81.7528,49.4278 81.7528,49.5528 C81.7528,49.7403 81.6825,49.8913 81.5419,50.0059 C81.4012,50.1205 81.2215,50.1778 81.0028,50.1778 C80.7736,50.1778 80.5965,50.1153 80.4715,49.9903 C80.3465,49.8653 80.284,49.6882 80.284,49.459 C80.284,49.0424 80.4741,48.7064 80.8544,48.4512 C81.2346,48.196 81.7372,48.0684 82.3622,48.0684 C83.0288,48.0684 83.5575,48.2038 83.9481,48.4747 C84.3387,48.7455 84.534,49.1153 84.534,49.584 L84.534,52.4278 C84.534,52.6049 84.6122,52.6934 84.7684,52.6934 C84.8205,52.6934 84.8622,52.683 84.8934,52.6622 L85.0028,52.5528 L85.1747,52.7715 C84.7788,53.209 84.3674,53.4278 83.9403,53.4278 C83.6695,53.4278 83.4663,53.3679 83.3309,53.2481 C83.1955,53.1283 83.0965,52.9226 83.034,52.6309 C82.4715,53.1622 81.8934,53.4278 81.2997,53.4278 C80.9455,53.4278 80.6538,53.3158 80.4247,53.0919 C80.1955,52.8679 80.0809,52.584 80.0809,52.2403 C80.0809,52.0111 80.1408,51.8002 80.2606,51.6075 C80.3804,51.4148 80.521,51.2585 80.6825,51.1387 C80.8439,51.0189 81.0653,50.8965 81.3465,50.7715 C81.6278,50.6465 81.8674,50.5502 82.0653,50.4825 C82.2632,50.4148 82.5236,50.334 82.8465,50.2403 C82.9299,50.2195 82.9924,50.2038 83.034,50.1934 L83.034,49.3965 C83.034,49.0632 82.9611,48.8184 82.8153,48.6622 C82.6695,48.5059 82.4351,48.4278 82.1122,48.4278 C81.9247,48.4278 81.7632,48.4669 81.6278,48.545 C81.4924,48.6231 81.4247,48.7195 81.4247,48.834 M83.0184,52.1465 L83.0184,50.5684 C82.1226,50.7976 81.6747,51.2403 81.6747,51.8965 C81.6747,52.1153 81.7268,52.2898 81.8309,52.42 C81.9351,52.5502 82.0705,52.6153 82.2372,52.6153 C82.4872,52.6153 82.7476,52.459 83.0184,52.1465 M87.4247,48.0684 C87.6226,48.0684 87.857,48.1075 88.1278,48.1856 C88.3986,48.2637 88.5653,48.3028 88.6278,48.3028 C88.7424,48.3028 88.8309,48.2299 88.8934,48.084 L89.1278,48.084 L89.1278,49.6934 L88.8622,49.6934 C88.5705,48.8497 88.1226,48.4278 87.5184,48.4278 C87.3101,48.4278 87.1356,48.4877 86.995,48.6075 C86.8544,48.7273 86.784,48.8809 86.784,49.0684 C86.784,49.2351 86.8491,49.3861 86.9794,49.5215 C87.1096,49.657 87.271,49.7663 87.4637,49.8497 C87.6564,49.933 87.8622,50.032 88.0809,50.1465 C88.2997,50.2611 88.5054,50.3783 88.6981,50.4981 C88.8908,50.6179 89.0497,50.7872 89.1747,51.0059 C89.2997,51.2247 89.3622,51.4747 89.3622,51.7559 C89.3622,52.2455 89.2059,52.6465 88.8934,52.959 C88.5809,53.2715 88.1747,53.4278 87.6747,53.4278 C87.3726,53.4278 87.0679,53.3757 86.7606,53.2715 C86.4533,53.1674 86.2788,53.1153 86.2372,53.1153 C86.1538,53.1153 86.0549,53.2143 85.9403,53.4122 L85.6747,53.4122 L85.6747,51.5997 L85.9715,51.5997 C86.2111,52.5788 86.7163,53.0684 87.4872,53.0684 C87.7372,53.0684 87.9377,53.0007 88.0887,52.8653 C88.2398,52.7299 88.3153,52.558 88.3153,52.3497 C88.3153,52.1518 88.2241,51.9799 88.0419,51.834 C87.8596,51.6882 87.6408,51.558 87.3856,51.4434 C87.1304,51.3288 86.8752,51.2012 86.62,51.0606 C86.3648,50.92 86.146,50.7325 85.9637,50.4981 C85.7814,50.2637 85.6903,49.9903 85.6903,49.6778 C85.6903,49.2195 85.8544,48.8366 86.1825,48.5294 C86.5106,48.2221 86.9247,48.0684 87.4247,48.0684 M91.5965,50.5684 C91.607,50.7663 91.6226,50.946 91.6434,51.1075 C91.6643,51.2689 91.7007,51.4486 91.7528,51.6465 C91.8049,51.8445 91.8778,52.0085 91.9715,52.1387 C92.0653,52.2689 92.1903,52.3809 92.3465,52.4747 C92.5028,52.5684 92.6903,52.6153 92.909,52.6153 C93.1382,52.6153 93.3491,52.5606 93.5419,52.4512 C93.7346,52.3419 93.9403,52.157 94.159,51.8965 L94.4247,52.0372 C94.0601,52.558 93.7241,52.92 93.4169,53.1231 C93.1096,53.3262 92.732,53.4278 92.284,53.4278 C91.5965,53.4278 91.0471,53.183 90.6356,52.6934 C90.2241,52.2038 90.0184,51.558 90.0184,50.7559 C90.0184,49.9538 90.2294,49.3054 90.6512,48.8106 C91.0731,48.3158 91.6278,48.0684 92.3153,48.0684 C93.5653,48.0684 94.2476,48.9018 94.3622,50.5684 L91.5965,50.5684 M93.0184,50.0059 C93.008,49.7768 93.0002,49.5997 92.995,49.4747 C92.9898,49.3497 92.9715,49.209 92.9403,49.0528 C92.909,48.8965 92.87,48.782 92.8231,48.709 C92.7762,48.6361 92.7111,48.571 92.6278,48.5137 C92.5445,48.4564 92.4403,48.4278 92.3153,48.4278 C92.0445,48.4278 91.8518,48.5554 91.7372,48.8106 C91.6226,49.0658 91.5549,49.5163 91.534,50.1622 L93.0184,50.1622 L93.0184,50.0059 M98.9715,48.834 C98.9715,48.8757 99.0262,48.9747 99.1356,49.1309 C99.245,49.2872 99.2997,49.4278 99.2997,49.5528 C99.2997,49.7403 99.2294,49.8913 99.0887,50.0059 C98.9481,50.1205 98.7684,50.1778 98.5497,50.1778 C98.3205,50.1778 98.1434,50.1153 98.0184,49.9903 C97.8934,49.8653 97.8309,49.6882 97.8309,49.459 C97.8309,49.0424 98.021,48.7064 98.4012,48.4512 C98.7814,48.196 99.284,48.0684 99.909,48.0684 C100.576,48.0684 101.104,48.2038 101.495,48.4747 C101.886,48.7455 102.081,49.1153 102.081,49.584 L102.081,52.4278 C102.081,52.6049 102.159,52.6934 102.315,52.6934 C102.367,52.6934 102.409,52.683 102.44,52.6622 L102.55,52.5528 L102.722,52.7715 C102.326,53.209 101.914,53.4278 101.487,53.4278 C101.216,53.4278 101.013,53.3679 100.878,53.2481 C100.742,53.1283 100.643,52.9226 100.581,52.6309 C100.018,53.1622 99.4403,53.4278 98.8465,53.4278 C98.4924,53.4278 98.2007,53.3158 97.9715,53.0919 C97.7424,52.8679 97.6278,52.584 97.6278,52.2403 C97.6278,52.0111 97.6877,51.8002 97.8075,51.6075 C97.9273,51.4148 98.0679,51.2585 98.2294,51.1387 C98.3908,51.0189 98.6122,50.8965 98.8934,50.7715 C99.1747,50.6465 99.4143,50.5502 99.6122,50.4825 C99.8101,50.4148 100.071,50.334 100.393,50.2403 C100.477,50.2195 100.539,50.2038 100.581,50.1934 L100.581,49.3965 C100.581,49.0632 100.508,48.8184 100.362,48.6622 C100.216,48.5059 99.982,48.4278 99.659,48.4278 C99.4715,48.4278 99.3101,48.4669 99.1747,48.545 C99.0393,48.6231 98.9715,48.7195 98.9715,48.834 M100.565,52.1465 L100.565,50.5684 C99.6695,50.7976 99.2215,51.2403 99.2215,51.8965 C99.2215,52.1153 99.2736,52.2898 99.3778,52.42 C99.482,52.5502 99.6174,52.6153 99.784,52.6153 C100.034,52.6153 100.294,52.459 100.565,52.1465 M106.081,48.7872 C105.883,48.7872 105.677,48.8757 105.464,49.0528 C105.25,49.2299 105.143,49.3549 105.143,49.4278 L105.143,52.3809 C105.143,52.5893 105.182,52.7377 105.261,52.8262 C105.339,52.9148 105.477,52.9747 105.675,53.0059 L105.675,53.2715 L103.034,53.2715 L103.034,53.0059 C103.284,52.9538 103.443,52.8887 103.511,52.8106 C103.578,52.7325 103.612,52.5788 103.612,52.3497 L103.612,49.1153 C103.612,48.8861 103.576,48.7299 103.503,48.6465 C103.43,48.5632 103.274,48.5007 103.034,48.459 L103.034,48.1934 L105.128,48.1934 L105.128,49.0215 C105.534,48.3861 106.06,48.0684 106.706,48.0684 C107.154,48.0684 107.513,48.209 107.784,48.4903 C108.055,48.7715 108.19,49.1465 108.19,49.6153 L108.19,52.3809 C108.19,52.6101 108.227,52.7689 108.3,52.8575 C108.373,52.946 108.513,52.9955 108.722,53.0059 L108.722,53.2715 L106.143,53.2715 L106.143,53.0059 C106.331,52.9851 106.464,52.9278 106.542,52.834 C106.62,52.7403 106.659,52.5893 106.659,52.3809 L106.659,49.709 C106.659,49.0945 106.466,48.7872 106.081,48.7872 M112.253,48.1934 L112.253,48.6778 L111.222,48.6778 L111.222,51.9747 C111.222,52.1934 111.255,52.3523 111.323,52.4512 C111.391,52.5502 111.503,52.5997 111.659,52.5997 C111.878,52.5997 112.086,52.4122 112.284,52.0372 L112.55,52.1465 C112.331,52.6049 112.097,52.9278 111.847,53.1153 C111.597,53.3028 111.289,53.3965 110.925,53.3965 C110.55,53.3965 110.25,53.295 110.026,53.0919 C109.802,52.8887 109.69,52.6101 109.69,52.2559 L109.69,48.6778 L109.128,48.6778 L109.128,48.3809 C109.482,48.0893 109.789,47.795 110.05,47.4981 C110.31,47.2012 110.612,46.8132 110.956,46.334 L111.222,46.334 L111.222,48.1934 L112.253,48.1934 M114.456,50.5684 C114.466,50.7663 114.482,50.946 114.503,51.1075 C114.524,51.2689 114.56,51.4486 114.612,51.6465 C114.664,51.8445 114.737,52.0085 114.831,52.1387 C114.925,52.2689 115.05,52.3809 115.206,52.4747 C115.362,52.5684 115.55,52.6153 115.768,52.6153 C115.998,52.6153 116.209,52.5606 116.401,52.4512 C116.594,52.3419 116.8,52.157 117.018,51.8965 L117.284,52.0372 C116.919,52.558 116.584,52.92 116.276,53.1231 C115.969,53.3262 115.591,53.4278 115.143,53.4278 C114.456,53.4278 113.906,53.183 113.495,52.6934 C113.084,52.2038 112.878,51.558 112.878,50.7559 C112.878,49.9538 113.089,49.3054 113.511,48.8106 C113.932,48.3158 114.487,48.0684 115.175,48.0684 C116.425,48.0684 117.107,48.9018 117.222,50.5684 L114.456,50.5684 M115.878,50.0059 C115.867,49.7768 115.86,49.5997 115.854,49.4747 C115.849,49.3497 115.831,49.209 115.8,49.0528 C115.768,48.8965 115.729,48.782 115.682,48.709 C115.636,48.6361 115.571,48.571 115.487,48.5137 C115.404,48.4564 115.3,48.4278 115.175,48.4278 C114.904,48.4278 114.711,48.5554 114.597,48.8106 C114.482,49.0658 114.414,49.5163 114.393,50.1622 L115.878,50.1622 L115.878,50.0059 M122.003,52.084 L122.206,52.2872 C121.883,52.6934 121.557,52.9851 121.229,53.1622 C120.901,53.3393 120.524,53.4278 120.097,53.4278 C119.419,53.4278 118.86,53.183 118.417,52.6934 C117.974,52.2038 117.753,51.584 117.753,50.834 C117.753,50.0424 117.998,49.3835 118.487,48.8575 C118.977,48.3314 119.597,48.0684 120.347,48.0684 C120.826,48.0684 121.229,48.183 121.557,48.4122 C121.886,48.6413 122.05,48.9278 122.05,49.2715 C122.05,49.4903 121.985,49.6622 121.854,49.7872 C121.724,49.9122 121.539,49.9747 121.3,49.9747 C120.893,49.9747 120.69,49.7143 120.69,49.1934 C120.69,48.8913 120.669,48.7038 120.628,48.6309 C120.555,48.4955 120.419,48.4278 120.222,48.4278 C119.94,48.4278 119.716,48.5919 119.55,48.92 C119.383,49.2481 119.3,49.6934 119.3,50.2559 C119.3,50.9955 119.44,51.5866 119.722,52.0294 C120.003,52.4721 120.383,52.6934 120.862,52.6934 C121.091,52.6934 121.287,52.6491 121.448,52.5606 C121.61,52.4721 121.794,52.3132 122.003,52.084 M124.112,50.5684 C124.123,50.7663 124.138,50.946 124.159,51.1075 C124.18,51.2689 124.216,51.4486 124.268,51.6465 C124.321,51.8445 124.393,52.0085 124.487,52.1387 C124.581,52.2689 124.706,52.3809 124.862,52.4747 C125.018,52.5684 125.206,52.6153 125.425,52.6153 C125.654,52.6153 125.865,52.5606 126.057,52.4512 C126.25,52.3419 126.456,52.157 126.675,51.8965 L126.94,52.0372 C126.576,52.558 126.24,52.92 125.932,53.1231 C125.625,53.3262 125.248,53.4278 124.8,53.4278 C124.112,53.4278 123.563,53.183 123.151,52.6934 C122.74,52.2038 122.534,51.558 122.534,50.7559 C122.534,49.9538 122.745,49.3054 123.167,48.8106 C123.589,48.3158 124.143,48.0684 124.831,48.0684 C126.081,48.0684 126.763,48.9018 126.878,50.5684 L124.112,50.5684 M125.534,50.0059 C125.524,49.7768 125.516,49.5997 125.511,49.4747 C125.505,49.3497 125.487,49.209 125.456,49.0528 C125.425,48.8965 125.386,48.782 125.339,48.709 C125.292,48.6361 125.227,48.571 125.143,48.5137 C125.06,48.4564 124.956,48.4278 124.831,48.4278 C124.56,48.4278 124.367,48.5554 124.253,48.8106 C124.138,49.0658 124.071,49.5163 124.05,50.1622 L125.534,50.1622 L125.534,50.0059 M130.862,53.4122 L130.862,52.709 C130.602,52.9799 130.365,53.1674 130.151,53.2715 C129.938,53.3757 129.685,53.4278 129.393,53.4278 C128.81,53.4278 128.334,53.183 127.964,52.6934 C127.594,52.2038 127.409,51.584 127.409,50.834 C127.409,50.0424 127.607,49.3835 128.003,48.8575 C128.399,48.3314 128.904,48.0684 129.518,48.0684 C129.768,48.0684 129.99,48.1179 130.182,48.2169 C130.375,48.3158 130.591,48.4903 130.831,48.7403 L130.831,46.7403 C130.831,46.4799 130.781,46.3158 130.682,46.2481 C130.584,46.1804 130.352,46.1309 129.987,46.0997 L129.987,45.834 L132.347,45.834 L132.347,52.1778 C132.347,52.407 132.393,52.5658 132.487,52.6544 C132.581,52.7429 132.753,52.7924 133.003,52.8028 L133.003,53.0684 L132.315,53.1465 C131.722,53.2299 131.237,53.3184 130.862,53.4122 M129.893,52.8184 C130.133,52.8184 130.349,52.7143 130.542,52.5059 C130.735,52.2976 130.831,52.1465 130.831,52.0528 L130.831,49.3653 C130.758,49.157 130.641,48.9903 130.479,48.8653 C130.318,48.7403 130.149,48.6778 129.972,48.6778 C129.347,48.6778 129.034,49.3705 129.034,50.7559 C129.034,52.1309 129.321,52.8184 129.893,52.8184 M135.05,50.5684 C135.06,50.7663 135.076,50.946 135.097,51.1075 C135.117,51.2689 135.154,51.4486 135.206,51.6465 C135.258,51.8445 135.331,52.0085 135.425,52.1387 C135.518,52.2689 135.643,52.3809 135.8,52.4747 C135.956,52.5684 136.143,52.6153 136.362,52.6153 C136.591,52.6153 136.802,52.5606 136.995,52.4512 C137.188,52.3419 137.393,52.157 137.612,51.8965 L137.878,52.0372 C137.513,52.558 137.177,52.92 136.87,53.1231 C136.563,53.3262 136.185,53.4278 135.737,53.4278 C135.05,53.4278 134.5,53.183 134.089,52.6934 C133.677,52.2038 133.472,51.558 133.472,50.7559 C133.472,49.9538 133.682,49.3054 134.104,48.8106 C134.526,48.3158 135.081,48.0684 135.768,48.0684 C137.018,48.0684 137.701,48.9018 137.815,50.5684 L135.05,50.5684 M136.472,50.0059 C136.461,49.7768 136.453,49.5997 136.448,49.4747 C136.443,49.3497 136.425,49.209 136.393,49.0528 C136.362,48.8965 136.323,48.782 136.276,48.709 C136.229,48.6361 136.164,48.571 136.081,48.5137 C135.998,48.4564 135.893,48.4278 135.768,48.4278 C135.498,48.4278 135.305,48.5554 135.19,48.8106 C135.076,49.0658 135.008,49.5163 134.987,50.1622 L136.472,50.1622 L136.472,50.0059 M141.315,48.7872 C141.117,48.7872 140.912,48.8757 140.698,49.0528 C140.485,49.2299 140.378,49.3549 140.378,49.4278 L140.378,52.3809 C140.378,52.5893 140.417,52.7377 140.495,52.8262 C140.573,52.9148 140.711,52.9747 140.909,53.0059 L140.909,53.2715 L138.268,53.2715 L138.268,53.0059 C138.518,52.9538 138.677,52.8887 138.745,52.8106 C138.813,52.7325 138.847,52.5788 138.847,52.3497 L138.847,49.1153 C138.847,48.8861 138.81,48.7299 138.737,48.6465 C138.664,48.5632 138.508,48.5007 138.268,48.459 L138.268,48.1934 L140.362,48.1934 L140.362,49.0215 C140.768,48.3861 141.294,48.0684 141.94,48.0684 C142.388,48.0684 142.748,48.209 143.018,48.4903 C143.289,48.7715 143.425,49.1465 143.425,49.6153 L143.425,52.3809 C143.425,52.6101 143.461,52.7689 143.534,52.8575 C143.607,52.946 143.748,52.9955 143.956,53.0059 L143.956,53.2715 L141.378,53.2715 L141.378,53.0059 C141.565,52.9851 141.698,52.9278 141.776,52.834 C141.854,52.7403 141.893,52.5893 141.893,52.3809 L141.893,49.709 C141.893,49.0945 141.701,48.7872 141.315,48.7872 M147.487,48.1934 L147.487,48.6778 L146.456,48.6778 L146.456,51.9747 C146.456,52.1934 146.49,52.3523 146.557,52.4512 C146.625,52.5502 146.737,52.5997 146.893,52.5997 C147.112,52.5997 147.321,52.4122 147.518,52.0372 L147.784,52.1465 C147.565,52.6049 147.331,52.9278 147.081,53.1153 C146.831,53.3028 146.524,53.3965 146.159,53.3965 C145.784,53.3965 145.485,53.295 145.261,53.0919 C145.037,52.8887 144.925,52.6101 144.925,52.2559 L144.925,48.6778 L144.362,48.6778 L144.362,48.3809 C144.716,48.0893 145.024,47.795 145.284,47.4981 C145.544,47.2012 145.847,46.8132 146.19,46.334 L146.456,46.334 L146.456,48.1934 L147.487,48.1934 M149.69,50.5684 C149.701,50.7663 149.716,50.946 149.737,51.1075 C149.758,51.2689 149.794,51.4486 149.847,51.6465 C149.899,51.8445 149.972,52.0085 150.065,52.1387 C150.159,52.2689 150.284,52.3809 150.44,52.4747 C150.597,52.5684 150.784,52.6153 151.003,52.6153 C151.232,52.6153 151.443,52.5606 151.636,52.4512 C151.828,52.3419 152.034,52.157 152.253,51.8965 L152.518,52.0372 C152.154,52.558 151.818,52.92 151.511,53.1231 C151.203,53.3262 150.826,53.4278 150.378,53.4278 C149.69,53.4278 149.141,53.183 148.729,52.6934 C148.318,52.2038 148.112,51.558 148.112,50.7559 C148.112,49.9538 148.323,49.3054 148.745,48.8106 C149.167,48.3158 149.722,48.0684 150.409,48.0684 C151.659,48.0684 152.341,48.9018 152.456,50.5684 L149.69,50.5684 M151.112,50.0059 C151.102,49.7768 151.094,49.5997 151.089,49.4747 C151.084,49.3497 151.065,49.209 151.034,49.0528 C151.003,48.8965 150.964,48.782 150.917,48.709 C150.87,48.6361 150.805,48.571 150.722,48.5137 C150.638,48.4564 150.534,48.4278 150.409,48.4278 C150.138,48.4278 149.946,48.5554 149.831,48.8106 C149.716,49.0658 149.649,49.5163 149.628,50.1622 L151.112,50.1622 L151.112,50.0059 "/>
<polyline class="VoltaSegment" fill="none" stroke="#000000" stroke-width="0.50" stroke-linecap="square" stroke-linejoin="bevel" points="65.8308,43.7709 221.079,43.7709"/>
<polyline class="VoltaSegment" fill="none" stroke="#000000" stroke-width="0.50" stroke-linecap="square" stroke-linejoin="bevel" points="65.8308,43.7709 65.8308,53.2715"/>
<polyline class="VoltaSegment" fill="none" stroke="#000000" stroke-width="0.50" stroke-linecap="square" stroke-linejoin="bevel" points="221.079,43.7709 221.079,53.2715"/>
</svg>
