<?xml version="1.0" encoding="UTF-8" standalone="no"?>
<svg width="419.528px" height="595.276px" viewBox="0 0 419.528 595.276"
 xmlns="http://www.w3.org/2000/svg" xmlns:xlink="http://www.w3.org/1999/xlink" version="1.2" baseProfile="tiny">
<title>Title</title>
<desc>Generated by MuseScore 2.1.0</desc>
<polyline class="StaffLines" fill="none" stroke="#000000" stroke-width="0.40" stroke-linejoin="bevel" points="28.3465,63.3487 391.181,63.3487"/>
<polyline class="StaffLines" fill="none" stroke="#000000" stroke-width="0.40" stroke-linejoin="bevel" points="28.3465,68.349 391.181,68.349"/>
<polyline class="StaffLines" fill="none" stroke="#000000" stroke-width="0.40" stroke-linejoin="bevel" points="28.3465,73.3493 391.181,73.3493"/>
<polyline class="StaffLines" fill="none" stroke="#000000" stroke-width="0.40" stroke-linejoin="bevel" points="28.3465,78.3496 391.181,78.3496"/>
<polyline class="StaffLines" fill="none" stroke="#000000" stroke-width="0.40" stroke-linejoin="bevel" points="28.3465,83.3499 391.181,83.3499"/>
<polyline class="BarLine" fill="none" stroke="#000000" stroke-width="0.80" stroke-linejoin="bevel" points="386.281,63.3487 386.281,83.3499"/>
<polyline class="BarLine" fill="none" stroke="#000000" stroke-width="2.50" stroke-linejoin="bevel" points="389.931,63.3487 389.931,83.3499"/>
<polyline class="BarLine" fill="none" stroke="#000000" stroke-width="0.80" stroke-linejoin="bevel" points="320.814,63.3487 320.814,83.3499"/>
<polyline class="BarLine" fill="none" stroke="#000000" stroke-width="0.80" stroke-linejoin="bevel" points="230.908,63.3487 230.908,83.3499"/>
<polyline class="BarLine" fill="none" stroke="#000000" stroke-width="0.80" stroke-linejoin="bevel" points="144.122,63.3487 144.122,83.3499"/>
<polyline class="LedgerLine" fill="none" stroke="#000000" stroke-width="0.80" stroke-linecap="square" stroke-linejoin="bevel" points="64.4362,88.3502 74.0196,88.3502"/>
<polyline class="Stem" fill="none" stroke="#000000" stroke-width="0.65" stroke-linecap="round" stroke-linejoin="bevel" points="327.54,71.6332 327.54,87.1002"/>
<polyline class="Stem" fill="none" stroke="#000000" stroke-width="0.65" stroke-linecap="round" stroke-linejoin="bevel" points="305.896,77.4105 305.896,63.3487"/>
<polyline class="Stem" fill="none" stroke="#000000" stroke-width="0.65" stroke-linecap="round" stroke-linejoin="bevel" points="285.12,72.4102 285.12,58.3483"/>
<polyline class="Stem" fill="none" stroke="#000000" stroke-width="0.65" stroke-linecap="round" stroke-linejoin="bevel" points="264.343,74.9103 264.343,62.0986"/>
<polyline class="Stem" fill="none" stroke="#000000" stroke-width="0.65" stroke-linecap="round" stroke-linejoin="bevel" points="243.567,77.4105 243.567,63.3487"/>
<polyline class="Stem" fill="none" stroke="#000000" stroke-width="0.65" stroke-linecap="round" stroke-linejoin="bevel" points="201.217,77.4105 201.217,61.4735"/>
<polyline class="Stem" fill="none" stroke="#000000" stroke-width="0.65" stroke-linecap="round" stroke-linejoin="bevel" points="178.999,74.9103 178.999,62.0986"/>
<polyline class="Stem" fill="none" stroke="#000000" stroke-width="0.65" stroke-linecap="round" stroke-linejoin="bevel" points="156.78,77.4105 156.78,63.3487"/>
<polyline class="Stem" fill="none" stroke="#000000" stroke-width="0.65" stroke-linecap="round" stroke-linejoin="bevel" points="130.534,79.9106 130.534,67.0989"/>
<polyline class="Stem" fill="none" stroke="#000000" stroke-width="0.65" stroke-linecap="round" stroke-linejoin="bevel" points="111.087,82.4108 111.087,68.349"/>
<polyline class="Stem" fill="none" stroke="#000000" stroke-width="0.65" stroke-linecap="round" stroke-linejoin="bevel" points="91.6409,84.9109 91.6409,72.0992"/>
<polyline class="Stem" fill="none" stroke="#000000" stroke-width="0.65" stroke-linecap="round" stroke-linejoin="bevel" points="72.1945,87.4111 72.1945,73.3493"/>
<path class="Note" d="M333.527,69.5366 C333.527,69.3179 333.444,69.1304 333.277,68.9741 C333.1,68.8075 332.902,68.7241 332.683,68.7241 C332.298,68.7241 331.511,69.1148 330.324,69.896 C329.095,70.6877 328.345,71.2554 328.074,71.5991 C327.928,71.7762 327.855,71.9637 327.855,72.1616 C327.855,72.3804 327.944,72.5679 328.121,72.7241 C328.277,72.8908 328.47,72.9741 328.699,72.9741 C329.074,72.9741 329.871,72.5835 331.09,71.8023 C332.287,71.021 333.027,70.4533 333.308,70.0991 C333.454,69.9325 333.527,69.745 333.527,69.5366 M332.496,68.0991 C333.61,68.0991 334.168,68.5783 334.168,69.5366 C334.168,70.0054 334.032,70.5523 333.761,71.1773 C333.491,71.7918 333.126,72.2606 332.668,72.5835 C331.668,73.2606 330.412,73.5991 328.902,73.5991 C327.777,73.5991 327.215,73.12 327.215,72.1616 C327.215,71.7346 327.35,71.1929 327.621,70.5366 C327.881,69.9116 328.246,69.4377 328.715,69.1148 C329.725,68.4377 330.985,68.0991 332.496,68.0991"/>
<path class="Note" d="M304.028,75.5996 C304.653,75.5996 305.185,75.7611 305.622,76.084 C306.018,76.4381 306.216,76.8809 306.216,77.4121 C306.216,78.3079 305.757,79.1465 304.841,79.9277 C303.903,80.709 302.898,81.0996 301.825,81.0996 C301.2,81.0996 300.674,80.9381 300.247,80.6152 C299.841,80.2611 299.638,79.8184 299.638,79.2871 C299.638,78.3913 300.106,77.5527 301.044,76.7715 C301.961,75.9902 302.955,75.5996 304.028,75.5996"/>
<path class="Note" d="M283.252,70.5993 C283.877,70.5993 284.408,70.7607 284.846,71.0837 C285.242,71.4378 285.439,71.8805 285.439,72.4118 C285.439,73.3076 284.981,74.1462 284.064,74.9274 C283.127,75.7087 282.122,76.0993 281.049,76.0993 C280.424,76.0993 279.898,75.9378 279.471,75.6149 C279.064,75.2607 278.861,74.818 278.861,74.2868 C278.861,73.391 279.33,72.5524 280.268,71.7712 C281.184,70.9899 282.179,70.5993 283.252,70.5993"/>
<path class="Note" d="M262.476,73.0994 C263.101,73.0994 263.632,73.2609 264.069,73.5838 C264.465,73.938 264.663,74.3807 264.663,74.9119 C264.663,75.8078 264.205,76.6463 263.288,77.4276 C262.351,78.2088 261.345,78.5994 260.272,78.5994 C259.647,78.5994 259.121,78.438 258.694,78.1151 C258.288,77.7609 258.085,77.3182 258.085,76.7869 C258.085,75.8911 258.554,75.0526 259.491,74.2713 C260.408,73.4901 261.403,73.0994 262.476,73.0994"/>
<path class="Note" d="M241.699,75.5996 C242.324,75.5996 242.855,75.7611 243.293,76.084 C243.689,76.4381 243.887,76.8809 243.887,77.4121 C243.887,78.3079 243.428,79.1465 242.512,79.9277 C241.574,80.709 240.569,81.0996 239.496,81.0996 C238.871,81.0996 238.345,80.9381 237.918,80.6152 C237.512,80.2611 237.309,79.8184 237.309,79.2871 C237.309,78.3913 237.777,77.5527 238.715,76.7715 C239.631,75.9902 240.626,75.5996 241.699,75.5996"/>
<path class="Note" d="M199.349,75.5996 C199.974,75.5996 200.506,75.7611 200.943,76.084 C201.339,76.4381 201.537,76.8809 201.537,77.4121 C201.537,78.3079 201.079,79.1465 200.162,79.9277 C199.224,80.709 198.219,81.0996 197.146,81.0996 C196.521,81.0996 195.995,80.9381 195.568,80.6152 C195.162,80.2611 194.959,79.8184 194.959,79.2871 C194.959,78.3913 195.428,77.5527 196.365,76.7715 C197.282,75.9902 198.277,75.5996 199.349,75.5996"/>
<path class="Note" d="M177.131,73.0994 C177.756,73.0994 178.287,73.2609 178.725,73.5838 C179.121,73.938 179.319,74.3807 179.319,74.9119 C179.319,75.8078 178.86,76.6463 177.944,77.4276 C177.006,78.2088 176.001,78.5994 174.928,78.5994 C174.303,78.5994 173.777,78.438 173.35,78.1151 C172.944,77.7609 172.74,77.3182 172.74,76.7869 C172.74,75.8911 173.209,75.0526 174.147,74.2713 C175.063,73.4901 176.058,73.0994 177.131,73.0994"/>
<path class="Note" d="M154.913,75.5996 C155.538,75.5996 156.069,75.7611 156.507,76.084 C156.902,76.4381 157.1,76.8809 157.1,77.4121 C157.1,78.3079 156.642,79.1465 155.725,79.9277 C154.788,80.709 153.783,81.0996 152.71,81.0996 C152.085,81.0996 151.559,80.9381 151.132,80.6152 C150.725,80.2611 150.522,79.8184 150.522,79.2871 C150.522,78.3913 150.991,77.5527 151.928,76.7715 C152.845,75.9902 153.84,75.5996 154.913,75.5996"/>
<path class="Note" d="M128.666,78.0998 C129.291,78.0998 129.822,78.2612 130.26,78.5841 C130.656,78.9383 130.854,79.381 130.854,79.9123 C130.854,80.8081 130.395,81.6466 129.479,82.4279 C128.541,83.2091 127.536,83.5998 126.463,83.5998 C125.838,83.5998 125.312,83.4383 124.885,83.1154 C124.479,82.7612 124.275,82.3185 124.275,81.7873 C124.275,80.8914 124.744,80.0529 125.682,79.2716 C126.598,78.4904 127.593,78.0998 128.666,78.0998"/>
<path class="Note" d="M109.22,80.5999 C109.845,80.5999 110.376,80.7614 110.813,81.0843 C111.209,81.4385 111.407,81.8812 111.407,82.4124 C111.407,83.3083 110.949,84.1468 110.032,84.928 C109.095,85.7093 108.089,86.0999 107.017,86.0999 C106.392,86.0999 105.865,85.9385 105.438,85.6155 C105.032,85.2614 104.829,84.8187 104.829,84.2874 C104.829,83.3916 105.298,82.553 106.235,81.7718 C107.152,80.9905 108.147,80.5999 109.22,80.5999"/>
<path class="Note" d="M89.7733,83.1001 C90.3983,83.1001 90.9296,83.2615 91.3671,83.5845 C91.7629,83.9386 91.9608,84.3813 91.9608,84.9126 C91.9608,85.8084 91.5025,86.647 90.5858,87.4282 C89.6483,88.2095 88.6431,88.6001 87.5702,88.6001 C86.9452,88.6001 86.4191,88.4386 85.9921,88.1157 C85.5858,87.7615 85.3827,87.3188 85.3827,86.7876 C85.3827,85.8917 85.8514,85.0532 86.7889,84.272 C87.7056,83.4907 88.7004,83.1001 89.7733,83.1001"/>
<path class="Note" d="M70.3269,85.6002 C70.9519,85.6002 71.4832,85.7617 71.9207,86.0846 C72.3165,86.4388 72.5144,86.8815 72.5144,87.4127 C72.5144,88.3086 72.0561,89.1471 71.1394,89.9284 C70.2019,90.7096 69.1967,91.1002 68.1238,91.1002 C67.4988,91.1002 66.9728,90.9388 66.5457,90.6159 C66.1394,90.2617 65.9363,89.819 65.9363,89.2877 C65.9363,88.3919 66.4051,87.5534 67.3426,86.7721 C68.2592,85.9909 69.254,85.6002 70.3269,85.6002"/>
<path class="Clef" d="M38.8904,73.2246 C38.8904,73.2246 38.9321,73.2246 39.0154,73.2246 C39.0675,73.2142 39.1092,73.209 39.1404,73.209 C40.5987,73.209 41.7967,73.7246 42.7342,74.7559 C43.6717,75.7663 44.1404,76.9486 44.1404,78.3027 C44.1404,79.9902 43.4477,81.36 42.0623,82.4121 C41.6977,82.7038 41.2185,82.9381 40.6248,83.1152 C40.6977,83.959 40.7342,84.6413 40.7342,85.1621 C40.7342,85.2663 40.7185,85.6465 40.6873,86.3027 C40.6352,87.5111 40.2185,88.5579 39.4373,89.4434 C38.6873,90.3184 37.7498,90.7559 36.6248,90.7559 C35.5727,90.7559 34.6769,90.3861 33.9373,89.6465 C33.1873,88.8861 32.8123,87.9746 32.8123,86.9121 C32.8123,86.3496 33.031,85.8704 33.4685,85.4746 C33.906,85.0892 34.4164,84.8965 34.9998,84.8965 C35.5206,84.8965 35.9581,85.0996 36.3123,85.5059 C36.6769,85.8809 36.8592,86.3496 36.8592,86.9121 C36.8592,87.4121 36.6769,87.8444 36.3123,88.209 C35.9477,88.5736 35.5102,88.7559 34.9998,88.7559 C34.7914,88.7559 34.5935,88.7194 34.406,88.6465 C34.9789,89.4902 35.7394,89.9121 36.6873,89.9121 C37.5831,89.9121 38.3175,89.5475 38.8904,88.8184 C39.4946,88.0684 39.8227,87.1881 39.8748,86.1777 C39.8956,85.5527 39.906,85.1986 39.906,85.1152 C39.906,84.3861 39.88,83.7871 39.8279,83.3184 C39.1821,83.4225 38.6039,83.4746 38.0935,83.4746 C36.281,83.4746 34.7394,82.7559 33.4685,81.3184 C32.2185,79.8704 31.5935,78.1517 31.5935,76.1621 C31.5935,75.7454 31.63,75.3236 31.7029,74.8965 C31.7862,74.5423 31.8852,74.1569 31.9998,73.7402 C32.0623,73.5006 32.2394,73.1204 32.531,72.5996 C32.6352,72.4434 32.7524,72.248 32.8826,72.0137 C33.0128,71.7793 33.1039,71.6256 33.156,71.5527 C33.281,71.2923 33.531,70.9381 33.906,70.4902 C34.0102,70.3756 34.1196,70.248 34.2342,70.1074 C34.3487,69.9668 34.4451,69.8496 34.5232,69.7559 C34.6013,69.6621 34.6586,69.5892 34.6951,69.5371 C34.7316,69.485 35.0258,69.1413 35.5779,68.5059 C35.7029,68.3704 35.8279,68.2298 35.9529,68.084 C36.0779,67.9381 36.1795,67.821 36.2576,67.7324 C36.3357,67.6439 36.3956,67.584 36.4373,67.5527 C35.9685,66.0006 35.6717,64.7611 35.5467,63.834 C35.4633,63.0944 35.4217,62.0788 35.4217,60.7871 C35.4217,59.6517 35.6821,58.5892 36.2029,57.5996 C36.7029,56.5788 37.4112,55.7402 38.3279,55.084 C38.3904,55.0423 38.4529,55.0215 38.5154,55.0215 C38.6092,55.0215 38.6769,55.0423 38.7185,55.084 C39.4164,55.9277 40.0206,57.0267 40.531,58.3809 C41.0519,59.735 41.3123,60.9694 41.3123,62.084 C41.3123,63.334 41.0154,64.5059 40.4217,65.5996 C39.7446,66.7559 38.8696,67.9538 37.7967,69.1934 C38.0675,70.0475 38.4321,71.3913 38.8904,73.2246 M40.5467,82.3184 C41.2237,82.0684 41.755,81.6465 42.1404,81.0527 C42.5571,80.4798 42.7654,79.834 42.7654,79.1152 C42.7654,78.1881 42.4529,77.3652 41.8279,76.6465 C41.1821,75.9069 40.3644,75.4902 39.3748,75.3965 C39.9373,78.1465 40.3279,80.4538 40.5467,82.3184 M32.9998,77.8027 C32.9998,79.0944 33.5206,80.2298 34.5623,81.209 C35.6248,82.1569 36.8227,82.6309 38.156,82.6309 C38.6977,82.6309 39.2289,82.5892 39.7498,82.5059 C39.5414,80.5267 39.13,78.1569 38.5154,75.3965 C37.7758,75.4798 37.1873,75.7402 36.7498,76.1777 C36.3123,76.6361 36.0935,77.1517 36.0935,77.7246 C36.0935,78.7142 36.6248,79.5163 37.6873,80.1309 C37.7706,80.2246 37.8123,80.3236 37.8123,80.4277 C37.8123,80.5319 37.7706,80.6256 37.6873,80.709 C37.6039,80.8027 37.505,80.8496 37.3904,80.8496 C37.38,80.8496 37.3227,80.8392 37.2185,80.8184 C36.4685,80.4121 35.8956,79.8913 35.4998,79.2559 C35.1144,78.5684 34.9217,77.8809 34.9217,77.1934 C34.9217,76.2975 35.2029,75.485 35.7654,74.7559 C36.3487,74.0267 37.1092,73.5579 38.0467,73.3496 C37.6821,71.8913 37.3852,70.7506 37.156,69.9277 C36.9477,70.1673 36.6977,70.4512 36.406,70.7793 C36.1144,71.1074 35.9425,71.3079 35.8904,71.3809 C35.4217,71.985 35.0623,72.459 34.8123,72.8027 C34.3644,73.4173 34.0362,73.9434 33.8279,74.3809 C33.6092,74.8809 33.4164,75.4225 33.2498,76.0059 C33.0831,76.5684 32.9998,77.1673 32.9998,77.8027 M39.5154,57.9434 C38.5362,58.4225 37.7706,59.11 37.2185,60.0059 C36.6456,60.9329 36.3592,61.9277 36.3592,62.9902 C36.3592,63.9277 36.5935,65.1934 37.0623,66.7871 C37.9998,65.6517 38.7029,64.6048 39.1717,63.6465 C39.6612,62.6256 39.906,61.5631 39.906,60.459 C39.906,59.6256 39.7758,58.7871 39.5154,57.9434"/>
<path class="TimeSig" d="M54.1072,73.349 C53.7113,73.349 53.3572,73.2787 53.0447,73.138 C52.7322,72.9974 52.5134,72.849 52.3884,72.6927 C52.2113,72.4948 52.0395,72.3438 51.8728,72.2396 C51.6645,72.0938 51.4509,72.0209 51.2322,72.0209 C50.8884,72.0209 50.6072,72.125 50.3884,72.3334 C50.1592,72.5313 50.029,72.7969 49.9978,73.1302 C49.977,73.2761 49.8988,73.349 49.7634,73.349 C49.6072,73.349 49.529,73.2761 49.529,73.1302 C49.529,72.6302 49.6488,72.1771 49.8884,71.7709 C50.1176,71.3542 50.404,71.0104 50.7478,70.7396 C51.029,70.4896 51.404,70.1875 51.8728,69.8334 C51.9561,69.7709 52.1228,69.6354 52.3728,69.4271 C52.6228,69.2188 52.8363,69.0417 53.0134,68.8959 C53.3467,68.6146 53.6384,68.2344 53.8884,67.7552 C54.1176,67.2865 54.2322,66.7813 54.2322,66.2396 C54.2322,65.5729 54.1228,65 53.904,64.5209 C53.6749,64.0521 53.3155,63.8177 52.8259,63.8177 C52.5342,63.8177 52.2947,63.8802 52.1072,64.0052 C51.9092,64.1406 51.8103,64.3177 51.8103,64.5365 C51.8103,64.724 51.9275,64.9531 52.1619,65.224 C52.3962,65.4948 52.5134,65.724 52.5134,65.9115 C52.5134,66.2969 52.378,66.625 52.1072,66.8959 C51.8467,67.1563 51.529,67.2865 51.154,67.2865 C50.7582,67.2865 50.4249,67.1511 50.154,66.8802 C49.8936,66.599 49.7634,66.2761 49.7634,65.9115 C49.7634,65.1615 50.0629,64.5469 50.6619,64.0677 C51.2608,63.5886 51.9822,63.349 52.8259,63.349 C53.8363,63.349 54.7113,63.6198 55.4509,64.1615 C56.1905,64.6823 56.5603,65.375 56.5603,66.2396 C56.5603,66.8229 56.4561,67.3229 56.2478,67.7396 C56.0499,68.1875 55.7582,68.5365 55.3728,68.7865 C54.9249,69.0677 54.5395,69.2865 54.2165,69.4427 C53.7582,69.6511 53.3051,69.849 52.8572,70.0365 C52.3051,70.2552 51.878,70.4636 51.5759,70.6615 C51.753,70.6198 51.9301,70.599 52.1072,70.599 C52.7113,70.599 53.3363,70.7917 53.9822,71.1771 C54.6488,71.5729 55.1645,71.7709 55.529,71.7709 C55.7478,71.7709 55.9249,71.7292 56.0603,71.6459 C56.1853,71.5729 56.2686,71.4896 56.3103,71.3959 C56.3624,71.2709 56.4092,71.1823 56.4509,71.1302 C56.503,71.0469 56.5655,71.0052 56.6384,71.0052 C56.7947,71.0052 56.8728,71.0834 56.8728,71.2396 C56.8728,71.6042 56.6124,72.0469 56.0915,72.5677 C55.5811,73.0886 54.9197,73.349 54.1072,73.349"/>
<path class="TimeSig" d="M53.6853,73.5996 C54.0707,73.5996 54.4014,73.5553 54.6775,73.4668 C54.9535,73.3783 55.128,73.334 55.2009,73.334 C55.2946,73.334 55.3676,73.36 55.4196,73.4121 C55.4613,73.4434 55.4874,73.485 55.4978,73.5371 C55.4978,73.5684 55.4821,73.61 55.4509,73.6621 L49.779,80.2715 L53.1071,80.2715 L53.1071,77.6465 C53.1071,77.4798 53.154,77.334 53.2478,77.209 C53.404,77.084 53.5342,77.0059 53.6384,76.9746 C53.8051,76.9017 54.0134,76.7194 54.2634,76.4277 C54.4717,76.1986 54.7217,75.7923 55.0134,75.209 C55.0446,75.1256 55.1019,75.084 55.1853,75.084 C55.3415,75.084 55.4301,75.1777 55.4509,75.3652 L55.4509,80.2715 L56.8884,80.2715 C57.0655,80.2715 57.1696,80.3652 57.2009,80.5527 C57.2009,80.7506 57.0967,80.8496 56.8884,80.8496 L55.4509,80.8496 L55.4509,81.0059 C55.4509,81.5267 55.5811,81.9694 55.8415,82.334 C56.1436,82.6986 56.4978,82.8809 56.904,82.8809 C57.0603,82.8809 57.1384,82.959 57.1384,83.1152 C57.1384,83.2715 57.0603,83.3496 56.904,83.3496 C56.6332,83.3496 56.1905,83.3131 55.5759,83.2402 C55.0134,83.1465 54.5759,83.0996 54.2634,83.0996 C53.9405,83.0996 53.503,83.1465 52.9509,83.2402 C52.3676,83.3131 51.9353,83.3496 51.654,83.3496 C51.4978,83.3496 51.4196,83.2715 51.4196,83.1152 C51.4196,82.959 51.4978,82.8809 51.654,82.8809 C52.0499,82.8809 52.3988,82.6986 52.7009,82.334 C52.9717,81.9694 53.1071,81.5267 53.1071,81.0059 L53.1071,80.8496 L49.779,80.8496 C49.5499,80.8496 49.3936,80.7975 49.3103,80.6934 C49.1957,80.6204 49.1384,80.5163 49.1384,80.3809 C49.1384,80.3392 49.2374,80.2038 49.4353,79.9746 C49.6644,79.7142 49.8988,79.3965 50.1384,79.0215 C50.4301,78.5736 50.7061,78.1152 50.9665,77.6465 C51.2478,77.1152 51.4769,76.5006 51.654,75.8027 C51.8415,75.1048 51.9353,74.3913 51.9353,73.6621 C51.9353,73.4538 52.029,73.3496 52.2165,73.3496 C52.2582,73.3496 52.3415,73.3704 52.4665,73.4121 C52.5082,73.4225 52.5915,73.4408 52.7165,73.4668 C52.8415,73.4928 52.9405,73.5163 53.0134,73.5371 C53.253,73.5788 53.4769,73.5996 53.6853,73.5996"/>
<path class="Beam" fill-rule="evenodd" d="M284.794,56.9418 L306.221,62.0986 L306.221,64.5987 L284.794,59.442 L284.794,56.9418 "/>
<path class="Beam" fill-rule="evenodd" d="M243.242,62.1377 L264.668,60.8485 L264.668,63.3487 L243.242,64.6379 L243.242,62.1377 "/>
<path class="Beam" fill-rule="evenodd" d="M156.455,62.1352 L179.324,60.8485 L179.324,63.3487 L156.455,64.6353 L156.455,62.1352 "/>
<path class="Beam" fill-rule="evenodd" d="M110.762,67.1407 L130.859,65.8488 L130.859,68.349 L110.762,69.6408 L110.762,67.1407 "/>
<path class="Beam" fill-rule="evenodd" d="M71.8695,72.141 L91.9659,70.8491 L91.9659,73.3493 L71.8695,74.6412 L71.8695,72.141 "/>
<path class="Lyrics" d="M330.124,102.148 L330.124,97.2731 C330.124,96.8668 330.064,96.6064 329.944,96.4918 C329.825,96.3772 329.53,96.3043 329.062,96.2731 L329.062,96.0699 L332.327,96.0699 L332.327,96.2731 C331.858,96.2939 331.562,96.3642 331.437,96.484 C331.312,96.6038 331.249,96.8668 331.249,97.2731 L331.249,102.148 C331.249,102.554 331.314,102.817 331.444,102.937 C331.575,103.057 331.869,103.127 332.327,103.148 L332.327,103.351 L329.062,103.351 L329.062,103.148 C329.52,103.127 329.812,103.06 329.937,102.945 C330.062,102.83 330.124,102.565 330.124,102.148"/>
<path class="Lyrics" d="M306.695,96.0699 L306.695,96.2731 C306.414,96.2939 306.218,96.3616 306.109,96.4762 C306,96.5908 305.856,96.8668 305.679,97.3043 L303.226,103.476 L303.07,103.476 L300.367,97.4293 C300.148,96.9501 299.968,96.6428 299.828,96.5074 C299.687,96.372 299.476,96.2939 299.195,96.2731 L299.195,96.0699 L302.117,96.0699 L302.117,96.2731 C301.919,96.2939 301.815,96.3043 301.804,96.3043 C301.471,96.3251 301.304,96.4345 301.304,96.6324 C301.304,96.7887 301.45,97.2001 301.742,97.8668 L303.414,101.586 L305.023,97.5387 C305.169,97.1845 305.242,96.9189 305.242,96.7418 C305.242,96.5856 305.182,96.4736 305.062,96.4059 C304.942,96.3382 304.731,96.2939 304.429,96.2731 L304.429,96.0699 L306.695,96.0699 "/>
<path class="Lyrics" d="M202.016,96.0699 L202.016,96.2731 C201.735,96.2939 201.539,96.3616 201.43,96.4762 C201.321,96.5908 201.177,96.8668 201,97.3043 L198.547,103.476 L198.391,103.476 L195.688,97.4293 C195.469,96.9501 195.289,96.6428 195.149,96.5074 C195.008,96.372 194.797,96.2939 194.516,96.2731 L194.516,96.0699 L197.438,96.0699 L197.438,96.2731 C197.24,96.2939 197.136,96.3043 197.125,96.3043 C196.792,96.3251 196.625,96.4345 196.625,96.6324 C196.625,96.7887 196.771,97.2001 197.063,97.8668 L198.735,101.586 L200.344,97.5387 C200.49,97.1845 200.563,96.9189 200.563,96.7418 C200.563,96.5856 200.503,96.4736 200.383,96.4059 C200.263,96.3382 200.052,96.2939 199.75,96.2731 L199.75,96.0699 L202.016,96.0699 "/>
<path class="Lyrics" d="M178.001,96.0699 L178.001,96.2731 C177.72,96.2939 177.524,96.3616 177.415,96.4762 C177.306,96.5908 177.162,96.8668 176.985,97.3043 L174.532,103.476 L174.376,103.476 L171.673,97.4293 C171.454,96.9501 171.274,96.6428 171.134,96.5074 C170.993,96.372 170.782,96.2939 170.501,96.2731 L170.501,96.0699 L173.423,96.0699 L173.423,96.2731 C173.225,96.2939 173.121,96.3043 173.11,96.3043 C172.777,96.3251 172.61,96.4345 172.61,96.6324 C172.61,96.7887 172.756,97.2001 173.048,97.8668 L174.72,101.586 L176.329,97.5387 C176.475,97.1845 176.548,96.9189 176.548,96.7418 C176.548,96.5856 176.488,96.4736 176.368,96.4059 C176.248,96.3382 176.037,96.2939 175.735,96.2731 L175.735,96.0699 L178.001,96.0699 M179.329,102.148 L179.329,97.2731 C179.329,96.8668 179.269,96.6064 179.149,96.4918 C179.029,96.3772 178.735,96.3043 178.266,96.2731 L178.266,96.0699 L181.532,96.0699 L181.532,96.2731 C181.063,96.2939 180.766,96.3642 180.641,96.484 C180.516,96.6038 180.454,96.8668 180.454,97.2731 L180.454,102.148 C180.454,102.554 180.519,102.817 180.649,102.937 C180.779,103.057 181.074,103.127 181.532,103.148 L181.532,103.351 L178.266,103.351 L178.266,103.148 C178.725,103.127 179.016,103.06 179.141,102.945 C179.266,102.83 179.329,102.565 179.329,102.148"/>
<path class="VoltaSegment" d="M242.03,48.0528 C241.988,47.8445 241.957,47.6986 241.936,47.6153 C241.915,47.532 241.876,47.407 241.819,47.2403 C241.762,47.0736 241.699,46.9538 241.631,46.8809 C241.564,46.808 241.467,46.7195 241.342,46.6153 C241.217,46.5111 241.074,46.433 240.913,46.3809 C240.751,46.3288 240.553,46.2846 240.319,46.2481 C240.085,46.2117 239.816,46.1934 239.514,46.1934 C239.233,46.1934 239.046,46.2299 238.952,46.3028 C238.858,46.3757 238.811,46.5163 238.811,46.7247 L238.811,49.2872 C239.363,49.2872 239.756,49.17 239.991,48.9356 C240.225,48.7012 240.394,48.2663 240.499,47.6309 L240.764,47.6309 L240.764,51.3653 L240.499,51.3653 C240.426,50.7299 240.267,50.2898 240.022,50.045 C239.777,49.8002 239.374,49.6674 238.811,49.6466 L238.811,52.2091 C238.811,52.5111 238.887,52.7117 239.038,52.8106 C239.189,52.9096 239.519,52.9695 240.03,52.9903 L240.03,53.2716 L236.061,53.2716 L236.061,52.9903 C236.478,52.9486 236.743,52.8809 236.858,52.7872 C236.973,52.6934 237.03,52.5007 237.03,52.2091 L237.03,46.8966 C237.03,46.6049 236.965,46.407 236.835,46.3028 C236.704,46.1986 236.447,46.1361 236.061,46.1153 L236.061,45.8341 L242.296,45.8341 L242.296,48.0528 L242.03,48.0528 M246.577,49.6622 C246.41,49.6622 246.262,49.6075 246.131,49.4981 C246.001,49.3887 245.894,49.282 245.811,49.1778 C245.728,49.0736 245.66,49.0216 245.608,49.0216 C245.421,49.0216 245.262,49.1231 245.131,49.3262 C245.001,49.5294 244.936,49.7716 244.936,50.0528 L244.936,52.1309 C244.936,52.4851 244.986,52.7143 245.085,52.8184 C245.184,52.9226 245.4,52.9851 245.733,53.0059 L245.733,53.2716 L242.827,53.2716 L242.827,53.0059 C243.066,52.9643 243.223,52.9018 243.296,52.8184 C243.368,52.7351 243.405,52.5788 243.405,52.3497 L243.405,49.1153 C243.405,48.8966 243.366,48.7403 243.288,48.6466 C243.21,48.5528 243.056,48.4903 242.827,48.4591 L242.827,48.1934 L244.889,48.1934 L244.889,49.0997 C245.15,48.7351 245.394,48.4721 245.624,48.3106 C245.853,48.1492 246.103,48.0684 246.374,48.0684 C246.634,48.0684 246.848,48.1492 247.014,48.3106 C247.181,48.4721 247.264,48.6778 247.264,48.9278 C247.264,49.1361 247.199,49.3106 247.069,49.4512 C246.939,49.5919 246.775,49.6622 246.577,49.6622 M248.936,48.8341 C248.936,48.8757 248.991,48.9747 249.1,49.1309 C249.21,49.2872 249.264,49.4278 249.264,49.5528 C249.264,49.7403 249.194,49.8913 249.053,50.0059 C248.913,50.1205 248.733,50.1778 248.514,50.1778 C248.285,50.1778 248.108,50.1153 247.983,49.9903 C247.858,49.8653 247.796,49.6882 247.796,49.4591 C247.796,49.0424 247.986,48.7064 248.366,48.4512 C248.746,48.196 249.249,48.0684 249.874,48.0684 C250.54,48.0684 251.069,48.2038 251.46,48.4747 C251.85,48.7455 252.046,49.1153 252.046,49.5841 L252.046,52.4278 C252.046,52.6049 252.124,52.6934 252.28,52.6934 C252.332,52.6934 252.374,52.683 252.405,52.6622 L252.514,52.5528 L252.686,52.7716 C252.29,53.2091 251.879,53.4278 251.452,53.4278 C251.181,53.4278 250.978,53.3679 250.842,53.2481 C250.707,53.1283 250.608,52.9226 250.546,52.6309 C249.983,53.1622 249.405,53.4278 248.811,53.4278 C248.457,53.4278 248.165,53.3158 247.936,53.0919 C247.707,52.8679 247.592,52.5841 247.592,52.2403 C247.592,52.0111 247.652,51.8002 247.772,51.6075 C247.892,51.4148 248.033,51.2585 248.194,51.1387 C248.355,51.0189 248.577,50.8966 248.858,50.7716 C249.139,50.6466 249.379,50.5502 249.577,50.4825 C249.775,50.4148 250.035,50.3341 250.358,50.2403 C250.441,50.2195 250.504,50.2038 250.546,50.1934 L250.546,49.3966 C250.546,49.0632 250.473,48.8184 250.327,48.6622 C250.181,48.5059 249.947,48.4278 249.624,48.4278 C249.436,48.4278 249.275,48.4669 249.139,48.545 C249.004,48.6231 248.936,48.7195 248.936,48.8341 M250.53,52.1466 L250.53,50.5684 C249.634,50.7976 249.186,51.2403 249.186,51.8966 C249.186,52.1153 249.238,52.2898 249.342,52.42 C249.447,52.5502 249.582,52.6153 249.749,52.6153 C249.999,52.6153 250.259,52.4591 250.53,52.1466 M254.936,48.0684 C255.134,48.0684 255.368,48.1075 255.639,48.1856 C255.91,48.2637 256.077,48.3028 256.139,48.3028 C256.254,48.3028 256.342,48.2299 256.405,48.0841 L256.639,48.0841 L256.639,49.6934 L256.374,49.6934 C256.082,48.8497 255.634,48.4278 255.03,48.4278 C254.822,48.4278 254.647,48.4877 254.506,48.6075 C254.366,48.7273 254.296,48.8809 254.296,49.0684 C254.296,49.2351 254.361,49.3861 254.491,49.5216 C254.621,49.657 254.783,49.7663 254.975,49.8497 C255.168,49.933 255.374,50.032 255.592,50.1466 C255.811,50.2611 256.017,50.3783 256.21,50.4981 C256.402,50.6179 256.561,50.7872 256.686,51.0059 C256.811,51.2247 256.874,51.4747 256.874,51.7559 C256.874,52.2455 256.717,52.6466 256.405,52.9591 C256.092,53.2716 255.686,53.4278 255.186,53.4278 C254.884,53.4278 254.579,53.3757 254.272,53.2716 C253.965,53.1674 253.79,53.1153 253.749,53.1153 C253.665,53.1153 253.566,53.2143 253.452,53.4122 L253.186,53.4122 L253.186,51.5997 L253.483,51.5997 C253.723,52.5788 254.228,53.0684 254.999,53.0684 C255.249,53.0684 255.449,53.0007 255.6,52.8653 C255.751,52.7299 255.827,52.558 255.827,52.3497 C255.827,52.1518 255.736,51.9799 255.553,51.8341 C255.371,51.6882 255.152,51.558 254.897,51.4434 C254.642,51.3288 254.387,51.2012 254.131,51.0606 C253.876,50.92 253.658,50.7325 253.475,50.4981 C253.293,50.2637 253.202,49.9903 253.202,49.6778 C253.202,49.2195 253.366,48.8367 253.694,48.5294 C254.022,48.2221 254.436,48.0684 254.936,48.0684 M259.108,50.5684 C259.118,50.7663 259.134,50.946 259.155,51.1075 C259.176,51.2689 259.212,51.4486 259.264,51.6466 C259.316,51.8445 259.389,52.0085 259.483,52.1387 C259.577,52.2689 259.702,52.3809 259.858,52.4747 C260.014,52.5684 260.202,52.6153 260.421,52.6153 C260.65,52.6153 260.861,52.5606 261.053,52.4512 C261.246,52.3419 261.452,52.157 261.671,51.8966 L261.936,52.0372 C261.572,52.558 261.236,52.92 260.928,53.1231 C260.621,53.3262 260.243,53.4278 259.796,53.4278 C259.108,53.4278 258.559,53.183 258.147,52.6934 C257.736,52.2038 257.53,51.558 257.53,50.7559 C257.53,49.9538 257.741,49.3054 258.163,48.8106 C258.585,48.3158 259.139,48.0684 259.827,48.0684 C261.077,48.0684 261.759,48.9018 261.874,50.5684 L259.108,50.5684 M260.53,50.0059 C260.519,49.7768 260.512,49.5997 260.506,49.4747 C260.501,49.3497 260.483,49.2091 260.452,49.0528 C260.421,48.8966 260.381,48.782 260.335,48.7091 C260.288,48.6361 260.223,48.571 260.139,48.5137 C260.056,48.4564 259.952,48.4278 259.827,48.4278 C259.556,48.4278 259.363,48.5554 259.249,48.8106 C259.134,49.0658 259.066,49.5163 259.046,50.1622 L260.53,50.1622 L260.53,50.0059 M269.389,52.0841 L269.592,52.2872 C269.269,52.6934 268.944,52.9851 268.616,53.1622 C268.288,53.3393 267.91,53.4278 267.483,53.4278 C266.806,53.4278 266.246,53.183 265.803,52.6934 C265.361,52.2038 265.139,51.5841 265.139,50.8341 C265.139,50.0424 265.384,49.3835 265.874,48.8575 C266.363,48.3314 266.983,48.0684 267.733,48.0684 C268.212,48.0684 268.616,48.183 268.944,48.4122 C269.272,48.6413 269.436,48.9278 269.436,49.2716 C269.436,49.4903 269.371,49.6622 269.241,49.7872 C269.111,49.9122 268.926,49.9747 268.686,49.9747 C268.28,49.9747 268.077,49.7143 268.077,49.1934 C268.077,48.8913 268.056,48.7038 268.014,48.6309 C267.941,48.4955 267.806,48.4278 267.608,48.4278 C267.327,48.4278 267.103,48.5919 266.936,48.92 C266.769,49.2481 266.686,49.6934 266.686,50.2559 C266.686,50.9955 266.827,51.5867 267.108,52.0294 C267.389,52.4721 267.769,52.6934 268.249,52.6934 C268.478,52.6934 268.673,52.6492 268.835,52.5606 C268.996,52.4721 269.181,52.3132 269.389,52.0841 M272.405,48.0684 C273.113,48.0684 273.702,48.3236 274.171,48.8341 C274.639,49.3445 274.874,49.9851 274.874,50.7559 C274.874,51.5163 274.639,52.1518 274.171,52.6622 C273.702,53.1726 273.113,53.4278 272.405,53.4278 C271.686,53.4278 271.092,53.1726 270.624,52.6622 C270.155,52.1518 269.921,51.5059 269.921,50.7247 C269.921,49.9747 270.16,49.3445 270.639,48.8341 C271.118,48.3236 271.707,48.0684 272.405,48.0684 M272.405,48.4278 C272.072,48.4278 271.842,48.6023 271.717,48.9512 C271.592,49.3002 271.53,49.9538 271.53,50.9122 C271.53,51.7143 271.595,52.2742 271.725,52.5919 C271.855,52.9096 272.082,53.0684 272.405,53.0684 C272.728,53.0684 272.952,52.9018 273.077,52.5684 C273.202,52.2351 273.264,51.6518 273.264,50.8184 C273.264,49.9226 273.202,49.3002 273.077,48.9512 C272.952,48.6023 272.728,48.4278 272.405,48.4278 M278.389,48.7872 C278.191,48.7872 277.986,48.8757 277.772,49.0528 C277.559,49.2299 277.452,49.3549 277.452,49.4278 L277.452,52.3809 C277.452,52.5893 277.491,52.7377 277.569,52.8262 C277.647,52.9148 277.785,52.9747 277.983,53.0059 L277.983,53.2716 L275.342,53.2716 L275.342,53.0059 C275.592,52.9538 275.751,52.8887 275.819,52.8106 C275.887,52.7325 275.921,52.5788 275.921,52.3497 L275.921,49.1153 C275.921,48.8861 275.884,48.7299 275.811,48.6466 C275.738,48.5632 275.582,48.5007 275.342,48.4591 L275.342,48.1934 L277.436,48.1934 L277.436,49.0216 C277.842,48.3861 278.368,48.0684 279.014,48.0684 C279.462,48.0684 279.822,48.2091 280.092,48.4903 C280.363,48.7716 280.499,49.1466 280.499,49.6153 L280.499,52.3809 C280.499,52.6101 280.535,52.7689 280.608,52.8575 C280.681,52.946 280.822,52.9955 281.03,53.0059 L281.03,53.2716 L278.452,53.2716 L278.452,53.0059 C278.639,52.9851 278.772,52.9278 278.85,52.8341 C278.928,52.7403 278.967,52.5893 278.967,52.3809 L278.967,49.7091 C278.967,49.0945 278.775,48.7872 278.389,48.7872 M283.374,48.0684 C283.572,48.0684 283.806,48.1075 284.077,48.1856 C284.348,48.2637 284.514,48.3028 284.577,48.3028 C284.691,48.3028 284.78,48.2299 284.842,48.0841 L285.077,48.0841 L285.077,49.6934 L284.811,49.6934 C284.519,48.8497 284.072,48.4278 283.467,48.4278 C283.259,48.4278 283.085,48.4877 282.944,48.6075 C282.803,48.7273 282.733,48.8809 282.733,49.0684 C282.733,49.2351 282.798,49.3861 282.928,49.5216 C283.059,49.657 283.22,49.7663 283.413,49.8497 C283.605,49.933 283.811,50.032 284.03,50.1466 C284.249,50.2611 284.454,50.3783 284.647,50.4981 C284.84,50.6179 284.999,50.7872 285.124,51.0059 C285.249,51.2247 285.311,51.4747 285.311,51.7559 C285.311,52.2455 285.155,52.6466 284.842,52.9591 C284.53,53.2716 284.124,53.4278 283.624,53.4278 C283.322,53.4278 283.017,53.3757 282.71,53.2716 C282.402,53.1674 282.228,53.1153 282.186,53.1153 C282.103,53.1153 282.004,53.2143 281.889,53.4122 L281.624,53.4122 L281.624,51.5997 L281.921,51.5997 C282.16,52.5788 282.665,53.0684 283.436,53.0684 C283.686,53.0684 283.887,53.0007 284.038,52.8653 C284.189,52.7299 284.264,52.558 284.264,52.3497 C284.264,52.1518 284.173,51.9799 283.991,51.8341 C283.809,51.6882 283.59,51.558 283.335,51.4434 C283.079,51.3288 282.824,51.2012 282.569,51.0606 C282.314,50.92 282.095,50.7325 281.913,50.4981 C281.73,50.2637 281.639,49.9903 281.639,49.6778 C281.639,49.2195 281.803,48.8367 282.131,48.5294 C282.46,48.2221 282.874,48.0684 283.374,48.0684 M287.546,50.5684 C287.556,50.7663 287.572,50.946 287.592,51.1075 C287.613,51.2689 287.65,51.4486 287.702,51.6466 C287.754,51.8445 287.827,52.0085 287.921,52.1387 C288.014,52.2689 288.139,52.3809 288.296,52.4747 C288.452,52.5684 288.639,52.6153 288.858,52.6153 C289.087,52.6153 289.298,52.5606 289.491,52.4512 C289.684,52.3419 289.889,52.157 290.108,51.8966 L290.374,52.0372 C290.009,52.558 289.673,52.92 289.366,53.1231 C289.059,53.3262 288.681,53.4278 288.233,53.4278 C287.546,53.4278 286.996,53.183 286.585,52.6934 C286.173,52.2038 285.967,51.558 285.967,50.7559 C285.967,49.9538 286.178,49.3054 286.6,48.8106 C287.022,48.3158 287.577,48.0684 288.264,48.0684 C289.514,48.0684 290.197,48.9018 290.311,50.5684 L287.546,50.5684 M288.967,50.0059 C288.957,49.7768 288.949,49.5997 288.944,49.4747 C288.939,49.3497 288.921,49.2091 288.889,49.0528 C288.858,48.8966 288.819,48.782 288.772,48.7091 C288.725,48.6361 288.66,48.571 288.577,48.5137 C288.493,48.4564 288.389,48.4278 288.264,48.4278 C287.993,48.4278 287.801,48.5554 287.686,48.8106 C287.572,49.0658 287.504,49.5163 287.483,50.1622 L288.967,50.1622 L288.967,50.0059 M294.217,54.3341 L294.217,52.8028 C293.801,53.2195 293.353,53.4278 292.874,53.4278 C292.269,53.4278 291.78,53.1882 291.405,52.7091 C291.03,52.2299 290.842,51.6153 290.842,50.8653 C290.842,50.0424 291.069,49.3705 291.522,48.8497 C291.975,48.3288 292.561,48.0684 293.28,48.0684 C293.551,48.0684 293.788,48.1127 293.991,48.2012 C294.194,48.2898 294.441,48.4591 294.733,48.7091 L295.592,48.0841 L295.749,48.0841 L295.749,54.6309 C295.749,54.8497 295.785,54.9981 295.858,55.0762 C295.931,55.1544 296.098,55.2143 296.358,55.2559 L296.358,55.5216 L293.421,55.5216 L293.421,55.2559 C293.785,55.183 294.009,55.0971 294.092,54.9981 C294.176,54.8992 294.217,54.6778 294.217,54.3341 M294.217,52.1934 L294.217,49.3028 C294.217,49.0424 294.15,48.8314 294.014,48.67 C293.879,48.5085 293.702,48.4278 293.483,48.4278 C292.785,48.4278 292.436,49.1778 292.436,50.6778 C292.436,52.1049 292.78,52.8184 293.467,52.8184 C293.853,52.8184 294.103,52.6101 294.217,52.1934 M300.389,53.4122 L300.389,52.6934 C300.066,52.9747 299.79,53.1674 299.561,53.2716 C299.332,53.3757 299.077,53.4278 298.796,53.4278 C298.337,53.4278 297.978,53.2898 297.717,53.0137 C297.457,52.7377 297.327,52.3601 297.327,51.8809 L297.327,49.1153 C297.327,48.8861 297.288,48.7325 297.21,48.6544 C297.131,48.5762 296.978,48.5111 296.749,48.4591 L296.749,48.1934 L298.858,48.1934 L298.858,51.9278 C298.858,52.1986 298.902,52.3939 298.991,52.5137 C299.079,52.6335 299.238,52.6934 299.467,52.6934 C299.749,52.6934 300.051,52.532 300.374,52.2091 L300.374,49.1153 C300.374,48.8757 300.327,48.7117 300.233,48.6231 C300.139,48.5346 299.957,48.4799 299.686,48.4591 L299.686,48.1934 L301.905,48.1934 L301.905,52.1466 C301.905,52.3861 301.952,52.5502 302.046,52.6387 C302.139,52.7273 302.306,52.7768 302.546,52.7872 L302.546,53.0372 L301.842,53.1153 C301.228,53.1882 300.743,53.2872 300.389,53.4122 M304.608,50.5684 C304.618,50.7663 304.634,50.946 304.655,51.1075 C304.676,51.2689 304.712,51.4486 304.764,51.6466 C304.816,51.8445 304.889,52.0085 304.983,52.1387 C305.077,52.2689 305.202,52.3809 305.358,52.4747 C305.514,52.5684 305.702,52.6153 305.921,52.6153 C306.15,52.6153 306.361,52.5606 306.553,52.4512 C306.746,52.3419 306.952,52.157 307.171,51.8966 L307.436,52.0372 C307.072,52.558 306.736,52.92 306.428,53.1231 C306.121,53.3262 305.743,53.4278 305.296,53.4278 C304.608,53.4278 304.059,53.183 303.647,52.6934 C303.236,52.2038 303.03,51.558 303.03,50.7559 C303.03,49.9538 303.241,49.3054 303.663,48.8106 C304.085,48.3158 304.639,48.0684 305.327,48.0684 C306.577,48.0684 307.259,48.9018 307.374,50.5684 L304.608,50.5684 M306.03,50.0059 C306.019,49.7768 306.012,49.5997 306.006,49.4747 C306.001,49.3497 305.983,49.2091 305.952,49.0528 C305.921,48.8966 305.881,48.782 305.835,48.7091 C305.788,48.6361 305.723,48.571 305.639,48.5137 C305.556,48.4564 305.452,48.4278 305.327,48.4278 C305.056,48.4278 304.863,48.5554 304.749,48.8106 C304.634,49.0658 304.566,49.5163 304.546,50.1622 L306.03,50.1622 L306.03,50.0059 M310.874,48.7872 C310.676,48.7872 310.47,48.8757 310.256,49.0528 C310.043,49.2299 309.936,49.3549 309.936,49.4278 L309.936,52.3809 C309.936,52.5893 309.975,52.7377 310.053,52.8262 C310.131,52.9148 310.269,52.9747 310.467,53.0059 L310.467,53.2716 L307.827,53.2716 L307.827,53.0059 C308.077,52.9538 308.236,52.8887 308.303,52.8106 C308.371,52.7325 308.405,52.5788 308.405,52.3497 L308.405,49.1153 C308.405,48.8861 308.368,48.7299 308.296,48.6466 C308.223,48.5632 308.066,48.5007 307.827,48.4591 L307.827,48.1934 L309.921,48.1934 L309.921,49.0216 C310.327,48.3861 310.853,48.0684 311.499,48.0684 C311.947,48.0684 312.306,48.2091 312.577,48.4903 C312.848,48.7716 312.983,49.1466 312.983,49.6153 L312.983,52.3809 C312.983,52.6101 313.019,52.7689 313.092,52.8575 C313.165,52.946 313.306,52.9955 313.514,53.0059 L313.514,53.2716 L310.936,53.2716 L310.936,53.0059 C311.124,52.9851 311.256,52.9278 311.335,52.8341 C311.413,52.7403 311.452,52.5893 311.452,52.3809 L311.452,49.7091 C311.452,49.0945 311.259,48.7872 310.874,48.7872 M317.046,48.1934 L317.046,48.6778 L316.014,48.6778 L316.014,51.9747 C316.014,52.1934 316.048,52.3523 316.116,52.4512 C316.184,52.5502 316.296,52.5997 316.452,52.5997 C316.671,52.5997 316.879,52.4122 317.077,52.0372 L317.342,52.1466 C317.124,52.6049 316.889,52.9278 316.639,53.1153 C316.389,53.3028 316.082,53.3966 315.717,53.3966 C315.342,53.3966 315.043,53.295 314.819,53.0919 C314.595,52.8887 314.483,52.6101 314.483,52.2559 L314.483,48.6778 L313.921,48.6778 L313.921,48.3809 C314.275,48.0893 314.582,47.795 314.842,47.4981 C315.103,47.2012 315.405,46.8132 315.749,46.3341 L316.014,46.3341 L316.014,48.1934 L317.046,48.1934 M319.249,50.5684 C319.259,50.7663 319.275,50.946 319.296,51.1075 C319.316,51.2689 319.353,51.4486 319.405,51.6466 C319.457,51.8445 319.53,52.0085 319.624,52.1387 C319.717,52.2689 319.842,52.3809 319.999,52.4747 C320.155,52.5684 320.342,52.6153 320.561,52.6153 C320.79,52.6153 321.001,52.5606 321.194,52.4512 C321.387,52.3419 321.592,52.157 321.811,51.8966 L322.077,52.0372 C321.712,52.558 321.376,52.92 321.069,53.1231 C320.762,53.3262 320.384,53.4278 319.936,53.4278 C319.249,53.4278 318.699,53.183 318.288,52.6934 C317.876,52.2038 317.671,51.558 317.671,50.7559 C317.671,49.9538 317.881,49.3054 318.303,48.8106 C318.725,48.3158 319.28,48.0684 319.967,48.0684 C321.217,48.0684 321.9,48.9018 322.014,50.5684 L319.249,50.5684 M320.671,50.0059 C320.66,49.7768 320.652,49.5997 320.647,49.4747 C320.642,49.3497 320.624,49.2091 320.592,49.0528 C320.561,48.8966 320.522,48.782 320.475,48.7091 C320.428,48.6361 320.363,48.571 320.28,48.5137 C320.197,48.4564 320.092,48.4278 319.967,48.4278 C319.697,48.4278 319.504,48.5554 319.389,48.8106 C319.275,49.0658 319.207,49.5163 319.186,50.1622 L320.671,50.1622 L320.671,50.0059 "/>
<polyline class="VoltaSegment" fill="none" stroke="#000000" stroke-width="0.50" stroke-linecap="square" stroke-linejoin="bevel" points="233.342,43.771 387.874,43.771"/>
<polyline class="VoltaSegment" fill="none" stroke="#000000" stroke-width="0.50" stroke-linecap="square" stroke-linejoin="bevel" points="233.342,43.771 233.342,53.2716"/>
<polyline class="VoltaSegment" fill="none" stroke="#000000" stroke-width="0.50" stroke-linecap="square" stroke-linejoin="bevel" points="387.874,43.771 387.874,53.2716"/>
<path class="VoltaSegment" d="M74.5184,48.0528 C74.4768,47.8445 74.4455,47.6986 74.4247,47.6153 C74.4038,47.532 74.3648,47.407 74.3075,47.2403 C74.2502,47.0736 74.1877,46.9538 74.12,46.8809 C74.0523,46.808 73.9559,46.7195 73.8309,46.6153 C73.7059,46.5111 73.5627,46.433 73.4012,46.3809 C73.2398,46.3288 73.0419,46.2846 72.8075,46.2481 C72.5731,46.2117 72.3049,46.1934 72.0028,46.1934 C71.7216,46.1934 71.5341,46.2299 71.4403,46.3028 C71.3466,46.3757 71.2997,46.5163 71.2997,46.7247 L71.2997,49.2872 C71.8518,49.2872 72.245,49.17 72.4794,48.9356 C72.7137,48.7012 72.883,48.2663 72.9872,47.6309 L73.2528,47.6309 L73.2528,51.3653 L72.9872,51.3653 C72.9143,50.7299 72.7554,50.2898 72.5106,50.045 C72.2658,49.8002 71.8622,49.6674 71.2997,49.6466 L71.2997,52.2091 C71.2997,52.5111 71.3752,52.7117 71.5262,52.8106 C71.6773,52.9096 72.008,52.9695 72.5184,52.9903 L72.5184,53.2716 L68.5497,53.2716 L68.5497,52.9903 C68.9663,52.9486 69.232,52.8809 69.3466,52.7872 C69.4611,52.6934 69.5184,52.5007 69.5184,52.2091 L69.5184,46.8966 C69.5184,46.6049 69.4533,46.407 69.3231,46.3028 C69.1929,46.1986 68.9351,46.1361 68.5497,46.1153 L68.5497,45.8341 L74.7841,45.8341 L74.7841,48.0528 L74.5184,48.0528 M79.0653,49.6622 C78.8986,49.6622 78.7502,49.6075 78.62,49.4981 C78.4898,49.3887 78.383,49.282 78.2997,49.1778 C78.2163,49.0736 78.1486,49.0216 78.0966,49.0216 C77.9091,49.0216 77.7502,49.1231 77.62,49.3262 C77.4898,49.5294 77.4247,49.7716 77.4247,50.0528 L77.4247,52.1309 C77.4247,52.4851 77.4742,52.7143 77.5731,52.8184 C77.6721,52.9226 77.8882,52.9851 78.2216,53.0059 L78.2216,53.2716 L75.3153,53.2716 L75.3153,53.0059 C75.5549,52.9643 75.7111,52.9018 75.7841,52.8184 C75.857,52.7351 75.8934,52.5788 75.8934,52.3497 L75.8934,49.1153 C75.8934,48.8966 75.8544,48.7403 75.7762,48.6466 C75.6981,48.5528 75.5445,48.4903 75.3153,48.4591 L75.3153,48.1934 L77.3778,48.1934 L77.3778,49.0997 C77.6382,48.7351 77.883,48.4721 78.1122,48.3106 C78.3413,48.1492 78.5913,48.0684 78.8622,48.0684 C79.1226,48.0684 79.3361,48.1492 79.5028,48.3106 C79.6695,48.4721 79.7528,48.6778 79.7528,48.9278 C79.7528,49.1361 79.6877,49.3106 79.5575,49.4512 C79.4273,49.5919 79.2632,49.6622 79.0653,49.6622 M81.4247,48.8341 C81.4247,48.8757 81.4794,48.9747 81.5887,49.1309 C81.6981,49.2872 81.7528,49.4278 81.7528,49.5528 C81.7528,49.7403 81.6825,49.8913 81.5419,50.0059 C81.4012,50.1205 81.2216,50.1778 81.0028,50.1778 C80.7736,50.1778 80.5966,50.1153 80.4716,49.9903 C80.3466,49.8653 80.2841,49.6882 80.2841,49.4591 C80.2841,49.0424 80.4742,48.7064 80.8544,48.4512 C81.2346,48.196 81.7372,48.0684 82.3622,48.0684 C83.0288,48.0684 83.5575,48.2038 83.9481,48.4747 C84.3387,48.7455 84.5341,49.1153 84.5341,49.5841 L84.5341,52.4278 C84.5341,52.6049 84.6122,52.6934 84.7684,52.6934 C84.8205,52.6934 84.8622,52.683 84.8934,52.6622 L85.0028,52.5528 L85.1747,52.7716 C84.7788,53.2091 84.3674,53.4278 83.9403,53.4278 C83.6695,53.4278 83.4663,53.3679 83.3309,53.2481 C83.1955,53.1283 83.0966,52.9226 83.0341,52.6309 C82.4716,53.1622 81.8934,53.4278 81.2997,53.4278 C80.9455,53.4278 80.6538,53.3158 80.4247,53.0919 C80.1955,52.8679 80.0809,52.5841 80.0809,52.2403 C80.0809,52.0111 80.1408,51.8002 80.2606,51.6075 C80.3804,51.4148 80.521,51.2585 80.6825,51.1387 C80.844,51.0189 81.0653,50.8966 81.3466,50.7716 C81.6278,50.6466 81.8674,50.5502 82.0653,50.4825 C82.2632,50.4148 82.5236,50.3341 82.8466,50.2403 C82.9299,50.2195 82.9924,50.2038 83.0341,50.1934 L83.0341,49.3966 C83.0341,49.0632 82.9611,48.8184 82.8153,48.6622 C82.6695,48.5059 82.4351,48.4278 82.1122,48.4278 C81.9247,48.4278 81.7632,48.4669 81.6278,48.545 C81.4924,48.6231 81.4247,48.7195 81.4247,48.8341 M83.0184,52.1466 L83.0184,50.5684 C82.1226,50.7976 81.6747,51.2403 81.6747,51.8966 C81.6747,52.1153 81.7268,52.2898 81.8309,52.42 C81.9351,52.5502 82.0705,52.6153 82.2372,52.6153 C82.4872,52.6153 82.7476,52.4591 83.0184,52.1466 M87.4247,48.0684 C87.6226,48.0684 87.857,48.1075 88.1278,48.1856 C88.3986,48.2637 88.5653,48.3028 88.6278,48.3028 C88.7424,48.3028 88.8309,48.2299 88.8934,48.0841 L89.1278,48.0841 L89.1278,49.6934 L88.8622,49.6934 C88.5705,48.8497 88.1226,48.4278 87.5184,48.4278 C87.3101,48.4278 87.1356,48.4877 86.995,48.6075 C86.8544,48.7273 86.7841,48.8809 86.7841,49.0684 C86.7841,49.2351 86.8492,49.3861 86.9794,49.5216 C87.1096,49.657 87.271,49.7663 87.4637,49.8497 C87.6565,49.933 87.8622,50.032 88.0809,50.1466 C88.2997,50.2611 88.5054,50.3783 88.6981,50.4981 C88.8908,50.6179 89.0497,50.7872 89.1747,51.0059 C89.2997,51.2247 89.3622,51.4747 89.3622,51.7559 C89.3622,52.2455 89.2059,52.6466 88.8934,52.9591 C88.5809,53.2716 88.1747,53.4278 87.6747,53.4278 C87.3726,53.4278 87.0679,53.3757 86.7606,53.2716 C86.4533,53.1674 86.2788,53.1153 86.2372,53.1153 C86.1538,53.1153 86.0549,53.2143 85.9403,53.4122 L85.6747,53.4122 L85.6747,51.5997 L85.9716,51.5997 C86.2111,52.5788 86.7163,53.0684 87.4872,53.0684 C87.7372,53.0684 87.9377,53.0007 88.0887,52.8653 C88.2398,52.7299 88.3153,52.558 88.3153,52.3497 C88.3153,52.1518 88.2242,51.9799 88.0419,51.8341 C87.8596,51.6882 87.6408,51.558 87.3856,51.4434 C87.1304,51.3288 86.8752,51.2012 86.62,51.0606 C86.3648,50.92 86.146,50.7325 85.9637,50.4981 C85.7815,50.2637 85.6903,49.9903 85.6903,49.6778 C85.6903,49.2195 85.8544,48.8367 86.1825,48.5294 C86.5106,48.2221 86.9247,48.0684 87.4247,48.0684 M91.5966,50.5684 C91.607,50.7663 91.6226,50.946 91.6434,51.1075 C91.6643,51.2689 91.7007,51.4486 91.7528,51.6466 C91.8049,51.8445 91.8778,52.0085 91.9716,52.1387 C92.0653,52.2689 92.1903,52.3809 92.3466,52.4747 C92.5028,52.5684 92.6903,52.6153 92.9091,52.6153 C93.1382,52.6153 93.3492,52.5606 93.5419,52.4512 C93.7346,52.3419 93.9403,52.157 94.1591,51.8966 L94.4247,52.0372 C94.0601,52.558 93.7242,52.92 93.4169,53.1231 C93.1096,53.3262 92.732,53.4278 92.2841,53.4278 C91.5966,53.4278 91.0471,53.183 90.6356,52.6934 C90.2242,52.2038 90.0184,51.558 90.0184,50.7559 C90.0184,49.9538 90.2294,49.3054 90.6512,48.8106 C91.0731,48.3158 91.6278,48.0684 92.3153,48.0684 C93.5653,48.0684 94.2476,48.9018 94.3622,50.5684 L91.5966,50.5684 M93.0184,50.0059 C93.008,49.7768 93.0002,49.5997 92.995,49.4747 C92.9898,49.3497 92.9716,49.2091 92.9403,49.0528 C92.9091,48.8966 92.87,48.782 92.8231,48.7091 C92.7762,48.6361 92.7111,48.571 92.6278,48.5137 C92.5445,48.4564 92.4403,48.4278 92.3153,48.4278 C92.0445,48.4278 91.8518,48.5554 91.7372,48.8106 C91.6226,49.0658 91.5549,49.5163 91.5341,50.1622 L93.0184,50.1622 L93.0184,50.0059 M98.9716,48.8341 C98.9716,48.8757 99.0262,48.9747 99.1356,49.1309 C99.245,49.2872 99.2997,49.4278 99.2997,49.5528 C99.2997,49.7403 99.2294,49.8913 99.0887,50.0059 C98.9481,50.1205 98.7684,50.1778 98.5497,50.1778 C98.3205,50.1778 98.1434,50.1153 98.0184,49.9903 C97.8934,49.8653 97.8309,49.6882 97.8309,49.4591 C97.8309,49.0424 98.021,48.7064 98.4012,48.4512 C98.7815,48.196 99.2841,48.0684 99.9091,48.0684 C100.576,48.0684 101.104,48.2038 101.495,48.4747 C101.886,48.7455 102.081,49.1153 102.081,49.5841 L102.081,52.4278 C102.081,52.6049 102.159,52.6934 102.315,52.6934 C102.367,52.6934 102.409,52.683 102.44,52.6622 L102.55,52.5528 L102.722,52.7716 C102.326,53.2091 101.914,53.4278 101.487,53.4278 C101.216,53.4278 101.013,53.3679 100.878,53.2481 C100.742,53.1283 100.643,52.9226 100.581,52.6309 C100.018,53.1622 99.4403,53.4278 98.8466,53.4278 C98.4924,53.4278 98.2007,53.3158 97.9716,53.0919 C97.7424,52.8679 97.6278,52.5841 97.6278,52.2403 C97.6278,52.0111 97.6877,51.8002 97.8075,51.6075 C97.9273,51.4148 98.0679,51.2585 98.2294,51.1387 C98.3908,51.0189 98.6122,50.8966 98.8934,50.7716 C99.1747,50.6466 99.4143,50.5502 99.6122,50.4825 C99.8101,50.4148 100.071,50.3341 100.393,50.2403 C100.477,50.2195 100.539,50.2038 100.581,50.1934 L100.581,49.3966 C100.581,49.0632 100.508,48.8184 100.362,48.6622 C100.216,48.5059 99.982,48.4278 99.6591,48.4278 C99.4716,48.4278 99.3101,48.4669 99.1747,48.545 C99.0393,48.6231 98.9716,48.7195 98.9716,48.8341 M100.565,52.1466 L100.565,50.5684 C99.6695,50.7976 99.2216,51.2403 99.2216,51.8966 C99.2216,52.1153 99.2736,52.2898 99.3778,52.42 C99.482,52.5502 99.6174,52.6153 99.7841,52.6153 C100.034,52.6153 100.294,52.4591 100.565,52.1466 M106.081,48.7872 C105.883,48.7872 105.677,48.8757 105.464,49.0528 C105.25,49.2299 105.143,49.3549 105.143,49.4278 L105.143,52.3809 C105.143,52.5893 105.182,52.7377 105.261,52.8262 C105.339,52.9148 105.477,52.9747 105.675,53.0059 L105.675,53.2716 L103.034,53.2716 L103.034,53.0059 C103.284,52.9538 103.443,52.8887 103.511,52.8106 C103.578,52.7325 103.612,52.5788 103.612,52.3497 L103.612,49.1153 C103.612,48.8861 103.576,48.7299 103.503,48.6466 C103.43,48.5632 103.274,48.5007 103.034,48.4591 L103.034,48.1934 L105.128,48.1934 L105.128,49.0216 C105.534,48.3861 106.06,48.0684 106.706,48.0684 C107.154,48.0684 107.513,48.2091 107.784,48.4903 C108.055,48.7716 108.19,49.1466 108.19,49.6153 L108.19,52.3809 C108.19,52.6101 108.227,52.7689 108.3,52.8575 C108.373,52.946 108.513,52.9955 108.722,53.0059 L108.722,53.2716 L106.143,53.2716 L106.143,53.0059 C106.331,52.9851 106.464,52.9278 106.542,52.8341 C106.62,52.7403 106.659,52.5893 106.659,52.3809 L106.659,49.7091 C106.659,49.0945 106.466,48.7872 106.081,48.7872 M112.253,48.1934 L112.253,48.6778 L111.222,48.6778 L111.222,51.9747 C111.222,52.1934 111.255,52.3523 111.323,52.4512 C111.391,52.5502 111.503,52.5997 111.659,52.5997 C111.878,52.5997 112.086,52.4122 112.284,52.0372 L112.55,52.1466 C112.331,52.6049 112.097,52.9278 111.847,53.1153 C111.597,53.3028 111.289,53.3966 110.925,53.3966 C110.55,53.3966 110.25,53.295 110.026,53.0919 C109.802,52.8887 109.69,52.6101 109.69,52.2559 L109.69,48.6778 L109.128,48.6778 L109.128,48.3809 C109.482,48.0893 109.789,47.795 110.05,47.4981 C110.31,47.2012 110.612,46.8132 110.956,46.3341 L111.222,46.3341 L111.222,48.1934 L112.253,48.1934 M114.456,50.5684 C114.466,50.7663 114.482,50.946 114.503,51.1075 C114.524,51.2689 114.56,51.4486 114.612,51.6466 C114.664,51.8445 114.737,52.0085 114.831,52.1387 C114.925,52.2689 115.05,52.3809 115.206,52.4747 C115.362,52.5684 115.55,52.6153 115.768,52.6153 C115.998,52.6153 116.209,52.5606 116.401,52.4512 C116.594,52.3419 116.8,52.157 117.018,51.8966 L117.284,52.0372 C116.919,52.558 116.584,52.92 116.276,53.1231 C115.969,53.3262 115.591,53.4278 115.143,53.4278 C114.456,53.4278 113.906,53.183 113.495,52.6934 C113.084,52.2038 112.878,51.558 112.878,50.7559 C112.878,49.9538 113.089,49.3054 113.511,48.8106 C113.932,48.3158 114.487,48.0684 115.175,48.0684 C116.425,48.0684 117.107,48.9018 117.222,50.5684 L114.456,50.5684 M115.878,50.0059 C115.867,49.7768 115.86,49.5997 115.854,49.4747 C115.849,49.3497 115.831,49.2091 115.8,49.0528 C115.768,48.8966 115.729,48.782 115.682,48.7091 C115.636,48.6361 115.571,48.571 115.487,48.5137 C115.404,48.4564 115.3,48.4278 115.175,48.4278 C114.904,48.4278 114.711,48.5554 114.597,48.8106 C114.482,49.0658 114.414,49.5163 114.393,50.1622 L115.878,50.1622 L115.878,50.0059 M122.003,52.0841 L122.206,52.2872 C121.883,52.6934 121.557,52.9851 121.229,53.1622 C120.901,53.3393 120.524,53.4278 120.097,53.4278 C119.419,53.4278 118.86,53.183 118.417,52.6934 C117.974,52.2038 117.753,51.5841 117.753,50.8341 C117.753,50.0424 117.998,49.3835 118.487,48.8575 C118.977,48.3314 119.597,48.0684 120.347,48.0684 C120.826,48.0684 121.229,48.183 121.557,48.4122 C121.886,48.6413 122.05,48.9278 122.05,49.2716 C122.05,49.4903 121.985,49.6622 121.854,49.7872 C121.724,49.9122 121.539,49.9747 121.3,49.9747 C120.893,49.9747 120.69,49.7143 120.69,49.1934 C120.69,48.8913 120.669,48.7038 120.628,48.6309 C120.555,48.4955 120.419,48.4278 120.222,48.4278 C119.94,48.4278 119.716,48.5919 119.55,48.92 C119.383,49.2481 119.3,49.6934 119.3,50.2559 C119.3,50.9955 119.44,51.5867 119.722,52.0294 C120.003,52.4721 120.383,52.6934 120.862,52.6934 C121.091,52.6934 121.287,52.6492 121.448,52.5606 C121.61,52.4721 121.794,52.3132 122.003,52.0841 M124.112,50.5684 C124.123,50.7663 124.138,50.946 124.159,51.1075 C124.18,51.2689 124.216,51.4486 124.268,51.6466 C124.321,51.8445 124.393,52.0085 124.487,52.1387 C124.581,52.2689 124.706,52.3809 124.862,52.4747 C125.018,52.5684 125.206,52.6153 125.425,52.6153 C125.654,52.6153 125.865,52.5606 126.057,52.4512 C126.25,52.3419 126.456,52.157 126.675,51.8966 L126.94,52.0372 C126.576,52.558 126.24,52.92 125.932,53.1231 C125.625,53.3262 125.248,53.4278 124.8,53.4278 C124.112,53.4278 123.563,53.183 123.151,52.6934 C122.74,52.2038 122.534,51.558 122.534,50.7559 C122.534,49.9538 122.745,49.3054 123.167,48.8106 C123.589,48.3158 124.143,48.0684 124.831,48.0684 C126.081,48.0684 126.763,48.9018 126.878,50.5684 L124.112,50.5684 M125.534,50.0059 C125.524,49.7768 125.516,49.5997 125.511,49.4747 C125.505,49.3497 125.487,49.2091 125.456,49.0528 C125.425,48.8966 125.386,48.782 125.339,48.7091 C125.292,48.6361 125.227,48.571 125.143,48.5137 C125.06,48.4564 124.956,48.4278 124.831,48.4278 C124.56,48.4278 124.367,48.5554 124.253,48.8106 C124.138,49.0658 124.071,49.5163 124.05,50.1622 L125.534,50.1622 L125.534,50.0059 M130.862,53.4122 L130.862,52.7091 C130.602,52.9799 130.365,53.1674 130.151,53.2716 C129.938,53.3757 129.685,53.4278 129.393,53.4278 C128.81,53.4278 128.334,53.183 127.964,52.6934 C127.594,52.2038 127.409,51.5841 127.409,50.8341 C127.409,50.0424 127.607,49.3835 128.003,48.8575 C128.399,48.3314 128.904,48.0684 129.518,48.0684 C129.768,48.0684 129.99,48.1179 130.182,48.2169 C130.375,48.3158 130.591,48.4903 130.831,48.7403 L130.831,46.7403 C130.831,46.4799 130.781,46.3158 130.682,46.2481 C130.584,46.1804 130.352,46.1309 129.987,46.0997 L129.987,45.8341 L132.347,45.8341 L132.347,52.1778 C132.347,52.407 132.393,52.5658 132.487,52.6544 C132.581,52.7429 132.753,52.7924 133.003,52.8028 L133.003,53.0684 L132.315,53.1466 C131.722,53.2299 131.237,53.3184 130.862,53.4122 M129.893,52.8184 C130.133,52.8184 130.349,52.7143 130.542,52.5059 C130.735,52.2976 130.831,52.1466 130.831,52.0528 L130.831,49.3653 C130.758,49.157 130.641,48.9903 130.479,48.8653 C130.318,48.7403 130.149,48.6778 129.972,48.6778 C129.347,48.6778 129.034,49.3705 129.034,50.7559 C129.034,52.1309 129.321,52.8184 129.893,52.8184 M135.05,50.5684 C135.06,50.7663 135.076,50.946 135.097,51.1075 C135.117,51.2689 135.154,51.4486 135.206,51.6466 C135.258,51.8445 135.331,52.0085 135.425,52.1387 C135.518,52.2689 135.643,52.3809 135.8,52.4747 C135.956,52.5684 136.143,52.6153 136.362,52.6153 C136.591,52.6153 136.802,52.5606 136.995,52.4512 C137.188,52.3419 137.393,52.157 137.612,51.8966 L137.878,52.0372 C137.513,52.558 137.177,52.92 136.87,53.1231 C136.563,53.3262 136.185,53.4278 135.737,53.4278 C135.05,53.4278 134.5,53.183 134.089,52.6934 C133.677,52.2038 133.472,51.558 133.472,50.7559 C133.472,49.9538 133.682,49.3054 134.104,48.8106 C134.526,48.3158 135.081,48.0684 135.768,48.0684 C137.018,48.0684 137.701,48.9018 137.815,50.5684 L135.05,50.5684 M136.472,50.0059 C136.461,49.7768 136.453,49.5997 136.448,49.4747 C136.443,49.3497 136.425,49.2091 136.393,49.0528 C136.362,48.8966 136.323,48.782 136.276,48.7091 C136.229,48.6361 136.164,48.571 136.081,48.5137 C135.998,48.4564 135.893,48.4278 135.768,48.4278 C135.498,48.4278 135.305,48.5554 135.19,48.8106 C135.076,49.0658 135.008,49.5163 134.987,50.1622 L136.472,50.1622 L136.472,50.0059 M141.315,48.7872 C141.117,48.7872 140.912,48.8757 140.698,49.0528 C140.485,49.2299 140.378,49.3549 140.378,49.4278 L140.378,52.3809 C140.378,52.5893 140.417,52.7377 140.495,52.8262 C140.573,52.9148 140.711,52.9747 140.909,53.0059 L140.909,53.2716 L138.268,53.2716 L138.268,53.0059 C138.518,52.9538 138.677,52.8887 138.745,52.8106 C138.813,52.7325 138.847,52.5788 138.847,52.3497 L138.847,49.1153 C138.847,48.8861 138.81,48.7299 138.737,48.6466 C138.664,48.5632 138.508,48.5007 138.268,48.4591 L138.268,48.1934 L140.362,48.1934 L140.362,49.0216 C140.768,48.3861 141.294,48.0684 141.94,48.0684 C142.388,48.0684 142.748,48.2091 143.018,48.4903 C143.289,48.7716 143.425,49.1466 143.425,49.6153 L143.425,52.3809 C143.425,52.6101 143.461,52.7689 143.534,52.8575 C143.607,52.946 143.748,52.9955 143.956,53.0059 L143.956,53.2716 L141.378,53.2716 L141.378,53.0059 C141.565,52.9851 141.698,52.9278 141.776,52.8341 C141.854,52.7403 141.893,52.5893 141.893,52.3809 L141.893,49.7091 C141.893,49.0945 141.701,48.7872 141.315,48.7872 M147.487,48.1934 L147.487,48.6778 L146.456,48.6778 L146.456,51.9747 C146.456,52.1934 146.49,52.3523 146.557,52.4512 C146.625,52.5502 146.737,52.5997 146.893,52.5997 C147.112,52.5997 147.321,52.4122 147.518,52.0372 L147.784,52.1466 C147.565,52.6049 147.331,52.9278 147.081,53.1153 C146.831,53.3028 146.524,53.3966 146.159,53.3966 C145.784,53.3966 145.485,53.295 145.261,53.0919 C145.037,52.8887 144.925,52.6101 144.925,52.2559 L144.925,48.6778 L144.362,48.6778 L144.362,48.3809 C144.716,48.0893 145.024,47.795 145.284,47.4981 C145.544,47.2012 145.847,46.8132 146.19,46.3341 L146.456,46.3341 L146.456,48.1934 L147.487,48.1934 M149.69,50.5684 C149.701,50.7663 149.716,50.946 149.737,51.1075 C149.758,51.2689 149.794,51.4486 149.847,51.6466 C149.899,51.8445 149.972,52.0085 150.065,52.1387 C150.159,52.2689 150.284,52.3809 150.44,52.4747 C150.597,52.5684 150.784,52.6153 151.003,52.6153 C151.232,52.6153 151.443,52.5606 151.636,52.4512 C151.828,52.3419 152.034,52.157 152.253,51.8966 L152.518,52.0372 C152.154,52.558 151.818,52.92 151.511,53.1231 C151.203,53.3262 150.826,53.4278 150.378,53.4278 C149.69,53.4278 149.141,53.183 148.729,52.6934 C148.318,52.2038 148.112,51.558 148.112,50.7559 C148.112,49.9538 148.323,49.3054 148.745,48.8106 C149.167,48.3158 149.722,48.0684 150.409,48.0684 C151.659,48.0684 152.341,48.9018 152.456,50.5684 L149.69,50.5684 M151.112,50.0059 C151.102,49.7768 151.094,49.5997 151.089,49.4747 C151.084,49.3497 151.065,49.2091 151.034,49.0528 C151.003,48.8966 150.964,48.782 150.917,48.7091 C150.87,48.6361 150.805,48.571 150.722,48.5137 C150.638,48.4564 150.534,48.4278 150.409,48.4278 C150.138,48.4278 149.946,48.5554 149.831,48.8106 C149.716,49.0658 149.649,49.5163 149.628,50.1622 L151.112,50.1622 L151.112,50.0059 "/>
<polyline class="VoltaSegment" fill="none" stroke="#000000" stroke-width="0.50" stroke-linecap="square" stroke-linejoin="bevel" points="65.8308,43.771 222.878,43.771"/>
<polyline class="VoltaSegment" fill="none" stroke="#000000" stroke-width="0.50" stroke-linecap="square" stroke-linejoin="bevel" points="65.8308,43.771 65.8308,53.2716"/>
<polyline class="VoltaSegment" fill="none" stroke="#000000" stroke-width="0.50" stroke-linecap="square" stroke-linejoin="bevel" points="222.878,43.771 222.878,53.2716"/>
</svg>
