<?xml version="1.0" encoding="UTF-8" standalone="no"?>
<svg width="419.527px" height="595.275px" viewBox="0 0 419.527 595.275"
 xmlns="http://www.w3.org/2000/svg" xmlns:xlink="http://www.w3.org/1999/xlink" version="1.2" baseProfile="tiny">
<title>Title</title>
<desc>Generated by MuseScore 2.1.0</desc>
<polyline class="StaffLines" fill="none" stroke="#000000" stroke-width="0.40" stroke-linejoin="bevel" points="28.3465,63.3487 391.181,63.3487"/>
<polyline class="StaffLines" fill="none" stroke="#000000" stroke-width="0.40" stroke-linejoin="bevel" points="28.3465,68.349 391.181,68.349"/>
<polyline class="StaffLines" fill="none" stroke="#000000" stroke-width="0.40" stroke-linejoin="bevel" points="28.3465,73.3493 391.181,73.3493"/>
<polyline class="StaffLines" fill="none" stroke="#000000" stroke-width="0.40" stroke-linejoin="bevel" points="28.3465,78.3496 391.181,78.3496"/>
<polyline class="StaffLines" fill="none" stroke="#000000" stroke-width="0.40" stroke-linejoin="bevel" points="28.3465,83.3499 391.181,83.3499"/>
<polyline class="StaffLines" fill="none" stroke="#000000" stroke-width="0.40" stroke-linejoin="bevel" points="28.3465,158.355 391.181,158.355"/>
<polyline class="StaffLines" fill="none" stroke="#000000" stroke-width="0.40" stroke-linejoin="bevel" points="28.3465,163.355 391.181,163.355"/>
<polyline class="StaffLines" fill="none" stroke="#000000" stroke-width="0.40" stroke-linejoin="bevel" points="28.3465,168.355 391.181,168.355"/>
<polyline class="StaffLines" fill="none" stroke="#000000" stroke-width="0.40" stroke-linejoin="bevel" points="28.3465,173.356 391.181,173.356"/>
<polyline class="StaffLines" fill="none" stroke="#000000" stroke-width="0.40" stroke-linejoin="bevel" points="28.3465,178.356 391.181,178.356"/>
<path class="Text" d="M29.2215,144.776 C29.2215,144.495 29.159,144.245 29.034,144.026 C28.909,143.807 28.7553,143.635 28.573,143.51 C28.3907,143.385 28.1902,143.286 27.9715,143.213 C27.7527,143.14 27.5626,143.091 27.4011,143.065 C27.2397,143.039 27.0965,143.026 26.9715,143.026 C26.909,143.026 26.8777,143.005 26.8777,142.963 C26.8777,142.943 26.8777,142.927 26.8777,142.917 L27.7527,141.057 L29.4246,141.057 C29.5079,141.057 29.5756,141.044 29.6277,141.018 C29.6798,140.992 29.7371,140.937 29.7996,140.854 L29.8621,140.917 L29.5652,141.573 C29.5444,141.625 29.4819,141.651 29.3777,141.651 L27.8152,141.651 L27.4715,142.323 C28.2527,142.469 28.8334,142.698 29.2136,143.01 C29.5938,143.323 29.784,143.786 29.784,144.401 C29.784,144.713 29.7345,144.995 29.6355,145.245 C29.5366,145.495 29.409,145.695 29.2527,145.846 C29.0965,145.997 28.9194,146.12 28.7215,146.213 C28.5235,146.307 28.3334,146.372 28.1511,146.409 C27.9688,146.445 27.784,146.463 27.5965,146.463 C27.2944,146.463 27.0548,146.419 26.8777,146.331 C26.7006,146.242 26.6121,146.12 26.6121,145.963 C26.6121,145.776 26.7267,145.682 26.9558,145.682 C27.1121,145.682 27.3074,145.763 27.5418,145.924 C27.7761,146.086 27.9662,146.167 28.1121,146.167 C28.4246,146.167 28.6876,146.034 28.9011,145.768 C29.1147,145.502 29.2215,145.172 29.2215,144.776"/>
<path class="SlurSegment" stroke="#000000" stroke-width="0.35" stroke-linecap="round" stroke-linejoin="round" fill-rule="evenodd" d="M305.181,175.356 C312.575,183.098 328.481,184.348 336.994,177.856 C328.418,185.146 312.512,183.896 305.181,175.356"/>
<path class="SlurSegment" stroke="#000000" stroke-width="0.35" stroke-linecap="round" stroke-linejoin="round" fill-rule="evenodd" d="M228.543,160.761 C240.125,150.723 263.89,149.981 276.075,159.278 C263.915,150.781 240.15,151.522 228.543,160.761"/>
<path class="SlurSegment" stroke="#000000" stroke-width="0.35" stroke-linecap="round" stroke-linejoin="round" fill-rule="evenodd" d="M133.948,158.855 C145.402,147.885 180.76,146.779 192.878,157.011 C180.786,147.578 145.427,148.685 133.948,158.855"/>
<path class="SlurSegment" stroke="#000000" stroke-width="0.35" stroke-linecap="round" stroke-linejoin="round" fill-rule="evenodd" d="M56.3576,163.855 C65.6086,152.895 96.2841,149.895 107.483,158.855 C96.362,150.691 65.6865,153.691 56.3576,163.855"/>
<path class="SlurSegment" stroke="#000000" stroke-width="0.35" stroke-linecap="round" stroke-linejoin="round" fill-rule="evenodd" d="M311.819,68.849 C319.885,61.3501 335.386,61.9752 342.822,70.0991 C335.354,62.7746 319.852,62.1495 311.819,68.849"/>
<path class="SlurSegment" stroke="#000000" stroke-width="0.35" stroke-linecap="round" stroke-linejoin="round" fill-rule="evenodd" d="M236.81,67.2807 C248.387,57.244 272.143,56.5025 284.323,65.7976 C272.168,57.3022 248.412,58.0437 236.81,67.2807"/>
<path class="SlurSegment" stroke="#000000" stroke-width="0.35" stroke-linecap="round" stroke-linejoin="round" fill-rule="evenodd" d="M144.861,63.8487 C156.444,52.4389 192.977,50.4171 205.748,60.4791 C193.021,51.2159 156.488,53.2377 144.861,63.8487"/>
<path class="SlurSegment" stroke="#000000" stroke-width="0.35" stroke-linecap="round" stroke-linejoin="round" fill-rule="evenodd" d="M69.4084,65.7976 C81.0286,55.597 105.057,54.6225 117.465,63.8487 C105.089,55.4219 81.061,56.3964 69.4084,65.7976"/>
<polyline class="BarLine" stroke="#000000" stroke-width="0.80" stroke-linejoin="bevel" points="386.281,158.355 386.281,178.356"/>
<polyline class="BarLine" stroke="#000000" stroke-width="2.50" stroke-linejoin="bevel" points="389.931,158.355 389.931,178.356"/>
<polyline class="BarLine" stroke="#000000" stroke-width="0.80" stroke-linejoin="bevel" points="295.489,158.355 295.489,178.356"/>
<polyline class="BarLine" stroke="#000000" stroke-width="0.80" stroke-linejoin="bevel" points="213.699,158.355 213.699,178.356"/>
<polyline class="BarLine" stroke="#000000" stroke-width="0.80" stroke-linejoin="bevel" points="124.256,158.355 124.256,178.356"/>
<polyline class="BarLine" stroke="#000000" stroke-width="0.80" stroke-linejoin="bevel" points="390.781,63.3487 390.781,83.3499"/>
<polyline class="BarLine" stroke="#000000" stroke-width="0.80" stroke-linejoin="bevel" points="302.127,63.3487 302.127,83.3499"/>
<polyline class="BarLine" stroke="#000000" stroke-width="0.80" stroke-linejoin="bevel" points="222.474,63.3487 222.474,83.3499"/>
<polyline class="BarLine" stroke="#000000" stroke-width="0.80" stroke-linejoin="bevel" points="135.169,63.3487 135.169,83.3499"/>
<polyline class="Stem" stroke="#000000" stroke-width="0.65" stroke-linecap="round" stroke-linejoin="bevel" points="356.446,172.588 356.446,156.48"/>
<polyline class="Stem" stroke="#000000" stroke-width="0.65" stroke-linecap="round" stroke-linejoin="bevel" points="339.96,172.416 339.96,156.48"/>
<polyline class="Stem" stroke="#000000" stroke-width="0.65" stroke-linecap="round" stroke-linejoin="bevel" points="308.148,169.916 308.148,154.604"/>
<polyline class="Stem" stroke="#000000" stroke-width="0.65" stroke-linecap="round" stroke-linejoin="bevel" points="274.634,169.294 274.634,183.981"/>
<polyline class="Stem" stroke="#000000" stroke-width="0.65" stroke-linecap="round" stroke-linejoin="bevel" points="259.786,169.916 259.786,154.604"/>
<polyline class="Stem" stroke="#000000" stroke-width="0.65" stroke-linecap="round" stroke-linejoin="bevel" points="226.718,172.588 226.718,156.48"/>
<polyline class="Stem" stroke="#000000" stroke-width="0.65" stroke-linecap="round" stroke-linejoin="bevel" points="198.896,169.916 198.896,154.604"/>
<polyline class="Stem" stroke="#000000" stroke-width="0.65" stroke-linecap="round" stroke-linejoin="bevel" points="172.302,169.294 172.302,183.981"/>
<polyline class="Stem" stroke="#000000" stroke-width="0.65" stroke-linecap="round" stroke-linejoin="bevel" points="151.642,166.794 151.642,182.106"/>
<polyline class="Stem" stroke="#000000" stroke-width="0.65" stroke-linecap="round" stroke-linejoin="bevel" points="130.981,164.294 130.981,180.231"/>
<polyline class="Stem" stroke="#000000" stroke-width="0.65" stroke-linecap="round" stroke-linejoin="bevel" points="104.517,164.294 104.517,180.231"/>
<polyline class="Stem" stroke="#000000" stroke-width="0.65" stroke-linecap="round" stroke-linejoin="bevel" points="84.8531,166.794 84.8531,182.106"/>
<polyline class="Stem" stroke="#000000" stroke-width="0.65" stroke-linecap="round" stroke-linejoin="bevel" points="53.2105,169.139 53.2105,183.981"/>
<polyline class="Stem" stroke="#000000" stroke-width="0.65" stroke-linecap="round" stroke-linejoin="bevel" points="361.86,75.0814 361.86,59.5984"/>
<polyline class="Stem" stroke="#000000" stroke-width="0.65" stroke-linecap="round" stroke-linejoin="bevel" points="345.788,74.9103 345.788,59.5984"/>
<polyline class="Stem" stroke="#000000" stroke-width="0.65" stroke-linecap="round" stroke-linejoin="bevel" points="308.852,74.2884 308.852,88.9753"/>
<polyline class="Stem" stroke="#000000" stroke-width="0.65" stroke-linecap="round" stroke-linejoin="bevel" points="281.865,74.2884 281.865,88.9753"/>
<polyline class="Stem" stroke="#000000" stroke-width="0.65" stroke-linecap="round" stroke-linejoin="bevel" points="267.612,74.9103 267.612,59.5984"/>
<polyline class="Stem" stroke="#000000" stroke-width="0.65" stroke-linecap="round" stroke-linejoin="bevel" points="235.494,77.5816 235.494,61.4735"/>
<polyline class="Stem" stroke="#000000" stroke-width="0.65" stroke-linecap="round" stroke-linejoin="bevel" points="208.206,74.9103 208.206,59.5984"/>
<polyline class="Stem" stroke="#000000" stroke-width="0.65" stroke-linecap="round" stroke-linejoin="bevel" points="182.147,74.2884 182.147,88.9753"/>
<polyline class="Stem" stroke="#000000" stroke-width="0.65" stroke-linecap="round" stroke-linejoin="bevel" points="162.021,71.7883 162.021,87.1002"/>
<polyline class="Stem" stroke="#000000" stroke-width="0.65" stroke-linecap="round" stroke-linejoin="bevel" points="141.894,69.2881 141.894,85.225"/>
<polyline class="Stem" stroke="#000000" stroke-width="0.65" stroke-linecap="round" stroke-linejoin="bevel" points="116.024,69.2881 116.024,85.225"/>
<polyline class="Stem" stroke="#000000" stroke-width="0.65" stroke-linecap="round" stroke-linejoin="bevel" points="96.9538,71.7883 96.9538,87.1002"/>
<polyline class="Stem" stroke="#000000" stroke-width="0.65" stroke-linecap="round" stroke-linejoin="bevel" points="66.2613,74.1333 66.2613,88.9753"/>
<path class="Note" d="M356.14,172.043 C356.14,171.824 356.056,171.637 355.89,171.481 C355.713,171.314 355.515,171.231 355.296,171.231 C354.911,171.231 354.124,171.621 352.937,172.402 C351.708,173.194 350.958,173.762 350.687,174.106 C350.541,174.283 350.468,174.47 350.468,174.668 C350.468,174.887 350.556,175.074 350.734,175.231 C350.89,175.397 351.083,175.481 351.312,175.481 C351.687,175.481 352.484,175.09 353.702,174.309 C354.9,173.527 355.64,172.96 355.921,172.606 C356.067,172.439 356.14,172.251 356.14,172.043 M355.109,170.606 C356.223,170.606 356.78,171.085 356.78,172.043 C356.78,172.512 356.645,173.059 356.374,173.684 C356.103,174.298 355.739,174.767 355.28,175.09 C354.28,175.767 353.025,176.106 351.515,176.106 C350.39,176.106 349.827,175.626 349.827,174.668 C349.827,174.241 349.963,173.699 350.234,173.043 C350.494,172.418 350.859,171.944 351.327,171.621 C352.338,170.944 353.598,170.606 355.109,170.606"/>
<path class="Note" d="M338.093,170.606 C338.718,170.606 339.249,170.767 339.686,171.09 C340.082,171.444 340.28,171.887 340.28,172.418 C340.28,173.314 339.822,174.152 338.905,174.934 C337.968,175.715 336.962,176.106 335.889,176.106 C335.264,176.106 334.738,175.944 334.311,175.621 C333.905,175.267 333.702,174.824 333.702,174.293 C333.702,173.397 334.171,172.559 335.108,171.777 C336.025,170.996 337.02,170.606 338.093,170.606"/>
<path class="Note" d="M306.28,168.105 C306.905,168.105 307.436,168.267 307.874,168.59 C308.27,168.944 308.468,169.387 308.468,169.918 C308.468,170.814 308.009,171.652 307.093,172.434 C306.155,173.215 305.15,173.605 304.077,173.605 C303.452,173.605 302.926,173.444 302.499,173.121 C302.093,172.767 301.889,172.324 301.889,171.793 C301.889,170.897 302.358,170.059 303.296,169.277 C304.212,168.496 305.207,168.105 306.28,168.105"/>
<path class="Note" d="M278.699,165.605 C279.324,165.605 279.856,165.767 280.293,166.09 C280.689,166.444 280.887,166.887 280.887,167.418 C280.887,168.314 280.428,169.152 279.512,169.933 C278.574,170.715 277.569,171.105 276.496,171.105 C275.871,171.105 275.345,170.944 274.918,170.621 C274.512,170.267 274.309,169.824 274.309,169.293 C274.309,168.397 274.777,167.558 275.715,166.777 C276.632,165.996 277.626,165.605 278.699,165.605"/>
<path class="Note" d="M257.919,168.105 C258.544,168.105 259.075,168.267 259.513,168.59 C259.908,168.944 260.106,169.387 260.106,169.918 C260.106,170.814 259.648,171.652 258.731,172.434 C257.794,173.215 256.789,173.605 255.716,173.605 C255.091,173.605 254.565,173.444 254.138,173.121 C253.731,172.767 253.528,172.324 253.528,171.793 C253.528,170.897 253.997,170.059 254.935,169.277 C255.851,168.496 256.846,168.105 257.919,168.105"/>
<path class="Note" d="M226.412,172.043 C226.412,171.824 226.328,171.637 226.162,171.481 C225.985,171.314 225.787,171.231 225.568,171.231 C225.182,171.231 224.396,171.621 223.209,172.402 C221.979,173.194 221.229,173.762 220.959,174.106 C220.813,174.283 220.74,174.47 220.74,174.668 C220.74,174.887 220.828,175.074 221.005,175.231 C221.162,175.397 221.354,175.481 221.584,175.481 C221.959,175.481 222.755,175.09 223.974,174.309 C225.172,173.527 225.912,172.96 226.193,172.606 C226.339,172.439 226.412,172.251 226.412,172.043 M225.38,170.606 C226.495,170.606 227.052,171.085 227.052,172.043 C227.052,172.512 226.917,173.059 226.646,173.684 C226.375,174.298 226.011,174.767 225.552,175.09 C224.552,175.767 223.297,176.106 221.787,176.106 C220.662,176.106 220.099,175.626 220.099,174.668 C220.099,174.241 220.235,173.699 220.505,173.043 C220.766,172.418 221.13,171.944 221.599,171.621 C222.61,170.944 223.87,170.606 225.38,170.606"/>
<path class="Note" d="M197.029,168.105 C197.654,168.105 198.185,168.267 198.622,168.59 C199.018,168.944 199.216,169.387 199.216,169.918 C199.216,170.814 198.758,171.652 197.841,172.434 C196.904,173.215 195.898,173.605 194.826,173.605 C194.201,173.605 193.675,173.444 193.247,173.121 C192.841,172.767 192.638,172.324 192.638,171.793 C192.638,170.897 193.107,170.059 194.044,169.277 C194.961,168.496 195.956,168.105 197.029,168.105"/>
<path class="Note" d="M176.368,165.605 C176.993,165.605 177.524,165.767 177.962,166.09 C178.358,166.444 178.556,166.887 178.556,167.418 C178.556,168.314 178.097,169.152 177.181,169.933 C176.243,170.715 175.238,171.105 174.165,171.105 C173.54,171.105 173.014,170.944 172.587,170.621 C172.181,170.267 171.977,169.824 171.977,169.293 C171.977,168.397 172.446,167.558 173.384,166.777 C174.3,165.996 175.295,165.605 176.368,165.605"/>
<path class="Note" d="M155.707,163.105 C156.332,163.105 156.864,163.267 157.301,163.589 C157.697,163.944 157.895,164.386 157.895,164.918 C157.895,165.813 157.436,166.652 156.52,167.433 C155.582,168.214 154.577,168.605 153.504,168.605 C152.879,168.605 152.353,168.444 151.926,168.121 C151.52,167.767 151.317,167.324 151.317,166.793 C151.317,165.897 151.785,165.058 152.723,164.277 C153.64,163.496 154.634,163.105 155.707,163.105"/>
<path class="Note" d="M135.047,160.605 C135.672,160.605 136.203,160.766 136.64,161.089 C137.036,161.443 137.234,161.886 137.234,162.417 C137.234,163.313 136.776,164.152 135.859,164.933 C134.922,165.714 133.916,166.105 132.844,166.105 C132.219,166.105 131.692,165.943 131.265,165.621 C130.859,165.266 130.656,164.824 130.656,164.292 C130.656,163.397 131.125,162.558 132.062,161.777 C132.979,160.996 133.974,160.605 135.047,160.605"/>
<path class="Note" d="M108.582,160.605 C109.207,160.605 109.739,160.766 110.176,161.089 C110.572,161.443 110.77,161.886 110.77,162.417 C110.77,163.313 110.312,164.152 109.395,164.933 C108.457,165.714 107.452,166.105 106.379,166.105 C105.754,166.105 105.228,165.943 104.801,165.621 C104.395,165.266 104.192,164.824 104.192,164.292 C104.192,163.397 104.661,162.558 105.598,161.777 C106.515,160.996 107.51,160.605 108.582,160.605"/>
<path class="Note" d="M88.9187,163.105 C89.5437,163.105 90.0749,163.267 90.5124,163.589 C90.9082,163.944 91.1062,164.386 91.1062,164.918 C91.1062,165.813 90.6478,166.652 89.7312,167.433 C88.7937,168.214 87.7884,168.605 86.7155,168.605 C86.0905,168.605 85.5645,168.444 85.1374,168.121 C84.7312,167.767 84.528,167.324 84.528,166.793 C84.528,165.897 84.9968,165.058 85.9343,164.277 C86.8509,163.496 87.8457,163.105 88.9187,163.105"/>
<path class="Note" d="M59.198,167.043 C59.198,166.824 59.1147,166.637 58.948,166.48 C58.7709,166.314 58.573,166.23 58.3542,166.23 C57.9688,166.23 57.1824,166.621 55.9949,167.402 C54.7657,168.194 54.0157,168.762 53.7449,169.105 C53.599,169.282 53.5261,169.47 53.5261,169.668 C53.5261,169.887 53.6147,170.074 53.7917,170.23 C53.948,170.397 54.1407,170.48 54.3699,170.48 C54.7449,170.48 55.5417,170.09 56.7605,169.308 C57.9584,168.527 58.698,167.959 58.9792,167.605 C59.1251,167.439 59.198,167.251 59.198,167.043 M58.1667,165.605 C59.2813,165.605 59.8386,166.084 59.8386,167.043 C59.8386,167.512 59.7032,168.058 59.4324,168.683 C59.1615,169.298 58.797,169.767 58.3386,170.09 C57.3386,170.767 56.0834,171.105 54.573,171.105 C53.448,171.105 52.8855,170.626 52.8855,169.668 C52.8855,169.241 53.0209,168.699 53.2917,168.043 C53.5522,167.418 53.9167,166.944 54.3855,166.621 C55.3959,165.944 56.6563,165.605 58.1667,165.605"/>
<path class="Note" d="M361.553,74.5369 C361.553,74.3182 361.47,74.1307 361.303,73.9744 C361.126,73.8078 360.928,73.7244 360.709,73.7244 C360.324,73.7244 359.537,74.1151 358.35,74.8963 C357.121,75.688 356.371,76.2557 356.1,76.5994 C355.954,76.7765 355.881,76.964 355.881,77.1619 C355.881,77.3807 355.97,77.5682 356.147,77.7244 C356.303,77.8911 356.496,77.9744 356.725,77.9744 C357.1,77.9744 357.897,77.5838 359.116,76.8026 C360.313,76.0213 361.053,75.4536 361.334,75.0994 C361.48,74.9328 361.553,74.7453 361.553,74.5369 M360.522,73.0994 C361.636,73.0994 362.194,73.5786 362.194,74.5369 C362.194,75.0057 362.058,75.5526 361.787,76.1776 C361.517,76.7922 361.152,77.2609 360.694,77.5838 C359.694,78.2609 358.438,78.5994 356.928,78.5994 C355.803,78.5994 355.241,78.1203 355.241,77.1619 C355.241,76.7349 355.376,76.1932 355.647,75.5369 C355.907,74.9119 356.272,74.438 356.741,74.1151 C357.751,73.438 359.011,73.0994 360.522,73.0994"/>
<path class="Note" d="M343.921,73.0994 C344.546,73.0994 345.077,73.2609 345.515,73.5838 C345.91,73.938 346.108,74.3807 346.108,74.9119 C346.108,75.8078 345.65,76.6463 344.733,77.4276 C343.796,78.2088 342.791,78.5994 341.718,78.5994 C341.093,78.5994 340.567,78.438 340.14,78.1151 C339.733,77.7609 339.53,77.3182 339.53,76.7869 C339.53,75.8911 339.999,75.0526 340.936,74.2713 C341.853,73.4901 342.848,73.0994 343.921,73.0994"/>
<path class="Note" d="M312.918,70.5993 C313.543,70.5993 314.074,70.7607 314.512,71.0837 C314.908,71.4378 315.106,71.8805 315.106,72.4118 C315.106,73.3076 314.647,74.1462 313.731,74.9274 C312.793,75.7087 311.788,76.0993 310.715,76.0993 C310.09,76.0993 309.564,75.9378 309.137,75.6149 C308.731,75.2607 308.527,74.818 308.527,74.2868 C308.527,73.391 308.996,72.5524 309.934,71.7712 C310.85,70.9899 311.845,70.5993 312.918,70.5993"/>
<path class="Note" d="M285.931,70.5993 C286.556,70.5993 287.087,70.7607 287.525,71.0837 C287.921,71.4378 288.118,71.8805 288.118,72.4118 C288.118,73.3076 287.66,74.1462 286.743,74.9274 C285.806,75.7087 284.801,76.0993 283.728,76.0993 C283.103,76.0993 282.577,75.9378 282.15,75.6149 C281.743,75.2607 281.54,74.818 281.54,74.2868 C281.54,73.391 282.009,72.5524 282.947,71.7712 C283.863,70.9899 284.858,70.5993 285.931,70.5993"/>
<path class="Note" d="M265.744,73.0994 C266.369,73.0994 266.901,73.2609 267.338,73.5838 C267.734,73.938 267.932,74.3807 267.932,74.9119 C267.932,75.8078 267.474,76.6463 266.557,77.4276 C265.619,78.2088 264.614,78.5994 263.541,78.5994 C262.916,78.5994 262.39,78.438 261.963,78.1151 C261.557,77.7609 261.354,77.3182 261.354,76.7869 C261.354,75.8911 261.823,75.0526 262.76,74.2713 C263.677,73.4901 264.671,73.0994 265.744,73.0994"/>
<path class="Note" d="M235.187,77.0371 C235.187,76.8183 235.104,76.6308 234.937,76.4746 C234.76,76.3079 234.562,76.2246 234.343,76.2246 C233.958,76.2246 233.172,76.6152 231.984,77.3965 C230.755,78.1881 230.005,78.7558 229.734,79.0996 C229.588,79.2767 229.515,79.4642 229.515,79.6621 C229.515,79.8808 229.604,80.0683 229.781,80.2246 C229.937,80.3913 230.13,80.4746 230.359,80.4746 C230.734,80.4746 231.531,80.084 232.75,79.3027 C233.948,78.5215 234.687,77.9538 234.968,77.5996 C235.114,77.4329 235.187,77.2454 235.187,77.0371 M234.156,75.5996 C235.271,75.5996 235.828,76.0788 235.828,77.0371 C235.828,77.5058 235.692,78.0527 235.422,78.6777 C235.151,79.2923 234.786,79.7611 234.328,80.084 C233.328,80.7611 232.073,81.0996 230.562,81.0996 C229.437,81.0996 228.875,80.6204 228.875,79.6621 C228.875,79.235 229.01,78.6933 229.281,78.0371 C229.541,77.4121 229.906,76.9381 230.375,76.6152 C231.385,75.9381 232.646,75.5996 234.156,75.5996"/>
<path class="Note" d="M206.339,73.0994 C206.964,73.0994 207.495,73.2609 207.932,73.5838 C208.328,73.938 208.526,74.3807 208.526,74.9119 C208.526,75.8078 208.068,76.6463 207.151,77.4276 C206.214,78.2088 205.208,78.5994 204.136,78.5994 C203.511,78.5994 202.984,78.438 202.557,78.1151 C202.151,77.7609 201.948,77.3182 201.948,76.7869 C201.948,75.8911 202.417,75.0526 203.354,74.2713 C204.271,73.4901 205.266,73.0994 206.339,73.0994"/>
<path class="Note" d="M186.212,70.5993 C186.837,70.5993 187.369,70.7607 187.806,71.0837 C188.202,71.4378 188.4,71.8805 188.4,72.4118 C188.4,73.3076 187.942,74.1462 187.025,74.9274 C186.087,75.7087 185.082,76.0993 184.009,76.0993 C183.384,76.0993 182.858,75.9378 182.431,75.6149 C182.025,75.2607 181.822,74.818 181.822,74.2868 C181.822,73.391 182.291,72.5524 183.228,71.7712 C184.145,70.9899 185.139,70.5993 186.212,70.5993"/>
<path class="Note" d="M166.086,68.0991 C166.711,68.0991 167.242,68.2606 167.68,68.5835 C168.076,68.9377 168.274,69.3804 168.274,69.9116 C168.274,70.8075 167.815,71.646 166.899,72.4273 C165.961,73.2085 164.956,73.5991 163.883,73.5991 C163.258,73.5991 162.732,73.4377 162.305,73.1148 C161.899,72.7606 161.695,72.3179 161.695,71.7866 C161.695,70.8908 162.164,70.0523 163.102,69.271 C164.018,68.4898 165.013,68.0991 166.086,68.0991"/>
<path class="Note" d="M145.96,65.599 C146.585,65.599 147.116,65.7604 147.554,66.0833 C147.949,66.4375 148.147,66.8802 148.147,67.4115 C148.147,68.3073 147.689,69.1458 146.772,69.9271 C145.835,70.7083 144.83,71.099 143.757,71.099 C143.132,71.099 142.606,70.9375 142.179,70.6146 C141.772,70.2604 141.569,69.8177 141.569,69.2865 C141.569,68.3906 142.038,67.5521 142.975,66.7708 C143.892,65.9896 144.887,65.599 145.96,65.599"/>
<path class="Note" d="M120.089,65.599 C120.714,65.599 121.246,65.7604 121.683,66.0833 C122.079,66.4375 122.277,66.8802 122.277,67.4115 C122.277,68.3073 121.819,69.1458 120.902,69.9271 C119.964,70.7083 118.959,71.099 117.886,71.099 C117.261,71.099 116.735,70.9375 116.308,70.6146 C115.902,70.2604 115.699,69.8177 115.699,69.2865 C115.699,68.3906 116.168,67.5521 117.105,66.7708 C118.022,65.9896 119.016,65.599 120.089,65.599"/>
<path class="Note" d="M101.019,68.0991 C101.644,68.0991 102.176,68.2606 102.613,68.5835 C103.009,68.9377 103.207,69.3804 103.207,69.9116 C103.207,70.8075 102.749,71.646 101.832,72.4273 C100.894,73.2085 99.8892,73.5991 98.8163,73.5991 C98.1913,73.5991 97.6653,73.4377 97.2382,73.1148 C96.8319,72.7606 96.6288,72.3179 96.6288,71.7866 C96.6288,70.8908 97.0975,70.0523 98.035,69.271 C98.9517,68.4898 99.9465,68.0991 101.019,68.0991"/>
<path class="Note" d="M72.2488,72.0368 C72.2488,71.818 72.1655,71.6305 71.9988,71.4743 C71.8217,71.3076 71.6238,71.2243 71.4051,71.2243 C71.0197,71.2243 70.2332,71.6149 69.0457,72.3962 C67.8165,73.1878 67.0665,73.7555 66.7957,74.0993 C66.6499,74.2764 66.5769,74.4639 66.5769,74.6618 C66.5769,74.8805 66.6655,75.068 66.8426,75.2243 C66.9988,75.391 67.1915,75.4743 67.4207,75.4743 C67.7957,75.4743 68.5926,75.0837 69.8113,74.3024 C71.0092,73.5212 71.7488,72.9535 72.0301,72.5993 C72.1759,72.4326 72.2488,72.2451 72.2488,72.0368 M71.2176,70.5993 C72.3322,70.5993 72.8894,71.0785 72.8894,72.0368 C72.8894,72.5055 72.754,73.0524 72.4832,73.6774 C72.2124,74.292 71.8478,74.7607 71.3894,75.0837 C70.3894,75.7607 69.1342,76.0993 67.6238,76.0993 C66.4988,76.0993 65.9363,75.6201 65.9363,74.6618 C65.9363,74.2347 66.0717,73.693 66.3426,73.0368 C66.603,72.4118 66.9676,71.9378 67.4363,71.6149 C68.4467,70.9378 69.7072,70.5993 71.2176,70.5993"/>
<path class="Clef" d="M38.8904,168.231 C38.8904,168.231 38.9321,168.231 39.0154,168.231 C39.0675,168.22 39.1092,168.215 39.1404,168.215 C40.5987,168.215 41.7967,168.731 42.7342,169.762 C43.6717,170.772 44.1404,171.955 44.1404,173.309 C44.1404,174.996 43.4477,176.366 42.0623,177.418 C41.6977,177.71 41.2185,177.944 40.6248,178.121 C40.6977,178.965 40.7342,179.647 40.7342,180.168 C40.7342,180.272 40.7185,180.652 40.6873,181.309 C40.6352,182.517 40.2185,183.564 39.4373,184.449 C38.6873,185.324 37.7498,185.762 36.6248,185.762 C35.5727,185.762 34.6769,185.392 33.9373,184.652 C33.1873,183.892 32.8123,182.981 32.8123,181.918 C32.8123,181.356 33.031,180.876 33.4685,180.481 C33.906,180.095 34.4164,179.902 34.9998,179.902 C35.5206,179.902 35.9581,180.106 36.3123,180.512 C36.6769,180.887 36.8592,181.356 36.8592,181.918 C36.8592,182.418 36.6769,182.85 36.3123,183.215 C35.9477,183.58 35.5102,183.762 34.9998,183.762 C34.7914,183.762 34.5935,183.725 34.406,183.652 C34.9789,184.496 35.7394,184.918 36.6873,184.918 C37.5831,184.918 38.3175,184.554 38.8904,183.824 C39.4946,183.074 39.8227,182.194 39.8748,181.184 C39.8956,180.559 39.906,180.205 39.906,180.121 C39.906,179.392 39.88,178.793 39.8279,178.324 C39.1821,178.429 38.6039,178.481 38.0935,178.481 C36.281,178.481 34.7394,177.762 33.4685,176.324 C32.2185,174.876 31.5935,173.158 31.5935,171.168 C31.5935,170.751 31.63,170.33 31.7029,169.902 C31.7862,169.548 31.8852,169.163 31.9998,168.746 C32.0623,168.507 32.2394,168.126 32.531,167.606 C32.6352,167.449 32.7524,167.254 32.8826,167.02 C33.0128,166.785 33.1039,166.632 33.156,166.559 C33.281,166.298 33.531,165.944 33.906,165.496 C34.0102,165.382 34.1196,165.254 34.2342,165.113 C34.3487,164.973 34.4451,164.856 34.5232,164.762 C34.6013,164.668 34.6586,164.595 34.6951,164.543 C34.7315,164.491 35.0258,164.147 35.5779,163.512 C35.7029,163.376 35.8279,163.236 35.9529,163.09 C36.0779,162.944 36.1795,162.827 36.2576,162.738 C36.3357,162.65 36.3956,162.59 36.4373,162.559 C35.9685,161.007 35.6717,159.767 35.5467,158.84 C35.4633,158.1 35.4217,157.085 35.4217,155.793 C35.4217,154.658 35.6821,153.595 36.2029,152.606 C36.7029,151.585 37.4112,150.746 38.3279,150.09 C38.3904,150.048 38.4529,150.027 38.5154,150.027 C38.6092,150.027 38.6769,150.048 38.7185,150.09 C39.4164,150.934 40.0206,152.033 40.531,153.387 C41.0519,154.741 41.3123,155.975 41.3123,157.09 C41.3123,158.34 41.0154,159.512 40.4217,160.606 C39.7446,161.762 38.8696,162.96 37.7967,164.199 C38.0675,165.054 38.4321,166.397 38.8904,168.231 M40.5467,177.324 C41.2237,177.074 41.755,176.652 42.1404,176.059 C42.5571,175.486 42.7654,174.84 42.7654,174.121 C42.7654,173.194 42.4529,172.371 41.8279,171.652 C41.1821,170.913 40.3644,170.496 39.3748,170.402 C39.9373,173.152 40.3279,175.46 40.5467,177.324 M32.9998,172.809 C32.9998,174.1 33.5206,175.236 34.5623,176.215 C35.6248,177.163 36.8227,177.637 38.156,177.637 C38.6977,177.637 39.2289,177.595 39.7498,177.512 C39.5414,175.533 39.13,173.163 38.5154,170.402 C37.7758,170.486 37.1873,170.746 36.7498,171.184 C36.3123,171.642 36.0935,172.158 36.0935,172.731 C36.0935,173.72 36.6248,174.522 37.6873,175.137 C37.7706,175.231 37.8123,175.33 37.8123,175.434 C37.8123,175.538 37.7706,175.632 37.6873,175.715 C37.6039,175.809 37.505,175.856 37.3904,175.856 C37.38,175.856 37.3227,175.845 37.2185,175.824 C36.4685,175.418 35.8956,174.897 35.4998,174.262 C35.1144,173.574 34.9217,172.887 34.9217,172.199 C34.9217,171.304 35.2029,170.491 35.7654,169.762 C36.3487,169.033 37.1092,168.564 38.0467,168.356 C37.6821,166.897 37.3852,165.757 37.156,164.934 C36.9477,165.173 36.6977,165.457 36.406,165.785 C36.1144,166.113 35.9425,166.314 35.8904,166.387 C35.4217,166.991 35.0623,167.465 34.8123,167.809 C34.3644,168.423 34.0362,168.949 33.8279,169.387 C33.6092,169.887 33.4164,170.429 33.2498,171.012 C33.0831,171.574 32.9998,172.173 32.9998,172.809 M39.5154,152.949 C38.5362,153.429 37.7706,154.116 37.2185,155.012 C36.6456,155.939 36.3592,156.934 36.3592,157.996 C36.3592,158.934 36.5935,160.199 37.0623,161.793 C37.9998,160.658 38.7029,159.611 39.1717,158.652 C39.6612,157.632 39.906,156.569 39.906,155.465 C39.906,154.632 39.7758,153.793 39.5154,152.949"/>
<path class="Clef" d="M38.8904,73.2246 C38.8904,73.2246 38.9321,73.2246 39.0154,73.2246 C39.0675,73.2142 39.1092,73.209 39.1404,73.209 C40.5987,73.209 41.7967,73.7246 42.7342,74.7558 C43.6717,75.7663 44.1404,76.9486 44.1404,78.3027 C44.1404,79.9902 43.4477,81.36 42.0623,82.4121 C41.6977,82.7038 41.2185,82.9381 40.6248,83.1152 C40.6977,83.959 40.7342,84.6413 40.7342,85.1621 C40.7342,85.2663 40.7185,85.6465 40.6873,86.3027 C40.6352,87.5111 40.2185,88.5579 39.4373,89.4433 C38.6873,90.3183 37.7498,90.7558 36.6248,90.7558 C35.5727,90.7558 34.6769,90.3861 33.9373,89.6465 C33.1873,88.8861 32.8123,87.9746 32.8123,86.9121 C32.8123,86.3496 33.031,85.8704 33.4685,85.4746 C33.906,85.0892 34.4164,84.8965 34.9998,84.8965 C35.5206,84.8965 35.9581,85.0996 36.3123,85.5058 C36.6769,85.8808 36.8592,86.3496 36.8592,86.9121 C36.8592,87.4121 36.6769,87.8444 36.3123,88.209 C35.9477,88.5736 35.5102,88.7558 34.9998,88.7558 C34.7914,88.7558 34.5935,88.7194 34.406,88.6465 C34.9789,89.4902 35.7394,89.9121 36.6873,89.9121 C37.5831,89.9121 38.3175,89.5475 38.8904,88.8183 C39.4946,88.0683 39.8227,87.1881 39.8748,86.1777 C39.8956,85.5527 39.906,85.1986 39.906,85.1152 C39.906,84.3861 39.88,83.7871 39.8279,83.3183 C39.1821,83.4225 38.6039,83.4746 38.0935,83.4746 C36.281,83.4746 34.7394,82.7558 33.4685,81.3183 C32.2185,79.8704 31.5935,78.1517 31.5935,76.1621 C31.5935,75.7454 31.63,75.3236 31.7029,74.8965 C31.7862,74.5423 31.8852,74.1569 31.9998,73.7402 C32.0623,73.5006 32.2394,73.1204 32.531,72.5996 C32.6352,72.4433 32.7524,72.248 32.8826,72.0137 C33.0128,71.7793 33.1039,71.6256 33.156,71.5527 C33.281,71.2923 33.531,70.9381 33.906,70.4902 C34.0102,70.3756 34.1196,70.248 34.2342,70.1074 C34.3487,69.9668 34.4451,69.8496 34.5232,69.7558 C34.6013,69.6621 34.6586,69.5892 34.6951,69.5371 C34.7315,69.485 35.0258,69.1413 35.5779,68.5058 C35.7029,68.3704 35.8279,68.2298 35.9529,68.084 C36.0779,67.9381 36.1795,67.821 36.2576,67.7324 C36.3357,67.6439 36.3956,67.584 36.4373,67.5527 C35.9685,66.0006 35.6717,64.7611 35.5467,63.834 C35.4633,63.0944 35.4217,62.0788 35.4217,60.7871 C35.4217,59.6517 35.6821,58.5892 36.2029,57.5996 C36.7029,56.5788 37.4112,55.7402 38.3279,55.084 C38.3904,55.0423 38.4529,55.0215 38.5154,55.0215 C38.6092,55.0215 38.6769,55.0423 38.7185,55.084 C39.4164,55.9277 40.0206,57.0267 40.531,58.3808 C41.0519,59.735 41.3123,60.9694 41.3123,62.084 C41.3123,63.334 41.0154,64.5058 40.4217,65.5996 C39.7446,66.7558 38.8696,67.9538 37.7967,69.1933 C38.0675,70.0475 38.4321,71.3913 38.8904,73.2246 M40.5467,82.3183 C41.2237,82.0683 41.755,81.6465 42.1404,81.0527 C42.5571,80.4798 42.7654,79.834 42.7654,79.1152 C42.7654,78.1881 42.4529,77.3652 41.8279,76.6465 C41.1821,75.9069 40.3644,75.4902 39.3748,75.3965 C39.9373,78.1465 40.3279,80.4538 40.5467,82.3183 M32.9998,77.8027 C32.9998,79.0944 33.5206,80.2298 34.5623,81.209 C35.6248,82.1569 36.8227,82.6308 38.156,82.6308 C38.6977,82.6308 39.2289,82.5892 39.7498,82.5058 C39.5414,80.5267 39.13,78.1569 38.5154,75.3965 C37.7758,75.4798 37.1873,75.7402 36.7498,76.1777 C36.3123,76.6361 36.0935,77.1517 36.0935,77.7246 C36.0935,78.7142 36.6248,79.5163 37.6873,80.1308 C37.7706,80.2246 37.8123,80.3236 37.8123,80.4277 C37.8123,80.5319 37.7706,80.6256 37.6873,80.709 C37.6039,80.8027 37.505,80.8496 37.3904,80.8496 C37.38,80.8496 37.3227,80.8392 37.2185,80.8183 C36.4685,80.4121 35.8956,79.8913 35.4998,79.2558 C35.1144,78.5683 34.9217,77.8808 34.9217,77.1933 C34.9217,76.2975 35.2029,75.485 35.7654,74.7558 C36.3487,74.0267 37.1092,73.5579 38.0467,73.3496 C37.6821,71.8913 37.3852,70.7506 37.156,69.9277 C36.9477,70.1673 36.6977,70.4512 36.406,70.7793 C36.1144,71.1074 35.9425,71.3079 35.8904,71.3808 C35.4217,71.985 35.0623,72.459 34.8123,72.8027 C34.3644,73.4173 34.0362,73.9433 33.8279,74.3808 C33.6092,74.8808 33.4164,75.4225 33.2498,76.0058 C33.0831,76.5683 32.9998,77.1673 32.9998,77.8027 M39.5154,57.9433 C38.5362,58.4225 37.7706,59.11 37.2185,60.0058 C36.6456,60.9329 36.3592,61.9277 36.3592,62.9902 C36.3592,63.9277 36.5935,65.1933 37.0623,66.7871 C37.9998,65.6517 38.7029,64.6048 39.1717,63.6465 C39.6612,62.6256 39.906,61.5631 39.906,60.459 C39.906,59.6256 39.7758,58.7871 39.5154,57.9433"/>
<path class="TimeSig" d="M53.6853,63.599 C54.0707,63.599 54.4014,63.5547 54.6775,63.4662 C54.9535,63.3776 55.128,63.3333 55.2009,63.3333 C55.2946,63.3333 55.3676,63.3594 55.4196,63.4115 C55.4613,63.4427 55.4873,63.4844 55.4978,63.5365 C55.4978,63.5677 55.4821,63.6094 55.4509,63.6615 L49.779,70.2708 L53.1071,70.2708 L53.1071,67.6458 C53.1071,67.4792 53.154,67.3333 53.2478,67.2083 C53.404,67.0833 53.5342,67.0052 53.6384,66.974 C53.8051,66.9011 54.0134,66.7188 54.2634,66.4271 C54.4717,66.1979 54.7217,65.7917 55.0134,65.2083 C55.0446,65.125 55.1019,65.0833 55.1853,65.0833 C55.3415,65.0833 55.4301,65.1771 55.4509,65.3646 L55.4509,70.2708 L56.8884,70.2708 C57.0655,70.2708 57.1696,70.3646 57.2009,70.5521 C57.2009,70.75 57.0967,70.849 56.8884,70.849 L55.4509,70.849 L55.4509,71.0052 C55.4509,71.5261 55.5811,71.9688 55.8415,72.3333 C56.1436,72.6979 56.4978,72.8802 56.904,72.8802 C57.0603,72.8802 57.1384,72.9583 57.1384,73.1146 C57.1384,73.2708 57.0603,73.349 56.904,73.349 C56.6332,73.349 56.1905,73.3125 55.5759,73.2396 C55.0134,73.1458 54.5759,73.099 54.2634,73.099 C53.9405,73.099 53.503,73.1458 52.9509,73.2396 C52.3676,73.3125 51.9353,73.349 51.654,73.349 C51.4978,73.349 51.4196,73.2708 51.4196,73.1146 C51.4196,72.9583 51.4978,72.8802 51.654,72.8802 C52.0498,72.8802 52.3988,72.6979 52.7009,72.3333 C52.9717,71.9688 53.1071,71.5261 53.1071,71.0052 L53.1071,70.849 L49.779,70.849 C49.5498,70.849 49.3936,70.7969 49.3103,70.6927 C49.1957,70.6198 49.1384,70.5156 49.1384,70.3802 C49.1384,70.3386 49.2373,70.2031 49.4353,69.974 C49.6644,69.7136 49.8988,69.3958 50.1384,69.0208 C50.4301,68.5729 50.7061,68.1146 50.9665,67.6458 C51.2478,67.1146 51.4769,66.5 51.654,65.8021 C51.8415,65.1042 51.9353,64.3906 51.9353,63.6615 C51.9353,63.4531 52.029,63.349 52.2165,63.349 C52.2582,63.349 52.3415,63.3698 52.4665,63.4115 C52.5082,63.4219 52.5915,63.4401 52.7165,63.4662 C52.8415,63.4922 52.9405,63.5156 53.0134,63.5365 C53.253,63.5781 53.4769,63.599 53.6853,63.599"/>
<path class="TimeSig" d="M53.6853,73.5996 C54.0707,73.5996 54.4014,73.5553 54.6775,73.4668 C54.9535,73.3782 55.128,73.334 55.2009,73.334 C55.2946,73.334 55.3676,73.36 55.4196,73.4121 C55.4613,73.4433 55.4873,73.485 55.4978,73.5371 C55.4978,73.5683 55.4821,73.61 55.4509,73.6621 L49.779,80.2715 L53.1071,80.2715 L53.1071,77.6465 C53.1071,77.4798 53.154,77.334 53.2478,77.209 C53.404,77.084 53.5342,77.0058 53.6384,76.9746 C53.8051,76.9017 54.0134,76.7194 54.2634,76.4277 C54.4717,76.1986 54.7217,75.7923 55.0134,75.209 C55.0446,75.1256 55.1019,75.084 55.1853,75.084 C55.3415,75.084 55.4301,75.1777 55.4509,75.3652 L55.4509,80.2715 L56.8884,80.2715 C57.0655,80.2715 57.1696,80.3652 57.2009,80.5527 C57.2009,80.7506 57.0967,80.8496 56.8884,80.8496 L55.4509,80.8496 L55.4509,81.0058 C55.4509,81.5267 55.5811,81.9694 55.8415,82.334 C56.1436,82.6986 56.4978,82.8808 56.904,82.8808 C57.0603,82.8808 57.1384,82.959 57.1384,83.1152 C57.1384,83.2715 57.0603,83.3496 56.904,83.3496 C56.6332,83.3496 56.1905,83.3131 55.5759,83.2402 C55.0134,83.1465 54.5759,83.0996 54.2634,83.0996 C53.9405,83.0996 53.503,83.1465 52.9509,83.2402 C52.3676,83.3131 51.9353,83.3496 51.654,83.3496 C51.4978,83.3496 51.4196,83.2715 51.4196,83.1152 C51.4196,82.959 51.4978,82.8808 51.654,82.8808 C52.0498,82.8808 52.3988,82.6986 52.7009,82.334 C52.9717,81.9694 53.1071,81.5267 53.1071,81.0058 L53.1071,80.8496 L49.779,80.8496 C49.5498,80.8496 49.3936,80.7975 49.3103,80.6933 C49.1957,80.6204 49.1384,80.5163 49.1384,80.3808 C49.1384,80.3392 49.2373,80.2038 49.4353,79.9746 C49.6644,79.7142 49.8988,79.3965 50.1384,79.0215 C50.4301,78.5736 50.7061,78.1152 50.9665,77.6465 C51.2478,77.1152 51.4769,76.5006 51.654,75.8027 C51.8415,75.1048 51.9353,74.3913 51.9353,73.6621 C51.9353,73.4538 52.029,73.3496 52.2165,73.3496 C52.2582,73.3496 52.3415,73.3704 52.4665,73.4121 C52.5082,73.4225 52.5915,73.4407 52.7165,73.4668 C52.8415,73.4928 52.9405,73.5163 53.0134,73.5371 C53.253,73.5788 53.4769,73.5996 53.6853,73.5996"/>
<path class="Hook" d="M339.635,161.48 L339.635,156.48 L340.26,156.48 C340.26,157.219 340.406,157.964 340.698,158.714 C341.01,159.516 341.354,160.219 341.729,160.823 C342,161.25 342.411,161.907 342.963,162.792 C343.38,163.469 343.731,164.177 344.018,164.917 C344.304,165.657 344.448,166.401 344.448,167.151 C344.448,168.506 344.166,169.886 343.604,171.292 C343.51,171.448 343.385,171.526 343.229,171.526 C343.104,171.526 342.989,171.474 342.885,171.37 C342.802,171.287 342.76,171.188 342.76,171.073 L342.76,170.98 C343.323,169.688 343.604,168.412 343.604,167.151 C343.604,166.495 343.406,165.792 343.01,165.042 C342.625,164.271 342.229,163.657 341.823,163.198 C341.364,162.667 340.843,162.094 340.26,161.48 L339.635,161.48 "/>
<path class="Hook" d="M345.463,64.5984 L345.463,59.5984 L346.088,59.5984 C346.088,60.338 346.234,61.0828 346.526,61.8328 C346.838,62.6349 347.182,63.338 347.557,63.9422 C347.828,64.3693 348.239,65.0255 348.791,65.9109 C349.208,66.588 349.56,67.2963 349.846,68.0359 C350.133,68.7755 350.276,69.5203 350.276,70.2703 C350.276,71.6245 349.995,73.0047 349.432,74.4109 C349.338,74.5672 349.213,74.6453 349.057,74.6453 C348.932,74.6453 348.818,74.5932 348.713,74.489 C348.63,74.4057 348.588,74.3068 348.588,74.1922 L348.588,74.0984 C349.151,72.8068 349.432,71.5307 349.432,70.2703 C349.432,69.614 349.234,68.9109 348.838,68.1609 C348.453,67.3901 348.057,66.7755 347.651,66.3172 C347.193,65.7859 346.672,65.213 346.088,64.5984 L345.463,64.5984 "/>
<path class="VoltaSegment" d="M64.011,138.481 C63.9693,138.273 63.938,138.127 63.9172,138.044 C63.8964,137.961 63.8573,137.836 63.8,137.669 C63.7427,137.502 63.6802,137.383 63.6125,137.31 C63.5448,137.237 63.4485,137.148 63.3235,137.044 C63.1985,136.94 63.0552,136.862 62.8938,136.81 C62.7323,136.758 62.5344,136.713 62.3,136.677 C62.0656,136.64 61.7974,136.622 61.4953,136.622 C61.2141,136.622 61.0266,136.659 60.9328,136.731 C60.8391,136.804 60.7922,136.945 60.7922,137.153 L60.7922,139.716 C61.3443,139.716 61.7375,139.599 61.9719,139.364 C62.2063,139.13 62.3755,138.695 62.4797,138.06 L62.7453,138.06 L62.7453,141.794 L62.4797,141.794 C62.4068,141.159 62.2479,140.718 62.0031,140.474 C61.7584,140.229 61.3547,140.096 60.7922,140.075 L60.7922,142.638 C60.7922,142.94 60.8677,143.14 61.0188,143.239 C61.1698,143.338 61.5005,143.398 62.011,143.419 L62.011,143.7 L58.0422,143.7 L58.0422,143.419 C58.4589,143.377 58.7245,143.31 58.8391,143.216 C58.9537,143.122 59.011,142.929 59.011,142.638 L59.011,137.325 C59.011,137.034 58.9459,136.836 58.8156,136.731 C58.6854,136.627 58.4276,136.565 58.0422,136.544 L58.0422,136.263 L64.2766,136.263 L64.2766,138.481 L64.011,138.481 M68.5578,140.091 C68.3912,140.091 68.2427,140.036 68.1125,139.927 C67.9823,139.817 67.8755,139.711 67.7922,139.606 C67.7089,139.502 67.6412,139.45 67.5891,139.45 C67.4016,139.45 67.2427,139.552 67.1125,139.755 C66.9823,139.958 66.9172,140.2 66.9172,140.481 L66.9172,142.56 C66.9172,142.914 66.9667,143.143 67.0656,143.247 C67.1646,143.351 67.3807,143.414 67.7141,143.435 L67.7141,143.7 L64.8078,143.7 L64.8078,143.435 C65.0474,143.393 65.2037,143.33 65.2766,143.247 C65.3495,143.164 65.386,143.008 65.386,142.778 L65.386,139.544 C65.386,139.325 65.3469,139.169 65.2688,139.075 C65.1906,138.981 65.037,138.919 64.8078,138.888 L64.8078,138.622 L66.8703,138.622 L66.8703,139.528 C67.1307,139.164 67.3755,138.901 67.6047,138.739 C67.8339,138.578 68.0839,138.497 68.3547,138.497 C68.6151,138.497 68.8287,138.578 68.9953,138.739 C69.162,138.901 69.2453,139.106 69.2453,139.356 C69.2453,139.565 69.1802,139.739 69.05,139.88 C68.9198,140.021 68.7557,140.091 68.5578,140.091 M70.9172,139.263 C70.9172,139.304 70.9719,139.403 71.0813,139.56 C71.1906,139.716 71.2453,139.856 71.2453,139.981 C71.2453,140.169 71.175,140.32 71.0344,140.435 C70.8938,140.549 70.7141,140.606 70.4953,140.606 C70.2662,140.606 70.0891,140.544 69.9641,140.419 C69.8391,140.294 69.7766,140.117 69.7766,139.888 C69.7766,139.471 69.9667,139.135 70.3469,138.88 C70.7271,138.625 71.2297,138.497 71.8547,138.497 C72.5214,138.497 73.05,138.633 73.4406,138.903 C73.8313,139.174 74.0266,139.544 74.0266,140.013 L74.0266,142.856 C74.0266,143.034 74.1047,143.122 74.261,143.122 C74.313,143.122 74.3547,143.112 74.386,143.091 L74.4953,142.981 L74.6672,143.2 C74.2714,143.638 73.8599,143.856 73.4328,143.856 C73.162,143.856 72.9589,143.797 72.8235,143.677 C72.688,143.557 72.5891,143.351 72.5266,143.06 C71.9641,143.591 71.386,143.856 70.7922,143.856 C70.438,143.856 70.1464,143.744 69.9172,143.521 C69.688,143.297 69.5735,143.013 69.5735,142.669 C69.5735,142.44 69.6334,142.229 69.7531,142.036 C69.8729,141.843 70.0136,141.687 70.175,141.567 C70.3365,141.448 70.5578,141.325 70.8391,141.2 C71.1203,141.075 71.3599,140.979 71.5578,140.911 C71.7557,140.843 72.0162,140.763 72.3391,140.669 C72.4224,140.648 72.4849,140.633 72.5266,140.622 L72.5266,139.825 C72.5266,139.492 72.4537,139.247 72.3078,139.091 C72.162,138.935 71.9276,138.856 71.6047,138.856 C71.4172,138.856 71.2557,138.896 71.1203,138.974 C70.9849,139.052 70.9172,139.148 70.9172,139.263 M72.511,142.575 L72.511,140.997 C71.6151,141.226 71.1672,141.669 71.1672,142.325 C71.1672,142.544 71.2193,142.718 71.3235,142.849 C71.4276,142.979 71.563,143.044 71.7297,143.044 C71.9797,143.044 72.2401,142.888 72.511,142.575 M76.9172,138.497 C77.1151,138.497 77.3495,138.536 77.6203,138.614 C77.8912,138.692 78.0578,138.731 78.1203,138.731 C78.2349,138.731 78.3235,138.659 78.386,138.513 L78.6203,138.513 L78.6203,140.122 L78.3547,140.122 C78.063,139.278 77.6151,138.856 77.011,138.856 C76.8026,138.856 76.6281,138.916 76.4875,139.036 C76.3469,139.156 76.2766,139.31 76.2766,139.497 C76.2766,139.664 76.3417,139.815 76.4719,139.95 C76.6021,140.086 76.7636,140.195 76.9563,140.278 C77.149,140.362 77.3547,140.461 77.5735,140.575 C77.7922,140.69 77.9979,140.807 78.1906,140.927 C78.3834,141.047 78.5422,141.216 78.6672,141.435 C78.7922,141.653 78.8547,141.903 78.8547,142.185 C78.8547,142.674 78.6985,143.075 78.386,143.388 C78.0735,143.7 77.6672,143.856 77.1672,143.856 C76.8651,143.856 76.5604,143.804 76.2531,143.7 C75.9459,143.596 75.7714,143.544 75.7297,143.544 C75.6464,143.544 75.5474,143.643 75.4328,143.841 L75.1672,143.841 L75.1672,142.028 L75.4641,142.028 C75.7037,143.008 76.2089,143.497 76.9797,143.497 C77.2297,143.497 77.4302,143.429 77.5813,143.294 C77.7323,143.159 77.8078,142.987 77.8078,142.778 C77.8078,142.58 77.7167,142.409 77.5344,142.263 C77.3521,142.117 77.1334,141.987 76.8781,141.872 C76.6229,141.758 76.3677,141.63 76.1125,141.489 C75.8573,141.349 75.6386,141.161 75.4563,140.927 C75.274,140.692 75.1828,140.419 75.1828,140.106 C75.1828,139.648 75.3469,139.265 75.675,138.958 C76.0031,138.651 76.4172,138.497 76.9172,138.497 M81.0891,140.997 C81.0995,141.195 81.1151,141.375 81.136,141.536 C81.1568,141.698 81.1932,141.877 81.2453,142.075 C81.2974,142.273 81.3703,142.437 81.4641,142.567 C81.5578,142.698 81.6828,142.81 81.8391,142.903 C81.9953,142.997 82.1828,143.044 82.4016,143.044 C82.6307,143.044 82.8417,142.989 83.0344,142.88 C83.2271,142.771 83.4328,142.586 83.6516,142.325 L83.9172,142.466 C83.5526,142.987 83.2167,143.349 82.9094,143.552 C82.6021,143.755 82.2245,143.856 81.7766,143.856 C81.0891,143.856 80.5396,143.612 80.1281,143.122 C79.7167,142.633 79.511,141.987 79.511,141.185 C79.511,140.383 79.7219,139.734 80.1438,139.239 C80.5656,138.744 81.1203,138.497 81.8078,138.497 C83.0578,138.497 83.7401,139.33 83.8547,140.997 L81.0891,140.997 M82.511,140.435 C82.5005,140.205 82.4927,140.028 82.4875,139.903 C82.4823,139.778 82.4641,139.638 82.4328,139.481 C82.4016,139.325 82.3625,139.211 82.3156,139.138 C82.2688,139.065 82.2037,139 82.1203,138.942 C82.037,138.885 81.9328,138.856 81.8078,138.856 C81.537,138.856 81.3443,138.984 81.2297,139.239 C81.1151,139.494 81.0474,139.945 81.0266,140.591 L82.511,140.591 L82.511,140.435 M91.3703,142.513 L91.5735,142.716 C91.2505,143.122 90.925,143.414 90.5969,143.591 C90.2688,143.768 89.8912,143.856 89.4641,143.856 C88.787,143.856 88.2271,143.612 87.7844,143.122 C87.3417,142.633 87.1203,142.013 87.1203,141.263 C87.1203,140.471 87.3651,139.812 87.8547,139.286 C88.3443,138.76 88.9641,138.497 89.7141,138.497 C90.1932,138.497 90.5969,138.612 90.925,138.841 C91.2531,139.07 91.4172,139.356 91.4172,139.7 C91.4172,139.919 91.3521,140.091 91.2219,140.216 C91.0917,140.341 90.9068,140.403 90.6672,140.403 C90.261,140.403 90.0578,140.143 90.0578,139.622 C90.0578,139.32 90.037,139.133 89.9953,139.06 C89.9224,138.924 89.787,138.856 89.5891,138.856 C89.3078,138.856 89.0839,139.021 88.9172,139.349 C88.7505,139.677 88.6672,140.122 88.6672,140.685 C88.6672,141.424 88.8078,142.015 89.0891,142.458 C89.3703,142.901 89.7505,143.122 90.2297,143.122 C90.4589,143.122 90.6542,143.078 90.8156,142.989 C90.9771,142.901 91.162,142.742 91.3703,142.513 M94.386,138.497 C95.0943,138.497 95.6828,138.752 96.1516,139.263 C96.6203,139.773 96.8547,140.414 96.8547,141.185 C96.8547,141.945 96.6203,142.58 96.1516,143.091 C95.6828,143.601 95.0943,143.856 94.386,143.856 C93.6672,143.856 93.0735,143.601 92.6047,143.091 C92.136,142.58 91.9016,141.935 91.9016,141.153 C91.9016,140.403 92.1412,139.773 92.6203,139.263 C93.0995,138.752 93.688,138.497 94.386,138.497 M94.386,138.856 C94.0526,138.856 93.8235,139.031 93.6985,139.38 C93.5735,139.729 93.511,140.383 93.511,141.341 C93.511,142.143 93.5761,142.703 93.7063,143.021 C93.8365,143.338 94.063,143.497 94.386,143.497 C94.7089,143.497 94.9328,143.33 95.0578,142.997 C95.1828,142.664 95.2453,142.08 95.2453,141.247 C95.2453,140.351 95.1828,139.729 95.0578,139.38 C94.9328,139.031 94.7089,138.856 94.386,138.856 M100.37,139.216 C100.172,139.216 99.9667,139.304 99.7531,139.481 C99.5396,139.659 99.4328,139.784 99.4328,139.856 L99.4328,142.81 C99.4328,143.018 99.4719,143.166 99.55,143.255 C99.6281,143.343 99.7662,143.403 99.9641,143.435 L99.9641,143.7 L97.3235,143.7 L97.3235,143.435 C97.5735,143.383 97.7323,143.317 97.8,143.239 C97.8677,143.161 97.9016,143.008 97.9016,142.778 L97.9016,139.544 C97.9016,139.315 97.8651,139.159 97.7922,139.075 C97.7193,138.992 97.563,138.929 97.3235,138.888 L97.3235,138.622 L99.4172,138.622 L99.4172,139.45 C99.8235,138.815 100.349,138.497 100.995,138.497 C101.443,138.497 101.803,138.638 102.073,138.919 C102.344,139.2 102.48,139.575 102.48,140.044 L102.48,142.81 C102.48,143.039 102.516,143.198 102.589,143.286 C102.662,143.375 102.803,143.424 103.011,143.435 L103.011,143.7 L100.433,143.7 L100.433,143.435 C100.62,143.414 100.753,143.356 100.831,143.263 C100.909,143.169 100.948,143.018 100.948,142.81 L100.948,140.138 C100.948,139.523 100.756,139.216 100.37,139.216 M105.355,138.497 C105.553,138.497 105.787,138.536 106.058,138.614 C106.329,138.692 106.495,138.731 106.558,138.731 C106.672,138.731 106.761,138.659 106.823,138.513 L107.058,138.513 L107.058,140.122 L106.792,140.122 C106.501,139.278 106.053,138.856 105.448,138.856 C105.24,138.856 105.066,138.916 104.925,139.036 C104.784,139.156 104.714,139.31 104.714,139.497 C104.714,139.664 104.779,139.815 104.909,139.95 C105.04,140.086 105.201,140.195 105.394,140.278 C105.586,140.362 105.792,140.461 106.011,140.575 C106.23,140.69 106.435,140.807 106.628,140.927 C106.821,141.047 106.98,141.216 107.105,141.435 C107.23,141.653 107.292,141.903 107.292,142.185 C107.292,142.674 107.136,143.075 106.823,143.388 C106.511,143.7 106.105,143.856 105.605,143.856 C105.303,143.856 104.998,143.804 104.691,143.7 C104.383,143.596 104.209,143.544 104.167,143.544 C104.084,143.544 103.985,143.643 103.87,143.841 L103.605,143.841 L103.605,142.028 L103.902,142.028 C104.141,143.008 104.646,143.497 105.417,143.497 C105.667,143.497 105.868,143.429 106.019,143.294 C106.17,143.159 106.245,142.987 106.245,142.778 C106.245,142.58 106.154,142.409 105.972,142.263 C105.79,142.117 105.571,141.987 105.316,141.872 C105.06,141.758 104.805,141.63 104.55,141.489 C104.295,141.349 104.076,141.161 103.894,140.927 C103.711,140.692 103.62,140.419 103.62,140.106 C103.62,139.648 103.784,139.265 104.113,138.958 C104.441,138.651 104.855,138.497 105.355,138.497 M109.527,140.997 C109.537,141.195 109.553,141.375 109.573,141.536 C109.594,141.698 109.631,141.877 109.683,142.075 C109.735,142.273 109.808,142.437 109.902,142.567 C109.995,142.698 110.12,142.81 110.277,142.903 C110.433,142.997 110.62,143.044 110.839,143.044 C111.068,143.044 111.279,142.989 111.472,142.88 C111.665,142.771 111.87,142.586 112.089,142.325 L112.355,142.466 C111.99,142.987 111.654,143.349 111.347,143.552 C111.04,143.755 110.662,143.856 110.214,143.856 C109.527,143.856 108.977,143.612 108.566,143.122 C108.154,142.633 107.948,141.987 107.948,141.185 C107.948,140.383 108.159,139.734 108.581,139.239 C109.003,138.744 109.558,138.497 110.245,138.497 C111.495,138.497 112.178,139.33 112.292,140.997 L109.527,140.997 M110.948,140.435 C110.938,140.205 110.93,140.028 110.925,139.903 C110.92,139.778 110.902,139.638 110.87,139.481 C110.839,139.325 110.8,139.211 110.753,139.138 C110.706,139.065 110.641,139 110.558,138.942 C110.474,138.885 110.37,138.856 110.245,138.856 C109.974,138.856 109.782,138.984 109.667,139.239 C109.553,139.494 109.485,139.945 109.464,140.591 L110.948,140.591 L110.948,140.435 M116.198,144.763 L116.198,143.231 C115.782,143.648 115.334,143.856 114.855,143.856 C114.251,143.856 113.761,143.617 113.386,143.138 C113.011,142.659 112.823,142.044 112.823,141.294 C112.823,140.471 113.05,139.799 113.503,139.278 C113.956,138.758 114.542,138.497 115.261,138.497 C115.532,138.497 115.769,138.541 115.972,138.63 C116.175,138.718 116.422,138.888 116.714,139.138 L117.573,138.513 L117.73,138.513 L117.73,145.06 C117.73,145.278 117.766,145.427 117.839,145.505 C117.912,145.583 118.079,145.643 118.339,145.685 L118.339,145.95 L115.402,145.95 L115.402,145.685 C115.766,145.612 115.99,145.526 116.073,145.427 C116.157,145.328 116.198,145.106 116.198,144.763 M116.198,142.622 L116.198,139.731 C116.198,139.471 116.131,139.26 115.995,139.099 C115.86,138.937 115.683,138.856 115.464,138.856 C114.766,138.856 114.417,139.606 114.417,141.106 C114.417,142.534 114.761,143.247 115.448,143.247 C115.834,143.247 116.084,143.039 116.198,142.622 M122.37,143.841 L122.37,143.122 C122.047,143.403 121.771,143.596 121.542,143.7 C121.313,143.804 121.058,143.856 120.777,143.856 C120.318,143.856 119.959,143.718 119.698,143.442 C119.438,143.166 119.308,142.789 119.308,142.31 L119.308,139.544 C119.308,139.315 119.269,139.161 119.191,139.083 C119.113,139.005 118.959,138.94 118.73,138.888 L118.73,138.622 L120.839,138.622 L120.839,142.356 C120.839,142.627 120.883,142.823 120.972,142.942 C121.06,143.062 121.219,143.122 121.448,143.122 C121.73,143.122 122.032,142.961 122.355,142.638 L122.355,139.544 C122.355,139.304 122.308,139.14 122.214,139.052 C122.12,138.963 121.938,138.909 121.667,138.888 L121.667,138.622 L123.886,138.622 L123.886,142.575 C123.886,142.815 123.933,142.979 124.027,143.067 C124.12,143.156 124.287,143.205 124.527,143.216 L124.527,143.466 L123.823,143.544 C123.209,143.617 122.724,143.716 122.37,143.841 M126.589,140.997 C126.599,141.195 126.615,141.375 126.636,141.536 C126.657,141.698 126.693,141.877 126.745,142.075 C126.797,142.273 126.87,142.437 126.964,142.567 C127.058,142.698 127.183,142.81 127.339,142.903 C127.495,142.997 127.683,143.044 127.902,143.044 C128.131,143.044 128.342,142.989 128.534,142.88 C128.727,142.771 128.933,142.586 129.152,142.325 L129.417,142.466 C129.053,142.987 128.717,143.349 128.409,143.552 C128.102,143.755 127.724,143.856 127.277,143.856 C126.589,143.856 126.04,143.612 125.628,143.122 C125.217,142.633 125.011,141.987 125.011,141.185 C125.011,140.383 125.222,139.734 125.644,139.239 C126.066,138.744 126.62,138.497 127.308,138.497 C128.558,138.497 129.24,139.33 129.355,140.997 L126.589,140.997 M128.011,140.435 C128.001,140.205 127.993,140.028 127.988,139.903 C127.982,139.778 127.964,139.638 127.933,139.481 C127.902,139.325 127.863,139.211 127.816,139.138 C127.769,139.065 127.704,139 127.62,138.942 C127.537,138.885 127.433,138.856 127.308,138.856 C127.037,138.856 126.844,138.984 126.73,139.239 C126.615,139.494 126.547,139.945 126.527,140.591 L128.011,140.591 L128.011,140.435 M132.855,139.216 C132.657,139.216 132.451,139.304 132.238,139.481 C132.024,139.659 131.917,139.784 131.917,139.856 L131.917,142.81 C131.917,143.018 131.956,143.166 132.034,143.255 C132.113,143.343 132.251,143.403 132.448,143.435 L132.448,143.7 L129.808,143.7 L129.808,143.435 C130.058,143.383 130.217,143.317 130.284,143.239 C130.352,143.161 130.386,143.008 130.386,142.778 L130.386,139.544 C130.386,139.315 130.349,139.159 130.277,139.075 C130.204,138.992 130.047,138.929 129.808,138.888 L129.808,138.622 L131.902,138.622 L131.902,139.45 C132.308,138.815 132.834,138.497 133.48,138.497 C133.928,138.497 134.287,138.638 134.558,138.919 C134.829,139.2 134.964,139.575 134.964,140.044 L134.964,142.81 C134.964,143.039 135.001,143.198 135.073,143.286 C135.146,143.375 135.287,143.424 135.495,143.435 L135.495,143.7 L132.917,143.7 L132.917,143.435 C133.105,143.414 133.238,143.356 133.316,143.263 C133.394,143.169 133.433,143.018 133.433,142.81 L133.433,140.138 C133.433,139.523 133.24,139.216 132.855,139.216 M139.027,138.622 L139.027,139.106 L137.995,139.106 L137.995,142.403 C137.995,142.622 138.029,142.781 138.097,142.88 C138.165,142.979 138.277,143.028 138.433,143.028 C138.652,143.028 138.86,142.841 139.058,142.466 L139.323,142.575 C139.105,143.034 138.87,143.356 138.62,143.544 C138.37,143.731 138.063,143.825 137.698,143.825 C137.323,143.825 137.024,143.724 136.8,143.521 C136.576,143.317 136.464,143.039 136.464,142.685 L136.464,139.106 L135.902,139.106 L135.902,138.81 C136.256,138.518 136.563,138.224 136.823,137.927 C137.084,137.63 137.386,137.242 137.73,136.763 L137.995,136.763 L137.995,138.622 L139.027,138.622 M141.23,140.997 C141.24,141.195 141.256,141.375 141.277,141.536 C141.297,141.698 141.334,141.877 141.386,142.075 C141.438,142.273 141.511,142.437 141.605,142.567 C141.698,142.698 141.823,142.81 141.98,142.903 C142.136,142.997 142.323,143.044 142.542,143.044 C142.771,143.044 142.982,142.989 143.175,142.88 C143.368,142.771 143.573,142.586 143.792,142.325 L144.058,142.466 C143.693,142.987 143.357,143.349 143.05,143.552 C142.743,143.755 142.365,143.856 141.917,143.856 C141.23,143.856 140.68,143.612 140.269,143.122 C139.857,142.633 139.652,141.987 139.652,141.185 C139.652,140.383 139.863,139.734 140.284,139.239 C140.706,138.744 141.261,138.497 141.948,138.497 C143.198,138.497 143.881,139.33 143.995,140.997 L141.23,140.997 M142.652,140.435 C142.641,140.205 142.633,140.028 142.628,139.903 C142.623,139.778 142.605,139.638 142.573,139.481 C142.542,139.325 142.503,139.211 142.456,139.138 C142.409,139.065 142.344,139 142.261,138.942 C142.178,138.885 142.073,138.856 141.948,138.856 C141.678,138.856 141.485,138.984 141.37,139.239 C141.256,139.494 141.188,139.945 141.167,140.591 L142.652,140.591 L142.652,140.435 "/>
<polyline class="VoltaSegment" fill="none" stroke="#000000" stroke-width="0.50" stroke-linecap="square" stroke-linejoin="bevel" points="55.3233,134.2 381.53,134.2"/>
<polyline class="VoltaSegment" fill="none" stroke="#000000" stroke-width="0.50" stroke-linecap="square" stroke-linejoin="bevel" points="55.3233,134.2 55.3233,143.7"/>
<polyline class="VoltaSegment" fill="none" stroke="#000000" stroke-width="0.50" stroke-linecap="square" stroke-linejoin="bevel" points="381.53,134.2 381.53,143.7"/>
<path class="VoltaSegment" d="M69.2816,37.6953 C69.2816,37.6015 69.3207,37.4843 69.3988,37.3437 C69.4769,37.2031 69.516,37.1171 69.516,37.0859 C69.516,36.9505 69.4118,36.8828 69.2035,36.8828 C69.016,36.8828 68.878,36.9479 68.7894,37.0781 C68.7009,37.2083 68.6566,37.4192 68.6566,37.7109 L68.6566,39.039 L69.6097,39.039 L69.6097,39.5234 L68.6566,39.5234 L68.6566,42.9765 C68.6566,43.3411 68.7113,43.5755 68.8207,43.6796 C68.9301,43.7838 69.1722,43.8411 69.5472,43.8515 L69.5472,44.1171 L66.5004,44.1171 L66.5004,43.8515 C66.7504,43.8203 66.917,43.7604 67.0004,43.6718 C67.0837,43.5833 67.1254,43.4244 67.1254,43.1953 L67.1254,39.5234 L66.5004,39.5234 L66.5004,39.039 L67.1254,39.039 C67.1254,38.7161 67.1384,38.4401 67.1644,38.2109 C67.1905,37.9817 67.2426,37.7526 67.3207,37.5234 C67.3988,37.2942 67.5056,37.1119 67.641,36.9765 C67.7764,36.8411 67.9613,36.7291 68.1957,36.6406 C68.4301,36.552 68.7139,36.5078 69.0472,36.5078 C69.5056,36.5078 69.8832,36.6119 70.1801,36.8203 C70.4769,37.0286 70.6254,37.2942 70.6254,37.6171 C70.6254,37.8255 70.5629,37.9921 70.4379,38.1171 C70.3129,38.2421 70.1462,38.3046 69.9379,38.3046 C69.7504,38.3046 69.5941,38.2447 69.4691,38.125 C69.3441,38.0052 69.2816,37.8619 69.2816,37.6953 M74.5629,40.5078 C74.3962,40.5078 74.2478,40.4531 74.1176,40.3437 C73.9873,40.2343 73.8806,40.1276 73.7972,40.0234 C73.7139,39.9192 73.6462,39.8671 73.5941,39.8671 C73.4066,39.8671 73.2478,39.9687 73.1176,40.1718 C72.9873,40.375 72.9222,40.6171 72.9222,40.8984 L72.9222,42.9765 C72.9222,43.3307 72.9717,43.5599 73.0707,43.664 C73.1696,43.7682 73.3858,43.8307 73.7191,43.8515 L73.7191,44.1171 L70.8129,44.1171 L70.8129,43.8515 C71.0524,43.8099 71.2087,43.7474 71.2816,43.664 C71.3545,43.5807 71.391,43.4244 71.391,43.1953 L71.391,39.9609 C71.391,39.7421 71.3519,39.5859 71.2738,39.4921 C71.1957,39.3984 71.042,39.3359 70.8129,39.3046 L70.8129,39.039 L72.8754,39.039 L72.8754,39.9453 C73.1358,39.5807 73.3806,39.3177 73.6097,39.1562 C73.8389,38.9947 74.0889,38.914 74.3597,38.914 C74.6202,38.914 74.8337,38.9947 75.0004,39.1562 C75.167,39.3177 75.2504,39.5234 75.2504,39.7734 C75.2504,39.9817 75.1853,40.1562 75.0551,40.2968 C74.9248,40.4375 74.7608,40.5078 74.5629,40.5078 M76.9222,39.6796 C76.9222,39.7213 76.9769,39.8203 77.0863,39.9765 C77.1957,40.1328 77.2504,40.2734 77.2504,40.3984 C77.2504,40.5859 77.1801,40.7369 77.0394,40.8515 C76.8988,40.9661 76.7191,41.0234 76.5004,41.0234 C76.2712,41.0234 76.0941,40.9609 75.9691,40.8359 C75.8441,40.7109 75.7816,40.5338 75.7816,40.3046 C75.7816,39.888 75.9717,39.552 76.3519,39.2968 C76.7321,39.0416 77.2347,38.914 77.8597,38.914 C78.5264,38.914 79.0551,39.0494 79.4457,39.3203 C79.8363,39.5911 80.0316,39.9609 80.0316,40.4296 L80.0316,43.2734 C80.0316,43.4505 80.1097,43.539 80.266,43.539 C80.3181,43.539 80.3597,43.5286 80.391,43.5078 L80.5004,43.3984 L80.6722,43.6171 C80.2764,44.0546 79.8649,44.2734 79.4379,44.2734 C79.167,44.2734 78.9639,44.2135 78.8285,44.0937 C78.6931,43.9739 78.5941,43.7682 78.5316,43.4765 C77.9691,44.0078 77.391,44.2734 76.7972,44.2734 C76.4431,44.2734 76.1514,44.1614 75.9222,43.9375 C75.6931,43.7135 75.5785,43.4296 75.5785,43.0859 C75.5785,42.8567 75.6384,42.6458 75.7582,42.4531 C75.878,42.2604 76.0186,42.1041 76.1801,41.9843 C76.3415,41.8645 76.5629,41.7421 76.8441,41.6171 C77.1254,41.4921 77.3649,41.3958 77.5629,41.3281 C77.7608,41.2604 78.0212,41.1796 78.3441,41.0859 C78.4274,41.0651 78.4899,41.0494 78.5316,41.039 L78.5316,40.2421 C78.5316,39.9088 78.4587,39.664 78.3129,39.5078 C78.167,39.3515 77.9327,39.2734 77.6097,39.2734 C77.4222,39.2734 77.2608,39.3125 77.1254,39.3906 C76.9899,39.4687 76.9222,39.5651 76.9222,39.6796 M78.516,42.9921 L78.516,41.414 C77.6202,41.6432 77.1722,42.0859 77.1722,42.7421 C77.1722,42.9609 77.2243,43.1354 77.3285,43.2656 C77.4327,43.3958 77.5681,43.4609 77.7347,43.4609 C77.9847,43.4609 78.2452,43.3046 78.516,42.9921 M82.9222,38.914 C83.1202,38.914 83.3545,38.9531 83.6254,39.0312 C83.8962,39.1093 84.0629,39.1484 84.1254,39.1484 C84.2399,39.1484 84.3285,39.0755 84.391,38.9296 L84.6254,38.9296 L84.6254,40.539 L84.3597,40.539 C84.0681,39.6953 83.6202,39.2734 83.016,39.2734 C82.8077,39.2734 82.6332,39.3333 82.4926,39.4531 C82.3519,39.5729 82.2816,39.7265 82.2816,39.914 C82.2816,40.0807 82.3467,40.2317 82.4769,40.3671 C82.6071,40.5026 82.7686,40.6119 82.9613,40.6953 C83.154,40.7786 83.3597,40.8776 83.5785,40.9921 C83.7972,41.1067 84.003,41.2239 84.1957,41.3437 C84.3884,41.4635 84.5472,41.6328 84.6722,41.8515 C84.7972,42.0703 84.8597,42.3203 84.8597,42.6015 C84.8597,43.0911 84.7035,43.4921 84.391,43.8046 C84.0785,44.1171 83.6722,44.2734 83.1722,44.2734 C82.8702,44.2734 82.5655,44.2213 82.2582,44.1171 C81.9509,44.013 81.7764,43.9609 81.7347,43.9609 C81.6514,43.9609 81.5524,44.0599 81.4379,44.2578 L81.1722,44.2578 L81.1722,42.4453 L81.4691,42.4453 C81.7087,43.4244 82.2139,43.914 82.9847,43.914 C83.2347,43.914 83.4353,43.8463 83.5863,43.7109 C83.7373,43.5755 83.8129,43.4036 83.8129,43.1953 C83.8129,42.9974 83.7217,42.8255 83.5394,42.6796 C83.3571,42.5338 83.1384,42.4036 82.8832,42.289 C82.628,42.1744 82.3728,42.0468 82.1176,41.9062 C81.8623,41.7656 81.6436,41.5781 81.4613,41.3437 C81.279,41.1093 81.1879,40.8359 81.1879,40.5234 C81.1879,40.0651 81.3519,39.6822 81.6801,39.375 C82.0082,39.0677 82.4222,38.914 82.9222,38.914 M87.0941,41.414 C87.1045,41.6119 87.1202,41.7916 87.141,41.9531 C87.1618,42.1145 87.1983,42.2942 87.2504,42.4921 C87.3024,42.6901 87.3754,42.8541 87.4691,42.9843 C87.5629,43.1145 87.6879,43.2265 87.8441,43.3203 C88.0004,43.414 88.1879,43.4609 88.4066,43.4609 C88.6358,43.4609 88.8467,43.4062 89.0394,43.2968 C89.2321,43.1875 89.4379,43.0026 89.6566,42.7421 L89.9222,42.8828 C89.5577,43.4036 89.2217,43.7656 88.9144,43.9687 C88.6071,44.1718 88.2295,44.2734 87.7816,44.2734 C87.0941,44.2734 86.5446,44.0286 86.1332,43.539 C85.7217,43.0494 85.516,42.4036 85.516,41.6015 C85.516,40.7994 85.7269,40.151 86.1488,39.6562 C86.5707,39.1614 87.1254,38.914 87.8129,38.914 C89.0629,38.914 89.7452,39.7474 89.8597,41.414 L87.0941,41.414 M88.516,40.8515 C88.5056,40.6224 88.4978,40.4453 88.4926,40.3203 C88.4873,40.1953 88.4691,40.0546 88.4379,39.8984 C88.4066,39.7421 88.3676,39.6276 88.3207,39.5546 C88.2738,39.4817 88.2087,39.4166 88.1254,39.3593 C88.042,39.302 87.9379,39.2734 87.8129,39.2734 C87.542,39.2734 87.3493,39.401 87.2347,39.6562 C87.1202,39.9114 87.0524,40.3619 87.0316,41.0078 L88.516,41.0078 L88.516,40.8515 M94.4691,39.6796 C94.4691,39.7213 94.5238,39.8203 94.6332,39.9765 C94.7426,40.1328 94.7972,40.2734 94.7972,40.3984 C94.7972,40.5859 94.7269,40.7369 94.5863,40.8515 C94.4457,40.9661 94.266,41.0234 94.0472,41.0234 C93.8181,41.0234 93.641,40.9609 93.516,40.8359 C93.391,40.7109 93.3285,40.5338 93.3285,40.3046 C93.3285,39.888 93.5186,39.552 93.8988,39.2968 C94.279,39.0416 94.7816,38.914 95.4066,38.914 C96.0733,38.914 96.6019,39.0494 96.9926,39.3203 C97.3832,39.5911 97.5785,39.9609 97.5785,40.4296 L97.5785,43.2734 C97.5785,43.4505 97.6566,43.539 97.8129,43.539 C97.8649,43.539 97.9066,43.5286 97.9379,43.5078 L98.0472,43.3984 L98.2191,43.6171 C97.8233,44.0546 97.4118,44.2734 96.9847,44.2734 C96.7139,44.2734 96.5108,44.2135 96.3754,44.0937 C96.2399,43.9739 96.141,43.7682 96.0785,43.4765 C95.516,44.0078 94.9379,44.2734 94.3441,44.2734 C93.9899,44.2734 93.6983,44.1614 93.4691,43.9375 C93.2399,43.7135 93.1254,43.4296 93.1254,43.0859 C93.1254,42.8567 93.1853,42.6458 93.3051,42.4531 C93.4248,42.2604 93.5655,42.1041 93.7269,41.9843 C93.8884,41.8645 94.1097,41.7421 94.391,41.6171 C94.6722,41.4921 94.9118,41.3958 95.1097,41.3281 C95.3077,41.2604 95.5681,41.1796 95.891,41.0859 C95.9743,41.0651 96.0368,41.0494 96.0785,41.039 L96.0785,40.2421 C96.0785,39.9088 96.0056,39.664 95.8597,39.5078 C95.7139,39.3515 95.4795,39.2734 95.1566,39.2734 C94.9691,39.2734 94.8077,39.3125 94.6722,39.3906 C94.5368,39.4687 94.4691,39.5651 94.4691,39.6796 M96.0629,42.9921 L96.0629,41.414 C95.167,41.6432 94.7191,42.0859 94.7191,42.7421 C94.7191,42.9609 94.7712,43.1354 94.8754,43.2656 C94.9795,43.3958 95.1149,43.4609 95.2816,43.4609 C95.5316,43.4609 95.792,43.3046 96.0629,42.9921 M101.578,39.6328 C101.381,39.6328 101.175,39.7213 100.961,39.8984 C100.748,40.0755 100.641,40.2005 100.641,40.2734 L100.641,43.2265 C100.641,43.4349 100.68,43.5833 100.758,43.6718 C100.836,43.7604 100.974,43.8203 101.172,43.8515 L101.172,44.1171 L98.5316,44.1171 L98.5316,43.8515 C98.7816,43.7994 98.9405,43.7343 99.0082,43.6562 C99.0759,43.5781 99.1097,43.4244 99.1097,43.1953 L99.1097,39.9609 C99.1097,39.7317 99.0733,39.5755 99.0004,39.4921 C98.9274,39.4088 98.7712,39.3463 98.5316,39.3046 L98.5316,39.039 L100.625,39.039 L100.625,39.8671 C101.032,39.2317 101.558,38.914 102.203,38.914 C102.651,38.914 103.011,39.0546 103.282,39.3359 C103.552,39.6171 103.688,39.9921 103.688,40.4609 L103.688,43.2265 C103.688,43.4557 103.724,43.6145 103.797,43.7031 C103.87,43.7916 104.011,43.8411 104.219,43.8515 L104.219,44.1171 L101.641,44.1171 L101.641,43.8515 C101.828,43.8307 101.961,43.7734 102.039,43.6796 C102.118,43.5859 102.157,43.4349 102.157,43.2265 L102.157,40.5546 C102.157,39.9401 101.964,39.6328 101.578,39.6328 M107.75,39.039 L107.75,39.5234 L106.719,39.5234 L106.719,42.8203 C106.719,43.039 106.753,43.1979 106.821,43.2968 C106.888,43.3958 107,43.4453 107.157,43.4453 C107.375,43.4453 107.584,43.2578 107.782,42.8828 L108.047,42.9921 C107.828,43.4505 107.594,43.7734 107.344,43.9609 C107.094,44.1484 106.787,44.2421 106.422,44.2421 C106.047,44.2421 105.748,44.1406 105.524,43.9375 C105.3,43.7343 105.188,43.4557 105.188,43.1015 L105.188,39.5234 L104.625,39.5234 L104.625,39.2265 C104.98,38.9349 105.287,38.6406 105.547,38.3437 C105.808,38.0468 106.11,37.6588 106.453,37.1796 L106.719,37.1796 L106.719,39.039 L107.75,39.039 M109.953,41.414 C109.964,41.6119 109.98,41.7916 110,41.9531 C110.021,42.1145 110.058,42.2942 110.11,42.4921 C110.162,42.6901 110.235,42.8541 110.328,42.9843 C110.422,43.1145 110.547,43.2265 110.703,43.3203 C110.86,43.414 111.047,43.4609 111.266,43.4609 C111.495,43.4609 111.706,43.4062 111.899,43.2968 C112.092,43.1875 112.297,43.0026 112.516,42.7421 L112.782,42.8828 C112.417,43.4036 112.081,43.7656 111.774,43.9687 C111.467,44.1718 111.089,44.2734 110.641,44.2734 C109.953,44.2734 109.404,44.0286 108.993,43.539 C108.581,43.0494 108.375,42.4036 108.375,41.6015 C108.375,40.7994 108.586,40.151 109.008,39.6562 C109.43,39.1614 109.985,38.914 110.672,38.914 C111.922,38.914 112.605,39.7474 112.719,41.414 L109.953,41.414 M111.375,40.8515 C111.365,40.6224 111.357,40.4453 111.352,40.3203 C111.347,40.1953 111.328,40.0546 111.297,39.8984 C111.266,39.7421 111.227,39.6276 111.18,39.5546 C111.133,39.4817 111.068,39.4166 110.985,39.3593 C110.901,39.302 110.797,39.2734 110.672,39.2734 C110.401,39.2734 110.209,39.401 110.094,39.6562 C109.98,39.9114 109.912,40.3619 109.891,41.0078 L111.375,41.0078 L111.375,40.8515 M117.5,42.9296 L117.703,43.1328 C117.381,43.539 117.055,43.8307 116.727,44.0078 C116.399,44.1849 116.021,44.2734 115.594,44.2734 C114.917,44.2734 114.357,44.0286 113.914,43.539 C113.472,43.0494 113.25,42.4296 113.25,41.6796 C113.25,40.888 113.495,40.2291 113.985,39.7031 C114.474,39.177 115.094,38.914 115.844,38.914 C116.323,38.914 116.727,39.0286 117.055,39.2578 C117.383,39.4869 117.547,39.7734 117.547,40.1171 C117.547,40.3359 117.482,40.5078 117.352,40.6328 C117.222,40.7578 117.037,40.8203 116.797,40.8203 C116.391,40.8203 116.188,40.5599 116.188,40.039 C116.188,39.7369 116.167,39.5494 116.125,39.4765 C116.052,39.3411 115.917,39.2734 115.719,39.2734 C115.438,39.2734 115.214,39.4375 115.047,39.7656 C114.881,40.0937 114.797,40.539 114.797,41.1015 C114.797,41.8411 114.938,42.4322 115.219,42.875 C115.5,43.3177 115.881,43.539 116.36,43.539 C116.589,43.539 116.784,43.4947 116.946,43.4062 C117.107,43.3177 117.292,43.1588 117.5,42.9296 M119.61,41.414 C119.62,41.6119 119.636,41.7916 119.657,41.9531 C119.677,42.1145 119.714,42.2942 119.766,42.4921 C119.818,42.6901 119.891,42.8541 119.985,42.9843 C120.078,43.1145 120.203,43.2265 120.36,43.3203 C120.516,43.414 120.703,43.4609 120.922,43.4609 C121.151,43.4609 121.362,43.4062 121.555,43.2968 C121.748,43.1875 121.953,43.0026 122.172,42.7421 L122.438,42.8828 C122.073,43.4036 121.737,43.7656 121.43,43.9687 C121.123,44.1718 120.745,44.2734 120.297,44.2734 C119.61,44.2734 119.06,44.0286 118.649,43.539 C118.237,43.0494 118.032,42.4036 118.032,41.6015 C118.032,40.7994 118.243,40.151 118.664,39.6562 C119.086,39.1614 119.641,38.914 120.328,38.914 C121.578,38.914 122.261,39.7474 122.375,41.414 L119.61,41.414 M121.032,40.8515 C121.021,40.6224 121.013,40.4453 121.008,40.3203 C121.003,40.1953 120.985,40.0546 120.953,39.8984 C120.922,39.7421 120.883,39.6276 120.836,39.5546 C120.789,39.4817 120.724,39.4166 120.641,39.3593 C120.558,39.302 120.453,39.2734 120.328,39.2734 C120.058,39.2734 119.865,39.401 119.75,39.6562 C119.636,39.9114 119.568,40.3619 119.547,41.0078 L121.032,41.0078 L121.032,40.8515 M126.36,44.2578 L126.36,43.5546 C126.099,43.8255 125.862,44.013 125.649,44.1171 C125.435,44.2213 125.183,44.2734 124.891,44.2734 C124.308,44.2734 123.831,44.0286 123.461,43.539 C123.092,43.0494 122.907,42.4296 122.907,41.6796 C122.907,40.888 123.105,40.2291 123.5,39.7031 C123.896,39.177 124.401,38.914 125.016,38.914 C125.266,38.914 125.487,38.9635 125.68,39.0625 C125.873,39.1614 126.089,39.3359 126.328,39.5859 L126.328,37.5859 C126.328,37.3255 126.279,37.1614 126.18,37.0937 C126.081,37.026 125.849,36.9765 125.485,36.9453 L125.485,36.6796 L127.844,36.6796 L127.844,43.0234 C127.844,43.2526 127.891,43.4114 127.985,43.5 C128.078,43.5885 128.25,43.638 128.5,43.6484 L128.5,43.914 L127.813,43.9921 C127.219,44.0755 126.735,44.164 126.36,44.2578 M125.391,43.664 C125.631,43.664 125.847,43.5599 126.039,43.3515 C126.232,43.1432 126.328,42.9921 126.328,42.8984 L126.328,40.2109 C126.256,40.0026 126.138,39.8359 125.977,39.7109 C125.815,39.5859 125.646,39.5234 125.469,39.5234 C124.844,39.5234 124.532,40.2161 124.532,41.6015 C124.532,42.9765 124.818,43.664 125.391,43.664 M130.547,41.414 C130.558,41.6119 130.573,41.7916 130.594,41.9531 C130.615,42.1145 130.651,42.2942 130.703,42.4921 C130.756,42.6901 130.828,42.8541 130.922,42.9843 C131.016,43.1145 131.141,43.2265 131.297,43.3203 C131.453,43.414 131.641,43.4609 131.86,43.4609 C132.089,43.4609 132.3,43.4062 132.493,43.2968 C132.685,43.1875 132.891,43.0026 133.11,42.7421 L133.375,42.8828 C133.011,43.4036 132.675,43.7656 132.368,43.9687 C132.06,44.1718 131.683,44.2734 131.235,44.2734 C130.547,44.2734 129.998,44.0286 129.586,43.539 C129.175,43.0494 128.969,42.4036 128.969,41.6015 C128.969,40.7994 129.18,40.151 129.602,39.6562 C130.024,39.1614 130.578,38.914 131.266,38.914 C132.516,38.914 133.198,39.7474 133.313,41.414 L130.547,41.414 M131.969,40.8515 C131.959,40.6224 131.951,40.4453 131.946,40.3203 C131.94,40.1953 131.922,40.0546 131.891,39.8984 C131.86,39.7421 131.821,39.6276 131.774,39.5546 C131.727,39.4817 131.662,39.4166 131.578,39.3593 C131.495,39.302 131.391,39.2734 131.266,39.2734 C130.995,39.2734 130.802,39.401 130.688,39.6562 C130.573,39.9114 130.506,40.3619 130.485,41.0078 L131.969,41.0078 L131.969,40.8515 M136.813,39.6328 C136.615,39.6328 136.409,39.7213 136.196,39.8984 C135.982,40.0755 135.875,40.2005 135.875,40.2734 L135.875,43.2265 C135.875,43.4349 135.914,43.5833 135.993,43.6718 C136.071,43.7604 136.209,43.8203 136.407,43.8515 L136.407,44.1171 L133.766,44.1171 L133.766,43.8515 C134.016,43.7994 134.175,43.7343 134.243,43.6562 C134.31,43.5781 134.344,43.4244 134.344,43.1953 L134.344,39.9609 C134.344,39.7317 134.308,39.5755 134.235,39.4921 C134.162,39.4088 134.006,39.3463 133.766,39.3046 L133.766,39.039 L135.86,39.039 L135.86,39.8671 C136.266,39.2317 136.792,38.914 137.438,38.914 C137.886,38.914 138.245,39.0546 138.516,39.3359 C138.787,39.6171 138.922,39.9921 138.922,40.4609 L138.922,43.2265 C138.922,43.4557 138.959,43.6145 139.032,43.7031 C139.105,43.7916 139.245,43.8411 139.453,43.8515 L139.453,44.1171 L136.875,44.1171 L136.875,43.8515 C137.063,43.8307 137.196,43.7734 137.274,43.6796 C137.352,43.5859 137.391,43.4349 137.391,43.2265 L137.391,40.5546 C137.391,39.9401 137.198,39.6328 136.813,39.6328 M142.985,39.039 L142.985,39.5234 L141.953,39.5234 L141.953,42.8203 C141.953,43.039 141.987,43.1979 142.055,43.2968 C142.123,43.3958 142.235,43.4453 142.391,43.4453 C142.61,43.4453 142.818,43.2578 143.016,42.8828 L143.282,42.9921 C143.063,43.4505 142.828,43.7734 142.578,43.9609 C142.328,44.1484 142.021,44.2421 141.657,44.2421 C141.282,44.2421 140.982,44.1406 140.758,43.9375 C140.534,43.7343 140.422,43.4557 140.422,43.1015 L140.422,39.5234 L139.86,39.5234 L139.86,39.2265 C140.214,38.9349 140.521,38.6406 140.782,38.3437 C141.042,38.0468 141.344,37.6588 141.688,37.1796 L141.953,37.1796 L141.953,39.039 L142.985,39.039 M145.188,41.414 C145.198,41.6119 145.214,41.7916 145.235,41.9531 C145.256,42.1145 145.292,42.2942 145.344,42.4921 C145.396,42.6901 145.469,42.8541 145.563,42.9843 C145.657,43.1145 145.782,43.2265 145.938,43.3203 C146.094,43.414 146.282,43.4609 146.5,43.4609 C146.73,43.4609 146.94,43.4062 147.133,43.2968 C147.326,43.1875 147.532,43.0026 147.75,42.7421 L148.016,42.8828 C147.651,43.4036 147.315,43.7656 147.008,43.9687 C146.701,44.1718 146.323,44.2734 145.875,44.2734 C145.188,44.2734 144.638,44.0286 144.227,43.539 C143.815,43.0494 143.61,42.4036 143.61,41.6015 C143.61,40.7994 143.821,40.151 144.243,39.6562 C144.664,39.1614 145.219,38.914 145.907,38.914 C147.157,38.914 147.839,39.7474 147.953,41.414 L145.188,41.414 M146.61,40.8515 C146.599,40.6224 146.592,40.4453 146.586,40.3203 C146.581,40.1953 146.563,40.0546 146.532,39.8984 C146.5,39.7421 146.461,39.6276 146.414,39.5546 C146.368,39.4817 146.302,39.4166 146.219,39.3593 C146.136,39.302 146.032,39.2734 145.907,39.2734 C145.636,39.2734 145.443,39.401 145.328,39.6562 C145.214,39.9114 145.146,40.3619 145.125,41.0078 L146.61,41.0078 L146.61,40.8515 "/>
<polyline class="VoltaSegment" fill="none" stroke="#000000" stroke-width="0.50" stroke-linecap="square" stroke-linejoin="bevel" points="63.7971,34.6165 381.255,34.6165"/>
<polyline class="VoltaSegment" fill="none" stroke="#000000" stroke-width="0.50" stroke-linecap="square" stroke-linejoin="bevel" points="63.7971,34.6165 63.7971,44.1171"/>
<polyline class="VoltaSegment" fill="none" stroke="#000000" stroke-width="0.50" stroke-linecap="square" stroke-linejoin="bevel" points="381.255,34.6165 381.255,44.1171"/>
<path class="NoteDot" d="M310.559,171.66 C310.335,171.436 310.223,171.168 310.223,170.855 C310.223,170.543 310.335,170.275 310.559,170.051 C310.783,169.827 311.051,169.715 311.363,169.715 C311.676,169.715 311.942,169.827 312.16,170.051 C312.379,170.275 312.488,170.543 312.488,170.855 C312.488,171.168 312.379,171.436 312.16,171.66 C311.942,171.884 311.676,171.996 311.363,171.996 C311.051,171.996 310.783,171.884 310.559,171.66"/>
<path class="NoteDot" d="M317.197,71.6538 C316.973,71.4299 316.861,71.1616 316.861,70.8491 C316.861,70.5366 316.973,70.2684 317.197,70.0444 C317.421,69.8205 317.689,69.7085 318.001,69.7085 C318.314,69.7085 318.579,69.8205 318.798,70.0444 C319.017,70.2684 319.126,70.5366 319.126,70.8491 C319.126,71.1616 319.017,71.4299 318.798,71.6538 C318.579,71.8778 318.314,71.9898 318.001,71.9898 C317.689,71.9898 317.421,71.8778 317.197,71.6538"/>
</svg>
