<?xml version="1.0" encoding="UTF-8" standalone="no"?>
<svg width="297.638px" height="419.527px" viewBox="0 0 297.638 419.527"
 xmlns="http://www.w3.org/2000/svg" xmlns:xlink="http://www.w3.org/1999/xlink" version="1.2" baseProfile="tiny">
<title>Title</title>
<desc>Generated by MuseScore 2.1.0</desc>
<polyline class="StaffLines" fill="none" stroke="#000000" stroke-width="0.40" stroke-linejoin="bevel" points="28.3465,63.3487 269.292,63.3487"/>
<polyline class="StaffLines" fill="none" stroke="#000000" stroke-width="0.40" stroke-linejoin="bevel" points="28.3465,68.349 269.292,68.349"/>
<polyline class="StaffLines" fill="none" stroke="#000000" stroke-width="0.40" stroke-linejoin="bevel" points="28.3465,73.3493 269.292,73.3493"/>
<polyline class="StaffLines" fill="none" stroke="#000000" stroke-width="0.40" stroke-linejoin="bevel" points="28.3465,78.3496 269.292,78.3496"/>
<polyline class="StaffLines" fill="none" stroke="#000000" stroke-width="0.40" stroke-linejoin="bevel" points="28.3465,83.3499 269.292,83.3499"/>
<polyline class="BarLine" fill="none" stroke="#000000" stroke-width="0.80" stroke-linejoin="bevel" points="264.391,63.3487 264.391,83.3499"/>
<polyline class="BarLine" fill="none" stroke="#000000" stroke-width="2.50" stroke-linejoin="bevel" points="268.041,63.3487 268.041,83.3499"/>
<polyline class="BarLine" fill="none" stroke="#000000" stroke-width="0.80" stroke-linejoin="bevel" points="158.744,63.3487 158.744,83.3499"/>
<polyline class="Stem" fill="none" stroke="#000000" stroke-width="0.65" stroke-linecap="round" stroke-linejoin="bevel" points="244.537,77.4105 244.537,63.3487"/>
<polyline class="Stem" fill="none" stroke="#000000" stroke-width="0.65" stroke-linecap="round" stroke-linejoin="bevel" points="218.825,82.4108 218.825,68.349"/>
<polyline class="Stem" fill="none" stroke="#000000" stroke-width="0.65" stroke-linecap="round" stroke-linejoin="bevel" points="202.755,77.4105 202.755,63.3487"/>
<polyline class="Stem" fill="none" stroke="#000000" stroke-width="0.65" stroke-linecap="round" stroke-linejoin="bevel" points="171.402,77.4105 171.402,63.3487"/>
<polyline class="Stem" fill="none" stroke="#000000" stroke-width="0.65" stroke-linecap="round" stroke-linejoin="bevel" points="138.933,74.9103 138.933,59.5984"/>
<polyline class="Stem" fill="none" stroke="#000000" stroke-width="0.65" stroke-linecap="round" stroke-linejoin="bevel" points="97.8633,77.4105 97.8633,61.4735"/>
<polyline class="Stem" fill="none" stroke="#000000" stroke-width="0.65" stroke-linecap="round" stroke-linejoin="bevel" points="72.1945,79.9106 72.1945,63.3487"/>
<path class="Note" d="M242.67,75.5996 C243.295,75.5996 243.826,75.7611 244.263,76.084 C244.659,76.4381 244.857,76.8808 244.857,77.4121 C244.857,78.3079 244.399,79.1465 243.482,79.9277 C242.545,80.709 241.539,81.0996 240.467,81.0996 C239.842,81.0996 239.315,80.9381 238.888,80.6152 C238.482,80.2611 238.279,79.8183 238.279,79.2871 C238.279,78.3913 238.748,77.5527 239.685,76.7715 C240.602,75.9902 241.597,75.5996 242.67,75.5996"/>
<path class="Note" d="M216.957,80.5999 C217.582,80.5999 218.114,80.7614 218.551,81.0843 C218.947,81.4385 219.145,81.8812 219.145,82.4124 C219.145,83.3082 218.687,84.1468 217.77,84.928 C216.832,85.7093 215.827,86.0999 214.754,86.0999 C214.129,86.0999 213.603,85.9385 213.176,85.6155 C212.77,85.2614 212.567,84.8187 212.567,84.2874 C212.567,83.3916 213.036,82.553 213.973,81.7718 C214.89,80.9905 215.885,80.5999 216.957,80.5999"/>
<path class="Note" d="M200.887,75.5996 C201.512,75.5996 202.044,75.7611 202.481,76.084 C202.877,76.4381 203.075,76.8808 203.075,77.4121 C203.075,78.3079 202.616,79.1465 201.7,79.9277 C200.762,80.709 199.757,81.0996 198.684,81.0996 C198.059,81.0996 197.533,80.9381 197.106,80.6152 C196.7,80.2611 196.497,79.8183 196.497,79.2871 C196.497,78.3913 196.965,77.5527 197.903,76.7715 C198.82,75.9902 199.814,75.5996 200.887,75.5996"/>
<path class="Note" d="M169.535,75.5996 C170.16,75.5996 170.691,75.7611 171.129,76.084 C171.524,76.4381 171.722,76.8808 171.722,77.4121 C171.722,78.3079 171.264,79.1465 170.347,79.9277 C169.41,80.709 168.405,81.0996 167.332,81.0996 C166.707,81.0996 166.181,80.9381 165.754,80.6152 C165.347,80.2611 165.144,79.8183 165.144,79.2871 C165.144,78.3913 165.613,77.5527 166.55,76.7715 C167.467,75.9902 168.462,75.5996 169.535,75.5996"/>
<path class="Note" d="M137.066,73.0994 C137.691,73.0994 138.222,73.2609 138.659,73.5838 C139.055,73.938 139.253,74.3807 139.253,74.9119 C139.253,75.8078 138.795,76.6463 137.878,77.4276 C136.941,78.2088 135.935,78.5994 134.863,78.5994 C134.238,78.5994 133.712,78.438 133.284,78.1151 C132.878,77.7609 132.675,77.3182 132.675,76.7869 C132.675,75.8911 133.144,75.0526 134.081,74.2713 C134.998,73.4901 135.993,73.0994 137.066,73.0994"/>
<path class="Note" d="M95.9957,75.5996 C96.6207,75.5996 97.1519,75.7611 97.5894,76.084 C97.9853,76.4381 98.1832,76.8808 98.1832,77.4121 C98.1832,78.3079 97.7249,79.1465 96.8082,79.9277 C95.8707,80.709 94.8655,81.0996 93.7926,81.0996 C93.1676,81.0996 92.6415,80.9381 92.2144,80.6152 C91.8082,80.2611 91.6051,79.8183 91.6051,79.2871 C91.6051,78.3913 92.0738,77.5527 93.0113,76.7715 C93.928,75.9902 94.9228,75.5996 95.9957,75.5996"/>
<path class="Note" d="M70.3269,78.0998 C70.9519,78.0998 71.4832,78.2612 71.9207,78.5841 C72.3165,78.9383 72.5144,79.381 72.5144,79.9123 C72.5144,80.8081 72.0561,81.6466 71.1394,82.4279 C70.2019,83.2091 69.1967,83.5998 68.1238,83.5998 C67.4988,83.5998 66.9728,83.4383 66.5457,83.1154 C66.1394,82.7612 65.9363,82.3185 65.9363,81.7873 C65.9363,80.8914 66.4051,80.0529 67.3426,79.2716 C68.2592,78.4904 69.254,78.0998 70.3269,78.0998"/>
<path class="Clef" d="M38.8904,73.2246 C38.8904,73.2246 38.9321,73.2246 39.0154,73.2246 C39.0675,73.2142 39.1092,73.209 39.1404,73.209 C40.5987,73.209 41.7967,73.7246 42.7342,74.7558 C43.6717,75.7663 44.1404,76.9486 44.1404,78.3027 C44.1404,79.9902 43.4477,81.36 42.0623,82.4121 C41.6977,82.7038 41.2185,82.9381 40.6248,83.1152 C40.6977,83.959 40.7342,84.6413 40.7342,85.1621 C40.7342,85.2663 40.7185,85.6465 40.6873,86.3027 C40.6352,87.5111 40.2185,88.5579 39.4373,89.4433 C38.6873,90.3183 37.7498,90.7558 36.6248,90.7558 C35.5727,90.7558 34.6769,90.3861 33.9373,89.6465 C33.1873,88.8861 32.8123,87.9746 32.8123,86.9121 C32.8123,86.3496 33.031,85.8704 33.4685,85.4746 C33.906,85.0892 34.4164,84.8965 34.9998,84.8965 C35.5206,84.8965 35.9581,85.0996 36.3123,85.5058 C36.6769,85.8808 36.8592,86.3496 36.8592,86.9121 C36.8592,87.4121 36.6769,87.8444 36.3123,88.209 C35.9477,88.5736 35.5102,88.7558 34.9998,88.7558 C34.7914,88.7558 34.5935,88.7194 34.406,88.6465 C34.9789,89.4902 35.7394,89.9121 36.6873,89.9121 C37.5831,89.9121 38.3175,89.5475 38.8904,88.8183 C39.4946,88.0683 39.8227,87.1881 39.8748,86.1777 C39.8956,85.5527 39.906,85.1986 39.906,85.1152 C39.906,84.3861 39.88,83.7871 39.8279,83.3183 C39.1821,83.4225 38.6039,83.4746 38.0935,83.4746 C36.281,83.4746 34.7394,82.7558 33.4685,81.3183 C32.2185,79.8704 31.5935,78.1517 31.5935,76.1621 C31.5935,75.7454 31.63,75.3236 31.7029,74.8965 C31.7862,74.5423 31.8852,74.1569 31.9998,73.7402 C32.0623,73.5006 32.2394,73.1204 32.531,72.5996 C32.6352,72.4433 32.7524,72.248 32.8826,72.0137 C33.0128,71.7793 33.1039,71.6256 33.156,71.5527 C33.281,71.2923 33.531,70.9381 33.906,70.4902 C34.0102,70.3756 34.1196,70.248 34.2342,70.1074 C34.3487,69.9668 34.4451,69.8496 34.5232,69.7558 C34.6013,69.6621 34.6586,69.5892 34.6951,69.5371 C34.7315,69.485 35.0258,69.1413 35.5779,68.5058 C35.7029,68.3704 35.8279,68.2298 35.9529,68.084 C36.0779,67.9381 36.1795,67.821 36.2576,67.7324 C36.3357,67.6439 36.3956,67.584 36.4373,67.5527 C35.9685,66.0006 35.6717,64.7611 35.5467,63.834 C35.4633,63.0944 35.4217,62.0788 35.4217,60.7871 C35.4217,59.6517 35.6821,58.5892 36.2029,57.5996 C36.7029,56.5788 37.4112,55.7402 38.3279,55.084 C38.3904,55.0423 38.4529,55.0215 38.5154,55.0215 C38.6092,55.0215 38.6769,55.0423 38.7185,55.084 C39.4164,55.9277 40.0206,57.0267 40.531,58.3808 C41.0519,59.735 41.3123,60.9694 41.3123,62.084 C41.3123,63.334 41.0154,64.5058 40.4217,65.5996 C39.7446,66.7558 38.8696,67.9538 37.7967,69.1933 C38.0675,70.0475 38.4321,71.3913 38.8904,73.2246 M40.5467,82.3183 C41.2237,82.0683 41.755,81.6465 42.1404,81.0527 C42.5571,80.4798 42.7654,79.834 42.7654,79.1152 C42.7654,78.1881 42.4529,77.3652 41.8279,76.6465 C41.1821,75.9069 40.3644,75.4902 39.3748,75.3965 C39.9373,78.1465 40.3279,80.4538 40.5467,82.3183 M32.9998,77.8027 C32.9998,79.0944 33.5206,80.2298 34.5623,81.209 C35.6248,82.1569 36.8227,82.6308 38.156,82.6308 C38.6977,82.6308 39.2289,82.5892 39.7498,82.5058 C39.5414,80.5267 39.13,78.1569 38.5154,75.3965 C37.7758,75.4798 37.1873,75.7402 36.7498,76.1777 C36.3123,76.6361 36.0935,77.1517 36.0935,77.7246 C36.0935,78.7142 36.6248,79.5163 37.6873,80.1308 C37.7706,80.2246 37.8123,80.3236 37.8123,80.4277 C37.8123,80.5319 37.7706,80.6256 37.6873,80.709 C37.6039,80.8027 37.505,80.8496 37.3904,80.8496 C37.38,80.8496 37.3227,80.8392 37.2185,80.8183 C36.4685,80.4121 35.8956,79.8913 35.4998,79.2558 C35.1144,78.5683 34.9217,77.8808 34.9217,77.1933 C34.9217,76.2975 35.2029,75.485 35.7654,74.7558 C36.3487,74.0267 37.1092,73.5579 38.0467,73.3496 C37.6821,71.8913 37.3852,70.7506 37.156,69.9277 C36.9477,70.1673 36.6977,70.4512 36.406,70.7793 C36.1144,71.1074 35.9425,71.3079 35.8904,71.3808 C35.4217,71.985 35.0623,72.459 34.8123,72.8027 C34.3644,73.4173 34.0362,73.9433 33.8279,74.3808 C33.6092,74.8808 33.4164,75.4225 33.2498,76.0058 C33.0831,76.5683 32.9998,77.1673 32.9998,77.8027 M39.5154,57.9433 C38.5362,58.4225 37.7706,59.11 37.2185,60.0058 C36.6456,60.9329 36.3592,61.9277 36.3592,62.9902 C36.3592,63.9277 36.5935,65.1933 37.0623,66.7871 C37.9998,65.6517 38.7029,64.6048 39.1717,63.6465 C39.6612,62.6256 39.906,61.5631 39.906,60.459 C39.906,59.6256 39.7758,58.7871 39.5154,57.9433"/>
<path class="TimeSig" d="M54.1072,73.349 C53.7113,73.349 53.3572,73.2787 53.0447,73.138 C52.7322,72.9974 52.5134,72.849 52.3884,72.6927 C52.2113,72.4948 52.0395,72.3438 51.8728,72.2396 C51.6645,72.0938 51.4509,72.0208 51.2322,72.0208 C50.8884,72.0208 50.6072,72.125 50.3884,72.3333 C50.1592,72.5313 50.029,72.7969 49.9978,73.1302 C49.977,73.2761 49.8988,73.349 49.7634,73.349 C49.6072,73.349 49.529,73.2761 49.529,73.1302 C49.529,72.6302 49.6488,72.1771 49.8884,71.7708 C50.1176,71.3542 50.404,71.0104 50.7478,70.7396 C51.029,70.4896 51.404,70.1875 51.8728,69.8333 C51.9561,69.7708 52.1228,69.6354 52.3728,69.4271 C52.6228,69.2188 52.8363,69.0417 53.0134,68.8958 C53.3467,68.6146 53.6384,68.2344 53.8884,67.7552 C54.1176,67.2865 54.2322,66.7813 54.2322,66.2396 C54.2322,65.5729 54.1228,65 53.904,64.5208 C53.6749,64.0521 53.3155,63.8177 52.8259,63.8177 C52.5342,63.8177 52.2947,63.8802 52.1072,64.0052 C51.9092,64.1406 51.8103,64.3177 51.8103,64.5365 C51.8103,64.724 51.9275,64.9531 52.1618,65.224 C52.3962,65.4948 52.5134,65.724 52.5134,65.9115 C52.5134,66.2969 52.378,66.625 52.1072,66.8958 C51.8467,67.1563 51.529,67.2865 51.154,67.2865 C50.7582,67.2865 50.4249,67.1511 50.154,66.8802 C49.8936,66.599 49.7634,66.2761 49.7634,65.9115 C49.7634,65.1615 50.0629,64.5469 50.6618,64.0677 C51.2608,63.5886 51.9822,63.349 52.8259,63.349 C53.8363,63.349 54.7113,63.6198 55.4509,64.1615 C56.1905,64.6823 56.5603,65.375 56.5603,66.2396 C56.5603,66.8229 56.4561,67.3229 56.2478,67.7396 C56.0499,68.1875 55.7582,68.5365 55.3728,68.7865 C54.9249,69.0677 54.5395,69.2865 54.2165,69.4427 C53.7582,69.6511 53.3051,69.849 52.8572,70.0365 C52.3051,70.2552 51.878,70.4636 51.5759,70.6615 C51.753,70.6198 51.9301,70.599 52.1072,70.599 C52.7113,70.599 53.3363,70.7917 53.9822,71.1771 C54.6488,71.5729 55.1645,71.7708 55.529,71.7708 C55.7478,71.7708 55.9249,71.7292 56.0603,71.6458 C56.1853,71.5729 56.2686,71.4896 56.3103,71.3958 C56.3624,71.2708 56.4092,71.1823 56.4509,71.1302 C56.503,71.0469 56.5655,71.0052 56.6384,71.0052 C56.7947,71.0052 56.8728,71.0833 56.8728,71.2396 C56.8728,71.6042 56.6124,72.0469 56.0915,72.5677 C55.5811,73.0886 54.9197,73.349 54.1072,73.349"/>
<path class="TimeSig" d="M53.6853,73.5996 C54.0707,73.5996 54.4014,73.5553 54.6775,73.4668 C54.9535,73.3782 55.128,73.334 55.2009,73.334 C55.2946,73.334 55.3676,73.36 55.4196,73.4121 C55.4613,73.4433 55.4873,73.485 55.4978,73.5371 C55.4978,73.5683 55.4821,73.61 55.4509,73.6621 L49.779,80.2715 L53.1071,80.2715 L53.1071,77.6465 C53.1071,77.4798 53.154,77.334 53.2478,77.209 C53.404,77.084 53.5342,77.0058 53.6384,76.9746 C53.8051,76.9017 54.0134,76.7194 54.2634,76.4277 C54.4717,76.1986 54.7217,75.7923 55.0134,75.209 C55.0446,75.1256 55.1019,75.084 55.1853,75.084 C55.3415,75.084 55.4301,75.1777 55.4509,75.3652 L55.4509,80.2715 L56.8884,80.2715 C57.0655,80.2715 57.1696,80.3652 57.2009,80.5527 C57.2009,80.7506 57.0967,80.8496 56.8884,80.8496 L55.4509,80.8496 L55.4509,81.0058 C55.4509,81.5267 55.5811,81.9694 55.8415,82.334 C56.1436,82.6986 56.4978,82.8808 56.904,82.8808 C57.0603,82.8808 57.1384,82.959 57.1384,83.1152 C57.1384,83.2715 57.0603,83.3496 56.904,83.3496 C56.6332,83.3496 56.1905,83.3131 55.5759,83.2402 C55.0134,83.1465 54.5759,83.0996 54.2634,83.0996 C53.9405,83.0996 53.503,83.1465 52.9509,83.2402 C52.3676,83.3131 51.9353,83.3496 51.654,83.3496 C51.4978,83.3496 51.4196,83.2715 51.4196,83.1152 C51.4196,82.959 51.4978,82.8808 51.654,82.8808 C52.0498,82.8808 52.3988,82.6986 52.7009,82.334 C52.9717,81.9694 53.1071,81.5267 53.1071,81.0058 L53.1071,80.8496 L49.779,80.8496 C49.5498,80.8496 49.3936,80.7975 49.3103,80.6933 C49.1957,80.6204 49.1384,80.5163 49.1384,80.3808 C49.1384,80.3392 49.2373,80.2038 49.4353,79.9746 C49.6644,79.7142 49.8988,79.3965 50.1384,79.0215 C50.4301,78.5736 50.7061,78.1152 50.9665,77.6465 C51.2478,77.1152 51.4769,76.5006 51.654,75.8027 C51.8415,75.1048 51.9353,74.3913 51.9353,73.6621 C51.9353,73.4538 52.029,73.3496 52.2165,73.3496 C52.2582,73.3496 52.3415,73.3704 52.4665,73.4121 C52.5082,73.4225 52.5915,73.4407 52.7165,73.4668 C52.8415,73.4928 52.9405,73.5163 53.0134,73.5371 C53.253,73.5788 53.4769,73.5996 53.6853,73.5996"/>
<path class="Beam" fill-rule="evenodd" d="M218.5,67.2253 L244.862,62.0986 L244.862,64.5987 L218.5,69.7255 L218.5,67.2253 "/>
<path class="Beam" fill-rule="evenodd" d="M171.077,62.0986 L203.08,62.0986 L203.08,64.5987 L171.077,64.5987 L171.077,62.0986 "/>
<path class="Beam" fill-rule="evenodd" d="M203.08,65.8488 L196.48,65.8488 L196.48,68.349 L203.08,68.349 L203.08,65.8488 "/>
<path class="Hook" d="M138.608,64.5984 L138.608,59.5984 L139.233,59.5984 C139.233,60.338 139.379,61.0828 139.671,61.8328 C139.983,62.6349 140.327,63.338 140.702,63.9422 C140.973,64.3693 141.384,65.0255 141.936,65.9109 C142.353,66.588 142.705,67.2963 142.991,68.0359 C143.278,68.7755 143.421,69.5203 143.421,70.2703 C143.421,71.6245 143.14,73.0047 142.577,74.4109 C142.483,74.5672 142.358,74.6453 142.202,74.6453 C142.077,74.6453 141.962,74.5932 141.858,74.489 C141.775,74.4057 141.733,74.3068 141.733,74.1922 L141.733,74.0984 C142.296,72.8068 142.577,71.5307 142.577,70.2703 C142.577,69.614 142.379,68.9109 141.983,68.1609 C141.598,67.3901 141.202,66.7755 140.796,66.3172 C140.337,65.7859 139.817,65.213 139.233,64.5984 L138.608,64.5984 "/>
<path class="Hook" d="M71.8695,68.3487 L71.8695,63.3487 L72.4945,63.3487 C72.4945,64.0882 72.6403,64.833 72.932,65.583 C73.2445,66.3851 73.5883,67.0882 73.9633,67.6924 C74.2341,68.1195 74.6455,68.7757 75.1976,69.6612 C75.6143,70.3382 75.9659,71.0466 76.2523,71.7862 C76.5388,72.5257 76.682,73.2705 76.682,74.0205 C76.682,75.3747 76.4008,76.7549 75.8383,78.1612 C75.7445,78.3174 75.6195,78.3955 75.4633,78.3955 C75.3383,78.3955 75.2237,78.3434 75.1195,78.2393 C75.0362,78.1559 74.9945,78.057 74.9945,77.9424 L74.9945,77.8487 C75.557,76.557 75.8383,75.2809 75.8383,74.0205 C75.8383,73.3643 75.6403,72.6612 75.2445,71.9112 C74.8591,71.1403 74.4633,70.5257 74.057,70.0674 C73.5987,69.5362 73.0778,68.9632 72.4945,68.3487 L71.8695,68.3487 "/>
<path class="NoteDot" d="M173.814,76.6541 C173.59,76.4302 173.478,76.1619 173.478,75.8494 C173.478,75.5369 173.59,75.2687 173.814,75.0448 C174.037,74.8208 174.306,74.7088 174.618,74.7088 C174.931,74.7088 175.196,74.8208 175.415,75.0448 C175.634,75.2687 175.743,75.5369 175.743,75.8494 C175.743,76.1619 175.634,76.4302 175.415,76.6541 C175.196,76.8781 174.931,76.9901 174.618,76.9901 C174.306,76.9901 174.037,76.8781 173.814,76.6541"/>
</svg>
