<?xml version="1.0" encoding="UTF-8" standalone="no"?>
<svg width="297.638px" height="419.528px" viewBox="0 0 297.638 419.528"
 xmlns="http://www.w3.org/2000/svg" xmlns:xlink="http://www.w3.org/1999/xlink" version="1.2" baseProfile="tiny">
<title>Title</title>
<desc>Generated by MuseScore 2.1.0</desc>
<polyline class="StaffLines" fill="none" stroke="#000000" stroke-width="0.40" stroke-linejoin="bevel" points="28.3465,63.3487 269.291,63.3487"/>
<polyline class="StaffLines" fill="none" stroke="#000000" stroke-width="0.40" stroke-linejoin="bevel" points="28.3465,68.349 269.291,68.349"/>
<polyline class="StaffLines" fill="none" stroke="#000000" stroke-width="0.40" stroke-linejoin="bevel" points="28.3465,73.3493 269.291,73.3493"/>
<polyline class="StaffLines" fill="none" stroke="#000000" stroke-width="0.40" stroke-linejoin="bevel" points="28.3465,78.3496 269.291,78.3496"/>
<polyline class="StaffLines" fill="none" stroke="#000000" stroke-width="0.40" stroke-linejoin="bevel" points="28.3465,83.3499 269.291,83.3499"/>
<polyline class="BarLine" fill="none" stroke="#000000" stroke-width="0.80" stroke-linejoin="bevel" points="264.391,63.3487 264.391,83.3499"/>
<polyline class="BarLine" fill="none" stroke="#000000" stroke-width="2.50" stroke-linejoin="bevel" points="268.041,63.3487 268.041,83.3499"/>
<polyline class="BarLine" fill="none" stroke="#000000" stroke-width="0.80" stroke-linejoin="bevel" points="218.778,63.3487 218.778,83.3499"/>
<polyline class="BarLine" fill="none" stroke="#000000" stroke-width="0.80" stroke-linejoin="bevel" points="158.412,63.3487 158.412,83.3499"/>
<polyline class="BarLine" fill="none" stroke="#000000" stroke-width="0.80" stroke-linejoin="bevel" points="107.993,63.3487 107.993,83.3499"/>
<path class="Accidental" fill="#204a87" d="M178.058,87.0841 C178.058,87.3341 177.936,87.4591 177.691,87.4591 C177.446,87.4591 177.324,87.3341 177.324,87.0841 L177.324,84.1935 L175.667,84.8185 L175.667,87.9748 C175.667,88.2248 175.542,88.3498 175.292,88.3498 C175.042,88.3498 174.917,88.2248 174.917,87.9748 L174.917,85.0685 L174.292,85.3029 C174.282,85.3133 174.23,85.3185 174.136,85.3185 C174.032,85.3185 173.941,85.2795 173.863,85.2013 C173.785,85.1232 173.745,85.0321 173.745,84.9279 L173.745,83.7248 C173.745,83.5268 173.829,83.4018 173.995,83.3498 L174.917,83.0373 L174.917,79.8341 L174.292,80.0529 C174.282,80.0633 174.23,80.0685 174.136,80.0685 C174.032,80.0685 173.941,80.0295 173.863,79.9513 C173.785,79.8732 173.745,79.7821 173.745,79.6779 L173.745,78.4591 C173.745,78.2821 173.829,78.1675 173.995,78.1154 L174.917,77.756 L174.917,74.6154 C174.917,74.3654 175.042,74.2404 175.292,74.2404 C175.542,74.2404 175.667,74.3654 175.667,74.6154 L175.667,77.506 L177.324,76.881 L177.324,73.7248 C177.324,73.4748 177.446,73.3498 177.691,73.3498 C177.936,73.3498 178.058,73.4748 178.058,73.7248 L178.058,76.631 L178.714,76.3966 C178.725,76.3862 178.766,76.381 178.839,76.381 C178.933,76.381 179.032,76.4175 179.136,76.4904 C179.219,76.5737 179.261,76.6675 179.261,76.7716 L179.261,77.9748 C179.261,78.1623 179.167,78.2873 178.98,78.3498 L178.058,78.6623 L178.058,81.8654 L178.714,81.6466 C178.725,81.6362 178.766,81.631 178.839,81.631 C178.933,81.631 179.032,81.6727 179.136,81.756 C179.219,81.8289 179.261,81.9175 179.261,82.0216 L179.261,83.2404 C179.261,83.4071 179.167,83.5216 178.98,83.5841 L178.058,83.9435 L178.058,87.0841 M177.324,78.9591 L175.667,79.5373 L175.667,82.7404 L177.324,82.1623 L177.324,78.9591 "/>
<polyline class="Stem" fill="none" stroke="#204a87" stroke-width="0.65" stroke-linecap="round" stroke-linejoin="bevel" points="253.861,77.4105 253.861,61.4735"/>
<polyline class="Stem" fill="none" stroke="#204a87" stroke-width="0.65" stroke-linecap="round" stroke-linejoin="bevel" points="240.061,74.9103 240.061,59.5984"/>
<polyline class="Stem" fill="none" stroke="#204a87" stroke-width="0.65" stroke-linecap="round" stroke-linejoin="bevel" points="225.503,74.2884 225.503,90.8504"/>
<polyline class="Stem" fill="none" stroke="#204a87" stroke-width="0.65" stroke-linecap="round" stroke-linejoin="bevel" points="208.335,74.9103 208.335,59.5984"/>
<polyline class="Stem" fill="none" stroke="#204a87" stroke-width="0.65" stroke-linecap="round" stroke-linejoin="bevel" points="199.98,74.9103 199.98,59.5984"/>
<polyline class="Stem" fill="none" stroke="#204a87" stroke-width="0.65" stroke-linecap="round" stroke-linejoin="bevel" points="186.612,79.9106 186.612,64.5987"/>
<polyline class="Stem" fill="none" stroke="#204a87" stroke-width="0.65" stroke-linecap="round" stroke-linejoin="bevel" points="171.07,74.9103 171.07,62.0986"/>
<polyline class="Stem" fill="none" stroke="#000000" stroke-width="0.65" stroke-linecap="round" stroke-linejoin="bevel" points="147.881,79.9106 147.881,63.3487"/>
<polyline class="Stem" fill="none" stroke="#000000" stroke-width="0.65" stroke-linecap="round" stroke-linejoin="bevel" points="133.29,77.4105 133.29,61.4735"/>
<polyline class="Stem" fill="none" stroke="#000000" stroke-width="0.65" stroke-linecap="round" stroke-linejoin="bevel" points="120.652,74.9103 120.652,59.5984"/>
<polyline class="Stem" fill="none" stroke="#000000" stroke-width="0.65" stroke-linecap="round" stroke-linejoin="bevel" points="98.252,77.4105 98.252,63.3487"/>
<polyline class="Stem" fill="none" stroke="#000000" stroke-width="0.65" stroke-linecap="round" stroke-linejoin="bevel" points="90.4187,77.4105 90.4187,63.3487"/>
<polyline class="Stem" fill="none" stroke="#000000" stroke-width="0.65" stroke-linecap="round" stroke-linejoin="bevel" points="81.3066,82.4108 81.3066,68.349"/>
<polyline class="Stem" fill="none" stroke="#000000" stroke-width="0.65" stroke-linecap="round" stroke-linejoin="bevel" points="72.1945,77.4105 72.1945,63.3487"/>
<path class="Note" fill="#204a87" d="M251.993,75.5996 C252.618,75.5996 253.149,75.7611 253.587,76.084 C253.983,76.4381 254.181,76.8809 254.181,77.4121 C254.181,78.3079 253.722,79.1465 252.806,79.9277 C251.868,80.709 250.863,81.0996 249.79,81.0996 C249.165,81.0996 248.639,80.9381 248.212,80.6152 C247.806,80.2611 247.602,79.8184 247.602,79.2871 C247.602,78.3913 248.071,77.5527 249.009,76.7715 C249.925,75.9902 250.92,75.5996 251.993,75.5996"/>
<path class="Note" fill="#204a87" d="M238.193,73.0994 C238.818,73.0994 239.35,73.2609 239.787,73.5838 C240.183,73.938 240.381,74.3807 240.381,74.9119 C240.381,75.8078 239.923,76.6463 239.006,77.4276 C238.068,78.2088 237.063,78.5994 235.99,78.5994 C235.365,78.5994 234.839,78.438 234.412,78.1151 C234.006,77.7609 233.803,77.3182 233.803,76.7869 C233.803,75.8911 234.272,75.0526 235.209,74.2713 C236.126,73.4901 237.121,73.0994 238.193,73.0994"/>
<path class="Note" fill="#204a87" d="M229.569,70.5993 C230.194,70.5993 230.725,70.7607 231.162,71.0837 C231.558,71.4378 231.756,71.8805 231.756,72.4118 C231.756,73.3076 231.298,74.1462 230.381,74.9274 C229.444,75.7087 228.438,76.0993 227.366,76.0993 C226.741,76.0993 226.214,75.9378 225.787,75.6149 C225.381,75.2607 225.178,74.818 225.178,74.2868 C225.178,73.391 225.647,72.5524 226.584,71.7712 C227.501,70.9899 228.496,70.5993 229.569,70.5993"/>
<path class="Note" fill="#204a87" d="M206.468,73.0994 C207.093,73.0994 207.624,73.2609 208.061,73.5838 C208.457,73.938 208.655,74.3807 208.655,74.9119 C208.655,75.8078 208.197,76.6463 207.28,77.4276 C206.343,78.2088 205.337,78.5994 204.264,78.5994 C203.639,78.5994 203.113,78.438 202.686,78.1151 C202.28,77.7609 202.077,77.3182 202.077,76.7869 C202.077,75.8911 202.546,75.0526 203.483,74.2713 C204.4,73.4901 205.395,73.0994 206.468,73.0994"/>
<path class="Note" fill="#204a87" d="M198.112,73.0994 C198.737,73.0994 199.269,73.2609 199.706,73.5838 C200.102,73.938 200.3,74.3807 200.3,74.9119 C200.3,75.8078 199.842,76.6463 198.925,77.4276 C197.987,78.2088 196.982,78.5994 195.909,78.5994 C195.284,78.5994 194.758,78.438 194.331,78.1151 C193.925,77.7609 193.722,77.3182 193.722,76.7869 C193.722,75.8911 194.191,75.0526 195.128,74.2713 C196.045,73.4901 197.04,73.0994 198.112,73.0994"/>
<path class="Note" fill="#204a87" d="M184.744,78.0998 C185.369,78.0998 185.901,78.2612 186.338,78.5841 C186.734,78.9383 186.932,79.381 186.932,79.9123 C186.932,80.8081 186.473,81.6466 185.557,82.4279 C184.619,83.2091 183.614,83.5998 182.541,83.5998 C181.916,83.5998 181.39,83.4383 180.963,83.1154 C180.557,82.7612 180.354,82.3185 180.354,81.7873 C180.354,80.8914 180.822,80.0529 181.76,79.2716 C182.677,78.4904 183.671,78.0998 184.744,78.0998"/>
<path class="Note" fill="#204a87" d="M169.203,73.0994 C169.828,73.0994 170.359,73.2609 170.796,73.5838 C171.192,73.938 171.39,74.3807 171.39,74.9119 C171.39,75.8078 170.932,76.6463 170.015,77.4276 C169.078,78.2088 168.073,78.5994 167,78.5994 C166.375,78.5994 165.849,78.438 165.421,78.1151 C165.015,77.7609 164.812,77.3182 164.812,76.7869 C164.812,75.8911 165.281,75.0526 166.218,74.2713 C167.135,73.4901 168.13,73.0994 169.203,73.0994"/>
<path class="Note" d="M146.014,78.0998 C146.639,78.0998 147.17,78.2612 147.608,78.5841 C148.003,78.9383 148.201,79.381 148.201,79.9123 C148.201,80.8081 147.743,81.6466 146.826,82.4279 C145.889,83.2091 144.884,83.5998 143.811,83.5998 C143.186,83.5998 142.66,83.4383 142.233,83.1154 C141.826,82.7612 141.623,82.3185 141.623,81.7873 C141.623,80.8914 142.092,80.0529 143.029,79.2716 C143.946,78.4904 144.941,78.0998 146.014,78.0998"/>
<path class="Note" d="M131.423,75.5996 C132.048,75.5996 132.579,75.7611 133.016,76.084 C133.412,76.4381 133.61,76.8809 133.61,77.4121 C133.61,78.3079 133.152,79.1465 132.235,79.9277 C131.298,80.709 130.292,81.0996 129.219,81.0996 C128.594,81.0996 128.068,80.9381 127.641,80.6152 C127.235,80.2611 127.032,79.8184 127.032,79.2871 C127.032,78.3913 127.501,77.5527 128.438,76.7715 C129.355,75.9902 130.35,75.5996 131.423,75.5996"/>
<path class="Note" d="M118.784,73.0994 C119.409,73.0994 119.941,73.2609 120.378,73.5838 C120.774,73.938 120.972,74.3807 120.972,74.9119 C120.972,75.8078 120.513,76.6463 119.597,77.4276 C118.659,78.2088 117.654,78.5994 116.581,78.5994 C115.956,78.5994 115.43,78.438 115.003,78.1151 C114.597,77.7609 114.394,77.3182 114.394,76.7869 C114.394,75.8911 114.862,75.0526 115.8,74.2713 C116.717,73.4901 117.711,73.0994 118.784,73.0994"/>
<path class="Note" d="M96.3845,75.5996 C97.0095,75.5996 97.5407,75.7611 97.9782,76.084 C98.374,76.4381 98.572,76.8809 98.572,77.4121 C98.572,78.3079 98.1136,79.1465 97.197,79.9277 C96.2595,80.709 95.2542,81.0996 94.1813,81.0996 C93.5563,81.0996 93.0303,80.9381 92.6032,80.6152 C92.197,80.2611 91.9938,79.8184 91.9938,79.2871 C91.9938,78.3913 92.4626,77.5527 93.4001,76.7715 C94.3167,75.9902 95.3115,75.5996 96.3845,75.5996"/>
<path class="Note" d="M88.5511,75.5996 C89.1761,75.5996 89.7074,75.7611 90.1449,76.084 C90.5407,76.4381 90.7386,76.8809 90.7386,77.4121 C90.7386,78.3079 90.2803,79.1465 89.3636,79.9277 C88.4261,80.709 87.4209,81.0996 86.348,81.0996 C85.723,81.0996 85.197,80.9381 84.7699,80.6152 C84.3636,80.2611 84.1605,79.8184 84.1605,79.2871 C84.1605,78.3913 84.6293,77.5527 85.5668,76.7715 C86.4834,75.9902 87.4782,75.5996 88.5511,75.5996"/>
<path class="Note" d="M79.439,80.5999 C80.064,80.5999 80.5953,80.7614 81.0328,81.0843 C81.4286,81.4385 81.6265,81.8812 81.6265,82.4124 C81.6265,83.3083 81.1682,84.1468 80.2515,84.928 C79.314,85.7093 78.3088,86.0999 77.2359,86.0999 C76.6109,86.0999 76.0849,85.9385 75.6578,85.6155 C75.2515,85.2614 75.0484,84.8187 75.0484,84.2874 C75.0484,83.3916 75.5172,82.553 76.4547,81.7718 C77.3713,80.9905 78.3661,80.5999 79.439,80.5999"/>
<path class="Note" d="M70.3269,75.5996 C70.9519,75.5996 71.4832,75.7611 71.9207,76.084 C72.3165,76.4381 72.5144,76.8809 72.5144,77.4121 C72.5144,78.3079 72.0561,79.1465 71.1394,79.9277 C70.2019,80.709 69.1967,81.0996 68.1238,81.0996 C67.4988,81.0996 66.9728,80.9381 66.5457,80.6152 C66.1394,80.2611 65.9363,79.8184 65.9363,79.2871 C65.9363,78.3913 66.4051,77.5527 67.3426,76.7715 C68.2592,75.9902 69.254,75.5996 70.3269,75.5996"/>
<path class="Clef" d="M38.8904,73.2246 C38.8904,73.2246 38.9321,73.2246 39.0154,73.2246 C39.0675,73.2142 39.1092,73.209 39.1404,73.209 C40.5987,73.209 41.7967,73.7246 42.7342,74.7559 C43.6717,75.7663 44.1404,76.9486 44.1404,78.3027 C44.1404,79.9902 43.4477,81.36 42.0623,82.4121 C41.6977,82.7038 41.2185,82.9381 40.6248,83.1152 C40.6977,83.959 40.7342,84.6413 40.7342,85.1621 C40.7342,85.2663 40.7185,85.6465 40.6873,86.3027 C40.6352,87.5111 40.2185,88.5579 39.4373,89.4434 C38.6873,90.3184 37.7498,90.7559 36.6248,90.7559 C35.5727,90.7559 34.6769,90.3861 33.9373,89.6465 C33.1873,88.8861 32.8123,87.9746 32.8123,86.9121 C32.8123,86.3496 33.031,85.8704 33.4685,85.4746 C33.906,85.0892 34.4164,84.8965 34.9998,84.8965 C35.5206,84.8965 35.9581,85.0996 36.3123,85.5059 C36.6769,85.8809 36.8592,86.3496 36.8592,86.9121 C36.8592,87.4121 36.6769,87.8444 36.3123,88.209 C35.9477,88.5736 35.5102,88.7559 34.9998,88.7559 C34.7914,88.7559 34.5935,88.7194 34.406,88.6465 C34.9789,89.4902 35.7394,89.9121 36.6873,89.9121 C37.5831,89.9121 38.3175,89.5475 38.8904,88.8184 C39.4946,88.0684 39.8227,87.1881 39.8748,86.1777 C39.8956,85.5527 39.906,85.1986 39.906,85.1152 C39.906,84.3861 39.88,83.7871 39.8279,83.3184 C39.1821,83.4225 38.6039,83.4746 38.0935,83.4746 C36.281,83.4746 34.7394,82.7559 33.4685,81.3184 C32.2185,79.8704 31.5935,78.1517 31.5935,76.1621 C31.5935,75.7454 31.63,75.3236 31.7029,74.8965 C31.7862,74.5423 31.8852,74.1569 31.9998,73.7402 C32.0623,73.5006 32.2394,73.1204 32.531,72.5996 C32.6352,72.4434 32.7524,72.248 32.8826,72.0137 C33.0128,71.7793 33.1039,71.6256 33.156,71.5527 C33.281,71.2923 33.531,70.9381 33.906,70.4902 C34.0102,70.3756 34.1196,70.248 34.2342,70.1074 C34.3487,69.9668 34.4451,69.8496 34.5232,69.7559 C34.6013,69.6621 34.6586,69.5892 34.6951,69.5371 C34.7316,69.485 35.0258,69.1413 35.5779,68.5059 C35.7029,68.3704 35.8279,68.2298 35.9529,68.084 C36.0779,67.9381 36.1795,67.821 36.2576,67.7324 C36.3357,67.6439 36.3956,67.584 36.4373,67.5527 C35.9685,66.0006 35.6717,64.7611 35.5467,63.834 C35.4633,63.0944 35.4217,62.0788 35.4217,60.7871 C35.4217,59.6517 35.6821,58.5892 36.2029,57.5996 C36.7029,56.5788 37.4112,55.7402 38.3279,55.084 C38.3904,55.0423 38.4529,55.0215 38.5154,55.0215 C38.6092,55.0215 38.6769,55.0423 38.7185,55.084 C39.4164,55.9277 40.0206,57.0267 40.531,58.3809 C41.0519,59.735 41.3123,60.9694 41.3123,62.084 C41.3123,63.334 41.0154,64.5059 40.4217,65.5996 C39.7446,66.7559 38.8696,67.9538 37.7967,69.1934 C38.0675,70.0475 38.4321,71.3913 38.8904,73.2246 M40.5467,82.3184 C41.2237,82.0684 41.755,81.6465 42.1404,81.0527 C42.5571,80.4798 42.7654,79.834 42.7654,79.1152 C42.7654,78.1881 42.4529,77.3652 41.8279,76.6465 C41.1821,75.9069 40.3644,75.4902 39.3748,75.3965 C39.9373,78.1465 40.3279,80.4538 40.5467,82.3184 M32.9998,77.8027 C32.9998,79.0944 33.5206,80.2298 34.5623,81.209 C35.6248,82.1569 36.8227,82.6309 38.156,82.6309 C38.6977,82.6309 39.2289,82.5892 39.7498,82.5059 C39.5414,80.5267 39.13,78.1569 38.5154,75.3965 C37.7758,75.4798 37.1873,75.7402 36.7498,76.1777 C36.3123,76.6361 36.0935,77.1517 36.0935,77.7246 C36.0935,78.7142 36.6248,79.5163 37.6873,80.1309 C37.7706,80.2246 37.8123,80.3236 37.8123,80.4277 C37.8123,80.5319 37.7706,80.6256 37.6873,80.709 C37.6039,80.8027 37.505,80.8496 37.3904,80.8496 C37.38,80.8496 37.3227,80.8392 37.2185,80.8184 C36.4685,80.4121 35.8956,79.8913 35.4998,79.2559 C35.1144,78.5684 34.9217,77.8809 34.9217,77.1934 C34.9217,76.2975 35.2029,75.485 35.7654,74.7559 C36.3487,74.0267 37.1092,73.5579 38.0467,73.3496 C37.6821,71.8913 37.3852,70.7506 37.156,69.9277 C36.9477,70.1673 36.6977,70.4512 36.406,70.7793 C36.1144,71.1074 35.9425,71.3079 35.8904,71.3809 C35.4217,71.985 35.0623,72.459 34.8123,72.8027 C34.3644,73.4173 34.0362,73.9434 33.8279,74.3809 C33.6092,74.8809 33.4164,75.4225 33.2498,76.0059 C33.0831,76.5684 32.9998,77.1673 32.9998,77.8027 M39.5154,57.9434 C38.5362,58.4225 37.7706,59.11 37.2185,60.0059 C36.6456,60.9329 36.3592,61.9277 36.3592,62.9902 C36.3592,63.9277 36.5935,65.1934 37.0623,66.7871 C37.9998,65.6517 38.7029,64.6048 39.1717,63.6465 C39.6612,62.6256 39.906,61.5631 39.906,60.459 C39.906,59.6256 39.7758,58.7871 39.5154,57.9434"/>
<path class="TimeSig" d="M54.1072,73.349 C53.7113,73.349 53.3572,73.2787 53.0447,73.138 C52.7322,72.9974 52.5134,72.849 52.3884,72.6927 C52.2113,72.4948 52.0395,72.3438 51.8728,72.2396 C51.6645,72.0938 51.4509,72.0209 51.2322,72.0209 C50.8884,72.0209 50.6072,72.125 50.3884,72.3334 C50.1592,72.5313 50.029,72.7969 49.9978,73.1302 C49.977,73.2761 49.8988,73.349 49.7634,73.349 C49.6072,73.349 49.529,73.2761 49.529,73.1302 C49.529,72.6302 49.6488,72.1771 49.8884,71.7709 C50.1176,71.3542 50.404,71.0104 50.7478,70.7396 C51.029,70.4896 51.404,70.1875 51.8728,69.8334 C51.9561,69.7709 52.1228,69.6354 52.3728,69.4271 C52.6228,69.2188 52.8363,69.0417 53.0134,68.8959 C53.3467,68.6146 53.6384,68.2344 53.8884,67.7552 C54.1176,67.2865 54.2322,66.7813 54.2322,66.2396 C54.2322,65.5729 54.1228,65 53.904,64.5209 C53.6749,64.0521 53.3155,63.8177 52.8259,63.8177 C52.5342,63.8177 52.2947,63.8802 52.1072,64.0052 C51.9092,64.1406 51.8103,64.3177 51.8103,64.5365 C51.8103,64.724 51.9275,64.9531 52.1619,65.224 C52.3962,65.4948 52.5134,65.724 52.5134,65.9115 C52.5134,66.2969 52.378,66.625 52.1072,66.8959 C51.8467,67.1563 51.529,67.2865 51.154,67.2865 C50.7582,67.2865 50.4249,67.1511 50.154,66.8802 C49.8936,66.599 49.7634,66.2761 49.7634,65.9115 C49.7634,65.1615 50.0629,64.5469 50.6619,64.0677 C51.2608,63.5886 51.9822,63.349 52.8259,63.349 C53.8363,63.349 54.7113,63.6198 55.4509,64.1615 C56.1905,64.6823 56.5603,65.375 56.5603,66.2396 C56.5603,66.8229 56.4561,67.3229 56.2478,67.7396 C56.0499,68.1875 55.7582,68.5365 55.3728,68.7865 C54.9249,69.0677 54.5395,69.2865 54.2165,69.4427 C53.7582,69.6511 53.3051,69.849 52.8572,70.0365 C52.3051,70.2552 51.878,70.4636 51.5759,70.6615 C51.753,70.6198 51.9301,70.599 52.1072,70.599 C52.7113,70.599 53.3363,70.7917 53.9822,71.1771 C54.6488,71.5729 55.1645,71.7709 55.529,71.7709 C55.7478,71.7709 55.9249,71.7292 56.0603,71.6459 C56.1853,71.5729 56.2686,71.4896 56.3103,71.3959 C56.3624,71.2709 56.4092,71.1823 56.4509,71.1302 C56.503,71.0469 56.5655,71.0052 56.6384,71.0052 C56.7947,71.0052 56.8728,71.0834 56.8728,71.2396 C56.8728,71.6042 56.6124,72.0469 56.0915,72.5677 C55.5811,73.0886 54.9197,73.349 54.1072,73.349"/>
<path class="TimeSig" d="M53.6853,73.5996 C54.0707,73.5996 54.4014,73.5553 54.6775,73.4668 C54.9535,73.3783 55.128,73.334 55.2009,73.334 C55.2946,73.334 55.3676,73.36 55.4196,73.4121 C55.4613,73.4434 55.4874,73.485 55.4978,73.5371 C55.4978,73.5684 55.4821,73.61 55.4509,73.6621 L49.779,80.2715 L53.1071,80.2715 L53.1071,77.6465 C53.1071,77.4798 53.154,77.334 53.2478,77.209 C53.404,77.084 53.5342,77.0059 53.6384,76.9746 C53.8051,76.9017 54.0134,76.7194 54.2634,76.4277 C54.4717,76.1986 54.7217,75.7923 55.0134,75.209 C55.0446,75.1256 55.1019,75.084 55.1853,75.084 C55.3415,75.084 55.4301,75.1777 55.4509,75.3652 L55.4509,80.2715 L56.8884,80.2715 C57.0655,80.2715 57.1696,80.3652 57.2009,80.5527 C57.2009,80.7506 57.0967,80.8496 56.8884,80.8496 L55.4509,80.8496 L55.4509,81.0059 C55.4509,81.5267 55.5811,81.9694 55.8415,82.334 C56.1436,82.6986 56.4978,82.8809 56.904,82.8809 C57.0603,82.8809 57.1384,82.959 57.1384,83.1152 C57.1384,83.2715 57.0603,83.3496 56.904,83.3496 C56.6332,83.3496 56.1905,83.3131 55.5759,83.2402 C55.0134,83.1465 54.5759,83.0996 54.2634,83.0996 C53.9405,83.0996 53.503,83.1465 52.9509,83.2402 C52.3676,83.3131 51.9353,83.3496 51.654,83.3496 C51.4978,83.3496 51.4196,83.2715 51.4196,83.1152 C51.4196,82.959 51.4978,82.8809 51.654,82.8809 C52.0499,82.8809 52.3988,82.6986 52.7009,82.334 C52.9717,81.9694 53.1071,81.5267 53.1071,81.0059 L53.1071,80.8496 L49.779,80.8496 C49.5499,80.8496 49.3936,80.7975 49.3103,80.6934 C49.1957,80.6204 49.1384,80.5163 49.1384,80.3809 C49.1384,80.3392 49.2374,80.2038 49.4353,79.9746 C49.6644,79.7142 49.8988,79.3965 50.1384,79.0215 C50.4301,78.5736 50.7061,78.1152 50.9665,77.6465 C51.2478,77.1152 51.4769,76.5006 51.654,75.8027 C51.8415,75.1048 51.9353,74.3913 51.9353,73.6621 C51.9353,73.4538 52.029,73.3496 52.2165,73.3496 C52.2582,73.3496 52.3415,73.3704 52.4665,73.4121 C52.5082,73.4225 52.5915,73.4408 52.7165,73.4668 C52.8415,73.4928 52.9405,73.5163 53.0134,73.5371 C53.253,73.5788 53.4769,73.5996 53.6853,73.5996"/>
<path class="Beam" fill="#204a87" fill-rule="evenodd" d="M199.655,58.3483 L208.66,58.3483 L208.66,60.8485 L199.655,60.8485 L199.655,58.3483 "/>
<path class="Beam" fill="#204a87" fill-rule="evenodd" d="M199.655,62.0986 L206.255,62.0986 L206.255,64.5987 L199.655,64.5987 L199.655,62.0986 "/>
<path class="Beam" fill="#204a87" fill-rule="evenodd" d="M170.745,60.7439 L186.937,63.3487 L186.937,65.8488 L170.745,63.2441 L170.745,60.7439 "/>
<path class="Beam" fill-rule="evenodd" d="M90.0937,62.0986 L98.5771,62.0986 L98.5771,64.5987 L90.0937,64.5987 L90.0937,62.0986 "/>
<path class="Beam" fill-rule="evenodd" d="M90.0937,65.8488 L96.6941,65.8488 L96.6941,68.349 L90.0937,68.349 L90.0937,65.8488 "/>
<path class="Beam" fill-rule="evenodd" d="M71.8695,61.7419 L81.6317,67.0989 L81.6317,69.5991 L71.8695,64.242 L71.8695,61.7419 "/>
<path class="Hook" fill="#204a87" d="M253.536,66.4735 L253.536,61.4735 L254.161,61.4735 C254.161,62.2131 254.306,62.9579 254.598,63.7079 C254.911,64.51 255.254,65.2131 255.629,65.8173 C255.9,66.2444 256.312,66.9006 256.864,67.786 C257.28,68.4631 257.632,69.1715 257.918,69.911 C258.205,70.6506 258.348,71.3954 258.348,72.1454 C258.348,73.4996 258.067,74.8798 257.504,76.286 C257.411,76.4423 257.286,76.5204 257.129,76.5204 C257.004,76.5204 256.89,76.4683 256.786,76.3642 C256.702,76.2808 256.661,76.1819 256.661,76.0673 L256.661,75.9735 C257.223,74.6819 257.504,73.4058 257.504,72.1454 C257.504,71.4892 257.306,70.786 256.911,70.036 C256.525,69.2652 256.129,68.6506 255.723,68.1923 C255.265,67.661 254.744,67.0881 254.161,66.4735 L253.536,66.4735 "/>
<path class="Hook" fill="#204a87" d="M229.725,76.3816 C230.027,76.3816 230.35,76.866 230.694,77.8348 C231.017,78.8035 231.178,79.7254 231.178,80.6004 C231.178,81.34 230.996,82.0744 230.631,82.8035 C230.256,83.5848 229.808,84.2619 229.287,84.8348 L227.678,86.6316 C227.188,87.2046 226.746,87.866 226.35,88.616 C225.985,89.3452 225.803,90.09 225.803,90.8504 L225.178,90.8504 L225.178,85.8504 L225.803,85.8504 C226.157,85.6316 226.678,85.2775 227.366,84.7879 C227.678,84.5587 228.147,84.1681 228.772,83.616 C229.282,83.1473 229.668,82.6681 229.928,82.1785 C230.199,81.6577 230.334,81.1316 230.334,80.6004 C230.334,79.3608 229.975,78.1264 229.256,76.8973 C229.256,76.8973 229.256,76.8712 229.256,76.8191 C229.256,76.7046 229.298,76.6108 229.381,76.5379 C229.485,76.4337 229.6,76.3816 229.725,76.3816"/>
<path class="Hook" d="M147.556,68.3487 L147.556,63.3487 L148.181,63.3487 C148.181,64.0882 148.327,64.833 148.619,65.583 C148.931,66.3851 149.275,67.0882 149.65,67.6924 C149.921,68.1195 150.332,68.7757 150.884,69.6612 C151.301,70.3382 151.653,71.0466 151.939,71.7862 C152.226,72.5257 152.369,73.2705 152.369,74.0205 C152.369,75.3747 152.088,76.7549 151.525,78.1612 C151.431,78.3174 151.306,78.3955 151.15,78.3955 C151.025,78.3955 150.91,78.3435 150.806,78.2393 C150.723,78.156 150.681,78.057 150.681,77.9424 L150.681,77.8487 C151.244,76.557 151.525,75.281 151.525,74.0205 C151.525,73.3643 151.327,72.6612 150.931,71.9112 C150.546,71.1403 150.15,70.5257 149.744,70.0674 C149.285,69.5362 148.765,68.9632 148.181,68.3487 L147.556,68.3487 "/>
<path class="Hook" d="M120.327,64.5984 L120.327,59.5984 L120.952,59.5984 C120.952,60.338 121.098,61.0828 121.389,61.8328 C121.702,62.6349 122.046,63.338 122.421,63.9422 C122.691,64.3693 123.103,65.0255 123.655,65.9109 C124.072,66.588 124.423,67.2963 124.71,68.0359 C124.996,68.7755 125.139,69.5203 125.139,70.2703 C125.139,71.6245 124.858,73.0047 124.296,74.4109 C124.202,74.5672 124.077,74.6453 123.921,74.6453 C123.796,74.6453 123.681,74.5932 123.577,74.4891 C123.494,74.4057 123.452,74.3068 123.452,74.1922 L123.452,74.0984 C124.014,72.8068 124.296,71.5307 124.296,70.2703 C124.296,69.6141 124.098,68.9109 123.702,68.1609 C123.316,67.3901 122.921,66.7755 122.514,66.3172 C122.056,65.7859 121.535,65.213 120.952,64.5984 L120.327,64.5984 "/>
<path class="NoteDot" fill="#204a87" d="M210.746,76.6541 C210.522,76.4302 210.41,76.1619 210.41,75.8494 C210.41,75.5369 210.522,75.2687 210.746,75.0448 C210.97,74.8208 211.238,74.7088 211.551,74.7088 C211.863,74.7088 212.129,74.8208 212.348,75.0448 C212.567,75.2687 212.676,75.5369 212.676,75.8494 C212.676,76.1619 212.567,76.4302 212.348,76.6541 C212.129,76.8781 211.863,76.9901 211.551,76.9901 C211.238,76.9901 210.97,76.8781 210.746,76.6541"/>
<path class="NoteDot" d="M100.663,76.6541 C100.439,76.4302 100.327,76.1619 100.327,75.8494 C100.327,75.5369 100.439,75.2687 100.663,75.0448 C100.887,74.8208 101.155,74.7088 101.468,74.7088 C101.78,74.7088 102.046,74.8208 102.265,75.0448 C102.483,75.2687 102.593,75.5369 102.593,75.8494 C102.593,76.1619 102.483,76.4302 102.265,76.6541 C102.046,76.8781 101.78,76.9901 101.468,76.9901 C101.155,76.9901 100.887,76.8781 100.663,76.6541"/>
</svg>
