<?xml version="1.0" encoding="UTF-8" standalone="no"?>
<svg width="419.527px" height="595.275px" viewBox="0 0 419.527 595.275"
 xmlns="http://www.w3.org/2000/svg" xmlns:xlink="http://www.w3.org/1999/xlink" version="1.2" baseProfile="tiny">
<title>Tico-tico_no_fuba</title>
<desc>Generated by MuseScore 2.1.0</desc>
<polyline class="StaffLines" fill="none" stroke="#000000" stroke-width="0.40" stroke-linejoin="bevel" points="79.628,43.3474 391.181,43.3474"/>
<polyline class="StaffLines" fill="none" stroke="#000000" stroke-width="0.40" stroke-linejoin="bevel" points="79.628,48.3477 391.181,48.3477"/>
<polyline class="StaffLines" fill="none" stroke="#000000" stroke-width="0.40" stroke-linejoin="bevel" points="79.628,53.348 391.181,53.348"/>
<polyline class="StaffLines" fill="none" stroke="#000000" stroke-width="0.40" stroke-linejoin="bevel" points="79.628,58.3483 391.181,58.3483"/>
<polyline class="StaffLines" fill="none" stroke="#000000" stroke-width="0.40" stroke-linejoin="bevel" points="79.628,63.3487 391.181,63.3487"/>
<polyline class="StaffLines" fill="none" stroke="#000000" stroke-width="0.40" stroke-linejoin="bevel" points="52.9874,93.3505 391.181,93.3505"/>
<polyline class="StaffLines" fill="none" stroke="#000000" stroke-width="0.40" stroke-linejoin="bevel" points="52.9874,98.3509 391.181,98.3509"/>
<polyline class="StaffLines" fill="none" stroke="#000000" stroke-width="0.40" stroke-linejoin="bevel" points="52.9874,103.351 391.181,103.351"/>
<polyline class="StaffLines" fill="none" stroke="#000000" stroke-width="0.40" stroke-linejoin="bevel" points="52.9874,108.351 391.181,108.351"/>
<polyline class="StaffLines" fill="none" stroke="#000000" stroke-width="0.40" stroke-linejoin="bevel" points="52.9874,113.352 391.181,113.352"/>
<polyline class="StaffLines" fill="none" stroke="#000000" stroke-width="0.40" stroke-linejoin="bevel" points="52.9874,143.354 391.181,143.354"/>
<polyline class="StaffLines" fill="none" stroke="#000000" stroke-width="0.40" stroke-linejoin="bevel" points="52.9874,148.354 391.181,148.354"/>
<polyline class="StaffLines" fill="none" stroke="#000000" stroke-width="0.40" stroke-linejoin="bevel" points="52.9874,153.354 391.181,153.354"/>
<polyline class="StaffLines" fill="none" stroke="#000000" stroke-width="0.40" stroke-linejoin="bevel" points="52.9874,158.355 391.181,158.355"/>
<polyline class="StaffLines" fill="none" stroke="#000000" stroke-width="0.40" stroke-linejoin="bevel" points="52.9874,163.355 391.181,163.355"/>
<path class="Text" d="M54.7843,129.541 L54.7843,130.025 L53.9561,130.025 L53.9561,131.353 L53.3468,131.353 L53.3468,130.025 L51.0968,130.025 L51.0968,129.541 L53.6124,125.947 L53.9561,125.947 L53.9561,129.541 L54.7843,129.541 M53.3311,129.541 L53.3311,126.791 L51.4249,129.541 L53.3311,129.541 "/>
<path class="Text" d="M51.6436,80.7249 C51.7686,80.7249 51.9535,80.7978 52.1983,80.9437 C52.4431,81.0895 52.6541,81.1624 52.8311,81.1624 C53.1228,81.1624 53.3702,81.0478 53.5733,80.8187 C53.7765,80.5895 53.878,80.3082 53.878,79.9749 C53.878,79.7666 53.8416,79.5843 53.7686,79.428 C53.6957,79.2718 53.6046,79.1494 53.4952,79.0609 C53.3858,78.9723 53.253,78.8994 53.0968,78.8421 C52.9405,78.7848 52.7947,78.7484 52.6593,78.7327 C52.5238,78.7171 52.378,78.7093 52.2218,78.7093 L52.2218,78.5999 C52.4093,78.5374 52.5681,78.4775 52.6983,78.4202 C52.8285,78.3629 52.964,78.2822 53.1046,78.178 C53.2452,78.0739 53.3546,77.9463 53.4327,77.7952 C53.5108,77.6442 53.5499,77.4749 53.5499,77.2874 C53.5499,77.027 53.4692,76.8187 53.3077,76.6624 C53.1462,76.5062 52.9353,76.428 52.6749,76.428 C52.4249,76.428 52.2061,76.4957 52.0186,76.6312 C51.8311,76.7666 51.6541,76.9801 51.4874,77.2718 L51.3624,77.2405 C51.4978,76.8655 51.6853,76.5556 51.9249,76.3109 C52.1645,76.0661 52.503,75.9437 52.9405,75.9437 C53.3051,75.9437 53.6046,76.0452 53.839,76.2484 C54.0733,76.4515 54.1905,76.7145 54.1905,77.0374 C54.1905,77.2562 54.1332,77.4489 54.0186,77.6155 C53.9041,77.7822 53.7113,77.9593 53.4405,78.1468 C53.753,78.2822 54.0004,78.4567 54.1827,78.6702 C54.365,78.8838 54.4561,79.1937 54.4561,79.5999 C54.4561,80.1624 54.2478,80.6129 53.8311,80.9515 C53.4145,81.29 52.8884,81.4593 52.253,81.4593 C51.9718,81.4593 51.7504,81.4176 51.589,81.3343 C51.4275,81.251 51.3468,81.1416 51.3468,81.0062 C51.3468,80.9228 51.3754,80.8551 51.4327,80.803 C51.49,80.751 51.5603,80.7249 51.6436,80.7249"/>
<path class="InstrumentName" d="M35.4402,155.182 C35.4402,155.432 35.3959,155.672 35.3074,155.901 C35.2188,156.13 35.073,156.36 34.8699,156.589 C34.6668,156.818 34.3647,157.003 33.9636,157.143 C33.5626,157.284 33.086,157.354 32.534,157.354 L28.534,157.354 L28.534,157.12 C29.0235,157.11 29.336,157.039 29.4715,156.909 C29.6069,156.779 29.6746,156.49 29.6746,156.042 L29.6746,150.729 C29.6746,150.281 29.6095,149.998 29.4793,149.878 C29.3491,149.758 29.034,149.677 28.534,149.636 L28.534,149.417 L31.8777,149.417 C33.9819,149.417 35.034,150.104 35.034,151.479 C35.034,151.74 34.9845,151.972 34.8855,152.175 C34.7866,152.378 34.6876,152.534 34.5886,152.643 C34.4897,152.753 34.336,152.854 34.1277,152.948 C33.9194,153.042 33.7866,153.094 33.7293,153.104 C33.672,153.115 33.5548,153.146 33.3777,153.198 C33.5652,153.24 33.7058,153.274 33.7996,153.3 C33.8933,153.326 34.0626,153.393 34.3074,153.503 C34.5522,153.612 34.7423,153.729 34.8777,153.854 C35.0131,153.979 35.1407,154.159 35.2605,154.393 C35.3803,154.628 35.4402,154.891 35.4402,155.182 M31.659,156.901 C32.0131,156.901 32.323,156.878 32.5886,156.831 C32.8543,156.784 33.1043,156.701 33.3386,156.581 C33.573,156.461 33.7501,156.287 33.8699,156.057 C33.9897,155.828 34.0496,155.542 34.0496,155.198 C34.0496,154.875 33.9897,154.599 33.8699,154.37 C33.7501,154.141 33.6017,153.966 33.4246,153.847 C33.2475,153.727 33.0027,153.636 32.6902,153.573 C32.3777,153.511 32.1017,153.474 31.8621,153.464 C31.6225,153.453 31.2996,153.448 30.8933,153.448 L30.8933,156.401 C30.8933,156.599 30.9454,156.732 31.0496,156.8 C31.1537,156.867 31.3569,156.901 31.659,156.901 M30.8933,152.995 L32.034,152.995 C32.5965,152.995 33.0313,152.867 33.3386,152.612 C33.6459,152.357 33.7996,151.995 33.7996,151.526 C33.7996,150.985 33.6199,150.573 33.2605,150.292 C32.9011,150.011 32.3777,149.87 31.6902,149.87 L31.159,149.87 C30.9819,149.87 30.8933,149.99 30.8933,150.229 L30.8933,152.995 M40.0183,157.479 L39.9558,157.432 L39.9558,156.651 C39.5808,157.203 39.0704,157.479 38.4246,157.479 C37.7579,157.479 37.2215,157.24 36.8152,156.761 C36.409,156.281 36.2058,155.656 36.2058,154.886 C36.2058,154.042 36.4506,153.323 36.9402,152.729 C37.4298,152.136 38.0183,151.839 38.7058,151.839 C39.1329,151.839 39.5496,152.016 39.9558,152.37 L39.9558,150.495 C39.9558,150.245 39.922,150.078 39.8543,149.995 C39.7866,149.912 39.6381,149.87 39.409,149.87 C39.2944,149.87 39.2058,149.875 39.1433,149.886 L39.1433,149.698 C39.8725,149.5 40.461,149.323 40.909,149.167 L40.9715,149.182 L40.9715,155.964 C40.9715,156.245 41.0053,156.43 41.073,156.518 C41.1407,156.607 41.284,156.651 41.5027,156.651 C41.5444,156.651 41.6329,156.646 41.7683,156.636 L41.7683,156.823 L40.0183,157.479 M38.8933,156.823 C39.1954,156.823 39.448,156.74 39.6511,156.573 C39.8543,156.406 39.9558,156.255 39.9558,156.12 L39.9558,153.386 C39.9558,153.073 39.8334,152.797 39.5886,152.557 C39.3438,152.318 39.06,152.198 38.7371,152.198 C38.2787,152.198 37.9142,152.399 37.6433,152.8 C37.3725,153.201 37.2371,153.74 37.2371,154.417 C37.2371,155.146 37.3907,155.729 37.698,156.167 C38.0053,156.604 38.4037,156.823 38.8933,156.823 M42.0183,149.886 L42.0183,149.698 C42.81,149.5 43.4454,149.323 43.9246,149.167 L43.9715,149.182 L43.9715,156.354 C43.9715,156.677 44.0261,156.888 44.1355,156.987 C44.2449,157.086 44.4871,157.146 44.8621,157.167 L44.8621,157.354 L42.034,157.354 L42.034,157.167 C42.409,157.136 42.6563,157.065 42.7761,156.956 C42.8959,156.847 42.9558,156.63 42.9558,156.307 L42.9558,150.589 C42.9558,150.307 42.9194,150.115 42.8465,150.011 C42.7735,149.906 42.6433,149.854 42.4558,149.854 C42.2996,149.854 42.1537,149.865 42.0183,149.886 M46.4871,156.151 C46.6746,156.151 46.8334,156.219 46.9636,156.354 C47.0938,156.49 47.159,156.651 47.159,156.839 C47.159,157.016 47.0912,157.167 46.9558,157.292 C46.8204,157.417 46.659,157.479 46.4715,157.479 C46.2944,157.479 46.1433,157.417 46.0183,157.292 C45.8933,157.167 45.8308,157.016 45.8308,156.839 C45.8308,156.651 45.8959,156.49 46.0261,156.354 C46.1563,156.219 46.31,156.151 46.4871,156.151"/>
<path class="InstrumentName" d="M35.4402,105.179 C35.4402,105.429 35.3959,105.669 35.3074,105.898 C35.2188,106.127 35.073,106.356 34.8699,106.586 C34.6668,106.815 34.3647,107 33.9636,107.14 C33.5626,107.281 33.086,107.351 32.534,107.351 L28.534,107.351 L28.534,107.117 C29.0235,107.106 29.336,107.036 29.4715,106.906 C29.6069,106.776 29.6746,106.487 29.6746,106.039 L29.6746,100.726 C29.6746,100.278 29.6095,99.9944 29.4793,99.8746 C29.3491,99.7548 29.034,99.6741 28.534,99.6324 L28.534,99.4137 L31.8777,99.4137 C33.9819,99.4137 35.034,100.101 35.034,101.476 C35.034,101.737 34.9845,101.968 34.8855,102.171 C34.7866,102.375 34.6876,102.531 34.5886,102.64 C34.4897,102.75 34.336,102.851 34.1277,102.945 C33.9194,103.039 33.7866,103.091 33.7293,103.101 C33.672,103.112 33.5548,103.143 33.3777,103.195 C33.5652,103.237 33.7058,103.27 33.7996,103.296 C33.8933,103.323 34.0626,103.39 34.3074,103.5 C34.5522,103.609 34.7423,103.726 34.8777,103.851 C35.0131,103.976 35.1407,104.156 35.2605,104.39 C35.3803,104.625 35.4402,104.888 35.4402,105.179 M31.659,106.898 C32.0131,106.898 32.323,106.875 32.5886,106.828 C32.8543,106.781 33.1043,106.698 33.3386,106.578 C33.573,106.458 33.7501,106.283 33.8699,106.054 C33.9897,105.825 34.0496,105.539 34.0496,105.195 C34.0496,104.872 33.9897,104.596 33.8699,104.367 C33.7501,104.138 33.6017,103.963 33.4246,103.843 C33.2475,103.724 33.0027,103.632 32.6902,103.57 C32.3777,103.507 32.1017,103.471 31.8621,103.461 C31.6225,103.45 31.2996,103.445 30.8933,103.445 L30.8933,106.398 C30.8933,106.596 30.9454,106.729 31.0496,106.796 C31.1537,106.864 31.3569,106.898 31.659,106.898 M30.8933,102.992 L32.034,102.992 C32.5965,102.992 33.0313,102.864 33.3386,102.609 C33.6459,102.354 33.7996,101.992 33.7996,101.523 C33.7996,100.981 33.6199,100.57 33.2605,100.289 C32.9011,100.007 32.3777,99.8668 31.6902,99.8668 L31.159,99.8668 C30.9819,99.8668 30.8933,99.9866 30.8933,100.226 L30.8933,102.992 M40.0183,107.476 L39.9558,107.429 L39.9558,106.648 C39.5808,107.2 39.0704,107.476 38.4246,107.476 C37.7579,107.476 37.2215,107.237 36.8152,106.757 C36.409,106.278 36.2058,105.653 36.2058,104.882 C36.2058,104.039 36.4506,103.32 36.9402,102.726 C37.4298,102.132 38.0183,101.836 38.7058,101.836 C39.1329,101.836 39.5496,102.013 39.9558,102.367 L39.9558,100.492 C39.9558,100.242 39.922,100.075 39.8543,99.9918 C39.7866,99.9085 39.6381,99.8668 39.409,99.8668 C39.2944,99.8668 39.2058,99.872 39.1433,99.8824 L39.1433,99.6949 C39.8725,99.497 40.461,99.3199 40.909,99.1637 L40.9715,99.1793 L40.9715,105.961 C40.9715,106.242 41.0053,106.427 41.073,106.515 C41.1407,106.604 41.284,106.648 41.5027,106.648 C41.5444,106.648 41.6329,106.643 41.7683,106.632 L41.7683,106.82 L40.0183,107.476 M38.8933,106.82 C39.1954,106.82 39.448,106.737 39.6511,106.57 C39.8543,106.403 39.9558,106.252 39.9558,106.117 L39.9558,103.382 C39.9558,103.07 39.8334,102.794 39.5886,102.554 C39.3438,102.315 39.06,102.195 38.7371,102.195 C38.2787,102.195 37.9142,102.395 37.6433,102.796 C37.3725,103.198 37.2371,103.737 37.2371,104.414 C37.2371,105.143 37.3907,105.726 37.698,106.164 C38.0053,106.601 38.4037,106.82 38.8933,106.82 M42.0183,99.8824 L42.0183,99.6949 C42.81,99.497 43.4454,99.3199 43.9246,99.1637 L43.9715,99.1793 L43.9715,106.351 C43.9715,106.674 44.0261,106.885 44.1355,106.984 C44.2449,107.083 44.4871,107.143 44.8621,107.164 L44.8621,107.351 L42.034,107.351 L42.034,107.164 C42.409,107.132 42.6563,107.062 42.7761,106.953 C42.8959,106.843 42.9558,106.627 42.9558,106.304 L42.9558,100.586 C42.9558,100.304 42.9194,100.112 42.8465,100.007 C42.7735,99.9033 42.6433,99.8512 42.4558,99.8512 C42.2996,99.8512 42.1537,99.8616 42.0183,99.8824 M46.4871,106.148 C46.6746,106.148 46.8334,106.216 46.9636,106.351 C47.0938,106.487 47.159,106.648 47.159,106.836 C47.159,107.013 47.0912,107.164 46.9558,107.289 C46.8204,107.414 46.659,107.476 46.4715,107.476 C46.2944,107.476 46.1433,107.414 46.0183,107.289 C45.8933,107.164 45.8308,107.013 45.8308,106.836 C45.8308,106.648 45.8959,106.487 46.0261,106.351 C46.1563,106.216 46.31,106.148 46.4871,106.148"/>
<path class="InstrumentName" d="M35.4402,55.1761 C35.4402,55.4261 35.3959,55.6657 35.3074,55.8949 C35.2188,56.1241 35.073,56.3532 34.8699,56.5824 C34.6668,56.8116 34.3647,56.9965 33.9636,57.1371 C33.5626,57.2777 33.086,57.348 32.534,57.348 L28.534,57.348 L28.534,57.1136 C29.0235,57.1032 29.336,57.0329 29.4715,56.9027 C29.6069,56.7725 29.6746,56.4834 29.6746,56.0355 L29.6746,50.723 C29.6746,50.2751 29.6095,49.9913 29.4793,49.8715 C29.3491,49.7517 29.034,49.6709 28.534,49.6293 L28.534,49.4105 L31.8777,49.4105 C33.9819,49.4105 35.034,50.098 35.034,51.473 C35.034,51.7334 34.9845,51.9652 34.8855,52.1683 C34.7866,52.3715 34.6876,52.5277 34.5886,52.6371 C34.4897,52.7465 34.336,52.848 34.1277,52.9418 C33.9194,53.0355 33.7866,53.0876 33.7293,53.098 C33.672,53.1084 33.5548,53.1397 33.3777,53.1918 C33.5652,53.2334 33.7058,53.2673 33.7996,53.2933 C33.8933,53.3194 34.0626,53.3871 34.3074,53.4965 C34.5522,53.6058 34.7423,53.723 34.8777,53.848 C35.0131,53.973 35.1407,54.1527 35.2605,54.3871 C35.3803,54.6215 35.4402,54.8845 35.4402,55.1761 M31.659,56.8949 C32.0131,56.8949 32.323,56.8715 32.5886,56.8246 C32.8543,56.7777 33.1043,56.6944 33.3386,56.5746 C33.573,56.4548 33.7501,56.2803 33.8699,56.0511 C33.9897,55.822 34.0496,55.5355 34.0496,55.1918 C34.0496,54.8689 33.9897,54.5928 33.8699,54.3636 C33.7501,54.1345 33.6017,53.96 33.4246,53.8402 C33.2475,53.7204 33.0027,53.6293 32.6902,53.5668 C32.3777,53.5043 32.1017,53.4678 31.8621,53.4574 C31.6225,53.447 31.2996,53.4418 30.8933,53.4418 L30.8933,56.3949 C30.8933,56.5928 30.9454,56.7256 31.0496,56.7933 C31.1537,56.861 31.3569,56.8949 31.659,56.8949 M30.8933,52.9886 L32.034,52.9886 C32.5965,52.9886 33.0313,52.861 33.3386,52.6058 C33.6459,52.3506 33.7996,51.9886 33.7996,51.5199 C33.7996,50.9782 33.6199,50.5668 33.2605,50.2855 C32.9011,50.0043 32.3777,49.8636 31.6902,49.8636 L31.159,49.8636 C30.9819,49.8636 30.8933,49.9834 30.8933,50.223 L30.8933,52.9886 M36.2058,56.1605 C36.2058,56.0147 36.2215,55.8819 36.2527,55.7621 C36.284,55.6423 36.3412,55.5277 36.4246,55.4183 C36.5079,55.309 36.5834,55.21 36.6511,55.1215 C36.7188,55.0329 36.8256,54.9444 36.9715,54.8558 C37.1173,54.7673 37.2397,54.6918 37.3386,54.6293 C37.4376,54.5668 37.5834,54.4939 37.7761,54.4105 C37.9688,54.3272 38.1173,54.2647 38.2215,54.223 C38.3256,54.1814 38.4897,54.1163 38.7136,54.0277 C38.9376,53.9392 39.1017,53.8741 39.2058,53.8324 L39.2058,53.1136 C39.2058,52.447 38.9037,52.1136 38.2996,52.1136 C38.06,52.1136 37.8543,52.1735 37.6824,52.2933 C37.5105,52.4131 37.4246,52.5511 37.4246,52.7074 C37.4246,52.7699 37.435,52.8584 37.4558,52.973 C37.4767,53.0876 37.4871,53.1605 37.4871,53.1918 C37.4871,53.3272 37.435,53.4444 37.3308,53.5433 C37.2267,53.6423 37.1017,53.6918 36.9558,53.6918 C36.8204,53.6918 36.7006,53.6397 36.5965,53.5355 C36.4923,53.4314 36.4402,53.3116 36.4402,53.1761 C36.4402,52.8011 36.6329,52.4834 37.0183,52.223 C37.4037,51.9626 37.8829,51.8324 38.4558,51.8324 C39.1121,51.8324 39.5626,51.9886 39.8074,52.3011 C40.0522,52.6136 40.1746,53.0928 40.1746,53.7386 L40.1746,56.0668 C40.1746,56.3272 40.2006,56.5069 40.2527,56.6058 C40.3048,56.7048 40.3985,56.7543 40.534,56.7543 C40.7006,56.7543 40.8777,56.6814 41.0652,56.5355 L41.0652,56.848 C40.8569,57.0876 40.6746,57.2517 40.5183,57.3402 C40.3621,57.4288 40.185,57.473 39.9871,57.473 C39.7371,57.473 39.5548,57.4027 39.4402,57.2621 C39.3256,57.1215 39.2527,56.8897 39.2215,56.5668 C38.534,57.1709 37.9506,57.473 37.4715,57.473 C37.0965,57.473 36.7918,57.3506 36.5574,57.1058 C36.323,56.861 36.2058,56.5459 36.2058,56.1605 M39.2058,55.848 L39.2058,54.1293 C38.4871,54.3897 37.9845,54.6423 37.698,54.8871 C37.4116,55.1319 37.2683,55.4314 37.2683,55.7855 C37.2683,56.1084 37.3465,56.3506 37.5027,56.5121 C37.659,56.6735 37.8308,56.7543 38.0183,56.7543 C38.2892,56.7543 38.5808,56.6605 38.8933,56.473 C39.0183,56.4001 39.1017,56.3246 39.1433,56.2465 C39.185,56.1683 39.2058,56.0355 39.2058,55.848 M41.2527,52.5668 L41.2527,52.3636 C41.836,52.1866 42.3881,52.0095 42.909,51.8324 L42.9871,51.848 L42.9871,52.7855 C43.3933,52.4105 43.7136,52.1579 43.948,52.0277 C44.1824,51.8975 44.4402,51.8324 44.7215,51.8324 C45.159,51.8324 45.5053,51.9886 45.7605,52.3011 C46.0157,52.6136 46.1433,53.0511 46.1433,53.6136 L46.1433,56.3793 C46.1433,56.6709 46.1902,56.8663 46.284,56.9652 C46.3777,57.0642 46.5756,57.1293 46.8777,57.1605 L46.8777,57.348 L44.3777,57.348 L44.3777,57.1605 C44.6798,57.1397 44.8803,57.0616 44.9793,56.9261 C45.0782,56.7907 45.1277,56.5355 45.1277,56.1605 L45.1277,53.6449 C45.1277,52.8636 44.836,52.473 44.2527,52.473 C44.0548,52.473 43.8725,52.5199 43.7058,52.6136 C43.5392,52.7074 43.31,52.8897 43.0183,53.1605 L43.0183,56.5355 C43.0183,56.7543 43.0756,56.9079 43.1902,56.9965 C43.3048,57.085 43.5131,57.1397 43.8152,57.1605 L43.8152,57.348 L41.2683,57.348 L41.2683,57.1605 C41.5704,57.1397 41.7709,57.072 41.8699,56.9574 C41.9688,56.8428 42.0183,56.6136 42.0183,56.2699 L42.0183,53.2855 C42.0183,52.9834 41.9871,52.7803 41.9246,52.6761 C41.8621,52.572 41.7423,52.5199 41.5652,52.5199 C41.4194,52.5199 41.3152,52.5355 41.2527,52.5668 M51.0965,57.473 L51.034,57.4261 L51.034,56.6449 C50.659,57.197 50.1485,57.473 49.5027,57.473 C48.836,57.473 48.2996,57.2334 47.8933,56.7543 C47.4871,56.2751 47.284,55.6501 47.284,54.8793 C47.284,54.0355 47.5287,53.3168 48.0183,52.723 C48.5079,52.1293 49.0965,51.8324 49.784,51.8324 C50.211,51.8324 50.6277,52.0095 51.034,52.3636 L51.034,50.4886 C51.034,50.2386 51.0001,50.072 50.9324,49.9886 C50.8647,49.9053 50.7162,49.8636 50.4871,49.8636 C50.3725,49.8636 50.284,49.8689 50.2215,49.8793 L50.2215,49.6918 C50.9506,49.4939 51.5392,49.3168 51.9871,49.1605 L52.0496,49.1761 L52.0496,55.9574 C52.0496,56.2386 52.0834,56.4235 52.1511,56.5121 C52.2188,56.6006 52.3621,56.6449 52.5808,56.6449 C52.6225,56.6449 52.711,56.6397 52.8465,56.6293 L52.8465,56.8168 L51.0965,57.473 M49.9715,56.8168 C50.2735,56.8168 50.5261,56.7334 50.7293,56.5668 C50.9324,56.4001 51.034,56.2491 51.034,56.1136 L51.034,53.3793 C51.034,53.0668 50.9116,52.7907 50.6668,52.5511 C50.422,52.3116 50.1381,52.1918 49.8152,52.1918 C49.3569,52.1918 48.9923,52.3923 48.7215,52.7933 C48.4506,53.1944 48.3152,53.7334 48.3152,54.4105 C48.3152,55.1397 48.4688,55.723 48.7761,56.1605 C49.0834,56.598 49.4819,56.8168 49.9715,56.8168 M55.9246,51.8324 C56.6954,51.8324 57.3282,52.0876 57.823,52.598 C58.3178,53.1084 58.5652,53.7543 58.5652,54.5355 C58.5652,55.3689 58.3074,56.0668 57.7918,56.6293 C57.2761,57.1918 56.6433,57.473 55.8933,57.473 C55.1433,57.473 54.5183,57.2022 54.0183,56.6605 C53.5183,56.1189 53.2683,55.447 53.2683,54.6449 C53.2683,53.8116 53.5157,53.1345 54.0105,52.6136 C54.5053,52.0928 55.1433,51.8324 55.9246,51.8324 M54.3465,54.0511 C54.3465,54.9053 54.5027,55.6293 54.8152,56.223 C55.1277,56.8168 55.5392,57.1136 56.0496,57.1136 C56.4871,57.1136 56.836,56.9235 57.0965,56.5433 C57.3569,56.1631 57.4871,55.6345 57.4871,54.9574 C57.4871,54.1449 57.3256,53.4808 57.0027,52.9652 C56.6798,52.4496 56.2683,52.1918 55.7683,52.1918 C55.3412,52.1918 54.9975,52.361 54.7371,52.6996 C54.4767,53.0381 54.3465,53.4886 54.3465,54.0511 M58.9871,49.8793 L58.9871,49.6918 C59.7787,49.4939 60.4142,49.3168 60.8933,49.1605 L60.9402,49.1761 L60.9402,56.348 C60.9402,56.6709 60.9949,56.8819 61.1043,56.9808 C61.2136,57.0798 61.4558,57.1397 61.8308,57.1605 L61.8308,57.348 L59.0027,57.348 L59.0027,57.1605 C59.3777,57.1293 59.6251,57.059 59.7449,56.9496 C59.8647,56.8402 59.9246,56.6241 59.9246,56.3011 L59.9246,50.5824 C59.9246,50.3011 59.8881,50.1084 59.8152,50.0043 C59.7423,49.9001 59.6121,49.848 59.4246,49.848 C59.2683,49.848 59.1225,49.8584 58.9871,49.8793 M62.7058,52.6293 C62.5287,52.6293 62.3569,52.6449 62.1902,52.6761 L62.1902,52.4886 C62.7527,52.3324 63.3725,52.1136 64.0496,51.8324 L64.0965,51.8636 L64.0965,56.1293 C64.0965,56.5564 64.1485,56.8272 64.2527,56.9418 C64.3569,57.0564 64.6017,57.1293 64.9871,57.1605 L64.9871,57.348 L62.1433,57.348 L62.1433,57.1605 C62.56,57.1397 62.823,57.0694 62.9324,56.9496 C63.0418,56.8298 63.0965,56.5564 63.0965,56.1293 L63.0965,53.348 C63.0965,53.0772 63.0652,52.8897 63.0027,52.7855 C62.9402,52.6814 62.8412,52.6293 62.7058,52.6293 M63.4871,49.1605 C63.6642,49.1605 63.8126,49.2204 63.9324,49.3402 C64.0522,49.46 64.1121,49.6032 64.1121,49.7699 C64.1121,49.947 64.0522,50.0928 63.9324,50.2074 C63.8126,50.322 63.6642,50.3793 63.4871,50.3793 C63.3204,50.3793 63.1798,50.3194 63.0652,50.1996 C62.9506,50.0798 62.8933,49.9366 62.8933,49.7699 C62.8933,49.6032 62.9532,49.46 63.073,49.3402 C63.1928,49.2204 63.3308,49.1605 63.4871,49.1605 M65.4402,52.598 L65.4402,52.3949 C66.0131,52.2282 66.5704,52.0407 67.1121,51.8324 L67.2058,51.848 L67.2058,52.7699 C67.6954,52.3949 68.06,52.1449 68.2996,52.0199 C68.5392,51.8949 68.7944,51.8324 69.0652,51.8324 C69.6902,51.8324 70.1121,52.1761 70.3308,52.8636 C70.9558,52.1761 71.6069,51.8324 72.284,51.8324 C73.211,51.8324 73.6746,52.5511 73.6746,53.9886 L73.6746,56.4418 C73.6746,56.8897 73.8465,57.1241 74.1902,57.1449 L74.5027,57.1605 L74.5027,57.348 L71.8777,57.348 L71.8777,57.1605 C72.2319,57.1293 72.4532,57.0642 72.5418,56.9652 C72.6303,56.8663 72.6746,56.6449 72.6746,56.3011 L72.6746,53.7855 C72.6746,53.2959 72.6095,52.9548 72.4793,52.7621 C72.3491,52.5694 72.1121,52.473 71.7683,52.473 C71.2475,52.473 70.8152,52.7178 70.4715,53.2074 L70.4715,56.2074 C70.4715,56.5824 70.5287,56.835 70.6433,56.9652 C70.7579,57.0954 70.9871,57.1605 71.3308,57.1605 L71.3308,57.348 L68.6433,57.348 L68.6433,57.1605 C68.9871,57.1397 69.2084,57.0772 69.3074,56.973 C69.4063,56.8689 69.4558,56.6501 69.4558,56.3168 L69.4558,53.7386 C69.4558,52.8949 69.1902,52.473 68.659,52.473 C68.4402,52.473 68.1928,52.5303 67.9168,52.6449 C67.6407,52.7595 67.4194,52.9366 67.2527,53.1761 L67.2527,56.5511 C67.2527,56.7803 67.3074,56.9366 67.4168,57.0199 C67.5261,57.1032 67.7423,57.1501 68.0652,57.1605 L68.0652,57.348 L65.409,57.348 L65.409,57.1605 C65.7423,57.1605 65.9636,57.1032 66.073,56.9886 C66.1824,56.8741 66.2371,56.6553 66.2371,56.3324 L66.2371,53.3168 C66.2371,53.0251 66.2084,52.8246 66.1511,52.7152 C66.0938,52.6058 65.9871,52.5511 65.8308,52.5511 C65.7058,52.5511 65.5756,52.5668 65.4402,52.598"/>
<path class="SlurSegment" fill="#0d4500" stroke="#0d4500" stroke-width="0.35" stroke-linecap="round" stroke-linejoin="round" fill-rule="evenodd" d="M266.653,147.104 C275.969,140.203 303.916,140.203 313.232,147.104 C303.916,141.004 275.969,141.004 266.653,147.104"/>
<path class="SlurSegment" fill="#204a87" stroke="#204a87" stroke-width="0.35" stroke-linecap="round" stroke-linejoin="round" fill-rule="evenodd" d="M163.62,87.1002 C176.427,80.1997 214.849,80.1997 227.656,87.1002 C214.849,80.9998 176.427,80.9998 163.62,87.1002"/>
<path class="SlurSegment" fill="#ef2929" stroke="#ef2929" stroke-width="0.35" stroke-linecap="round" stroke-linejoin="round" fill-rule="evenodd" d="M286.441,34.5968 C292.23,29.7972 309.597,29.7972 315.386,34.5968 C309.597,30.5973 292.23,30.5973 286.441,34.5968"/>
<polyline class="BarLine" fill="#ef2929" stroke="#000000" stroke-width="0.80" stroke-linejoin="bevel" points="390.781,143.354 390.781,163.355"/>
<polyline class="BarLine" fill="#ef2929" stroke="#000000" stroke-width="0.80" stroke-linejoin="bevel" points="255.973,143.354 255.973,163.355"/>
<polyline class="BarLine" fill="#ef2929" stroke="#000000" stroke-width="0.80" stroke-linejoin="bevel" points="390.781,93.3505 390.781,113.352"/>
<polyline class="BarLine" fill="#ef2929" stroke="#000000" stroke-width="0.80" stroke-linejoin="bevel" points="390.781,43.3474 390.781,63.3487"/>
<polyline class="BarLine" fill="#ef2929" stroke="#000000" stroke-width="0.80" stroke-linejoin="bevel" points="237.112,43.3474 237.112,63.3487"/>
<path class="Accidental" fill="#0d4500" d="M230.934,157.089 C230.934,157.339 230.812,157.464 230.567,157.464 C230.322,157.464 230.2,157.339 230.2,157.089 L230.2,154.198 L228.543,154.823 L228.543,157.979 C228.543,158.229 228.418,158.354 228.168,158.354 C227.918,158.354 227.793,158.229 227.793,157.979 L227.793,155.073 L227.168,155.307 C227.158,155.318 227.106,155.323 227.012,155.323 C226.908,155.323 226.817,155.284 226.739,155.206 C226.661,155.128 226.622,155.036 226.622,154.932 L226.622,153.729 C226.622,153.531 226.705,153.406 226.872,153.354 L227.793,153.042 L227.793,149.839 L227.168,150.057 C227.158,150.068 227.106,150.073 227.012,150.073 C226.908,150.073 226.817,150.034 226.739,149.956 C226.661,149.878 226.622,149.786 226.622,149.682 L226.622,148.464 C226.622,148.286 226.705,148.172 226.872,148.12 L227.793,147.76 L227.793,144.62 C227.793,144.37 227.918,144.245 228.168,144.245 C228.418,144.245 228.543,144.37 228.543,144.62 L228.543,147.51 L230.2,146.885 L230.2,143.729 C230.2,143.479 230.322,143.354 230.567,143.354 C230.812,143.354 230.934,143.479 230.934,143.729 L230.934,146.635 L231.59,146.401 C231.601,146.391 231.642,146.385 231.715,146.385 C231.809,146.385 231.908,146.422 232.012,146.495 C232.096,146.578 232.137,146.672 232.137,146.776 L232.137,147.979 C232.137,148.167 232.043,148.292 231.856,148.354 L230.934,148.667 L230.934,151.87 L231.59,151.651 C231.601,151.641 231.642,151.635 231.715,151.635 C231.809,151.635 231.908,151.677 232.012,151.76 C232.096,151.833 232.137,151.922 232.137,152.026 L232.137,153.245 C232.137,153.411 232.043,153.526 231.856,153.589 L230.934,153.948 L230.934,157.089 M230.2,148.964 L228.543,149.542 L228.543,152.745 L230.2,152.167 L230.2,148.964 "/>
<path class="Accidental" fill="#0d4500" d="M163.904,147.088 C163.904,147.338 163.782,147.463 163.537,147.463 C163.292,147.463 163.17,147.338 163.17,147.088 L163.17,144.197 L161.513,144.822 L161.513,147.979 C161.513,148.229 161.388,148.354 161.138,148.354 C160.888,148.354 160.763,148.229 160.763,147.979 L160.763,145.072 L160.138,145.307 C160.128,145.317 160.076,145.322 159.982,145.322 C159.878,145.322 159.787,145.283 159.709,145.205 C159.631,145.127 159.592,145.036 159.592,144.932 L159.592,143.729 C159.592,143.531 159.675,143.406 159.842,143.354 L160.763,143.041 L160.763,139.838 L160.138,140.057 C160.128,140.067 160.076,140.072 159.982,140.072 C159.878,140.072 159.787,140.033 159.709,139.955 C159.631,139.877 159.592,139.786 159.592,139.682 L159.592,138.463 C159.592,138.286 159.675,138.171 159.842,138.119 L160.763,137.76 L160.763,134.619 C160.763,134.369 160.888,134.244 161.138,134.244 C161.388,134.244 161.513,134.369 161.513,134.619 L161.513,137.51 L163.17,136.885 L163.17,133.729 C163.17,133.479 163.292,133.354 163.537,133.354 C163.782,133.354 163.904,133.479 163.904,133.729 L163.904,136.635 L164.56,136.4 C164.571,136.39 164.612,136.385 164.685,136.385 C164.779,136.385 164.878,136.421 164.982,136.494 C165.065,136.577 165.107,136.671 165.107,136.775 L165.107,137.979 C165.107,138.166 165.013,138.291 164.826,138.354 L163.904,138.666 L163.904,141.869 L164.56,141.65 C164.571,141.64 164.612,141.635 164.685,141.635 C164.779,141.635 164.878,141.676 164.982,141.76 C165.065,141.833 165.107,141.921 165.107,142.025 L165.107,143.244 C165.107,143.411 165.013,143.525 164.826,143.588 L163.904,143.947 L163.904,147.088 M163.17,138.963 L161.513,139.541 L161.513,142.744 L163.17,142.166 L163.17,138.963 "/>
<path class="Accidental" fill="#0d4500" d="M305.571,104.585 C305.571,104.835 305.449,104.96 305.204,104.96 C304.959,104.96 304.837,104.835 304.837,104.585 L304.837,101.695 L303.18,102.32 L303.18,105.476 C303.18,105.726 303.055,105.851 302.805,105.851 C302.555,105.851 302.43,105.726 302.43,105.476 L302.43,102.57 L301.805,102.804 C301.795,102.814 301.743,102.82 301.649,102.82 C301.545,102.82 301.454,102.781 301.376,102.702 C301.297,102.624 301.258,102.533 301.258,102.429 L301.258,101.226 C301.258,101.028 301.342,100.903 301.508,100.851 L302.43,100.538 L302.43,97.3352 L301.805,97.554 C301.795,97.5644 301.743,97.5696 301.649,97.5696 C301.545,97.5696 301.454,97.5305 301.376,97.4524 C301.297,97.3743 301.258,97.2832 301.258,97.179 L301.258,95.9602 C301.258,95.7832 301.342,95.6686 301.508,95.6165 L302.43,95.2571 L302.43,92.1165 C302.43,91.8665 302.555,91.7415 302.805,91.7415 C303.055,91.7415 303.18,91.8665 303.18,92.1165 L303.18,95.0071 L304.837,94.3821 L304.837,91.2259 C304.837,90.9759 304.959,90.8509 305.204,90.8509 C305.449,90.8509 305.571,90.9759 305.571,91.2259 L305.571,94.1321 L306.227,93.8977 C306.238,93.8873 306.279,93.8821 306.352,93.8821 C306.446,93.8821 306.545,93.9186 306.649,93.9915 C306.732,94.0748 306.774,94.1686 306.774,94.2727 L306.774,95.4759 C306.774,95.6634 306.68,95.7884 306.493,95.8509 L305.571,96.1634 L305.571,99.3665 L306.227,99.1477 C306.238,99.1373 306.279,99.1321 306.352,99.1321 C306.446,99.1321 306.545,99.1738 306.649,99.2571 C306.732,99.33 306.774,99.4186 306.774,99.5227 L306.774,100.741 C306.774,100.908 306.68,101.023 306.493,101.085 L305.571,101.445 L305.571,104.585 M304.837,96.4602 L303.18,97.0384 L303.18,100.241 L304.837,99.6634 L304.837,96.4602 "/>
<path class="Accidental" fill="#204a87" d="M157.045,97.0848 C157.045,97.3348 156.923,97.4598 156.678,97.4598 C156.433,97.4598 156.311,97.3348 156.311,97.0848 L156.311,94.1941 L154.654,94.8191 L154.654,97.9754 C154.654,98.2254 154.529,98.3504 154.279,98.3504 C154.029,98.3504 153.904,98.2254 153.904,97.9754 L153.904,95.0691 L153.279,95.3035 C153.269,95.3139 153.217,95.3191 153.123,95.3191 C153.019,95.3191 152.928,95.2801 152.85,95.2019 C152.772,95.1238 152.733,95.0327 152.733,94.9285 L152.733,93.7254 C152.733,93.5275 152.816,93.4025 152.983,93.3504 L153.904,93.0379 L153.904,89.8348 L153.279,90.0535 C153.269,90.0639 153.217,90.0691 153.123,90.0691 C153.019,90.0691 152.928,90.0301 152.85,89.9519 C152.772,89.8738 152.733,89.7827 152.733,89.6785 L152.733,88.4598 C152.733,88.2827 152.816,88.1681 152.983,88.116 L153.904,87.7566 L153.904,84.616 C153.904,84.366 154.029,84.241 154.279,84.241 C154.529,84.241 154.654,84.366 154.654,84.616 L154.654,87.5066 L156.311,86.8816 L156.311,83.7254 C156.311,83.4754 156.433,83.3504 156.678,83.3504 C156.923,83.3504 157.045,83.4754 157.045,83.7254 L157.045,86.6316 L157.701,86.3973 C157.712,86.3868 157.753,86.3816 157.826,86.3816 C157.92,86.3816 158.019,86.4181 158.123,86.491 C158.206,86.5743 158.248,86.6681 158.248,86.7723 L158.248,87.9754 C158.248,88.1629 158.154,88.2879 157.967,88.3504 L157.045,88.6629 L157.045,91.866 L157.701,91.6473 C157.712,91.6368 157.753,91.6316 157.826,91.6316 C157.92,91.6316 158.019,91.6733 158.123,91.7566 C158.206,91.8296 158.248,91.9181 158.248,92.0223 L158.248,93.241 C158.248,93.4077 158.154,93.5223 157.967,93.5848 L157.045,93.9441 L157.045,97.0848 M156.311,88.9598 L154.654,89.5379 L154.654,92.741 L156.311,92.1629 L156.311,88.9598 "/>
<path class="Accidental" fill="#204a87" d="M349.436,54.5821 C349.436,54.8321 349.313,54.9571 349.068,54.9571 C348.824,54.9571 348.701,54.8321 348.701,54.5821 L348.701,51.6915 L347.045,52.3165 L347.045,55.4727 C347.045,55.7227 346.92,55.8477 346.67,55.8477 C346.42,55.8477 346.295,55.7227 346.295,55.4727 L346.295,52.5665 L345.67,52.8008 C345.66,52.8113 345.607,52.8165 345.514,52.8165 C345.41,52.8165 345.318,52.7774 345.24,52.6993 C345.162,52.6211 345.123,52.53 345.123,52.4258 L345.123,51.2227 C345.123,51.0248 345.206,50.8998 345.373,50.8477 L346.295,50.5352 L346.295,47.3321 L345.67,47.5508 C345.66,47.5613 345.607,47.5665 345.514,47.5665 C345.41,47.5665 345.318,47.5274 345.24,47.4493 C345.162,47.3711 345.123,47.28 345.123,47.1758 L345.123,45.9571 C345.123,45.78 345.206,45.6654 345.373,45.6133 L346.295,45.254 L346.295,42.1133 C346.295,41.8633 346.42,41.7383 346.67,41.7383 C346.92,41.7383 347.045,41.8633 347.045,42.1133 L347.045,45.004 L348.701,44.379 L348.701,41.2227 C348.701,40.9727 348.824,40.8477 349.068,40.8477 C349.313,40.8477 349.436,40.9727 349.436,41.2227 L349.436,44.129 L350.092,43.8946 C350.102,43.8842 350.144,43.879 350.217,43.879 C350.311,43.879 350.41,43.9154 350.514,43.9883 C350.597,44.0717 350.639,44.1654 350.639,44.2696 L350.639,45.4727 C350.639,45.6602 350.545,45.7852 350.357,45.8477 L349.436,46.1602 L349.436,49.3633 L350.092,49.1446 C350.102,49.1342 350.144,49.129 350.217,49.129 C350.311,49.129 350.41,49.1706 350.514,49.254 C350.597,49.3269 350.639,49.4154 350.639,49.5196 L350.639,50.7383 C350.639,50.905 350.545,51.0196 350.357,51.0821 L349.436,51.4415 L349.436,54.5821 M348.701,46.4571 L347.045,47.0352 L347.045,50.2383 L348.701,49.6602 L348.701,46.4571 "/>
<path class="Accidental" fill="#ef2929" d="M195.795,54.5821 C195.795,54.8321 195.673,54.9571 195.428,54.9571 C195.183,54.9571 195.061,54.8321 195.061,54.5821 L195.061,51.6915 L193.404,52.3165 L193.404,55.4727 C193.404,55.7227 193.279,55.8477 193.029,55.8477 C192.779,55.8477 192.654,55.7227 192.654,55.4727 L192.654,52.5665 L192.029,52.8008 C192.019,52.8113 191.967,52.8165 191.873,52.8165 C191.769,52.8165 191.678,52.7774 191.6,52.6993 C191.522,52.6211 191.482,52.53 191.482,52.4258 L191.482,51.2227 C191.482,51.0248 191.566,50.8998 191.732,50.8477 L192.654,50.5352 L192.654,47.3321 L192.029,47.5508 C192.019,47.5613 191.967,47.5665 191.873,47.5665 C191.769,47.5665 191.678,47.5274 191.6,47.4493 C191.522,47.3711 191.482,47.28 191.482,47.1758 L191.482,45.9571 C191.482,45.78 191.566,45.6654 191.732,45.6133 L192.654,45.254 L192.654,42.1133 C192.654,41.8633 192.779,41.7383 193.029,41.7383 C193.279,41.7383 193.404,41.8633 193.404,42.1133 L193.404,45.004 L195.061,44.379 L195.061,41.2227 C195.061,40.9727 195.183,40.8477 195.428,40.8477 C195.673,40.8477 195.795,40.9727 195.795,41.2227 L195.795,44.129 L196.451,43.8946 C196.462,43.8842 196.503,43.879 196.576,43.879 C196.67,43.879 196.769,43.9154 196.873,43.9883 C196.956,44.0717 196.998,44.1654 196.998,44.2696 L196.998,45.4727 C196.998,45.6602 196.904,45.7852 196.717,45.8477 L195.795,46.1602 L195.795,49.3633 L196.451,49.1446 C196.462,49.1342 196.503,49.129 196.576,49.129 C196.67,49.129 196.769,49.1706 196.873,49.254 C196.956,49.3269 196.998,49.4154 196.998,49.5196 L196.998,50.7383 C196.998,50.905 196.904,51.0196 196.717,51.0821 L195.795,51.4415 L195.795,54.5821 M195.061,46.4571 L193.404,47.0352 L193.404,50.2383 L195.061,49.6602 L195.061,46.4571 "/>
<polyline class="LedgerLine" fill="#ef2929" stroke="#000000" stroke-width="0.60" stroke-linecap="square" stroke-linejoin="bevel" points="142.356,138.353 151.94,138.353"/>
<polyline class="LedgerLine" fill="#ef2929" stroke="#000000" stroke-width="0.60" stroke-linecap="square" stroke-linejoin="bevel" points="120.013,133.353 129.596,133.353"/>
<polyline class="LedgerLine" fill="#ef2929" stroke="#000000" stroke-width="0.60" stroke-linecap="square" stroke-linejoin="bevel" points="120.013,138.353 129.596,138.353"/>
<polyline class="LedgerLine" fill="#ef2929" stroke="#000000" stroke-width="0.60" stroke-linecap="square" stroke-linejoin="bevel" points="311.581,38.3471 321.165,38.3471"/>
<polyline class="LedgerLine" fill="#ef2929" stroke="#000000" stroke-width="0.60" stroke-linecap="square" stroke-linejoin="bevel" points="280.662,38.3471 290.245,38.3471"/>
<polyline class="Stem" fill="#ef2929" stroke="#0d4500" stroke-width="0.65" stroke-linecap="round" stroke-linejoin="bevel" points="311.253,151.793 311.253,168.355"/>
<polyline class="Stem" fill="#ef2929" stroke="#0d4500" stroke-width="0.65" stroke-linecap="round" stroke-linejoin="bevel" points="262.699,151.793 262.699,167.105"/>
<polyline class="Stem" fill="#ef2929" stroke="#0d4500" stroke-width="0.65" stroke-linecap="round" stroke-linejoin="bevel" points="233.555,151.793 233.555,168.355"/>
<polyline class="Stem" fill="#ef2929" stroke="#0d4500" stroke-width="0.65" stroke-linecap="round" stroke-linejoin="bevel" points="211.211,149.293 211.211,166.272"/>
<polyline class="Stem" fill="#ef2929" stroke="#0d4500" stroke-width="0.65" stroke-linecap="round" stroke-linejoin="bevel" points="188.868,146.793 188.868,164.188"/>
<polyline class="Stem" fill="#ef2929" stroke="#0d4500" stroke-width="0.65" stroke-linecap="round" stroke-linejoin="bevel" points="166.525,141.793 166.525,162.105"/>
<polyline class="Stem" fill="#ef2929" stroke="#0d4500" stroke-width="0.65" stroke-linecap="round" stroke-linejoin="bevel" points="144.181,136.792 144.181,162.105"/>
<polyline class="Stem" fill="#ef2929" stroke="#0d4500" stroke-width="0.65" stroke-linecap="round" stroke-linejoin="bevel" points="121.838,131.792 121.838,162.105"/>
<polyline class="Stem" fill="#ef2929" stroke="#0d4500" stroke-width="0.65" stroke-linecap="round" stroke-linejoin="bevel" points="99.4948,146.793 99.4948,162.105"/>
<polyline class="Stem" fill="#ef2929" stroke="#0d4500" stroke-width="0.65" stroke-linecap="round" stroke-linejoin="bevel" points="77.1514,144.293 77.1514,162.105"/>
<polyline class="Stem" fill="#ef2929" stroke="#0d4500" stroke-width="0.65" stroke-linecap="round" stroke-linejoin="bevel" points="349.449,96.7898 349.449,113.352"/>
<polyline class="Stem" fill="#ef2929" stroke="#0d4500" stroke-width="0.65" stroke-linecap="round" stroke-linejoin="bevel" points="308.192,99.29 308.192,113.352"/>
<polyline class="Stem" fill="#ef2929" stroke="#0d4500" stroke-width="0.65" stroke-linecap="round" stroke-linejoin="bevel" points="266.934,96.7898 266.934,113.352"/>
<polyline class="Stem" fill="#ef2929" stroke="#204a87" stroke-width="0.65" stroke-linecap="round" stroke-linejoin="bevel" points="225.677,91.7895 225.677,113.352"/>
<polyline class="Stem" fill="#ef2929" stroke="#204a87" stroke-width="0.65" stroke-linecap="round" stroke-linejoin="bevel" points="159.666,91.7895 159.666,112.102"/>
<polyline class="Stem" fill="#ef2929" stroke="#204a87" stroke-width="0.65" stroke-linecap="round" stroke-linejoin="bevel" points="118.409,96.7898 118.409,112.102"/>
<polyline class="Stem" fill="#ef2929" stroke="#204a87" stroke-width="0.65" stroke-linecap="round" stroke-linejoin="bevel" points="77.1514,94.2897 77.1514,112.102"/>
<polyline class="Stem" fill="#ef2929" stroke="#204a87" stroke-width="0.65" stroke-linecap="round" stroke-linejoin="bevel" points="371.381,46.7867 371.381,63.3487"/>
<polyline class="Stem" fill="#ef2929" stroke="#204a87" stroke-width="0.65" stroke-linecap="round" stroke-linejoin="bevel" points="352.056,49.2868 352.056,63.3487"/>
<polyline class="Stem" fill="#ef2929" stroke="#204a87" stroke-width="0.65" stroke-linecap="round" stroke-linejoin="bevel" points="332.731,46.7867 332.731,63.3487"/>
<polyline class="Stem" fill="#ef2929" stroke="#ef2929" stroke-width="0.65" stroke-linecap="round" stroke-linejoin="bevel" points="313.407,39.2862 313.407,63.3487"/>
<polyline class="Stem" fill="#ef2929" stroke="#ef2929" stroke-width="0.65" stroke-linecap="round" stroke-linejoin="bevel" points="282.487,39.2862 282.487,62.0986"/>
<polyline class="Stem" fill="#ef2929" stroke="#ef2929" stroke-width="0.65" stroke-linecap="round" stroke-linejoin="bevel" points="263.162,46.7867 263.162,62.0986"/>
<polyline class="Stem" fill="#ef2929" stroke="#ef2929" stroke-width="0.65" stroke-linecap="round" stroke-linejoin="bevel" points="243.837,44.2865 243.837,62.0986"/>
<polyline class="Stem" fill="#ef2929" stroke="#ef2929" stroke-width="0.65" stroke-linecap="round" stroke-linejoin="bevel" points="217.726,46.7867 217.726,63.3487"/>
<polyline class="Stem" fill="#ef2929" stroke="#ef2929" stroke-width="0.65" stroke-linecap="round" stroke-linejoin="bevel" points="198.416,49.2868 198.416,63.3487"/>
<polyline class="Stem" fill="#ef2929" stroke="#ef2929" stroke-width="0.65" stroke-linecap="round" stroke-linejoin="bevel" points="179.105,46.7867 179.105,63.3487"/>
<path class="Note" fill="#0d4500" d="M315.319,148.104 C315.944,148.104 316.475,148.266 316.912,148.589 C317.308,148.943 317.506,149.385 317.506,149.917 C317.506,150.812 317.048,151.651 316.131,152.432 C315.194,153.214 314.189,153.604 313.116,153.604 C312.491,153.604 311.965,153.443 311.537,153.12 C311.131,152.766 310.928,152.323 310.928,151.792 C310.928,150.896 311.397,150.057 312.334,149.276 C313.251,148.495 314.246,148.104 315.319,148.104"/>
<path class="Note" fill="#0d4500" d="M266.764,148.104 C267.389,148.104 267.92,148.266 268.358,148.589 C268.754,148.943 268.952,149.385 268.952,149.917 C268.952,150.812 268.493,151.651 267.577,152.432 C266.639,153.214 265.634,153.604 264.561,153.604 C263.936,153.604 263.41,153.443 262.983,153.12 C262.577,152.766 262.374,152.323 262.374,151.792 C262.374,150.896 262.842,150.057 263.78,149.276 C264.696,148.495 265.691,148.104 266.764,148.104"/>
<path class="Note" fill="#0d4500" d="M237.62,148.104 C238.245,148.104 238.777,148.266 239.214,148.589 C239.61,148.943 239.808,149.385 239.808,149.917 C239.808,150.812 239.35,151.651 238.433,152.432 C237.495,153.214 236.49,153.604 235.417,153.604 C234.792,153.604 234.266,153.443 233.839,153.12 C233.433,152.766 233.23,152.323 233.23,151.792 C233.23,150.896 233.699,150.057 234.636,149.276 C235.553,148.495 236.547,148.104 237.62,148.104"/>
<path class="Note" fill="#0d4500" d="M215.277,145.604 C215.902,145.604 216.433,145.765 216.871,146.088 C217.267,146.443 217.465,146.885 217.465,147.417 C217.465,148.312 217.006,149.151 216.09,149.932 C215.152,150.713 214.147,151.104 213.074,151.104 C212.449,151.104 211.923,150.943 211.496,150.62 C211.09,150.265 210.886,149.823 210.886,149.292 C210.886,148.396 211.355,147.557 212.293,146.776 C213.209,145.995 214.204,145.604 215.277,145.604"/>
<path class="Note" fill="#0d4500" d="M192.934,143.104 C193.559,143.104 194.09,143.265 194.527,143.588 C194.923,143.942 195.121,144.385 195.121,144.916 C195.121,145.812 194.663,146.651 193.746,147.432 C192.809,148.213 191.804,148.604 190.731,148.604 C190.106,148.604 189.58,148.442 189.152,148.119 C188.746,147.765 188.543,147.323 188.543,146.791 C188.543,145.896 189.012,145.057 189.949,144.276 C190.866,143.494 191.861,143.104 192.934,143.104"/>
<path class="Note" fill="#0d4500" d="M170.59,138.104 C171.215,138.104 171.747,138.265 172.184,138.588 C172.58,138.942 172.778,139.385 172.778,139.916 C172.778,140.812 172.32,141.65 171.403,142.432 C170.465,143.213 169.46,143.604 168.387,143.604 C167.762,143.604 167.236,143.442 166.809,143.119 C166.403,142.765 166.2,142.322 166.2,141.791 C166.2,140.895 166.669,140.057 167.606,139.275 C168.523,138.494 169.517,138.104 170.59,138.104"/>
<path class="Note" fill="#0d4500" d="M148.247,133.103 C148.872,133.103 149.403,133.265 149.841,133.588 C150.237,133.942 150.435,134.384 150.435,134.916 C150.435,135.812 149.976,136.65 149.06,137.431 C148.122,138.213 147.117,138.603 146.044,138.603 C145.419,138.603 144.893,138.442 144.466,138.119 C144.06,137.765 143.856,137.322 143.856,136.791 C143.856,135.895 144.325,135.056 145.263,134.275 C146.179,133.494 147.174,133.103 148.247,133.103"/>
<path class="Note" fill="#0d4500" d="M125.904,128.103 C126.529,128.103 127.06,128.264 127.497,128.587 C127.893,128.941 128.091,129.384 128.091,129.915 C128.091,130.811 127.633,131.65 126.716,132.431 C125.779,133.212 124.773,133.603 123.701,133.603 C123.076,133.603 122.55,133.441 122.122,133.119 C121.716,132.764 121.513,132.322 121.513,131.79 C121.513,130.895 121.982,130.056 122.919,129.275 C123.836,128.494 124.831,128.103 125.904,128.103"/>
<path class="Note" fill="#0d4500" d="M103.56,143.104 C104.185,143.104 104.717,143.265 105.154,143.588 C105.55,143.942 105.748,144.385 105.748,144.916 C105.748,145.812 105.29,146.651 104.373,147.432 C103.435,148.213 102.43,148.604 101.357,148.604 C100.732,148.604 100.206,148.442 99.7791,148.119 C99.3729,147.765 99.1697,147.323 99.1697,146.791 C99.1697,145.896 99.6385,145.057 100.576,144.276 C101.493,143.494 102.487,143.104 103.56,143.104"/>
<path class="Note" fill="#0d4500" d="M81.217,140.604 C81.842,140.604 82.3733,140.765 82.8108,141.088 C83.2066,141.442 83.4045,141.885 83.4045,142.416 C83.4045,143.312 82.9462,144.151 82.0295,144.932 C81.092,145.713 80.0868,146.104 79.0139,146.104 C78.3889,146.104 77.8628,145.942 77.4358,145.619 C77.0295,145.265 76.8264,144.822 76.8264,144.291 C76.8264,143.395 77.2951,142.557 78.2326,141.776 C79.1493,140.994 80.1441,140.604 81.217,140.604"/>
<path class="Note" fill="#0d4500" d="M353.514,93.1007 C354.139,93.1007 354.671,93.2622 355.108,93.5851 C355.504,93.9392 355.702,94.382 355.702,94.9132 C355.702,95.809 355.244,96.6476 354.327,97.4288 C353.389,98.2101 352.384,98.6007 351.311,98.6007 C350.686,98.6007 350.16,98.4392 349.733,98.1163 C349.327,97.7622 349.124,97.3195 349.124,96.7882 C349.124,95.8924 349.593,95.0538 350.53,94.2726 C351.447,93.4913 352.442,93.1007 353.514,93.1007"/>
<path class="Note" fill="#0d4500" d="M312.257,95.6009 C312.882,95.6009 313.414,95.7623 313.851,96.0852 C314.247,96.4394 314.445,96.8821 314.445,97.4134 C314.445,98.3092 313.986,99.1477 313.07,99.929 C312.132,100.71 311.127,101.101 310.054,101.101 C309.429,101.101 308.903,100.939 308.476,100.616 C308.07,100.262 307.867,99.8196 307.867,99.2884 C307.867,98.3925 308.335,97.554 309.273,96.7727 C310.19,95.9915 311.184,95.6009 312.257,95.6009"/>
<path class="Note" fill="#0d4500" d="M271,93.1007 C271.625,93.1007 272.156,93.2622 272.594,93.5851 C272.99,93.9392 273.188,94.382 273.188,94.9132 C273.188,95.809 272.729,96.6476 271.813,97.4288 C270.875,98.2101 269.87,98.6007 268.797,98.6007 C268.172,98.6007 267.646,98.4392 267.219,98.1163 C266.813,97.7622 266.609,97.3195 266.609,96.7882 C266.609,95.8924 267.078,95.0538 268.016,94.2726 C268.932,93.4913 269.927,93.1007 271,93.1007"/>
<path class="Note" fill="#204a87" d="M229.743,88.1004 C230.368,88.1004 230.899,88.2618 231.337,88.5848 C231.732,88.9389 231.93,89.3816 231.93,89.9129 C231.93,90.8087 231.472,91.6473 230.555,92.4285 C229.618,93.2098 228.613,93.6004 227.54,93.6004 C226.915,93.6004 226.389,93.4389 225.962,93.116 C225.555,92.7618 225.352,92.3191 225.352,91.7879 C225.352,90.8921 225.821,90.0535 226.759,89.2723 C227.675,88.491 228.67,88.1004 229.743,88.1004"/>
<path class="Note" fill="#204a87" d="M163.731,88.1004 C164.356,88.1004 164.888,88.2618 165.325,88.5848 C165.721,88.9389 165.919,89.3816 165.919,89.9129 C165.919,90.8087 165.461,91.6473 164.544,92.4285 C163.606,93.2098 162.601,93.6004 161.528,93.6004 C160.903,93.6004 160.377,93.4389 159.95,93.116 C159.544,92.7618 159.341,92.3191 159.341,91.7879 C159.341,90.8921 159.81,90.0535 160.747,89.2723 C161.664,88.491 162.658,88.1004 163.731,88.1004"/>
<path class="Note" fill="#204a87" d="M122.474,93.1007 C123.099,93.1007 123.63,93.2622 124.068,93.5851 C124.464,93.9392 124.662,94.382 124.662,94.9132 C124.662,95.809 124.203,96.6476 123.287,97.4288 C122.349,98.2101 121.344,98.6007 120.271,98.6007 C119.646,98.6007 119.12,98.4392 118.693,98.1163 C118.287,97.7622 118.084,97.3195 118.084,96.7882 C118.084,95.8924 118.552,95.0538 119.49,94.2726 C120.406,93.4913 121.401,93.1007 122.474,93.1007"/>
<path class="Note" fill="#204a87" d="M81.217,90.6005 C81.842,90.6005 82.3733,90.762 82.8108,91.0849 C83.2066,91.4391 83.4045,91.8818 83.4045,92.413 C83.4045,93.3089 82.9462,94.1474 82.0295,94.9287 C81.092,95.7099 80.0868,96.1005 79.0139,96.1005 C78.3889,96.1005 77.8628,95.9391 77.4358,95.6162 C77.0295,95.262 76.8264,94.8193 76.8264,94.288 C76.8264,93.3922 77.2951,92.5537 78.2326,91.7724 C79.1493,90.9912 80.1441,90.6005 81.217,90.6005"/>
<path class="Note" fill="#204a87" d="M375.447,43.0976 C376.072,43.0976 376.603,43.259 377.041,43.5819 C377.436,43.9361 377.634,44.3788 377.634,44.9101 C377.634,45.8059 377.176,46.6444 376.259,47.4257 C375.322,48.2069 374.317,48.5976 373.244,48.5976 C372.619,48.5976 372.093,48.4361 371.666,48.1132 C371.259,47.759 371.056,47.3163 371.056,46.7851 C371.056,45.8892 371.525,45.0507 372.462,44.2694 C373.379,43.4882 374.374,43.0976 375.447,43.0976"/>
<path class="Note" fill="#204a87" d="M356.122,45.5977 C356.747,45.5977 357.278,45.7592 357.716,46.0821 C358.111,46.4363 358.309,46.879 358.309,47.4102 C358.309,48.306 357.851,49.1446 356.934,49.9258 C355.997,50.7071 354.992,51.0977 353.919,51.0977 C353.294,51.0977 352.768,50.9363 352.341,50.6133 C351.934,50.2592 351.731,49.8165 351.731,49.2852 C351.731,48.3894 352.2,47.5508 353.138,46.7696 C354.054,45.9883 355.049,45.5977 356.122,45.5977"/>
<path class="Note" fill="#204a87" d="M336.797,43.0976 C337.422,43.0976 337.953,43.259 338.391,43.5819 C338.787,43.9361 338.985,44.3788 338.985,44.9101 C338.985,45.8059 338.526,46.6444 337.61,47.4257 C336.672,48.2069 335.667,48.5976 334.594,48.5976 C333.969,48.5976 333.443,48.4361 333.016,48.1132 C332.61,47.759 332.406,47.3163 332.406,46.7851 C332.406,45.8892 332.875,45.0507 333.813,44.2694 C334.729,43.4882 335.724,43.0976 336.797,43.0976"/>
<path class="Note" fill="#ef2929" d="M317.472,35.5971 C318.097,35.5971 318.628,35.7585 319.066,36.0815 C319.462,36.4356 319.66,36.8783 319.66,37.4096 C319.66,38.3054 319.201,39.144 318.285,39.9252 C317.347,40.7065 316.342,41.0971 315.269,41.0971 C314.644,41.0971 314.118,40.9356 313.691,40.6127 C313.285,40.2585 313.082,39.8158 313.082,39.2846 C313.082,38.3887 313.55,37.5502 314.488,36.769 C315.404,35.9877 316.399,35.5971 317.472,35.5971"/>
<path class="Note" fill="#ef2929" d="M286.552,35.5971 C287.177,35.5971 287.709,35.7585 288.146,36.0815 C288.542,36.4356 288.74,36.8783 288.74,37.4096 C288.74,38.3054 288.282,39.144 287.365,39.9252 C286.427,40.7065 285.422,41.0971 284.349,41.0971 C283.724,41.0971 283.198,40.9356 282.771,40.6127 C282.365,40.2585 282.162,39.8158 282.162,39.2846 C282.162,38.3887 282.631,37.5502 283.568,36.769 C284.485,35.9877 285.479,35.5971 286.552,35.5971"/>
<path class="Note" fill="#ef2929" d="M267.228,43.0976 C267.853,43.0976 268.384,43.259 268.821,43.5819 C269.217,43.9361 269.415,44.3788 269.415,44.9101 C269.415,45.8059 268.957,46.6444 268.04,47.4257 C267.103,48.2069 266.097,48.5976 265.024,48.5976 C264.399,48.5976 263.873,48.4361 263.446,48.1132 C263.04,47.759 262.837,47.3163 262.837,46.7851 C262.837,45.8892 263.306,45.0507 264.243,44.2694 C265.16,43.4882 266.155,43.0976 267.228,43.0976"/>
<path class="Note" fill="#ef2929" d="M247.903,40.5974 C248.528,40.5974 249.059,40.7589 249.496,41.0818 C249.892,41.4359 250.09,41.8786 250.09,42.4099 C250.09,43.3057 249.632,44.1443 248.715,44.9255 C247.778,45.7068 246.772,46.0974 245.7,46.0974 C245.075,46.0974 244.549,45.9359 244.121,45.613 C243.715,45.2589 243.512,44.8161 243.512,44.2849 C243.512,43.3891 243.981,42.5505 244.918,41.7693 C245.835,40.988 246.83,40.5974 247.903,40.5974"/>
<path class="Note" fill="#ef2929" d="M221.792,43.0976 C222.417,43.0976 222.948,43.259 223.386,43.5819 C223.781,43.9361 223.979,44.3788 223.979,44.9101 C223.979,45.8059 223.521,46.6444 222.604,47.4257 C221.667,48.2069 220.662,48.5976 219.589,48.5976 C218.964,48.5976 218.438,48.4361 218.011,48.1132 C217.604,47.759 217.401,47.3163 217.401,46.7851 C217.401,45.8892 217.87,45.0507 218.807,44.2694 C219.724,43.4882 220.719,43.0976 221.792,43.0976"/>
<path class="Note" fill="#ef2929" d="M202.481,45.5977 C203.106,45.5977 203.638,45.7592 204.075,46.0821 C204.471,46.4363 204.669,46.879 204.669,47.4102 C204.669,48.306 204.21,49.1446 203.294,49.9258 C202.356,50.7071 201.351,51.0977 200.278,51.0977 C199.653,51.0977 199.127,50.9363 198.7,50.6133 C198.294,50.2592 198.091,49.8165 198.091,49.2852 C198.091,48.3894 198.559,47.5508 199.497,46.7696 C200.414,45.9883 201.408,45.5977 202.481,45.5977"/>
<path class="Note" fill="#ef2929" d="M183.171,43.0976 C183.796,43.0976 184.327,43.259 184.765,43.5819 C185.16,43.9361 185.358,44.3788 185.358,44.9101 C185.358,45.8059 184.9,46.6444 183.983,47.4257 C183.046,48.2069 182.041,48.5976 180.968,48.5976 C180.343,48.5976 179.817,48.4361 179.39,48.1132 C178.983,47.759 178.78,47.3163 178.78,46.7851 C178.78,45.8892 179.249,45.0507 180.186,44.2694 C181.103,43.4882 182.098,43.0976 183.171,43.0976"/>
<path class="Clef" d="M62.8313,153.23 C62.8313,153.23 62.873,153.23 62.9563,153.23 C63.0084,153.219 63.05,153.214 63.0813,153.214 C64.5396,153.214 65.7375,153.73 66.675,154.761 C67.6125,155.771 68.0813,156.954 68.0813,158.308 C68.0813,159.995 67.3886,161.365 66.0032,162.417 C65.6386,162.709 65.1594,162.943 64.5657,163.12 C64.6386,163.964 64.675,164.646 64.675,165.167 C64.675,165.271 64.6594,165.652 64.6282,166.308 C64.5761,167.516 64.1594,168.563 63.3782,169.448 C62.6282,170.323 61.6907,170.761 60.5657,170.761 C59.5136,170.761 58.6178,170.391 57.8782,169.652 C57.1282,168.891 56.7532,167.98 56.7532,166.917 C56.7532,166.355 56.9719,165.875 57.4094,165.48 C57.8469,165.094 58.3573,164.902 58.9407,164.902 C59.4615,164.902 59.899,165.105 60.2532,165.511 C60.6178,165.886 60.8,166.355 60.8,166.917 C60.8,167.417 60.6178,167.849 60.2532,168.214 C59.8886,168.579 59.4511,168.761 58.9407,168.761 C58.7323,168.761 58.5344,168.724 58.3469,168.652 C58.9198,169.495 59.6803,169.917 60.6282,169.917 C61.524,169.917 62.2584,169.553 62.8313,168.823 C63.4355,168.073 63.7636,167.193 63.8157,166.183 C63.8365,165.558 63.8469,165.204 63.8469,165.12 C63.8469,164.391 63.8209,163.792 63.7688,163.323 C63.123,163.428 62.5448,163.48 62.0344,163.48 C60.2219,163.48 58.6803,162.761 57.4094,161.323 C56.1594,159.875 55.5344,158.157 55.5344,156.167 C55.5344,155.75 55.5709,155.329 55.6438,154.902 C55.7271,154.547 55.8261,154.162 55.9407,153.745 C56.0032,153.506 56.1803,153.125 56.4719,152.605 C56.5761,152.448 56.6933,152.253 56.8235,152.019 C56.9537,151.784 57.0448,151.631 57.0969,151.558 C57.2219,151.297 57.4719,150.943 57.8469,150.495 C57.9511,150.381 58.0605,150.253 58.175,150.112 C58.2896,149.972 58.386,149.855 58.4641,149.761 C58.5422,149.667 58.5995,149.594 58.636,149.542 C58.6724,149.49 58.9667,149.146 59.5188,148.511 C59.6438,148.375 59.7688,148.235 59.8938,148.089 C60.0188,147.943 60.1204,147.826 60.1985,147.737 C60.2766,147.649 60.3365,147.589 60.3782,147.558 C59.9094,146.006 59.6125,144.766 59.4875,143.839 C59.4042,143.099 59.3625,142.084 59.3625,140.792 C59.3625,139.657 59.623,138.594 60.1438,137.605 C60.6438,136.584 61.3521,135.745 62.2688,135.089 C62.3313,135.047 62.3938,135.027 62.4563,135.027 C62.55,135.027 62.6178,135.047 62.6594,135.089 C63.3573,135.933 63.9615,137.032 64.4719,138.386 C64.9928,139.74 65.2532,140.974 65.2532,142.089 C65.2532,143.339 64.9563,144.511 64.3625,145.605 C63.6855,146.761 62.8105,147.959 61.7375,149.198 C62.0084,150.053 62.373,151.396 62.8313,153.23 M64.4875,162.323 C65.1646,162.073 65.6959,161.652 66.0813,161.058 C66.498,160.485 66.7063,159.839 66.7063,159.12 C66.7063,158.193 66.3938,157.37 65.7688,156.652 C65.123,155.912 64.3053,155.495 63.3157,155.402 C63.8782,158.152 64.2688,160.459 64.4875,162.323 M56.9407,157.808 C56.9407,159.099 57.4615,160.235 58.5032,161.214 C59.5657,162.162 60.7636,162.636 62.0969,162.636 C62.6386,162.636 63.1698,162.594 63.6907,162.511 C63.4823,160.532 63.0709,158.162 62.4563,155.402 C61.7167,155.485 61.1282,155.745 60.6907,156.183 C60.2532,156.641 60.0344,157.157 60.0344,157.73 C60.0344,158.719 60.5657,159.521 61.6282,160.136 C61.7115,160.23 61.7532,160.329 61.7532,160.433 C61.7532,160.537 61.7115,160.631 61.6282,160.714 C61.5448,160.808 61.4459,160.855 61.3313,160.855 C61.3209,160.855 61.2636,160.844 61.1594,160.823 C60.4094,160.417 59.8365,159.896 59.4407,159.261 C59.0553,158.573 58.8625,157.886 58.8625,157.198 C58.8625,156.303 59.1438,155.49 59.7063,154.761 C60.2896,154.032 61.05,153.563 61.9875,153.355 C61.623,151.896 61.3261,150.756 61.0969,149.933 C60.8886,150.172 60.6386,150.456 60.3469,150.784 C60.0553,151.112 59.8834,151.313 59.8313,151.386 C59.3625,151.99 59.0032,152.464 58.7532,152.808 C58.3053,153.422 57.9771,153.948 57.7688,154.386 C57.55,154.886 57.3573,155.428 57.1907,156.011 C57.024,156.573 56.9407,157.172 56.9407,157.808 M63.4563,137.948 C62.4771,138.428 61.7115,139.115 61.1594,140.011 C60.5865,140.938 60.3,141.933 60.3,142.995 C60.3,143.933 60.5344,145.198 61.0032,146.792 C61.9407,145.657 62.6438,144.61 63.1125,143.652 C63.6021,142.631 63.8469,141.568 63.8469,140.464 C63.8469,139.631 63.7167,138.792 63.4563,137.948"/>
<path class="Clef" d="M62.8313,103.226 C62.8313,103.226 62.873,103.226 62.9563,103.226 C63.0084,103.216 63.05,103.211 63.0813,103.211 C64.5396,103.211 65.7375,103.726 66.675,104.758 C67.6125,105.768 68.0813,106.95 68.0813,108.305 C68.0813,109.992 67.3886,111.362 66.0032,112.414 C65.6386,112.706 65.1594,112.94 64.5657,113.117 C64.6386,113.961 64.675,114.643 64.675,115.164 C64.675,115.268 64.6594,115.648 64.6282,116.305 C64.5761,117.513 64.1594,118.56 63.3782,119.445 C62.6282,120.32 61.6907,120.758 60.5657,120.758 C59.5136,120.758 58.6178,120.388 57.8782,119.648 C57.1282,118.888 56.7532,117.976 56.7532,116.914 C56.7532,116.351 56.9719,115.872 57.4094,115.476 C57.8469,115.091 58.3573,114.898 58.9407,114.898 C59.4615,114.898 59.899,115.101 60.2532,115.508 C60.6178,115.883 60.8,116.351 60.8,116.914 C60.8,117.414 60.6178,117.846 60.2532,118.211 C59.8886,118.575 59.4511,118.758 58.9407,118.758 C58.7323,118.758 58.5344,118.721 58.3469,118.648 C58.9198,119.492 59.6803,119.914 60.6282,119.914 C61.524,119.914 62.2584,119.549 62.8313,118.82 C63.4355,118.07 63.7636,117.19 63.8157,116.18 C63.8365,115.555 63.8469,115.2 63.8469,115.117 C63.8469,114.388 63.8209,113.789 63.7688,113.32 C63.123,113.424 62.5448,113.476 62.0344,113.476 C60.2219,113.476 58.6803,112.758 57.4094,111.32 C56.1594,109.872 55.5344,108.154 55.5344,106.164 C55.5344,105.747 55.5709,105.325 55.6438,104.898 C55.7271,104.544 55.8261,104.159 55.9407,103.742 C56.0032,103.503 56.1803,103.122 56.4719,102.601 C56.5761,102.445 56.6933,102.25 56.8235,102.016 C56.9537,101.781 57.0448,101.628 57.0969,101.555 C57.2219,101.294 57.4719,100.94 57.8469,100.492 C57.9511,100.378 58.0605,100.25 58.175,100.109 C58.2896,99.9687 58.386,99.8515 58.4641,99.7577 C58.5422,99.664 58.5995,99.5911 58.636,99.539 C58.6724,99.4869 58.9667,99.1432 59.5188,98.5077 C59.6438,98.3723 59.7688,98.2317 59.8938,98.0859 C60.0188,97.94 60.1204,97.8228 60.1985,97.7343 C60.2766,97.6458 60.3365,97.5859 60.3782,97.5546 C59.9094,96.0025 59.6125,94.7629 59.4875,93.8359 C59.4042,93.0963 59.3625,92.0807 59.3625,90.789 C59.3625,89.6536 59.623,88.5911 60.1438,87.6015 C60.6438,86.5807 61.3521,85.7421 62.2688,85.0859 C62.3313,85.0442 62.3938,85.0234 62.4563,85.0234 C62.55,85.0234 62.6178,85.0442 62.6594,85.0859 C63.3573,85.9296 63.9615,87.0286 64.4719,88.3827 C64.9928,89.7369 65.2532,90.9713 65.2532,92.0859 C65.2532,93.3359 64.9563,94.5077 64.3625,95.6015 C63.6855,96.7577 62.8105,97.9557 61.7375,99.1952 C62.0084,100.049 62.373,101.393 62.8313,103.226 M64.4875,112.32 C65.1646,112.07 65.6959,111.648 66.0813,111.055 C66.498,110.482 66.7063,109.836 66.7063,109.117 C66.7063,108.19 66.3938,107.367 65.7688,106.648 C65.123,105.909 64.3053,105.492 63.3157,105.398 C63.8782,108.148 64.2688,110.456 64.4875,112.32 M56.9407,107.805 C56.9407,109.096 57.4615,110.232 58.5032,111.211 C59.5657,112.159 60.7636,112.633 62.0969,112.633 C62.6386,112.633 63.1698,112.591 63.6907,112.508 C63.4823,110.529 63.0709,108.159 62.4563,105.398 C61.7167,105.482 61.1282,105.742 60.6907,106.18 C60.2532,106.638 60.0344,107.154 60.0344,107.726 C60.0344,108.716 60.5657,109.518 61.6282,110.133 C61.7115,110.226 61.7532,110.325 61.7532,110.43 C61.7532,110.534 61.7115,110.628 61.6282,110.711 C61.5448,110.805 61.4459,110.851 61.3313,110.851 C61.3209,110.851 61.2636,110.841 61.1594,110.82 C60.4094,110.414 59.8365,109.893 59.4407,109.258 C59.0553,108.57 58.8625,107.883 58.8625,107.195 C58.8625,106.299 59.1438,105.487 59.7063,104.758 C60.2896,104.029 61.05,103.56 61.9875,103.351 C61.623,101.893 61.3261,100.753 61.0969,99.9296 C60.8886,100.169 60.6386,100.453 60.3469,100.781 C60.0553,101.109 59.8834,101.31 59.8313,101.383 C59.3625,101.987 59.0032,102.461 58.7532,102.805 C58.3053,103.419 57.9771,103.945 57.7688,104.383 C57.55,104.883 57.3573,105.424 57.1907,106.008 C57.024,106.57 56.9407,107.169 56.9407,107.805 M63.4563,87.9452 C62.4771,88.4244 61.7115,89.1119 61.1594,90.0077 C60.5865,90.9348 60.3,91.9296 60.3,92.9921 C60.3,93.9296 60.5344,95.1952 61.0032,96.789 C61.9407,95.6536 62.6438,94.6067 63.1125,93.6484 C63.6021,92.6275 63.8469,91.565 63.8469,90.4609 C63.8469,89.6275 63.7167,88.789 63.4563,87.9452"/>
<path class="Clef" d="M89.4719,53.2233 C89.4719,53.2233 89.5136,53.2233 89.5969,53.2233 C89.649,53.2129 89.6907,53.2077 89.7219,53.2077 C91.1803,53.2077 92.3782,53.7233 93.3157,54.7546 C94.2532,55.765 94.7219,56.9473 94.7219,58.3015 C94.7219,59.989 94.0292,61.3588 92.6438,62.4108 C92.2792,62.7025 91.8,62.9369 91.2063,63.114 C91.2792,63.9577 91.3157,64.64 91.3157,65.1608 C91.3157,65.265 91.3,65.6452 91.2688,66.3015 C91.2167,67.5098 90.8,68.5567 90.0188,69.4421 C89.2688,70.3171 88.3313,70.7546 87.2063,70.7546 C86.1542,70.7546 85.2584,70.3848 84.5188,69.6452 C83.7688,68.8848 83.3938,67.9733 83.3938,66.9108 C83.3938,66.3483 83.6125,65.8692 84.05,65.4733 C84.4875,65.0879 84.998,64.8952 85.5813,64.8952 C86.1021,64.8952 86.5396,65.0983 86.8938,65.5046 C87.2584,65.8796 87.4407,66.3483 87.4407,66.9108 C87.4407,67.4108 87.2584,67.8431 86.8938,68.2077 C86.5292,68.5723 86.0917,68.7546 85.5813,68.7546 C85.373,68.7546 85.175,68.7181 84.9875,68.6452 C85.5605,69.489 86.3209,69.9108 87.2688,69.9108 C88.1646,69.9108 88.899,69.5463 89.4719,68.8171 C90.0761,68.0671 90.4042,67.1869 90.4563,66.1765 C90.4771,65.5515 90.4875,65.1973 90.4875,65.114 C90.4875,64.3848 90.4615,63.7858 90.4094,63.3171 C89.7636,63.4213 89.1855,63.4733 88.675,63.4733 C86.8625,63.4733 85.3209,62.7546 84.05,61.3171 C82.8,59.8692 82.175,58.1504 82.175,56.1608 C82.175,55.7442 82.2115,55.3223 82.2844,54.8952 C82.3678,54.541 82.4667,54.1556 82.5813,53.739 C82.6438,53.4994 82.8209,53.1192 83.1125,52.5983 C83.2167,52.4421 83.3339,52.2468 83.4641,52.0124 C83.5943,51.778 83.6855,51.6244 83.7375,51.5515 C83.8625,51.291 84.1125,50.9369 84.4875,50.489 C84.5917,50.3744 84.7011,50.2468 84.8157,50.1062 C84.9303,49.9655 85.0266,49.8483 85.1047,49.7546 C85.1829,49.6608 85.2402,49.5879 85.2766,49.5358 C85.3131,49.4838 85.6073,49.14 86.1594,48.5046 C86.2844,48.3692 86.4094,48.2285 86.5344,48.0827 C86.6594,47.9369 86.761,47.8197 86.8391,47.7312 C86.9172,47.6426 86.9771,47.5827 87.0188,47.5515 C86.55,45.9994 86.2532,44.7598 86.1282,43.8327 C86.0448,43.0931 86.0032,42.0775 86.0032,40.7858 C86.0032,39.6504 86.2636,38.5879 86.7844,37.5983 C87.2844,36.5775 87.9928,35.739 88.9094,35.0827 C88.9719,35.041 89.0344,35.0202 89.0969,35.0202 C89.1907,35.0202 89.2584,35.041 89.3,35.0827 C89.998,35.9265 90.6021,37.0254 91.1125,38.3796 C91.6334,39.7338 91.8938,40.9681 91.8938,42.0827 C91.8938,43.3327 91.5969,44.5046 91.0032,45.5983 C90.3261,46.7546 89.4511,47.9525 88.3782,49.1921 C88.649,50.0463 89.0136,51.39 89.4719,53.2233 M91.1282,62.3171 C91.8053,62.0671 92.3365,61.6452 92.7219,61.0515 C93.1386,60.4785 93.3469,59.8327 93.3469,59.114 C93.3469,58.1869 93.0344,57.364 92.4094,56.6452 C91.7636,55.9056 90.9459,55.489 89.9563,55.3952 C90.5188,58.1452 90.9094,60.4525 91.1282,62.3171 M83.5813,57.8015 C83.5813,59.0931 84.1021,60.2285 85.1438,61.2077 C86.2063,62.1556 87.4042,62.6296 88.7375,62.6296 C89.2792,62.6296 89.8105,62.5879 90.3313,62.5046 C90.123,60.5254 89.7115,58.1556 89.0969,55.3952 C88.3573,55.4785 87.7688,55.739 87.3313,56.1765 C86.8938,56.6348 86.675,57.1504 86.675,57.7233 C86.675,58.7129 87.2063,59.515 88.2688,60.1296 C88.3521,60.2233 88.3938,60.3223 88.3938,60.4265 C88.3938,60.5306 88.3521,60.6244 88.2688,60.7077 C88.1855,60.8015 88.0865,60.8483 87.9719,60.8483 C87.9615,60.8483 87.9042,60.8379 87.8,60.8171 C87.05,60.4108 86.4771,59.89 86.0813,59.2546 C85.6959,58.5671 85.5032,57.8796 85.5032,57.1921 C85.5032,56.2963 85.7844,55.4838 86.3469,54.7546 C86.9303,54.0254 87.6907,53.5567 88.6282,53.3483 C88.2636,51.89 87.9667,50.7494 87.7375,49.9265 C87.5292,50.166 87.2792,50.4499 86.9875,50.778 C86.6959,51.1062 86.524,51.3067 86.4719,51.3796 C86.0032,51.9838 85.6438,52.4577 85.3938,52.8015 C84.9459,53.416 84.6178,53.9421 84.4094,54.3796 C84.1907,54.8796 83.998,55.4213 83.8313,56.0046 C83.6646,56.5671 83.5813,57.166 83.5813,57.8015 M90.0969,37.9421 C89.1178,38.4213 88.3521,39.1088 87.8,40.0046 C87.2271,40.9317 86.9407,41.9265 86.9407,42.989 C86.9407,43.9265 87.175,45.1921 87.6438,46.7858 C88.5813,45.6504 89.2844,44.6035 89.7532,43.6452 C90.2428,42.6244 90.4875,41.5619 90.4875,40.4577 C90.4875,39.6244 90.3573,38.7858 90.0969,37.9421"/>
<path class="TimeSig" d="M104.689,53.3477 C104.293,53.3477 103.939,53.2774 103.626,53.1368 C103.314,52.9961 103.095,52.8477 102.97,52.6915 C102.793,52.4935 102.621,52.3425 102.454,52.2383 C102.246,52.0925 102.032,52.0196 101.814,52.0196 C101.47,52.0196 101.189,52.1238 100.97,52.3321 C100.741,52.53 100.611,52.7956 100.579,53.129 C100.558,53.2748 100.48,53.3477 100.345,53.3477 C100.189,53.3477 100.111,53.2748 100.111,53.129 C100.111,52.629 100.23,52.1758 100.47,51.7696 C100.699,51.3529 100.986,51.0092 101.329,50.7383 C101.611,50.4883 101.986,50.1863 102.454,49.8321 C102.538,49.7696 102.704,49.6342 102.954,49.4258 C103.204,49.2175 103.418,49.0404 103.595,48.8946 C103.928,48.6133 104.22,48.2331 104.47,47.754 C104.699,47.2852 104.814,46.78 104.814,46.2383 C104.814,45.5717 104.704,44.9988 104.486,44.5196 C104.256,44.0508 103.897,43.8165 103.407,43.8165 C103.116,43.8165 102.876,43.879 102.689,44.004 C102.491,44.1394 102.392,44.3165 102.392,44.5352 C102.392,44.7227 102.509,44.9519 102.743,45.2227 C102.978,45.4935 103.095,45.7227 103.095,45.9102 C103.095,46.2956 102.96,46.6238 102.689,46.8946 C102.428,47.155 102.111,47.2852 101.736,47.2852 C101.34,47.2852 101.006,47.1498 100.736,46.879 C100.475,46.5977 100.345,46.2748 100.345,45.9102 C100.345,45.1602 100.644,44.5456 101.243,44.0665 C101.842,43.5873 102.564,43.3477 103.407,43.3477 C104.418,43.3477 105.293,43.6185 106.032,44.1602 C106.772,44.681 107.142,45.3738 107.142,46.2383 C107.142,46.8217 107.038,47.3217 106.829,47.7383 C106.631,48.1863 106.34,48.5352 105.954,48.7852 C105.506,49.0665 105.121,49.2852 104.798,49.4415 C104.34,49.6498 103.887,49.8477 103.439,50.0352 C102.887,50.254 102.46,50.4623 102.157,50.6602 C102.335,50.6185 102.512,50.5977 102.689,50.5977 C103.293,50.5977 103.918,50.7904 104.564,51.1758 C105.23,51.5717 105.746,51.7696 106.111,51.7696 C106.329,51.7696 106.506,51.7279 106.642,51.6446 C106.767,51.5717 106.85,51.4883 106.892,51.3946 C106.944,51.2696 106.991,51.181 107.032,51.129 C107.085,51.0456 107.147,51.004 107.22,51.004 C107.376,51.004 107.454,51.0821 107.454,51.2383 C107.454,51.6029 107.194,52.0456 106.673,52.5665 C106.163,53.0873 105.501,53.3477 104.689,53.3477"/>
<path class="TimeSig" d="M104.267,53.5983 C104.652,53.5983 104.983,53.5541 105.259,53.4655 C105.535,53.377 105.709,53.3327 105.782,53.3327 C105.876,53.3327 105.949,53.3588 106.001,53.4108 C106.043,53.4421 106.069,53.4838 106.079,53.5358 C106.079,53.5671 106.064,53.6088 106.032,53.6608 L100.361,60.2702 L103.689,60.2702 L103.689,57.6452 C103.689,57.4785 103.736,57.3327 103.829,57.2077 C103.986,57.0827 104.116,57.0046 104.22,56.9733 C104.387,56.9004 104.595,56.7181 104.845,56.4265 C105.053,56.1973 105.303,55.791 105.595,55.2077 C105.626,55.1244 105.683,55.0827 105.767,55.0827 C105.923,55.0827 106.012,55.1765 106.032,55.364 L106.032,60.2702 L107.47,60.2702 C107.647,60.2702 107.751,60.364 107.782,60.5515 C107.782,60.7494 107.678,60.8483 107.47,60.8483 L106.032,60.8483 L106.032,61.0046 C106.032,61.5254 106.163,61.9681 106.423,62.3327 C106.725,62.6973 107.079,62.8796 107.486,62.8796 C107.642,62.8796 107.72,62.9577 107.72,63.114 C107.72,63.2702 107.642,63.3483 107.486,63.3483 C107.215,63.3483 106.772,63.3119 106.157,63.239 C105.595,63.1452 105.157,63.0983 104.845,63.0983 C104.522,63.0983 104.084,63.1452 103.532,63.239 C102.949,63.3119 102.517,63.3483 102.236,63.3483 C102.079,63.3483 102.001,63.2702 102.001,63.114 C102.001,62.9577 102.079,62.8796 102.236,62.8796 C102.631,62.8796 102.98,62.6973 103.282,62.3327 C103.553,61.9681 103.689,61.5254 103.689,61.0046 L103.689,60.8483 L100.361,60.8483 C100.131,60.8483 99.9751,60.7963 99.8918,60.6921 C99.7772,60.6192 99.7199,60.515 99.7199,60.3796 C99.7199,60.3379 99.8189,60.2025 100.017,59.9733 C100.246,59.7129 100.48,59.3952 100.72,59.0202 C101.012,58.5723 101.288,58.114 101.548,57.6452 C101.829,57.114 102.058,56.4994 102.236,55.8015 C102.423,55.1035 102.517,54.39 102.517,53.6608 C102.517,53.4525 102.611,53.3483 102.798,53.3483 C102.84,53.3483 102.923,53.3692 103.048,53.4108 C103.09,53.4213 103.173,53.4395 103.298,53.4655 C103.423,53.4916 103.522,53.515 103.595,53.5358 C103.834,53.5775 104.058,53.5983 104.267,53.5983"/>
<path class="Rest" d="M356.475,149.245 C356.85,149.245 357.136,149.349 357.334,149.557 C357.532,149.797 357.636,150.021 357.647,150.229 C357.678,150.427 357.746,150.646 357.85,150.886 C357.964,151.094 358.11,151.198 358.287,151.198 C358.433,151.198 358.652,151.037 358.944,150.714 C359.204,150.432 359.392,150.177 359.506,149.948 C359.569,149.823 359.657,149.761 359.772,149.761 L359.803,149.761 C359.928,149.771 360.017,149.833 360.069,149.948 L357.615,158.354 C357.48,158.49 357.295,158.557 357.061,158.557 C356.826,158.557 356.647,158.49 356.522,158.354 L358.865,151.823 C358.032,152.125 357.329,152.276 356.756,152.276 C356.287,152.276 355.881,152.125 355.537,151.823 C355.183,151.542 355.006,151.167 355.006,150.698 C355.006,150.292 355.152,149.953 355.444,149.682 C355.725,149.391 356.069,149.245 356.475,149.245"/>
<path class="Rest" d="M335.498,149.245 C335.894,149.245 336.175,149.349 336.342,149.557 C336.519,149.787 336.629,150.011 336.67,150.229 C336.681,150.448 336.748,150.667 336.873,150.886 C336.946,151.094 337.087,151.198 337.295,151.198 C337.431,151.198 337.629,151.042 337.889,150.729 C338.181,150.365 338.368,150.104 338.451,149.948 C338.514,149.823 338.603,149.761 338.717,149.761 C338.717,149.761 338.728,149.761 338.748,149.761 C338.863,149.771 338.946,149.833 338.998,149.948 L335.42,163.354 C335.295,163.49 335.116,163.557 334.881,163.557 C334.647,163.557 334.462,163.49 334.326,163.354 L336.342,156.807 C335.467,157.12 334.759,157.276 334.217,157.276 C333.748,157.276 333.342,157.13 332.998,156.839 C332.644,156.547 332.467,156.167 332.467,155.698 C332.467,155.292 332.603,154.953 332.873,154.682 C333.165,154.401 333.514,154.261 333.92,154.261 C334.306,154.261 334.587,154.365 334.764,154.573 C334.951,154.792 335.066,155.011 335.108,155.229 C335.149,155.49 335.217,155.714 335.311,155.901 C335.394,156.11 335.535,156.214 335.733,156.214 C335.889,156.214 336.113,156.031 336.405,155.667 C336.696,155.323 336.879,155.052 336.951,154.854 L337.858,151.823 C337.024,152.125 336.332,152.276 335.78,152.276 C335.311,152.276 334.905,152.125 334.561,151.823 C334.207,151.542 334.03,151.167 334.03,150.698 C334.03,150.292 334.175,149.953 334.467,149.682 C334.748,149.391 335.092,149.245 335.498,149.245"/>
<path class="Rest" d="M161.97,49.2386 C162.366,49.2386 162.647,49.3428 162.813,49.5511 C162.991,49.7803 163.1,50.0043 163.142,50.223 C163.152,50.4418 163.22,50.6605 163.345,50.8793 C163.418,51.0876 163.558,51.1918 163.767,51.1918 C163.902,51.1918 164.1,51.0355 164.36,50.723 C164.652,50.3584 164.839,50.098 164.923,49.9418 C164.985,49.8168 165.074,49.7543 165.188,49.7543 C165.188,49.7543 165.199,49.7543 165.22,49.7543 C165.334,49.7647 165.418,49.8272 165.47,49.9418 L161.892,63.348 C161.767,63.4834 161.587,63.5511 161.353,63.5511 C161.118,63.5511 160.933,63.4834 160.798,63.348 L162.813,56.8011 C161.938,57.1136 161.23,57.2699 160.688,57.2699 C160.22,57.2699 159.813,57.1241 159.47,56.8324 C159.116,56.5407 158.938,56.1605 158.938,55.6918 C158.938,55.2855 159.074,54.947 159.345,54.6761 C159.636,54.3949 159.985,54.2543 160.392,54.2543 C160.777,54.2543 161.058,54.3584 161.235,54.5668 C161.423,54.7855 161.537,55.0043 161.579,55.223 C161.621,55.4834 161.688,55.7074 161.782,55.8949 C161.866,56.1032 162.006,56.2074 162.204,56.2074 C162.36,56.2074 162.584,56.0251 162.876,55.6605 C163.168,55.3168 163.35,55.0459 163.423,54.848 L164.329,51.8168 C163.496,52.1189 162.803,52.2699 162.251,52.2699 C161.782,52.2699 161.376,52.1189 161.032,51.8168 C160.678,51.5355 160.501,51.1605 160.501,50.6918 C160.501,50.2855 160.647,49.947 160.938,49.6761 C161.22,49.3845 161.563,49.2386 161.97,49.2386"/>
<path class="Rest" d="M116.862,51.7855 C116.862,51.5459 116.997,51.2855 117.268,51.0043 C117.455,50.7959 117.742,50.5459 118.127,50.2543 C118.408,50.0668 118.685,49.7751 118.955,49.3793 C119.216,49.0043 119.346,48.5928 119.346,48.1449 C119.346,47.6241 119.179,47.1657 118.846,46.7699 L118.143,45.9261 C118.091,45.8741 118.065,45.809 118.065,45.7308 C118.065,45.6527 118.101,45.5824 118.174,45.5199 C118.268,45.447 118.346,45.4105 118.408,45.4105 C118.502,45.4105 118.575,45.4522 118.627,45.5355 L121.658,49.1293 C121.783,49.2959 121.846,49.4626 121.846,49.6293 C121.846,49.8689 121.716,50.1293 121.455,50.4105 C121.289,50.598 121.013,50.848 120.627,51.1605 C120.325,51.3376 120.039,51.6293 119.768,52.0355 C119.507,52.4105 119.377,52.822 119.377,53.2699 C119.377,53.822 119.533,54.2855 119.846,54.6605 L121.518,56.6293 C121.56,56.6709 121.591,56.7386 121.612,56.8324 C121.612,56.9157 121.58,56.9939 121.518,57.0668 C121.424,57.1293 121.346,57.1605 121.283,57.1605 C121.263,57.1605 121.158,57.0876 120.971,56.9418 C120.773,56.7855 120.513,56.6345 120.19,56.4886 C119.825,56.3532 119.466,56.2855 119.112,56.2855 C118.789,56.2855 118.523,56.3741 118.315,56.5511 C118.138,56.7386 118.049,57.0928 118.049,57.6136 C118.049,58.4053 118.237,59.0303 118.612,59.4886 C118.653,59.5407 118.658,59.6032 118.627,59.6761 C118.606,59.7282 118.56,59.7543 118.487,59.7543 C118.403,59.7543 118.205,59.5199 117.893,59.0511 C117.56,58.5616 117.252,57.9939 116.971,57.348 C116.669,56.6709 116.518,56.1136 116.518,55.6761 C116.518,55.1136 116.783,54.8324 117.315,54.8324 C117.929,54.8324 118.726,55.0407 119.705,55.4574 L117.065,52.2855 C116.929,52.1189 116.862,51.9522 116.862,51.7855"/>
<path class="Beam" fill="#0d4500" fill-rule="evenodd" d="M166.2,160.905 L233.88,167.216 L233.88,169.616 L166.2,163.305 L166.2,160.905 "/>
<path class="Beam" fill="#0d4500" fill-rule="evenodd" d="M166.2,157.305 L233.88,163.616 L233.88,166.016 L166.2,159.705 L166.2,157.305 "/>
<path class="Beam" fill="#0d4500" fill-rule="evenodd" d="M76.8264,160.905 L144.506,160.905 L144.506,163.305 L76.8264,163.305 L76.8264,160.905 "/>
<path class="Beam" fill="#0d4500" fill-rule="evenodd" d="M76.8264,157.305 L144.506,157.305 L144.506,159.705 L76.8264,159.705 L76.8264,157.305 "/>
<path class="Beam" fill="#0d4500" fill-rule="evenodd" d="M225.352,112.152 L349.774,112.152 L349.774,114.552 L225.352,114.552 L225.352,112.152 "/>
<path class="Beam" fill="#0d4500" fill-rule="evenodd" d="M225.352,108.552 L349.774,108.552 L349.774,110.952 L225.352,110.952 L225.352,108.552 "/>
<path class="Beam" fill="#204a87" fill-rule="evenodd" d="M76.8264,110.902 L159.991,110.902 L159.991,113.302 L76.8264,113.302 L76.8264,110.902 "/>
<path class="Beam" fill="#204a87" fill-rule="evenodd" d="M76.8264,107.301 L118.734,107.301 L118.734,109.702 L76.8264,109.702 L76.8264,107.301 "/>
<path class="Beam" fill="#204a87" fill-rule="evenodd" d="M313.082,62.1486 L371.706,62.1486 L371.706,64.5487 L313.082,64.5487 L313.082,62.1486 "/>
<path class="Beam" fill="#204a87" fill-rule="evenodd" d="M313.082,58.5484 L371.706,58.5484 L371.706,60.9485 L313.082,60.9485 L313.082,58.5484 "/>
<path class="Beam" fill="#ef2929" fill-rule="evenodd" d="M243.512,60.8985 L282.812,60.8985 L282.812,63.2987 L243.512,63.2987 L243.512,60.8985 "/>
<path class="Beam" fill="#ef2929" fill-rule="evenodd" d="M243.512,57.2983 L263.487,57.2983 L263.487,59.6984 L243.512,59.6984 L243.512,57.2983 "/>
<path class="Beam" fill="#ef2929" fill-rule="evenodd" d="M178.78,62.1486 L218.051,62.1486 L218.051,64.5487 L178.78,64.5487 L178.78,62.1486 "/>
<path class="Beam" fill="#ef2929" fill-rule="evenodd" d="M178.78,58.5484 L218.051,58.5484 L218.051,60.9485 L178.78,60.9485 L178.78,58.5484 "/>
<path class="Hook" d="M311.553,164.355 C312.074,164.053 312.569,163.746 313.037,163.433 C313.537,163.079 313.98,162.725 314.366,162.371 C314.834,161.944 315.194,161.501 315.444,161.043 C315.704,160.553 315.834,160.069 315.834,159.59 C315.834,159.131 315.741,158.668 315.553,158.199 C315.418,158.376 314.996,158.793 314.287,159.449 C313.756,159.939 313.303,160.387 312.928,160.793 C312.584,161.157 312.272,161.616 311.991,162.168 C311.699,162.72 311.553,163.282 311.553,163.855 L311.553,164.355 M316.928,155.09 C316.928,155.871 316.678,156.647 316.178,157.418 C316.511,158.105 316.678,158.829 316.678,159.59 C316.678,160.225 316.501,160.866 316.147,161.512 C315.772,162.22 315.35,162.793 314.881,163.23 L313.35,164.715 C312.84,165.235 312.418,165.803 312.084,166.418 C311.73,167.043 311.553,167.689 311.553,168.355 L310.928,168.355 L310.928,158.355 L311.553,158.355 L311.553,159.855 C314.574,158.282 316.084,156.694 316.084,155.09 C316.084,154.735 315.996,154.324 315.819,153.855 C315.819,153.855 315.819,153.829 315.819,153.777 C315.819,153.673 315.855,153.569 315.928,153.465 C316.032,153.36 316.152,153.308 316.287,153.308 C316.412,153.308 316.527,153.387 316.631,153.543 C316.746,153.751 316.814,153.954 316.834,154.152 C316.845,154.246 316.855,154.366 316.866,154.512 L316.912,154.715 C316.923,154.808 316.928,154.933 316.928,155.09"/>
<path class="Tempo" d="M129.817,33.5125 C129.614,33.3563 129.364,33.2625 129.051,33.2625 C127.864,33.2625 126.91,34.1375 126.91,35.075 C126.91,35.6375 127.364,35.9813 127.957,35.9813 C128.91,35.9813 130.098,35.075 130.098,34.1688 L130.098,28.0281 L129.817,28.0281 L129.817,33.5125 "/>
<path class="Tempo" d="M140.457,32.0906 L133.848,32.0906 L133.848,30.9344 L140.457,30.9344 L140.457,32.0906 M140.457,35.0125 L133.848,35.0125 L133.848,33.8719 L140.457,33.8719 L140.457,35.0125 M144.535,34.1688 C144.535,33.6167 144.694,33.1922 145.012,32.8953 C145.33,32.5984 145.775,32.3563 146.348,32.1688 C145.754,31.8146 145.327,31.4604 145.067,31.1063 C144.806,30.7521 144.676,30.3511 144.676,29.9031 C144.676,29.2677 144.921,28.7599 145.41,28.3797 C145.9,27.9995 146.551,27.8094 147.364,27.8094 C148.072,27.8094 148.64,27.9656 149.067,28.2781 C149.494,28.5906 149.707,29.0125 149.707,29.5438 C149.707,29.9292 149.577,30.2521 149.317,30.5125 C149.056,30.7729 148.64,31.0073 148.067,31.2156 C148.712,31.6219 149.173,32.0255 149.449,32.4266 C149.726,32.8276 149.864,33.2886 149.864,33.8094 C149.864,34.5281 149.608,35.1089 149.098,35.5516 C148.587,35.9943 147.916,36.2156 147.082,36.2156 C146.322,36.2156 145.707,36.0255 145.239,35.6453 C144.77,35.2651 144.535,34.7729 144.535,34.1688 M147.785,30.9969 C147.983,30.7365 148.114,30.5125 148.176,30.325 C148.239,30.1375 148.27,29.9031 148.27,29.6219 C148.27,29.1531 148.179,28.7912 147.996,28.5359 C147.814,28.2807 147.556,28.1531 147.223,28.1531 C146.942,28.1531 146.705,28.2495 146.512,28.4422 C146.319,28.6349 146.223,28.8719 146.223,29.1531 C146.223,29.8406 146.744,30.4552 147.785,30.9969 M146.614,32.3875 C146.364,32.7313 146.197,33.0229 146.114,33.2625 C146.03,33.5021 145.989,33.7886 145.989,34.1219 C145.989,34.6531 146.093,35.0698 146.301,35.3719 C146.509,35.674 146.796,35.825 147.16,35.825 C147.483,35.825 147.739,35.7078 147.926,35.4734 C148.114,35.2391 148.207,34.924 148.207,34.5281 C148.207,34.0906 148.103,33.7339 147.895,33.4578 C147.686,33.1818 147.259,32.825 146.614,32.3875 M150.489,31.9813 C150.489,30.8042 150.749,29.8146 151.27,29.0125 C151.791,28.2104 152.436,27.8094 153.207,27.8094 C153.978,27.8094 154.621,28.2104 155.137,29.0125 C155.653,29.8146 155.91,30.8146 155.91,32.0125 C155.91,33.2208 155.655,34.2234 155.145,35.0203 C154.634,35.8172 153.994,36.2156 153.223,36.2156 C152.421,36.2156 151.765,35.8198 151.254,35.0281 C150.744,34.2365 150.489,33.2208 150.489,31.9813 M153.223,35.8719 C153.483,35.8719 153.681,35.6922 153.817,35.3328 C153.952,34.9734 154.02,34.3302 154.02,33.4031 L154.02,30.6531 C154.02,29.7677 153.957,29.1271 153.832,28.7313 C153.707,28.3354 153.494,28.1375 153.192,28.1375 C152.9,28.1375 152.694,28.3302 152.574,28.7156 C152.455,29.1011 152.395,29.7469 152.395,30.6531 L152.395,33.4031 C152.395,34.2886 152.457,34.9214 152.582,35.3016 C152.707,35.6818 152.921,35.8719 153.223,35.8719"/>
</svg>
