<?xml version="1.0" encoding="UTF-8"?>
<svg xmlns="http://www.w3.org/2000/svg" xmlns:xlink="http://www.w3.org/1999/xlink" width="151pt" height="364pt" viewBox="0 0 151 364" version="1.1">
<g id="surface5017">
<rect x="0" y="0" width="151" height="364" style="fill:rgb(100%,100%,100%);fill-opacity:1;stroke:none;"/>
<path style="fill-rule:evenodd;fill:rgb(100%,100%,100%);fill-opacity:1;stroke-width:0.05;stroke-linecap:butt;stroke-linejoin:round;stroke:rgb(0%,0%,0%);stroke-opacity:1;stroke-miterlimit:10;" d="M 12.000082 21.000039 L 15.900082 20.000039 L 16.100082 21.800039 L 14.000082 24.100039 L 11.800082 23.000039 Z M 12.000082 21.000039 " transform="matrix(20,0,0,20,-178.669604,-118.7)"/>
<path style="fill-rule:evenodd;fill:rgb(100%,100%,100%);fill-opacity:1;stroke-width:0.05;stroke-linecap:butt;stroke-linejoin:round;stroke:rgb(0%,0%,0%);stroke-opacity:1;stroke-miterlimit:10;" d="M 9.800082 20.500039 L 13.800082 19.600039 L 15.900082 20.000039 L 12.000082 21.000039 Z M 9.800082 20.500039 " transform="matrix(20,0,0,20,-178.669604,-118.7)"/>
<path style="fill-rule:evenodd;fill:rgb(100%,100%,100%);fill-opacity:1;stroke-width:0.05;stroke-linecap:butt;stroke-linejoin:round;stroke:rgb(0%,0%,0%);stroke-opacity:1;stroke-miterlimit:10;" d="M 9.800082 20.500039 L 12.000082 21.000039 L 11.800082 23.000039 L 9.700082 22.300039 Z M 9.800082 20.500039 " transform="matrix(20,0,0,20,-178.669604,-118.7)"/>
<path style="fill-rule:evenodd;fill:rgb(100%,100%,100%);fill-opacity:1;stroke-width:0.05;stroke-linecap:butt;stroke-linejoin:round;stroke:rgb(0%,0%,0%);stroke-opacity:1;stroke-miterlimit:10;" d="M 9.700082 22.300039 L 11.800082 23.000039 L 14.000082 24.100039 L 11.900082 23.400039 Z M 9.700082 22.300039 " transform="matrix(20,0,0,20,-178.669604,-118.7)"/>
<path style="fill:none;stroke-width:0.8;stroke-linecap:round;stroke-linejoin:round;stroke:rgb(0%,0%,0%);stroke-opacity:1;stroke-miterlimit:10;" d="M 13.000082 18.000039 L 13.000082 20.000039 " transform="matrix(20,0,0,20,-178.669604,-118.7)"/>
<path style="fill-rule:evenodd;fill:rgb(100%,100%,100%);fill-opacity:1;stroke-width:0.05;stroke-linecap:butt;stroke-linejoin:round;stroke:rgb(0%,0%,0%);stroke-opacity:1;stroke-miterlimit:10;" d="M 11.120004 13.481875 L 16.420004 13.096328 L 16.130941 16.276406 L 15.649105 17.62543 L 11.987386 18.300039 L 11.409066 16.854531 Z M 11.120004 13.481875 " transform="matrix(20,0,0,20,-178.669604,-118.7)"/>
<path style="fill-rule:evenodd;fill:rgb(100%,100%,100%);fill-opacity:1;stroke-width:0.05;stroke-linecap:butt;stroke-linejoin:round;stroke:rgb(0%,0%,0%);stroke-opacity:1;stroke-miterlimit:10;" d="M 9.000082 13.289102 L 14.203597 13.000039 L 16.420004 13.096328 L 11.120004 13.481875 Z M 9.000082 13.289102 " transform="matrix(20,0,0,20,-178.669604,-118.7)"/>
<path style="fill-rule:evenodd;fill:rgb(100%,100%,100%);fill-opacity:1;stroke-width:0.05;stroke-linecap:butt;stroke-linejoin:round;stroke:rgb(0%,0%,0%);stroke-opacity:1;stroke-miterlimit:10;" d="M 9.000082 13.289102 L 11.120004 13.481875 L 11.409066 16.854531 L 9.289144 16.565469 Z M 9.000082 13.289102 " transform="matrix(20,0,0,20,-178.669604,-118.7)"/>
<path style="fill-rule:evenodd;fill:rgb(100%,100%,100%);fill-opacity:1;stroke-width:0.05;stroke-linecap:butt;stroke-linejoin:round;stroke:rgb(0%,0%,0%);stroke-opacity:1;stroke-miterlimit:10;" d="M 9.289144 16.565469 L 11.409066 16.854531 L 11.987386 18.300039 L 9.963558 17.914492 Z M 9.289144 16.565469 " transform="matrix(20,0,0,20,-178.669604,-118.7)"/>
<path style="fill:none;stroke-width:0.8;stroke-linecap:round;stroke-linejoin:round;stroke:rgb(0%,0%,0%);stroke-opacity:1;stroke-miterlimit:10;" d="M 13.000082 12.000039 L 13.000082 13.000039 " transform="matrix(20,0,0,20,-178.669604,-118.7)"/>
<path style="fill-rule:evenodd;fill:rgb(100%,100%,100%);fill-opacity:1;stroke-width:0.05;stroke-linecap:butt;stroke-linejoin:miter;stroke:rgb(0%,0%,0%);stroke-opacity:1;stroke-miterlimit:10;" d="M 13.057894 6.000039 C 16.457894 6.000039 15.057894 12.000039 13.057894 12.000039 C 11.057894 12.000039 9.657894 6.000039 13.057894 6.000039 Z M 13.057894 6.000039 " transform="matrix(20,0,0,20,-178.669604,-118.7)"/>
<path style="fill-rule:evenodd;fill:rgb(0%,0%,0%);fill-opacity:1;stroke-width:0.05;stroke-linecap:butt;stroke-linejoin:miter;stroke:rgb(0%,0%,0%);stroke-opacity:1;stroke-miterlimit:10;" d="M 12.657894 9.000039 C 12.657894 9.100039 13.657894 9.100039 14.257894 9.000039 C 14.857894 8.900039 15.157894 8.500039 15.157894 8.400039 C 15.157894 8.300039 14.657894 8.700039 14.157894 8.800039 C 13.657894 8.900039 12.657894 8.900039 12.657894 9.000039 Z M 12.657894 9.000039 " transform="matrix(20,0,0,20,-178.669604,-118.7)"/>
<path style="fill-rule:evenodd;fill:rgb(0%,0%,0%);fill-opacity:1;stroke-width:0.05;stroke-linecap:butt;stroke-linejoin:miter;stroke:rgb(0%,0%,0%);stroke-opacity:1;stroke-miterlimit:10;" d="M 14.157894 8.200039 C 14.057894 8.200039 14.074691 8.916641 14.057894 9.300039 C 14.041293 9.683242 13.757894 10.600039 13.857894 10.600039 C 13.957894 10.600039 14.241293 9.583242 14.257894 9.200039 C 14.274691 8.816641 14.257894 8.200039 14.157894 8.200039 Z M 14.157894 8.200039 " transform="matrix(20,0,0,20,-178.669604,-118.7)"/>
</g>
</svg>
