<?xml version="1.0" encoding="UTF-8" standalone="no"?>
<!-- Generator: Adobe Illustrator 16.0.0, SVG Export Plug-In . SVG Version: 6.00 Build 0)  -->

<svg
   xmlns:dc="http://purl.org/dc/elements/1.1/"
   xmlns:cc="http://creativecommons.org/ns#"
   xmlns:rdf="http://www.w3.org/1999/02/22-rdf-syntax-ns#"
   xmlns:svg="http://www.w3.org/2000/svg"
   xmlns="http://www.w3.org/2000/svg"
   xmlns:sodipodi="http://sodipodi.sourceforge.net/DTD/sodipodi-0.dtd"
   xmlns:inkscape="http://www.inkscape.org/namespaces/inkscape"
   version="1.1"
   id="svg3611"
   sodipodi:docname="WikiProject_Scouting_uniform_template_male_male_head.svg"
   inkscape:version="0.92.3 (2405546, 2018-03-11)"
   x="0px"
   y="0px"
   width="256"
   height="256"
   viewBox="0 -0.259 1024 1024"
   enable-background="new 0 -0.259 81.619 77.263"
   xml:space="preserve"><metadata
   id="metadata21"><rdf:RDF><cc:Work
       rdf:about=""><dc:format>image/svg+xml</dc:format><dc:type
         rdf:resource="http://purl.org/dc/dcmitype/StillImage" /><dc:title></dc:title></cc:Work></rdf:RDF></metadata><defs
   id="defs19">
	
	
</defs><sodipodi:namedview
   pagecolor="#ffffff"
   bordercolor="#666666"
   borderopacity="1"
   objecttolerance="10"
   gridtolerance="10"
   guidetolerance="10"
   inkscape:pageopacity="0"
   inkscape:pageshadow="2"
   inkscape:window-width="1850"
   inkscape:window-height="1005"
   id="namedview17"
   showgrid="false"
   units="px"
   inkscape:zoom="3.0545021"
   inkscape:cx="166.48667"
   inkscape:cy="130.29947"
   inkscape:window-x="67"
   inkscape:window-y="27"
   inkscape:window-maximized="0"
   inkscape:current-layer="svg3611" />
<g
   id="g12"
   transform="matrix(16.2,0,0,16.2,-167.24586,-254.43619)">
		<path
   style="fill:#2b1100"
   inkscape:connector-curvature="0"
   id="path4"
   d="m 24.614,47.294 c 0.36,-3.387 0.445,-6.684 0.334,-9.974 -0.086,-2.56 1.033,-4.169 3.266,-5.257 6.823,-3.321 13.419,-3.231 19.953,0.876 1.791,1.126 3.87,2.057 5.934,2.411 2.22,0.383 3.246,1.316 3.359,3.459 0.018,0.316 0.078,0.631 0.131,0.945 0.369,2.258 0.742,4.516 1.113,6.773 0.197,-0.004 0.395,-0.008 0.592,-0.012 0.352,-3.652 0.865,-7.303 0.979,-10.963 0.05,-1.633 -0.705,-3.291 -1.098,-4.937 -0.232,-0.982 -0.473,-1.963 -0.748,-3.109 -3.381,-1.936 -7.112,-4.07 -10.92,-6.249 0.238,-0.532 0.459,-1.017 0.785,-1.74 -1.551,0.255 -2.851,0.497 -4.156,0.68 -6.864,0.953 -13.458,2.721 -19.505,6.248 -1.535,0.896 -2.539,1.993 -2.716,3.85 -0.506,5.354 0.564,10.497 1.964,15.6 0.135,0.497 0.482,0.935 0.733,1.399 z" />
		<path
   style="fill:#ffb380"
   inkscape:connector-curvature="0"
   id="path6"
   d="m 51.419,74.943 c 0.027,-0.35 -0.01,-2.932 0.01,-2.945 -0.086,0.068 -0.172,0.135 -0.258,0.201 -2.39,1.879 -4.724,3.604 -7.692,4.16 -0.015,0.004 -0.026,0.008 -0.04,0.01 -0.428,0.078 -0.87,0.131 -1.326,0.158 -0.014,0 -0.023,0.004 -0.036,0.004 -0.094,0.006 -0.187,-0.004 -0.28,-0.002 -0.33,0.012 -0.658,0.016 -0.984,-0.004 C 40.68,76.517 40.549,76.5 40.418,76.488 40.107,76.461 39.8,76.427 39.495,76.377 39.381,76.357 39.267,76.332 39.154,76.311 38.83,76.248 38.507,76.176 38.188,76.088 38.091,76.063 37.996,76.031 37.9,76.002 37.57,75.904 37.242,75.797 36.918,75.676 36.821,75.639 36.726,75.6 36.63,75.561 36.315,75.436 36.002,75.303 35.695,75.161 35.571,75.1 35.45,75.038 35.327,74.975 35.052,74.838 34.777,74.7 34.508,74.547 c -0.188,-0.105 -0.37,-0.219 -0.555,-0.33 -0.207,-0.125 -0.416,-0.248 -0.619,-0.379 -0.403,-0.262 -0.799,-0.533 -1.183,-0.816 0,0.863 -0.002,3.232 0,3.604 10e-4,0.135 0.003,0.252 0.004,0.381 h 19.413 c -0.094,-0.701 -0.202,-1.396 -0.149,-2.064 z" />
		<path
   style="fill:#ffb380"
   inkscape:connector-curvature="0"
   id="path8"
   d="m 57.917,62.017 c 2.264,0.957 3.51,0.682 4.572,-1.25 1.706,-3.098 2.928,-6.4 2.723,-9.994 -0.089,-1.549 -0.478,-3.168 -1.121,-4.576 -0.947,-2.078 -2.442,-2.07 -3.681,-0.131 -0.769,1.207 -1.424,2.484 -2.288,4.012 -0.175,-0.678 -0.3,-1.018 -0.347,-1.369 -0.442,-3.4 -0.896,-6.801 -1.291,-10.208 -0.147,-1.269 -0.767,-1.705 -2.021,-2.042 -2.242,-0.604 -4.606,-1.264 -6.51,-2.522 -6.357,-4.209 -12.757,-3.873 -19.386,-0.897 -1.731,0.774 -2.531,2.012 -2.561,3.848 -0.055,3.372 -0.108,6.745 -0.188,10.116 -0.018,0.717 -0.145,1.43 -0.221,2.143 -0.19,0.059 -0.381,0.115 -0.571,0.172 -0.65,-1.092 -1.207,-2.26 -1.986,-3.25 -0.464,-0.59 -1.337,-1.307 -1.92,-1.223 -0.527,0.076 -1.158,1.104 -1.318,1.809 -1.089,4.768 -0.334,9.375 1.721,13.734 1.271,2.695 2.156,2.799 4.66,0.789 0.801,4.25 3.017,7.533 5.819,10.322 4.316,4.291 10.876,6.207 16.49,1.539 2.131,-1.771 4.053,-3.828 5.871,-5.926 1.355,-1.565 2.39,-3.401 3.554,-5.096 z" />
		<path
   inkscape:connector-curvature="0"
   id="path10"
   d="m 52.354,73.615 c 0.035,-1.119 0.168,-2.502 0.883,-3.42 1.29,-1.658 2.666,-3.262 3.805,-5.018 0.793,-1.229 1.559,-1.945 3.156,-1.848 0.738,0.045 1.814,-0.535 2.244,-1.166 3.128,-4.605 4.744,-9.594 3.037,-15.16 -0.854,-2.781 -1.896,-3.359 -4.824,-3.105 -0.078,-4.975 2.171,-10.143 -1.253,-14.668 0.493,-0.727 0.862,-1.272 1.218,-1.798 -4.02,-2.189 -7.848,-4.275 -11.578,-6.309 0.141,-0.987 0.236,-1.649 0.342,-2.393 -0.383,-0.066 -0.633,-0.178 -0.86,-0.143 -7.487,1.157 -14.938,2.324 -21.895,5.686 -4.344,2.1 -6.499,5.076 -5.773,9.941 0.159,1.067 0.183,2.155 0.342,3.223 0.305,2.062 0.66,4.115 1.014,6.283 -1.933,-0.33 -2.749,0.764 -3.134,2.229 -1.429,5.428 -0.601,10.627 1.988,15.512 1.225,2.311 2.142,2.502 4.294,1.928 1.81,2.74 3.522,5.395 5.3,8.002 0.624,0.916 0.582,2.225 0.48,3.277 -0.052,0.531 0.055,1.068 0.03,1.604 -0.004,0.09 -0.089,0.408 -0.168,0.732 h 1.152 c -0.001,-0.129 -0.003,-0.246 -0.004,-0.381 -0.002,-0.371 0,-2.738 0,-3.604 0.384,0.283 0.779,0.557 1.183,0.816 0.203,0.131 0.412,0.254 0.619,0.379 0.185,0.111 0.367,0.225 0.555,0.33 0.27,0.15 0.544,0.291 0.819,0.428 0.123,0.063 0.244,0.125 0.368,0.186 0.307,0.145 0.619,0.275 0.935,0.4 0.096,0.039 0.191,0.078 0.288,0.115 0.324,0.121 0.652,0.229 0.982,0.326 0.096,0.029 0.191,0.061 0.288,0.086 0.318,0.088 0.642,0.158 0.966,0.223 0.113,0.021 0.227,0.049 0.341,0.066 0.305,0.053 0.612,0.084 0.922,0.111 0.131,0.012 0.262,0.029 0.395,0.037 0.326,0.02 0.656,0.016 0.986,0.004 0.094,-0.002 0.187,0.008 0.279,0.002 0.014,0 0.023,-0.004 0.036,-0.004 0.456,-0.027 0.897,-0.08 1.325,-0.158 0.015,-0.004 0.027,-0.006 0.041,-0.01 2.97,-0.557 5.304,-2.281 7.691,-4.16 0.086,-0.066 0.172,-0.133 0.258,-0.201 -0.019,0.016 0.02,2.598 -0.008,2.945 -0.054,0.668 0.055,1.363 0.146,2.063 h 1.017 c -0.089,-0.49 -0.089,-0.977 -0.118,-1.484 -0.037,-0.639 -0.129,-1.258 -0.11,-1.904 z M 21.917,30.297 c 0.177,-1.854 1.181,-2.953 2.716,-3.85 6.047,-3.527 12.641,-5.294 19.504,-6.248 1.308,-0.183 2.606,-0.425 4.156,-0.68 -0.326,0.725 -0.545,1.208 -0.785,1.74 3.809,2.179 7.539,4.313 10.92,6.249 0.276,1.146 0.517,2.127 0.748,3.109 0.394,1.646 1.147,3.304 1.099,4.937 -0.113,3.662 -0.628,7.31 -0.979,10.964 -0.197,0.002 -0.394,0.008 -0.591,0.01 -0.37,-2.258 -0.743,-4.516 -1.114,-6.773 -0.052,-0.313 -0.113,-0.629 -0.131,-0.945 -0.111,-2.142 -1.14,-3.075 -3.359,-3.458 -2.063,-0.354 -4.143,-1.284 -5.932,-2.411 -6.533,-4.107 -13.131,-4.197 -19.954,-0.875 -2.232,1.088 -3.352,2.696 -3.266,5.256 0.111,3.29 0.026,6.586 -0.334,9.975 -0.251,-0.465 -0.598,-0.902 -0.733,-1.398 -1.401,-5.105 -2.471,-10.25 -1.965,-15.602 z m 26.577,42.738 c -5.614,4.668 -12.174,2.754 -16.49,-1.539 -2.803,-2.789 -5.019,-6.072 -5.819,-10.322 -2.504,2.01 -3.389,1.908 -4.66,-0.789 -2.055,-4.357 -2.81,-8.967 -1.721,-13.732 0.16,-0.705 0.791,-1.732 1.318,-1.809 0.583,-0.084 1.456,0.631 1.92,1.221 0.779,0.992 1.336,2.158 1.986,3.25 0.19,-0.057 0.381,-0.113 0.571,-0.17 0.076,-0.715 0.203,-1.428 0.221,-2.145 0.08,-3.371 0.134,-6.742 0.188,-10.115 0.029,-1.836 0.829,-3.072 2.561,-3.848 6.629,-2.976 13.027,-3.312 19.386,0.897 1.902,1.26 4.269,1.92 6.511,2.522 1.252,0.337 1.871,0.773 2.02,2.042 0.396,3.407 0.85,6.809 1.291,10.209 0.047,0.352 0.172,0.689 0.347,1.369 0.864,-1.527 1.521,-2.807 2.288,-4.014 1.237,-1.939 2.732,-1.947 3.682,0.131 0.644,1.408 1.031,3.027 1.119,4.576 0.205,3.596 -1.016,6.896 -2.722,9.996 -1.063,1.932 -2.31,2.205 -4.571,1.25 -1.164,1.693 -2.199,3.531 -3.553,5.09 -1.819,2.102 -3.741,4.16 -5.873,5.93 z" />
	</g>
</svg>