<?xml version="1.0" encoding="UTF-8" standalone="no"?>
<svg
   xmlns:dc="http://purl.org/dc/elements/1.1/"
   xmlns:cc="http://creativecommons.org/ns#"
   xmlns:rdf="http://www.w3.org/1999/02/22-rdf-syntax-ns#"
   xmlns:svg="http://www.w3.org/2000/svg"
   xmlns="http://www.w3.org/2000/svg"
   xmlns:sodipodi="http://sodipodi.sourceforge.net/DTD/sodipodi-0.dtd"
   xmlns:inkscape="http://www.inkscape.org/namespaces/inkscape"
   width="448.138"
   height="153.75101"
   viewBox="0 0 448.138 153.75101"
   version="1.2"
   id="svg418"
   sodipodi:docname="samba-percussivo-1.svg"
   inkscape:version="0.92.3 (2405546, 2018-03-11)">
  <metadata
     id="metadata424">
    <rdf:RDF>
      <cc:Work
         rdf:about="">
        <dc:format>image/svg+xml</dc:format>
        <dc:type
           rdf:resource="http://purl.org/dc/dcmitype/StillImage" />
      </cc:Work>
    </rdf:RDF>
  </metadata>
  <defs
     id="defs422" />
  <sodipodi:namedview
     pagecolor="#ffffff"
     bordercolor="#666666"
     borderopacity="1"
     objecttolerance="10"
     gridtolerance="10"
     guidetolerance="10"
     inkscape:pageopacity="0"
     inkscape:pageshadow="2"
     inkscape:window-width="1853"
     inkscape:window-height="1025"
     id="namedview420"
     showgrid="false"
     inkscape:zoom="1.5861344"
     inkscape:cx="149.38103"
     inkscape:cy="153.84522"
     inkscape:window-x="67"
     inkscape:window-y="27"
     inkscape:window-maximized="1"
     inkscape:current-layer="svg418" />
  <title
     id="title2">Title</title>
  <desc
     id="desc4">Generated by MuseScore 2.1.0</desc>
  <polyline
     class="StaffLines"
     points="118.956,118.347 567.094,118.347"
     id="polyline6"
     style="fill:none;stroke:#000000;stroke-width:0.40000001;stroke-linejoin:bevel"
     transform="translate(-118.956,-102.096)" />
  <polyline
     class="StaffLines"
     points="118.956,160.847 567.094,160.847"
     id="polyline8"
     style="fill:none;stroke:#000000;stroke-width:0.40000001;stroke-linejoin:bevel"
     transform="translate(-118.956,-102.096)" />
  <polyline
     class="StaffLines"
     points="118.956,203.347 567.094,203.347"
     id="polyline10"
     style="fill:none;stroke:#000000;stroke-width:0.40000001;stroke-linejoin:bevel"
     transform="translate(-118.956,-102.096)" />
  <polyline
     class="StaffLines"
     points="118.956,245.847 567.094,245.847"
     id="polyline12"
     style="fill:none;stroke:#000000;stroke-width:0.40000001;stroke-linejoin:bevel"
     transform="translate(-118.956,-102.096)" />
  <path
     class="SlurSegment"
     d="m 336.313,55.001 c 3.495,-3.057 13.982,-3.057 17.478,0 -3.496,-2.257 -13.983,-2.257 -17.478,0"
     id="path26"
     inkscape:connector-curvature="0"
     style="fill-rule:evenodd;stroke:#000000;stroke-width:0.34999999;stroke-linecap:round;stroke-linejoin:round" />
  <path
     class="SlurSegment"
     d="m 141.265,55.001 c 3.648,-3.173 14.592,-3.173 18.24,0 -3.648,-2.373 -14.592,-2.373 -18.24,0"
     id="path28"
     inkscape:connector-curvature="0"
     style="fill-rule:evenodd;stroke:#000000;stroke-width:0.34999999;stroke-linecap:round;stroke-linejoin:round" />
  <polyline
     class="BarLine"
     points="119.356,108.347 119.356,255.847"
     id="polyline30"
     style="stroke:#000000;stroke-width:0.80000001;stroke-linejoin:bevel"
     transform="translate(-118.956,-102.096)" />
  <path
     class="BarLine"
     d="m 438.908,142.047 c -0.224,-0.218 -0.336,-0.484 -0.336,-0.796 0,-0.313 0.112,-0.581 0.336,-0.805 0.224,-0.224 0.492,-0.336 0.805,-0.336 0.312,0 0.578,0.112 0.796,0.336 0.219,0.224 0.329,0.492 0.329,0.805 0,0.312 -0.11,0.578 -0.329,0.796 -0.218,0.219 -0.484,0.329 -0.796,0.329 -0.313,0 -0.581,-0.11 -0.805,-0.329"
     id="path32"
     inkscape:connector-curvature="0" />
  <path
     class="BarLine"
     d="m 438.908,147.047 c -0.224,-0.218 -0.336,-0.484 -0.336,-0.796 0,-0.313 0.112,-0.581 0.336,-0.805 0.224,-0.224 0.492,-0.336 0.805,-0.336 0.312,0 0.578,0.112 0.796,0.336 0.219,0.224 0.329,0.492 0.329,0.805 0,0.312 -0.11,0.578 -0.329,0.796 -0.218,0.219 -0.484,0.329 -0.796,0.329 -0.313,0 -0.581,-0.11 -0.805,-0.329"
     id="path34"
     inkscape:connector-curvature="0" />
  <polyline
     class="BarLine"
     points="562.194,235.847 562.194,255.847"
     id="polyline36"
     style="stroke:#000000;stroke-width:0.80000001;stroke-linejoin:bevel"
     transform="translate(-118.956,-102.096)" />
  <polyline
     class="BarLine"
     points="565.844,235.847 565.844,255.847"
     id="polyline38"
     style="stroke:#000000;stroke-width:2.5;stroke-linejoin:bevel"
     transform="translate(-118.956,-102.096)" />
  <path
     class="BarLine"
     d="m 438.908,99.547 c -0.224,-0.218 -0.336,-0.484 -0.336,-0.796 0,-0.313 0.112,-0.581 0.336,-0.805 0.224,-0.224 0.492,-0.336 0.805,-0.336 0.312,0 0.578,0.112 0.796,0.336 0.219,0.224 0.329,0.492 0.329,0.805 0,0.312 -0.11,0.578 -0.329,0.796 -0.218,0.219 -0.484,0.329 -0.796,0.329 -0.313,0 -0.581,-0.11 -0.805,-0.329"
     id="path40"
     inkscape:connector-curvature="0" />
  <path
     class="BarLine"
     d="m 438.908,104.547 c -0.224,-0.218 -0.336,-0.484 -0.336,-0.796 0,-0.313 0.112,-0.581 0.336,-0.805 0.224,-0.224 0.492,-0.336 0.805,-0.336 0.312,0 0.578,0.112 0.796,0.336 0.219,0.224 0.329,0.492 0.329,0.805 0,0.312 -0.11,0.578 -0.329,0.796 -0.218,0.219 -0.484,0.329 -0.796,0.329 -0.313,0 -0.581,-0.11 -0.805,-0.329"
     id="path42"
     inkscape:connector-curvature="0" />
  <polyline
     class="BarLine"
     points="562.194,193.347 562.194,213.347"
     id="polyline44"
     style="stroke:#000000;stroke-width:0.80000001;stroke-linejoin:bevel"
     transform="translate(-118.956,-102.096)" />
  <polyline
     class="BarLine"
     points="565.844,193.347 565.844,213.347"
     id="polyline46"
     style="stroke:#000000;stroke-width:2.5;stroke-linejoin:bevel"
     transform="translate(-118.956,-102.096)" />
  <path
     class="BarLine"
     d="m 438.908,57.047 c -0.224,-0.218 -0.336,-0.484 -0.336,-0.796 0,-0.313 0.112,-0.581 0.336,-0.805 0.224,-0.224 0.492,-0.336 0.805,-0.336 0.312,0 0.578,0.112 0.796,0.336 0.219,0.224 0.329,0.492 0.329,0.805 0,0.312 -0.11,0.578 -0.329,0.796 -0.218,0.219 -0.484,0.329 -0.796,0.329 -0.313,0 -0.581,-0.11 -0.805,-0.329"
     id="path48"
     inkscape:connector-curvature="0" />
  <path
     class="BarLine"
     d="m 438.908,62.047 c -0.224,-0.218 -0.336,-0.484 -0.336,-0.796 0,-0.313 0.112,-0.581 0.336,-0.805 0.224,-0.224 0.492,-0.336 0.805,-0.336 0.312,0 0.578,0.112 0.796,0.336 0.219,0.224 0.329,0.492 0.329,0.805 0,0.312 -0.11,0.578 -0.329,0.796 -0.218,0.219 -0.484,0.329 -0.796,0.329 -0.313,0 -0.581,-0.11 -0.805,-0.329"
     id="path50"
     inkscape:connector-curvature="0" />
  <polyline
     class="BarLine"
     points="562.194,150.847 562.194,170.847"
     id="polyline52"
     style="stroke:#000000;stroke-width:0.80000001;stroke-linejoin:bevel"
     transform="translate(-118.956,-102.096)" />
  <polyline
     class="BarLine"
     points="565.844,150.847 565.844,170.847"
     id="polyline54"
     style="stroke:#000000;stroke-width:2.5;stroke-linejoin:bevel"
     transform="translate(-118.956,-102.096)" />
  <path
     class="BarLine"
     d="m 438.908,14.547 c -0.224,-0.218 -0.336,-0.484 -0.336,-0.796 0,-0.313 0.112,-0.581 0.336,-0.805 0.224,-0.224 0.492,-0.336 0.805,-0.336 0.312,0 0.578,0.112 0.796,0.336 0.219,0.224 0.329,0.492 0.329,0.805 0,0.312 -0.11,0.578 -0.329,0.796 -0.218,0.219 -0.484,0.329 -0.796,0.329 -0.313,0 -0.581,-0.11 -0.805,-0.329"
     id="path56"
     inkscape:connector-curvature="0" />
  <path
     class="BarLine"
     d="m 438.908,19.547 c -0.224,-0.218 -0.336,-0.484 -0.336,-0.796 0,-0.313 0.112,-0.581 0.336,-0.805 0.224,-0.224 0.492,-0.336 0.805,-0.336 0.312,0 0.578,0.112 0.796,0.336 0.219,0.224 0.329,0.492 0.329,0.805 0,0.312 -0.11,0.578 -0.329,0.796 -0.218,0.219 -0.484,0.329 -0.796,0.329 -0.313,0 -0.581,-0.11 -0.805,-0.329"
     id="path58"
     inkscape:connector-curvature="0" />
  <polyline
     class="BarLine"
     points="562.194,108.347 562.194,128.347"
     id="polyline60"
     style="stroke:#000000;stroke-width:0.80000001;stroke-linejoin:bevel"
     transform="translate(-118.956,-102.096)" />
  <polyline
     class="BarLine"
     points="565.844,108.347 565.844,128.347"
     id="polyline62"
     style="stroke:#000000;stroke-width:2.5;stroke-linejoin:bevel"
     transform="translate(-118.956,-102.096)" />
  <polyline
     class="BarLine"
     points="464.043,235.847 464.043,255.847"
     id="polyline64"
     style="stroke:#000000;stroke-width:0.80000001;stroke-linejoin:bevel"
     transform="translate(-118.956,-102.096)" />
  <polyline
     class="BarLine"
     points="464.043,193.347 464.043,213.347"
     id="polyline66"
     style="stroke:#000000;stroke-width:0.80000001;stroke-linejoin:bevel"
     transform="translate(-118.956,-102.096)" />
  <polyline
     class="BarLine"
     points="464.043,150.847 464.043,170.847"
     id="polyline68"
     style="stroke:#000000;stroke-width:0.80000001;stroke-linejoin:bevel"
     transform="translate(-118.956,-102.096)" />
  <polyline
     class="BarLine"
     points="464.043,108.347 464.043,128.347"
     id="polyline70"
     style="stroke:#000000;stroke-width:0.80000001;stroke-linejoin:bevel"
     transform="translate(-118.956,-102.096)" />
  <polyline
     class="BarLine"
     points="366.142,235.847 366.142,255.847"
     id="polyline72"
     style="stroke:#000000;stroke-width:0.80000001;stroke-linejoin:bevel"
     transform="translate(-118.956,-102.096)" />
  <polyline
     class="BarLine"
     points="366.142,193.347 366.142,213.347"
     id="polyline74"
     style="stroke:#000000;stroke-width:0.80000001;stroke-linejoin:bevel"
     transform="translate(-118.956,-102.096)" />
  <polyline
     class="BarLine"
     points="366.142,150.847 366.142,170.847"
     id="polyline76"
     style="stroke:#000000;stroke-width:0.80000001;stroke-linejoin:bevel"
     transform="translate(-118.956,-102.096)" />
  <polyline
     class="BarLine"
     points="366.142,108.347 366.142,128.347"
     id="polyline78"
     style="stroke:#000000;stroke-width:0.80000001;stroke-linejoin:bevel"
     transform="translate(-118.956,-102.096)" />
  <polyline
     class="BarLine"
     points="269.757,235.847 269.757,255.847"
     id="polyline80"
     style="stroke:#000000;stroke-width:0.80000001;stroke-linejoin:bevel"
     transform="translate(-118.956,-102.096)" />
  <polyline
     class="BarLine"
     points="269.757,193.347 269.757,213.347"
     id="polyline82"
     style="stroke:#000000;stroke-width:0.80000001;stroke-linejoin:bevel"
     transform="translate(-118.956,-102.096)" />
  <polyline
     class="BarLine"
     points="269.757,150.847 269.757,170.847"
     id="polyline84"
     style="stroke:#000000;stroke-width:0.80000001;stroke-linejoin:bevel"
     transform="translate(-118.956,-102.096)" />
  <polyline
     class="BarLine"
     points="269.757,108.347 269.757,128.347"
     id="polyline86"
     style="stroke:#000000;stroke-width:0.80000001;stroke-linejoin:bevel"
     transform="translate(-118.956,-102.096)" />
  <path
     class="BarLine"
     d="m 40.517,142.047 c -0.224,-0.218 -0.336,-0.484 -0.336,-0.796 0,-0.313 0.112,-0.581 0.336,-0.805 0.224,-0.224 0.492,-0.336 0.805,-0.336 0.312,0 0.578,0.112 0.797,0.336 0.218,0.224 0.328,0.492 0.328,0.805 0,0.312 -0.11,0.578 -0.328,0.796 -0.219,0.219 -0.485,0.329 -0.797,0.329 -0.313,0 -0.581,-0.11 -0.805,-0.329"
     id="path88"
     inkscape:connector-curvature="0" />
  <path
     class="BarLine"
     d="m 40.517,147.047 c -0.224,-0.218 -0.336,-0.484 -0.336,-0.796 0,-0.313 0.112,-0.581 0.336,-0.805 0.224,-0.224 0.492,-0.336 0.805,-0.336 0.312,0 0.578,0.112 0.797,0.336 0.218,0.224 0.328,0.492 0.328,0.805 0,0.312 -0.11,0.578 -0.328,0.796 -0.219,0.219 -0.485,0.329 -0.797,0.329 -0.313,0 -0.581,-0.11 -0.805,-0.329"
     id="path90"
     inkscape:connector-curvature="0" />
  <polyline
     class="BarLine"
     points="156.74,235.847 156.74,255.847"
     id="polyline92"
     style="stroke:#000000;stroke-width:0.80000001;stroke-linejoin:bevel"
     transform="translate(-118.956,-102.096)" />
  <polyline
     class="BarLine"
     points="153.09,235.847 153.09,255.847"
     id="polyline94"
     style="stroke:#000000;stroke-width:2.5;stroke-linejoin:bevel"
     transform="translate(-118.956,-102.096)" />
  <path
     class="BarLine"
     d="m 40.517,99.547 c -0.224,-0.218 -0.336,-0.484 -0.336,-0.796 0,-0.313 0.112,-0.581 0.336,-0.805 0.224,-0.224 0.492,-0.336 0.805,-0.336 0.312,0 0.578,0.112 0.797,0.336 0.218,0.224 0.328,0.492 0.328,0.805 0,0.312 -0.11,0.578 -0.328,0.796 -0.219,0.219 -0.485,0.329 -0.797,0.329 -0.313,0 -0.581,-0.11 -0.805,-0.329"
     id="path96"
     inkscape:connector-curvature="0" />
  <path
     class="BarLine"
     d="m 40.517,104.547 c -0.224,-0.218 -0.336,-0.484 -0.336,-0.796 0,-0.313 0.112,-0.581 0.336,-0.805 0.224,-0.224 0.492,-0.336 0.805,-0.336 0.312,0 0.578,0.112 0.797,0.336 0.218,0.224 0.328,0.492 0.328,0.805 0,0.312 -0.11,0.578 -0.328,0.796 -0.219,0.219 -0.485,0.329 -0.797,0.329 -0.313,0 -0.581,-0.11 -0.805,-0.329"
     id="path98"
     inkscape:connector-curvature="0" />
  <polyline
     class="BarLine"
     points="156.74,193.347 156.74,213.347"
     id="polyline100"
     style="stroke:#000000;stroke-width:0.80000001;stroke-linejoin:bevel"
     transform="translate(-118.956,-102.096)" />
  <polyline
     class="BarLine"
     points="153.09,193.347 153.09,213.347"
     id="polyline102"
     style="stroke:#000000;stroke-width:2.5;stroke-linejoin:bevel"
     transform="translate(-118.956,-102.096)" />
  <path
     class="BarLine"
     d="m 40.517,57.047 c -0.224,-0.218 -0.336,-0.484 -0.336,-0.796 0,-0.313 0.112,-0.581 0.336,-0.805 0.224,-0.224 0.492,-0.336 0.805,-0.336 0.312,0 0.578,0.112 0.797,0.336 0.218,0.224 0.328,0.492 0.328,0.805 0,0.312 -0.11,0.578 -0.328,0.796 -0.219,0.219 -0.485,0.329 -0.797,0.329 -0.313,0 -0.581,-0.11 -0.805,-0.329"
     id="path104"
     inkscape:connector-curvature="0" />
  <path
     class="BarLine"
     d="m 40.517,62.047 c -0.224,-0.218 -0.336,-0.484 -0.336,-0.796 0,-0.313 0.112,-0.581 0.336,-0.805 0.224,-0.224 0.492,-0.336 0.805,-0.336 0.312,0 0.578,0.112 0.797,0.336 0.218,0.224 0.328,0.492 0.328,0.805 0,0.312 -0.11,0.578 -0.328,0.796 -0.219,0.219 -0.485,0.329 -0.797,0.329 -0.313,0 -0.581,-0.11 -0.805,-0.329"
     id="path106"
     inkscape:connector-curvature="0" />
  <polyline
     class="BarLine"
     points="156.74,150.847 156.74,170.847"
     id="polyline108"
     style="stroke:#000000;stroke-width:0.80000001;stroke-linejoin:bevel"
     transform="translate(-118.956,-102.096)" />
  <polyline
     class="BarLine"
     points="153.09,150.847 153.09,170.847"
     id="polyline110"
     style="stroke:#000000;stroke-width:2.5;stroke-linejoin:bevel"
     transform="translate(-118.956,-102.096)" />
  <path
     class="BarLine"
     d="m 40.517,14.547 c -0.224,-0.218 -0.336,-0.484 -0.336,-0.796 0,-0.313 0.112,-0.581 0.336,-0.805 0.224,-0.224 0.492,-0.336 0.805,-0.336 0.312,0 0.578,0.112 0.797,0.336 0.218,0.224 0.328,0.492 0.328,0.805 0,0.312 -0.11,0.578 -0.328,0.796 -0.219,0.219 -0.485,0.329 -0.797,0.329 -0.313,0 -0.581,-0.11 -0.805,-0.329"
     id="path112"
     inkscape:connector-curvature="0" />
  <path
     class="BarLine"
     d="m 40.517,19.547 c -0.224,-0.218 -0.336,-0.484 -0.336,-0.796 0,-0.313 0.112,-0.581 0.336,-0.805 0.224,-0.224 0.492,-0.336 0.805,-0.336 0.312,0 0.578,0.112 0.797,0.336 0.218,0.224 0.328,0.492 0.328,0.805 0,0.312 -0.11,0.578 -0.328,0.796 -0.219,0.219 -0.485,0.329 -0.797,0.329 -0.313,0 -0.581,-0.11 -0.805,-0.329"
     id="path114"
     inkscape:connector-curvature="0" />
  <polyline
     class="BarLine"
     points="156.74,108.347 156.74,128.347"
     id="polyline116"
     style="stroke:#000000;stroke-width:0.80000001;stroke-linejoin:bevel"
     transform="translate(-118.956,-102.096)" />
  <polyline
     class="BarLine"
     points="153.09,108.347 153.09,128.347"
     id="polyline118"
     style="stroke:#000000;stroke-width:2.5;stroke-linejoin:bevel"
     transform="translate(-118.956,-102.096)" />
  <polyline
     class="Stem"
     points="538.501,161.786 538.501,175.847"
     id="polyline120"
     style="stroke:#000000;stroke-width:0.64999998;stroke-linecap:round;stroke-linejoin:bevel"
     transform="translate(-118.956,-102.096)" />
  <polyline
     class="Stem"
     points="526.405,161.786 526.405,175.847"
     id="polyline122"
     style="stroke:#000000;stroke-width:0.64999998;stroke-linecap:round;stroke-linejoin:bevel"
     transform="translate(-118.956,-102.096)" />
  <polyline
     class="Stem"
     points="502.215,161.786 502.215,175.847"
     id="polyline124"
     style="stroke:#000000;stroke-width:0.64999998;stroke-linecap:round;stroke-linejoin:bevel"
     transform="translate(-118.956,-102.096)" />
  <polyline
     class="Stem"
     points="482.863,161.786 482.863,175.847"
     id="polyline126"
     style="stroke:#000000;stroke-width:0.64999998;stroke-linecap:round;stroke-linejoin:bevel"
     transform="translate(-118.956,-102.096)" />
  <polyline
     class="Stem"
     points="470.768,161.786 470.768,175.847"
     id="polyline128"
     style="stroke:#000000;stroke-width:0.64999998;stroke-linecap:round;stroke-linejoin:bevel"
     transform="translate(-118.956,-102.096)" />
  <polyline
     class="Stem"
     points="476.701,117.407 476.701,105.221"
     id="polyline130"
     style="stroke:#000000;stroke-width:0.64999998;stroke-linecap:round;stroke-linejoin:bevel"
     transform="translate(-118.956,-102.096)" />
  <polyline
     class="Stem"
     points="451.315,161.786 451.315,175.847"
     id="polyline132"
     style="stroke:#000000;stroke-width:0.64999998;stroke-linecap:round;stroke-linejoin:bevel"
     transform="translate(-118.956,-102.096)" />
  <polyline
     class="Stem"
     points="457.248,117.407 457.248,103.346"
     id="polyline134"
     style="stroke:#000000;stroke-width:0.64999998;stroke-linecap:round;stroke-linejoin:bevel"
     transform="translate(-118.956,-102.096)" />
  <polyline
     class="Stem"
     points="431.07,161.786 431.07,175.847"
     id="polyline136"
     style="stroke:#000000;stroke-width:0.64999998;stroke-linecap:round;stroke-linejoin:bevel"
     transform="translate(-118.956,-102.096)" />
  <polyline
     class="Stem"
     points="437.003,117.407 437.003,103.346"
     id="polyline138"
     style="stroke:#000000;stroke-width:0.64999998;stroke-linecap:round;stroke-linejoin:bevel"
     transform="translate(-118.956,-102.096)" />
  <polyline
     class="Stem"
     points="418.417,161.786 418.417,175.847"
     id="polyline140"
     style="stroke:#000000;stroke-width:0.64999998;stroke-linecap:round;stroke-linejoin:bevel"
     transform="translate(-118.956,-102.096)" />
  <polyline
     class="Stem"
     points="424.35,117.407 424.35,103.346"
     id="polyline142"
     style="stroke:#000000;stroke-width:0.64999998;stroke-linecap:round;stroke-linejoin:bevel"
     transform="translate(-118.956,-102.096)" />
  <polyline
     class="Stem"
     points="411.697,117.407 411.697,103.346"
     id="polyline144"
     style="stroke:#000000;stroke-width:0.64999998;stroke-linecap:round;stroke-linejoin:bevel"
     transform="translate(-118.956,-102.096)" />
  <polyline
     class="Stem"
     points="393.112,161.786 393.112,175.847"
     id="polyline146"
     style="stroke:#000000;stroke-width:0.64999998;stroke-linecap:round;stroke-linejoin:bevel"
     transform="translate(-118.956,-102.096)" />
  <polyline
     class="Stem"
     points="372.867,161.786 372.867,175.847"
     id="polyline148"
     style="stroke:#000000;stroke-width:0.64999998;stroke-linecap:round;stroke-linejoin:bevel"
     transform="translate(-118.956,-102.096)" />
  <polyline
     class="Stem"
     points="378.8,117.407 378.8,103.346"
     id="polyline150"
     style="stroke:#000000;stroke-width:0.64999998;stroke-linecap:round;stroke-linejoin:bevel"
     transform="translate(-118.956,-102.096)" />
  <polyline
     class="Stem"
     points="360.212,117.407 360.212,103.346"
     id="polyline152"
     style="stroke:#000000;stroke-width:0.64999998;stroke-linecap:round;stroke-linejoin:bevel"
     transform="translate(-118.956,-102.096)" />
  <polyline
     class="Stem"
     points="342.492,161.786 342.492,175.847"
     id="polyline154"
     style="stroke:#000000;stroke-width:0.64999998;stroke-linecap:round;stroke-linejoin:bevel"
     transform="translate(-118.956,-102.096)" />
  <polyline
     class="Stem"
     points="330.704,161.786 330.704,175.847"
     id="polyline156"
     style="stroke:#000000;stroke-width:0.64999998;stroke-linecap:round;stroke-linejoin:bevel"
     transform="translate(-118.956,-102.096)" />
  <polyline
     class="Stem"
     points="336.637,117.407 336.637,103.346"
     id="polyline158"
     style="stroke:#000000;stroke-width:0.64999998;stroke-linecap:round;stroke-linejoin:bevel"
     transform="translate(-118.956,-102.096)" />
  <polyline
     class="Stem"
     points="324.85,117.407 324.85,103.346"
     id="polyline160"
     style="stroke:#000000;stroke-width:0.64999998;stroke-linecap:round;stroke-linejoin:bevel"
     transform="translate(-118.956,-102.096)" />
  <polyline
     class="Stem"
     points="307.129,161.786 307.129,175.847"
     id="polyline162"
     style="stroke:#000000;stroke-width:0.64999998;stroke-linecap:round;stroke-linejoin:bevel"
     transform="translate(-118.956,-102.096)" />
  <polyline
     class="Stem"
     points="288.269,161.786 288.269,175.847"
     id="polyline164"
     style="stroke:#000000;stroke-width:0.64999998;stroke-linecap:round;stroke-linejoin:bevel"
     transform="translate(-118.956,-102.096)" />
  <polyline
     class="Stem"
     points="276.482,161.786 276.482,175.847"
     id="polyline166"
     style="stroke:#000000;stroke-width:0.64999998;stroke-linecap:round;stroke-linejoin:bevel"
     transform="translate(-118.956,-102.096)" />
  <polyline
     class="Stem"
     points="282.415,117.407 282.415,105.221"
     id="polyline168"
     style="stroke:#000000;stroke-width:0.64999998;stroke-linecap:round;stroke-linejoin:bevel"
     transform="translate(-118.956,-102.096)" />
  <polyline
     class="Stem"
     points="262.2,244.908 262.2,230.847"
     id="polyline170"
     style="stroke:#000000;stroke-width:0.64999998;stroke-linecap:round;stroke-linejoin:bevel"
     transform="translate(-118.956,-102.096)" />
  <polyline
     class="Stem"
     points="262.2,202.407 262.2,188.347"
     id="polyline172"
     style="stroke:#000000;stroke-width:0.64999998;stroke-linecap:round;stroke-linejoin:bevel"
     transform="translate(-118.956,-102.096)" />
  <polyline
     class="Stem"
     points="256.267,161.786 256.267,175.847"
     id="polyline174"
     style="stroke:#000000;stroke-width:0.64999998;stroke-linecap:round;stroke-linejoin:bevel"
     transform="translate(-118.956,-102.096)" />
  <polyline
     class="Stem"
     points="262.2,117.407 262.2,103.346"
     id="polyline176"
     style="stroke:#000000;stroke-width:0.64999998;stroke-linecap:round;stroke-linejoin:bevel"
     transform="translate(-118.956,-102.096)" />
  <polyline
     class="Stem"
     points="248.785,244.908 248.785,230.847"
     id="polyline178"
     style="stroke:#000000;stroke-width:0.64999998;stroke-linecap:round;stroke-linejoin:bevel"
     transform="translate(-118.956,-102.096)" />
  <polyline
     class="Stem"
     points="248.785,117.407 248.785,103.346"
     id="polyline180"
     style="stroke:#000000;stroke-width:0.64999998;stroke-linecap:round;stroke-linejoin:bevel"
     transform="translate(-118.956,-102.096)" />
  <polyline
     class="Stem"
     points="229.438,161.786 229.438,175.847"
     id="polyline182"
     style="stroke:#000000;stroke-width:0.64999998;stroke-linecap:round;stroke-linejoin:bevel"
     transform="translate(-118.956,-102.096)" />
  <polyline
     class="Stem"
     points="235.371,117.407 235.371,103.346"
     id="polyline184"
     style="stroke:#000000;stroke-width:0.64999998;stroke-linecap:round;stroke-linejoin:bevel"
     transform="translate(-118.956,-102.096)" />
  <polyline
     class="Stem"
     points="221.956,244.908 221.956,230.847"
     id="polyline186"
     style="stroke:#000000;stroke-width:0.64999998;stroke-linecap:round;stroke-linejoin:bevel"
     transform="translate(-118.956,-102.096)" />
  <polyline
     class="Stem"
     points="221.956,202.407 221.956,188.347"
     id="polyline188"
     style="stroke:#000000;stroke-width:0.64999998;stroke-linecap:round;stroke-linejoin:bevel"
     transform="translate(-118.956,-102.096)" />
  <polyline
     class="Stem"
     points="216.023,161.786 216.023,175.847"
     id="polyline190"
     style="stroke:#000000;stroke-width:0.64999998;stroke-linecap:round;stroke-linejoin:bevel"
     transform="translate(-118.956,-102.096)" />
  <polyline
     class="Stem"
     points="208.542,244.908 208.542,230.847"
     id="polyline192"
     style="stroke:#000000;stroke-width:0.64999998;stroke-linecap:round;stroke-linejoin:bevel"
     transform="translate(-118.956,-102.096)" />
  <polyline
     class="Stem"
     points="208.542,202.407 208.542,188.347"
     id="polyline194"
     style="stroke:#000000;stroke-width:0.64999998;stroke-linecap:round;stroke-linejoin:bevel"
     transform="translate(-118.956,-102.096)" />
  <polyline
     class="Stem"
     points="208.542,117.407 208.542,103.346"
     id="polyline196"
     style="stroke:#000000;stroke-width:0.64999998;stroke-linecap:round;stroke-linejoin:bevel"
     transform="translate(-118.956,-102.096)" />
  <polyline
     class="Stem"
     points="195.127,244.908 195.127,230.847"
     id="polyline198"
     style="stroke:#000000;stroke-width:0.64999998;stroke-linecap:round;stroke-linejoin:bevel"
     transform="translate(-118.956,-102.096)" />
  <polyline
     class="Stem"
     points="189.194,161.786 189.194,175.847"
     id="polyline200"
     style="stroke:#000000;stroke-width:0.64999998;stroke-linecap:round;stroke-linejoin:bevel"
     transform="translate(-118.956,-102.096)" />
  <polyline
     class="Stem"
     points="195.127,117.407 195.127,103.346"
     id="polyline202"
     style="stroke:#000000;stroke-width:0.64999998;stroke-linecap:round;stroke-linejoin:bevel"
     transform="translate(-118.956,-102.096)" />
  <polyline
     class="Stem"
     points="173.664,244.908 173.664,230.847"
     id="polyline204"
     style="stroke:#000000;stroke-width:0.64999998;stroke-linecap:round;stroke-linejoin:bevel"
     transform="translate(-118.956,-102.096)" />
  <polyline
     class="Stem"
     points="173.664,202.407 173.664,188.347"
     id="polyline206"
     style="stroke:#000000;stroke-width:0.64999998;stroke-linecap:round;stroke-linejoin:bevel"
     transform="translate(-118.956,-102.096)" />
  <polyline
     class="Stem"
     points="167.731,161.786 167.731,175.847"
     id="polyline208"
     style="stroke:#000000;stroke-width:0.64999998;stroke-linecap:round;stroke-linejoin:bevel"
     transform="translate(-118.956,-102.096)" />
  <polyline
     class="Stem"
     points="173.664,117.407 173.664,103.346"
     id="polyline210"
     style="stroke:#000000;stroke-width:0.64999998;stroke-linecap:round;stroke-linejoin:bevel"
     transform="translate(-118.956,-102.096)" />
  <path
     class="Note"
     d="m 423.61,56.001 c 0.625,0 1.157,0.161 1.594,0.484 0.396,0.354 0.594,0.797 0.594,1.328 0,0.896 -0.459,1.734 -1.375,2.516 -0.938,0.781 -1.943,1.172 -3.016,1.172 -0.625,0 -1.151,-0.162 -1.578,-0.485 -0.406,-0.354 -0.609,-0.797 -0.609,-1.328 0,-0.896 0.468,-1.734 1.406,-2.516 0.917,-0.781 1.911,-1.171 2.984,-1.171"
     id="path212"
     inkscape:connector-curvature="0" />
  <path
     class="Note"
     d="m 411.515,56.001 c 0.625,0 1.156,0.161 1.594,0.484 0.396,0.354 0.594,0.797 0.594,1.328 0,0.896 -0.459,1.734 -1.375,2.516 -0.938,0.781 -1.943,1.172 -3.016,1.172 -0.625,0 -1.151,-0.162 -1.578,-0.485 -0.406,-0.354 -0.61,-0.797 -0.61,-1.328 0,-0.896 0.469,-1.734 1.407,-2.516 0.916,-0.781 1.911,-1.171 2.984,-1.171"
     id="path214"
     inkscape:connector-curvature="0" />
  <path
     class="Note"
     d="m 387.325,56.001 c 0.625,0 1.156,0.161 1.594,0.484 0.395,0.354 0.593,0.797 0.593,1.328 0,0.896 -0.458,1.734 -1.375,2.516 -0.937,0.781 -1.942,1.172 -3.015,1.172 -0.625,0 -1.151,-0.162 -1.578,-0.485 -0.407,-0.354 -0.61,-0.797 -0.61,-1.328 0,-0.896 0.469,-1.734 1.406,-2.516 0.917,-0.781 1.912,-1.171 2.985,-1.171"
     id="path216"
     inkscape:connector-curvature="0" />
  <path
     class="Note"
     d="m 367.973,56.001 c 0.625,0 1.156,0.161 1.593,0.484 0.396,0.354 0.594,0.797 0.594,1.328 0,0.896 -0.458,1.734 -1.375,2.516 -0.937,0.781 -1.943,1.172 -3.016,1.172 -0.625,0 -1.151,-0.162 -1.578,-0.485 -0.406,-0.354 -0.609,-0.797 -0.609,-1.328 0,-0.896 0.469,-1.734 1.406,-2.516 0.917,-0.781 1.912,-1.171 2.985,-1.171"
     id="path218"
     inkscape:connector-curvature="0" />
  <path
     class="Note"
     d="m 355.877,56.001 c 0.625,0 1.157,0.161 1.594,0.484 0.396,0.354 0.594,0.797 0.594,1.328 0,0.896 -0.458,1.734 -1.375,2.516 -0.938,0.781 -1.943,1.172 -3.016,1.172 -0.625,0 -1.151,-0.162 -1.578,-0.485 -0.406,-0.354 -0.609,-0.797 -0.609,-1.328 0,-0.896 0.468,-1.734 1.406,-2.516 0.917,-0.781 1.911,-1.171 2.984,-1.171"
     id="path220"
     inkscape:connector-curvature="0" />
  <path
     class="Note"
     d="m 355.877,13.501 c 0.625,0 1.157,0.161 1.594,0.484 0.396,0.354 0.594,0.797 0.594,1.328 0,0.896 -0.458,1.734 -1.375,2.516 -0.938,0.781 -1.943,1.172 -3.016,1.172 -0.625,0 -1.151,-0.162 -1.578,-0.485 -0.406,-0.354 -0.609,-0.797 -0.609,-1.328 0,-0.896 0.468,-1.734 1.406,-2.516 0.917,-0.781 1.911,-1.171 2.984,-1.171"
     id="path222"
     inkscape:connector-curvature="0" />
  <path
     class="Note"
     d="m 336.424,56.001 c 0.625,0 1.157,0.161 1.594,0.484 0.396,0.354 0.594,0.797 0.594,1.328 0,0.896 -0.458,1.734 -1.375,2.516 -0.938,0.781 -1.943,1.172 -3.016,1.172 -0.625,0 -1.151,-0.162 -1.578,-0.485 -0.406,-0.354 -0.609,-0.797 -0.609,-1.328 0,-0.896 0.469,-1.734 1.406,-2.516 0.917,-0.781 1.912,-1.171 2.984,-1.171"
     id="path224"
     inkscape:connector-curvature="0" />
  <path
     class="Note"
     d="m 336.424,13.501 c 0.625,0 1.157,0.161 1.594,0.484 0.396,0.354 0.594,0.797 0.594,1.328 0,0.896 -0.458,1.734 -1.375,2.516 -0.938,0.781 -1.943,1.172 -3.016,1.172 -0.625,0 -1.151,-0.162 -1.578,-0.485 -0.406,-0.354 -0.609,-0.797 -0.609,-1.328 0,-0.896 0.469,-1.734 1.406,-2.516 0.917,-0.781 1.912,-1.171 2.984,-1.171"
     id="path226"
     inkscape:connector-curvature="0" />
  <path
     class="Note"
     d="m 316.18,56.001 c 0.625,0 1.156,0.161 1.594,0.484 0.395,0.354 0.593,0.797 0.593,1.328 0,0.896 -0.458,1.734 -1.375,2.516 -0.937,0.781 -1.942,1.172 -3.015,1.172 -0.625,0 -1.151,-0.162 -1.578,-0.485 -0.407,-0.354 -0.61,-0.797 -0.61,-1.328 0,-0.896 0.469,-1.734 1.406,-2.516 0.917,-0.781 1.912,-1.171 2.985,-1.171"
     id="path228"
     inkscape:connector-curvature="0" />
  <path
     class="Note"
     d="m 316.18,13.501 c 0.625,0 1.156,0.161 1.594,0.484 0.395,0.354 0.593,0.797 0.593,1.328 0,0.896 -0.458,1.734 -1.375,2.516 -0.937,0.781 -1.942,1.172 -3.015,1.172 -0.625,0 -1.151,-0.162 -1.578,-0.485 -0.407,-0.354 -0.61,-0.797 -0.61,-1.328 0,-0.896 0.469,-1.734 1.406,-2.516 0.917,-0.781 1.912,-1.171 2.985,-1.171"
     id="path230"
     inkscape:connector-curvature="0" />
  <path
     class="Note"
     d="m 303.527,56.001 c 0.625,0 1.156,0.161 1.594,0.484 0.396,0.354 0.593,0.797 0.593,1.328 0,0.896 -0.458,1.734 -1.375,2.516 -0.937,0.781 -1.942,1.172 -3.015,1.172 -0.625,0 -1.151,-0.162 -1.578,-0.485 -0.407,-0.354 -0.61,-0.797 -0.61,-1.328 0,-0.896 0.469,-1.734 1.407,-2.516 0.916,-0.781 1.911,-1.171 2.984,-1.171"
     id="path232"
     inkscape:connector-curvature="0" />
  <path
     class="Note"
     d="m 303.527,13.501 c 0.625,0 1.156,0.161 1.594,0.484 0.396,0.354 0.593,0.797 0.593,1.328 0,0.896 -0.458,1.734 -1.375,2.516 -0.937,0.781 -1.942,1.172 -3.015,1.172 -0.625,0 -1.151,-0.162 -1.578,-0.485 -0.407,-0.354 -0.61,-0.797 -0.61,-1.328 0,-0.896 0.469,-1.734 1.407,-2.516 0.916,-0.781 1.911,-1.171 2.984,-1.171"
     id="path234"
     inkscape:connector-curvature="0" />
  <path
     class="Note"
     d="m 290.874,13.501 c 0.625,0 1.156,0.161 1.594,0.484 0.396,0.354 0.594,0.797 0.594,1.328 0,0.896 -0.459,1.734 -1.375,2.516 -0.938,0.781 -1.943,1.172 -3.016,1.172 -0.625,0 -1.151,-0.162 -1.578,-0.485 -0.406,-0.354 -0.61,-0.797 -0.61,-1.328 0,-0.896 0.469,-1.734 1.407,-2.516 0.916,-0.781 1.911,-1.171 2.984,-1.171"
     id="path236"
     inkscape:connector-curvature="0" />
  <path
     class="Note"
     d="m 278.221,56.001 c 0.625,0 1.156,0.161 1.594,0.484 0.396,0.354 0.594,0.797 0.594,1.328 0,0.896 -0.459,1.734 -1.375,2.516 -0.938,0.781 -1.943,1.172 -3.016,1.172 -0.625,0 -1.151,-0.162 -1.578,-0.485 -0.406,-0.354 -0.609,-0.797 -0.609,-1.328 0,-0.896 0.468,-1.734 1.406,-2.516 0.916,-0.781 1.911,-1.171 2.984,-1.171"
     id="path238"
     inkscape:connector-curvature="0" />
  <path
     class="Note"
     d="m 257.977,56.001 c 0.625,0 1.156,0.161 1.593,0.484 0.396,0.354 0.594,0.797 0.594,1.328 0,0.896 -0.458,1.734 -1.375,2.516 -0.937,0.781 -1.943,1.172 -3.016,1.172 -0.625,0 -1.151,-0.162 -1.578,-0.485 -0.406,-0.354 -0.609,-0.797 -0.609,-1.328 0,-0.896 0.469,-1.734 1.406,-2.516 0.917,-0.781 1.912,-1.171 2.985,-1.171"
     id="path240"
     inkscape:connector-curvature="0" />
  <path
     class="Note"
     d="m 257.977,13.501 c 0.625,0 1.156,0.161 1.593,0.484 0.396,0.354 0.594,0.797 0.594,1.328 0,0.896 -0.458,1.734 -1.375,2.516 -0.937,0.781 -1.943,1.172 -3.016,1.172 -0.625,0 -1.151,-0.162 -1.578,-0.485 -0.406,-0.354 -0.609,-0.797 -0.609,-1.328 0,-0.896 0.469,-1.734 1.406,-2.516 0.917,-0.781 1.912,-1.171 2.985,-1.171"
     id="path242"
     inkscape:connector-curvature="0" />
  <path
     class="Note"
     d="m 239.389,13.501 c 0.625,0 1.156,0.161 1.594,0.484 0.396,0.354 0.593,0.797 0.593,1.328 0,0.896 -0.458,1.734 -1.375,2.516 -0.937,0.781 -1.942,1.172 -3.015,1.172 -0.625,0 -1.151,-0.162 -1.578,-0.485 -0.407,-0.354 -0.61,-0.797 -0.61,-1.328 0,-0.896 0.469,-1.734 1.407,-2.516 0.916,-0.781 1.911,-1.171 2.984,-1.171"
     id="path244"
     inkscape:connector-curvature="0" />
  <path
     class="Note"
     d="m 227.601,56.001 c 0.625,0 1.157,0.161 1.594,0.484 0.396,0.354 0.594,0.797 0.594,1.328 0,0.896 -0.458,1.734 -1.375,2.516 -0.938,0.781 -1.943,1.172 -3.016,1.172 -0.625,0 -1.151,-0.162 -1.578,-0.485 -0.406,-0.354 -0.609,-0.797 -0.609,-1.328 0,-0.896 0.469,-1.734 1.406,-2.516 0.917,-0.781 1.912,-1.171 2.984,-1.171"
     id="path246"
     inkscape:connector-curvature="0" />
  <path
     class="Note"
     d="m 215.814,56.001 c 0.625,0 1.156,0.161 1.594,0.484 0.396,0.354 0.593,0.797 0.593,1.328 0,0.896 -0.458,1.734 -1.375,2.516 -0.937,0.781 -1.942,1.172 -3.015,1.172 -0.625,0 -1.151,-0.162 -1.578,-0.485 -0.407,-0.354 -0.61,-0.797 -0.61,-1.328 0,-0.896 0.469,-1.734 1.407,-2.516 0.916,-0.781 1.911,-1.171 2.984,-1.171"
     id="path248"
     inkscape:connector-curvature="0" />
  <path
     class="Note"
     d="m 215.814,13.501 c 0.625,0 1.156,0.161 1.594,0.484 0.396,0.354 0.593,0.797 0.593,1.328 0,0.896 -0.458,1.734 -1.375,2.516 -0.937,0.781 -1.942,1.172 -3.015,1.172 -0.625,0 -1.151,-0.162 -1.578,-0.485 -0.407,-0.354 -0.61,-0.797 -0.61,-1.328 0,-0.896 0.469,-1.734 1.407,-2.516 0.916,-0.781 1.911,-1.171 2.984,-1.171"
     id="path250"
     inkscape:connector-curvature="0" />
  <path
     class="Note"
     d="m 204.026,13.501 c 0.625,0 1.157,0.161 1.594,0.484 0.396,0.354 0.594,0.797 0.594,1.328 0,0.896 -0.458,1.734 -1.375,2.516 -0.938,0.781 -1.943,1.172 -3.016,1.172 -0.625,0 -1.151,-0.162 -1.578,-0.485 -0.406,-0.354 -0.609,-0.797 -0.609,-1.328 0,-0.896 0.469,-1.734 1.406,-2.516 0.917,-0.781 1.911,-1.171 2.984,-1.171"
     id="path252"
     inkscape:connector-curvature="0" />
  <path
     class="Note"
     d="m 192.239,56.001 c 0.625,0 1.156,0.161 1.594,0.484 0.395,0.354 0.593,0.797 0.593,1.328 0,0.896 -0.458,1.734 -1.375,2.516 -0.937,0.781 -1.942,1.172 -3.015,1.172 -0.625,0 -1.151,-0.162 -1.578,-0.485 -0.407,-0.354 -0.61,-0.797 -0.61,-1.328 0,-0.896 0.469,-1.734 1.407,-2.516 0.916,-0.781 1.911,-1.171 2.984,-1.171"
     id="path254"
     inkscape:connector-curvature="0" />
  <path
     class="Note"
     d="m 173.379,56.001 c 0.625,0 1.156,0.161 1.594,0.484 0.395,0.354 0.593,0.797 0.593,1.328 0,0.896 -0.458,1.734 -1.375,2.516 -0.937,0.781 -1.942,1.172 -3.015,1.172 -0.625,0 -1.151,-0.162 -1.578,-0.485 -0.407,-0.354 -0.61,-0.797 -0.61,-1.328 0,-0.896 0.469,-1.734 1.406,-2.516 0.917,-0.781 1.912,-1.171 2.985,-1.171"
     id="path256"
     inkscape:connector-curvature="0" />
  <path
     class="Note"
     d="m 161.591,56.001 c 0.625,0 1.157,0.161 1.594,0.484 0.396,0.354 0.594,0.797 0.594,1.328 0,0.896 -0.459,1.734 -1.375,2.516 -0.938,0.781 -1.943,1.172 -3.016,1.172 -0.625,0 -1.151,-0.162 -1.578,-0.485 -0.406,-0.354 -0.609,-0.797 -0.609,-1.328 0,-0.896 0.468,-1.734 1.406,-2.516 0.917,-0.781 1.911,-1.171 2.984,-1.171"
     id="path258"
     inkscape:connector-curvature="0" />
  <path
     class="Note"
     d="m 161.591,13.501 c 0.625,0 1.157,0.161 1.594,0.484 0.396,0.354 0.594,0.797 0.594,1.328 0,0.896 -0.459,1.734 -1.375,2.516 -0.938,0.781 -1.943,1.172 -3.016,1.172 -0.625,0 -1.151,-0.162 -1.578,-0.485 -0.406,-0.354 -0.609,-0.797 -0.609,-1.328 0,-0.896 0.468,-1.734 1.406,-2.516 0.917,-0.781 1.911,-1.171 2.984,-1.171"
     id="path260"
     inkscape:connector-curvature="0" />
  <path
     class="Note"
     d="m 141.377,141.001 c 0.625,0 1.156,0.161 1.593,0.484 0.396,0.354 0.594,0.797 0.594,1.328 0,0.896 -0.458,1.734 -1.375,2.516 -0.937,0.781 -1.942,1.172 -3.015,1.172 -0.625,0 -1.151,-0.162 -1.579,-0.485 -0.406,-0.354 -0.609,-0.797 -0.609,-1.328 0,-0.896 0.469,-1.734 1.406,-2.516 0.917,-0.781 1.912,-1.171 2.985,-1.171"
     id="path262"
     inkscape:connector-curvature="0" />
  <path
     class="Note"
     d="m 141.377,98.501 c 0.625,0 1.156,0.161 1.593,0.484 0.396,0.354 0.594,0.797 0.594,1.328 0,0.896 -0.458,1.734 -1.375,2.516 -0.937,0.781 -1.942,1.172 -3.015,1.172 -0.625,0 -1.151,-0.162 -1.579,-0.485 -0.406,-0.354 -0.609,-0.797 -0.609,-1.328 0,-0.896 0.469,-1.734 1.406,-2.516 0.917,-0.781 1.912,-1.171 2.985,-1.171"
     id="path264"
     inkscape:connector-curvature="0" />
  <path
     class="Note"
     d="m 141.377,56.001 c 0.625,0 1.156,0.161 1.593,0.484 0.396,0.354 0.594,0.797 0.594,1.328 0,0.896 -0.458,1.734 -1.375,2.516 -0.937,0.781 -1.942,1.172 -3.015,1.172 -0.625,0 -1.151,-0.162 -1.579,-0.485 -0.406,-0.354 -0.609,-0.797 -0.609,-1.328 0,-0.896 0.469,-1.734 1.406,-2.516 0.917,-0.781 1.912,-1.171 2.985,-1.171"
     id="path266"
     inkscape:connector-curvature="0" />
  <path
     class="Note"
     d="m 141.377,13.501 c 0.625,0 1.156,0.161 1.593,0.484 0.396,0.354 0.594,0.797 0.594,1.328 0,0.896 -0.458,1.734 -1.375,2.516 -0.937,0.781 -1.942,1.172 -3.015,1.172 -0.625,0 -1.151,-0.162 -1.579,-0.485 -0.406,-0.354 -0.609,-0.797 -0.609,-1.328 0,-0.896 0.469,-1.734 1.406,-2.516 0.917,-0.781 1.912,-1.171 2.985,-1.171"
     id="path268"
     inkscape:connector-curvature="0" />
  <path
     class="Note"
     d="m 127.962,141.001 c 0.625,0 1.156,0.161 1.594,0.484 0.396,0.354 0.594,0.797 0.594,1.328 0,0.896 -0.459,1.734 -1.375,2.516 -0.938,0.781 -1.943,1.172 -3.016,1.172 -0.625,0 -1.151,-0.162 -1.578,-0.485 -0.406,-0.354 -0.609,-0.797 -0.609,-1.328 0,-0.896 0.468,-1.734 1.406,-2.516 0.916,-0.781 1.911,-1.171 2.984,-1.171"
     id="path270"
     inkscape:connector-curvature="0" />
  <path
     class="Note"
     d="m 127.962,13.501 c 0.625,0 1.156,0.161 1.594,0.484 0.396,0.354 0.594,0.797 0.594,1.328 0,0.896 -0.459,1.734 -1.375,2.516 -0.938,0.781 -1.943,1.172 -3.016,1.172 -0.625,0 -1.151,-0.162 -1.578,-0.485 -0.406,-0.354 -0.609,-0.797 -0.609,-1.328 0,-0.896 0.468,-1.734 1.406,-2.516 0.916,-0.781 1.911,-1.171 2.984,-1.171"
     id="path272"
     inkscape:connector-curvature="0" />
  <path
     class="Note"
     d="m 114.548,56.001 c 0.625,0 1.156,0.161 1.593,0.484 0.396,0.354 0.594,0.797 0.594,1.328 0,0.896 -0.458,1.734 -1.375,2.516 -0.937,0.781 -1.943,1.172 -3.016,1.172 -0.625,0 -1.151,-0.162 -1.578,-0.485 -0.406,-0.354 -0.609,-0.797 -0.609,-1.328 0,-0.896 0.469,-1.734 1.406,-2.516 0.917,-0.781 1.912,-1.171 2.985,-1.171"
     id="path274"
     inkscape:connector-curvature="0" />
  <path
     class="Note"
     d="m 114.548,13.501 c 0.625,0 1.156,0.161 1.593,0.484 0.396,0.354 0.594,0.797 0.594,1.328 0,0.896 -0.458,1.734 -1.375,2.516 -0.937,0.781 -1.943,1.172 -3.016,1.172 -0.625,0 -1.151,-0.162 -1.578,-0.485 -0.406,-0.354 -0.609,-0.797 -0.609,-1.328 0,-0.896 0.469,-1.734 1.406,-2.516 0.917,-0.781 1.912,-1.171 2.985,-1.171"
     id="path276"
     inkscape:connector-curvature="0" />
  <path
     class="Note"
     d="m 101.133,141.001 c 0.625,0 1.156,0.161 1.594,0.484 0.396,0.354 0.593,0.797 0.593,1.328 0,0.896 -0.458,1.734 -1.375,2.516 -0.937,0.781 -1.942,1.172 -3.015,1.172 -0.625,0 -1.151,-0.162 -1.578,-0.485 -0.407,-0.354 -0.61,-0.797 -0.61,-1.328 0,-0.896 0.469,-1.734 1.407,-2.516 0.916,-0.781 1.911,-1.171 2.984,-1.171"
     id="path278"
     inkscape:connector-curvature="0" />
  <path
     class="Note"
     d="m 101.133,98.501 c 0.625,0 1.156,0.161 1.594,0.484 0.396,0.354 0.593,0.797 0.593,1.328 0,0.896 -0.458,1.734 -1.375,2.516 -0.937,0.781 -1.942,1.172 -3.015,1.172 -0.625,0 -1.151,-0.162 -1.578,-0.485 -0.407,-0.354 -0.61,-0.797 -0.61,-1.328 0,-0.896 0.469,-1.734 1.407,-2.516 0.916,-0.781 1.911,-1.171 2.984,-1.171"
     id="path280"
     inkscape:connector-curvature="0" />
  <path
     class="Note"
     d="m 101.133,56.001 c 0.625,0 1.156,0.161 1.594,0.484 0.396,0.354 0.593,0.797 0.593,1.328 0,0.896 -0.458,1.734 -1.375,2.516 -0.937,0.781 -1.942,1.172 -3.015,1.172 -0.625,0 -1.151,-0.162 -1.578,-0.485 -0.407,-0.354 -0.61,-0.797 -0.61,-1.328 0,-0.896 0.469,-1.734 1.407,-2.516 0.916,-0.781 1.911,-1.171 2.984,-1.171"
     id="path282"
     inkscape:connector-curvature="0" />
  <path
     class="Note"
     d="m 87.718,141.001 c 0.625,0 1.157,0.161 1.594,0.484 0.396,0.354 0.594,0.797 0.594,1.328 0,0.896 -0.458,1.734 -1.375,2.516 -0.938,0.781 -1.943,1.172 -3.016,1.172 -0.625,0 -1.151,-0.162 -1.578,-0.485 -0.406,-0.354 -0.609,-0.797 -0.609,-1.328 0,-0.896 0.469,-1.734 1.406,-2.516 0.917,-0.781 1.911,-1.171 2.984,-1.171"
     id="path284"
     inkscape:connector-curvature="0" />
  <path
     class="Note"
     d="m 87.718,98.501 c 0.625,0 1.157,0.161 1.594,0.484 0.396,0.354 0.594,0.797 0.594,1.328 0,0.896 -0.458,1.734 -1.375,2.516 -0.938,0.781 -1.943,1.172 -3.016,1.172 -0.625,0 -1.151,-0.162 -1.578,-0.485 -0.406,-0.354 -0.609,-0.797 -0.609,-1.328 0,-0.896 0.469,-1.734 1.406,-2.516 0.917,-0.781 1.911,-1.171 2.984,-1.171"
     id="path286"
     inkscape:connector-curvature="0" />
  <path
     class="Note"
     d="m 87.718,13.501 c 0.625,0 1.157,0.161 1.594,0.484 0.396,0.354 0.594,0.797 0.594,1.328 0,0.896 -0.458,1.734 -1.375,2.516 -0.938,0.781 -1.943,1.172 -3.016,1.172 -0.625,0 -1.151,-0.162 -1.578,-0.485 -0.406,-0.354 -0.609,-0.797 -0.609,-1.328 0,-0.896 0.469,-1.734 1.406,-2.516 0.917,-0.781 1.911,-1.171 2.984,-1.171"
     id="path288"
     inkscape:connector-curvature="0" />
  <path
     class="Note"
     d="m 74.304,141.001 c 0.625,0 1.156,0.161 1.594,0.484 0.395,0.354 0.593,0.797 0.593,1.328 0,0.896 -0.458,1.734 -1.375,2.516 -0.937,0.781 -1.942,1.172 -3.015,1.172 -0.625,0 -1.151,-0.162 -1.578,-0.485 -0.407,-0.354 -0.61,-0.797 -0.61,-1.328 0,-0.896 0.469,-1.734 1.406,-2.516 0.917,-0.781 1.912,-1.171 2.985,-1.171"
     id="path290"
     inkscape:connector-curvature="0" />
  <path
     class="Note"
     d="m 74.304,56.001 c 0.625,0 1.156,0.161 1.594,0.484 0.395,0.354 0.593,0.797 0.593,1.328 0,0.896 -0.458,1.734 -1.375,2.516 -0.937,0.781 -1.942,1.172 -3.015,1.172 -0.625,0 -1.151,-0.162 -1.578,-0.485 -0.407,-0.354 -0.61,-0.797 -0.61,-1.328 0,-0.896 0.469,-1.734 1.406,-2.516 0.917,-0.781 1.912,-1.171 2.985,-1.171"
     id="path292"
     inkscape:connector-curvature="0" />
  <path
     class="Note"
     d="m 74.304,13.501 c 0.625,0 1.156,0.161 1.594,0.484 0.395,0.354 0.593,0.797 0.593,1.328 0,0.896 -0.458,1.734 -1.375,2.516 -0.937,0.781 -1.942,1.172 -3.015,1.172 -0.625,0 -1.151,-0.162 -1.578,-0.485 -0.407,-0.354 -0.61,-0.797 -0.61,-1.328 0,-0.896 0.469,-1.734 1.406,-2.516 0.917,-0.781 1.912,-1.171 2.985,-1.171"
     id="path294"
     inkscape:connector-curvature="0" />
  <path
     class="Note"
     d="m 52.84,141.001 c 0.625,0 1.157,0.161 1.594,0.484 0.396,0.354 0.594,0.797 0.594,1.328 0,0.896 -0.458,1.734 -1.375,2.516 -0.938,0.781 -1.943,1.172 -3.016,1.172 -0.625,0 -1.151,-0.162 -1.578,-0.485 -0.406,-0.354 -0.609,-0.797 -0.609,-1.328 0,-0.896 0.469,-1.734 1.406,-2.516 0.917,-0.781 1.912,-1.171 2.984,-1.171"
     id="path296"
     inkscape:connector-curvature="0" />
  <path
     class="Note"
     d="m 52.84,98.501 c 0.625,0 1.157,0.161 1.594,0.484 0.396,0.354 0.594,0.797 0.594,1.328 0,0.896 -0.458,1.734 -1.375,2.516 -0.938,0.781 -1.943,1.172 -3.016,1.172 -0.625,0 -1.151,-0.162 -1.578,-0.485 -0.406,-0.354 -0.609,-0.797 -0.609,-1.328 0,-0.896 0.469,-1.734 1.406,-2.516 0.917,-0.781 1.912,-1.171 2.984,-1.171"
     id="path298"
     inkscape:connector-curvature="0" />
  <path
     class="Note"
     d="m 52.84,56.001 c 0.625,0 1.157,0.161 1.594,0.484 0.396,0.354 0.594,0.797 0.594,1.328 0,0.896 -0.458,1.734 -1.375,2.516 -0.938,0.781 -1.943,1.172 -3.016,1.172 -0.625,0 -1.151,-0.162 -1.578,-0.485 -0.406,-0.354 -0.609,-0.797 -0.609,-1.328 0,-0.896 0.469,-1.734 1.406,-2.516 0.917,-0.781 1.912,-1.171 2.984,-1.171"
     id="path300"
     inkscape:connector-curvature="0" />
  <path
     class="Note"
     d="m 52.84,13.501 c 0.625,0 1.157,0.161 1.594,0.484 0.396,0.354 0.594,0.797 0.594,1.328 0,0.896 -0.458,1.734 -1.375,2.516 -0.938,0.781 -1.943,1.172 -3.016,1.172 -0.625,0 -1.151,-0.162 -1.578,-0.485 -0.406,-0.354 -0.609,-0.797 -0.609,-1.328 0,-0.896 0.469,-1.734 1.406,-2.516 0.917,-0.781 1.912,-1.171 2.984,-1.171"
     id="path302"
     inkscape:connector-curvature="0" />
  <path
     class="Clef"
     d="m 13.812,148.751 h -1.843 c -0.146,0 -0.219,-0.063 -0.219,-0.188 v -9.625 c 0,-0.125 0.073,-0.187 0.219,-0.187 h 1.843 c 0.125,0 0.188,0.062 0.188,0.187 v 9.625 c 0,0.125 -0.063,0.188 -0.188,0.188 m -4.422,0 H 7.531 c -0.125,0 -0.187,-0.063 -0.187,-0.188 v -9.625 c 0,-0.125 0.062,-0.187 0.187,-0.187 H 9.39 c 0.146,0 0.219,0.062 0.219,0.187 v 9.625 c 0,0.125 -0.073,0.188 -0.219,0.188"
     id="path304"
     inkscape:connector-curvature="0" />
  <path
     class="Clef"
     d="m 13.812,106.251 h -1.843 c -0.146,0 -0.219,-0.063 -0.219,-0.188 v -9.625 c 0,-0.125 0.073,-0.187 0.219,-0.187 h 1.843 c 0.125,0 0.188,0.062 0.188,0.187 v 9.625 c 0,0.125 -0.063,0.188 -0.188,0.188 m -4.422,0 H 7.531 c -0.125,0 -0.187,-0.063 -0.187,-0.188 v -9.625 c 0,-0.125 0.062,-0.187 0.187,-0.187 H 9.39 c 0.146,0 0.219,0.062 0.219,0.187 v 9.625 c 0,0.125 -0.073,0.188 -0.219,0.188"
     id="path306"
     inkscape:connector-curvature="0" />
  <path
     class="Clef"
     d="m 13.812,63.751 h -1.843 c -0.146,0 -0.219,-0.063 -0.219,-0.188 v -9.625 c 0,-0.125 0.073,-0.187 0.219,-0.187 h 1.843 c 0.125,0 0.188,0.062 0.188,0.187 v 9.625 c 0,0.125 -0.063,0.188 -0.188,0.188 m -4.422,0 H 7.531 c -0.125,0 -0.187,-0.063 -0.187,-0.188 v -9.625 c 0,-0.125 0.062,-0.187 0.187,-0.187 H 9.39 c 0.146,0 0.219,0.062 0.219,0.187 v 9.625 c 0,0.125 -0.073,0.188 -0.219,0.188"
     id="path308"
     inkscape:connector-curvature="0" />
  <path
     class="Clef"
     d="m 13.812,21.251 h -1.843 c -0.146,0 -0.219,-0.063 -0.219,-0.188 v -9.625 c 0,-0.125 0.073,-0.187 0.219,-0.187 h 1.843 c 0.125,0 0.188,0.062 0.188,0.187 v 9.625 c 0,0.125 -0.063,0.188 -0.188,0.188 m -4.422,0 H 7.531 c -0.125,0 -0.187,-0.063 -0.187,-0.188 v -9.625 c 0,-0.125 0.062,-0.187 0.187,-0.187 H 9.39 c 0.146,0 0.219,0.062 0.219,0.187 v 9.625 c 0,0.125 -0.073,0.188 -0.219,0.188"
     id="path310"
     inkscape:connector-curvature="0" />
  <path
     class="TimeSig"
     d="m 27.306,143.751 c -0.396,0 -0.75,-0.071 -1.062,-0.211 -0.313,-0.141 -0.532,-0.289 -0.657,-0.446 -0.177,-0.198 -0.349,-0.349 -0.515,-0.453 -0.209,-0.146 -0.422,-0.219 -0.641,-0.219 -0.344,0 -0.625,0.105 -0.844,0.313 -0.229,0.198 -0.359,0.464 -0.39,0.797 -0.021,0.146 -0.099,0.219 -0.235,0.219 -0.156,0 -0.234,-0.073 -0.234,-0.219 0,-0.5 0.12,-0.953 0.359,-1.36 0.23,-0.416 0.516,-0.76 0.86,-1.031 0.281,-0.25 0.656,-0.552 1.125,-0.906 0.083,-0.063 0.25,-0.198 0.5,-0.406 0.25,-0.209 0.463,-0.386 0.64,-0.532 0.334,-0.281 0.625,-0.661 0.875,-1.14 0.23,-0.469 0.344,-0.974 0.344,-1.516 0,-0.666 -0.109,-1.239 -0.328,-1.719 -0.229,-0.468 -0.589,-0.703 -1.078,-0.703 -0.292,0 -0.531,0.063 -0.719,0.188 -0.198,0.135 -0.297,0.312 -0.297,0.531 0,0.188 0.117,0.417 0.352,0.688 0.234,0.27 0.351,0.5 0.351,0.687 0,0.386 -0.135,0.714 -0.406,0.984 -0.26,0.261 -0.578,0.391 -0.953,0.391 -0.396,0 -0.729,-0.135 -1,-0.406 -0.26,-0.281 -0.391,-0.604 -0.391,-0.969 0,-0.75 0.3,-1.364 0.899,-1.844 0.599,-0.479 1.32,-0.718 2.164,-0.718 1.01,0 1.885,0.27 2.625,0.812 0.739,0.521 1.109,1.214 1.109,2.078 0,0.584 -0.104,1.084 -0.312,1.5 -0.198,0.448 -0.49,0.797 -0.875,1.047 -0.448,0.281 -0.834,0.5 -1.157,0.656 -0.458,0.209 -0.911,0.407 -1.359,0.594 -0.552,0.219 -0.979,0.427 -1.281,0.625 0.177,-0.042 0.354,-0.062 0.531,-0.062 0.604,0 1.229,0.192 1.875,0.578 0.667,0.396 1.182,0.593 1.547,0.593 0.219,0 0.396,-0.041 0.531,-0.125 0.125,-0.072 0.209,-0.156 0.25,-0.25 0.052,-0.125 0.099,-0.213 0.141,-0.265 0.052,-0.083 0.114,-0.125 0.187,-0.125 0.157,0 0.235,0.078 0.235,0.234 0,0.365 -0.261,0.808 -0.782,1.328 -0.51,0.521 -1.171,0.782 -1.984,0.782"
     id="path312"
     inkscape:connector-curvature="0" />
  <path
     class="TimeSig"
     d="m 26.884,144.001 c 0.386,0 0.716,-0.045 0.992,-0.133 0.276,-0.089 0.451,-0.133 0.524,-0.133 0.094,0 0.167,0.026 0.219,0.078 0.041,0.031 0.067,0.073 0.078,0.125 0,0.031 -0.016,0.073 -0.047,0.125 l -5.672,6.609 h 3.328 v -2.625 c 0,-0.166 0.047,-0.312 0.141,-0.437 0.156,-0.125 0.286,-0.203 0.39,-0.234 0.167,-0.073 0.375,-0.256 0.625,-0.547 0.209,-0.229 0.459,-0.636 0.75,-1.219 0.032,-0.083 0.089,-0.125 0.172,-0.125 0.156,0 0.245,0.094 0.266,0.281 v 4.906 h 1.437 c 0.177,0 0.282,0.094 0.313,0.282 0,0.198 -0.104,0.297 -0.313,0.297 H 28.65 v 0.156 c 0,0.521 0.13,0.963 0.39,1.328 0.303,0.365 0.657,0.547 1.063,0.547 0.156,0 0.234,0.078 0.234,0.234 0,0.156 -0.078,0.235 -0.234,0.235 -0.271,0 -0.714,-0.037 -1.328,-0.11 -0.563,-0.094 -1,-0.14 -1.313,-0.14 -0.323,0 -0.76,0.046 -1.312,0.14 -0.583,0.073 -1.016,0.11 -1.297,0.11 -0.156,0 -0.234,-0.079 -0.234,-0.235 0,-0.156 0.078,-0.234 0.234,-0.234 0.396,0 0.745,-0.182 1.047,-0.547 0.271,-0.365 0.406,-0.807 0.406,-1.328 v -0.156 h -3.328 c -0.229,0 -0.385,-0.052 -0.469,-0.157 -0.114,-0.073 -0.172,-0.177 -0.172,-0.312 0,-0.042 0.099,-0.177 0.297,-0.406 0.229,-0.261 0.464,-0.579 0.703,-0.954 0.292,-0.447 0.568,-0.906 0.828,-1.375 0.282,-0.531 0.511,-1.145 0.688,-1.843 0.187,-0.698 0.281,-1.412 0.281,-2.141 0,-0.208 0.094,-0.312 0.281,-0.312 0.042,0 0.125,0.02 0.25,0.062 0.042,0.011 0.125,0.029 0.25,0.055 0.125,0.026 0.224,0.049 0.297,0.07 0.24,0.042 0.464,0.063 0.672,0.063"
     id="path314"
     inkscape:connector-curvature="0" />
  <path
     class="TimeSig"
     d="m 27.306,101.251 c -0.396,0 -0.75,-0.071 -1.062,-0.211 -0.313,-0.141 -0.532,-0.289 -0.657,-0.446 -0.177,-0.198 -0.349,-0.349 -0.515,-0.453 -0.209,-0.146 -0.422,-0.219 -0.641,-0.219 -0.344,0 -0.625,0.105 -0.844,0.313 -0.229,0.198 -0.359,0.463 -0.39,0.797 -0.021,0.146 -0.099,0.219 -0.235,0.219 -0.156,0 -0.234,-0.073 -0.234,-0.219 0,-0.5 0.12,-0.953 0.359,-1.36 0.23,-0.416 0.516,-0.76 0.86,-1.031 0.281,-0.25 0.656,-0.552 1.125,-0.906 0.083,-0.063 0.25,-0.198 0.5,-0.406 0.25,-0.209 0.463,-0.386 0.64,-0.532 0.334,-0.281 0.625,-0.661 0.875,-1.14 0.23,-0.469 0.344,-0.974 0.344,-1.516 0,-0.666 -0.109,-1.239 -0.328,-1.719 -0.229,-0.468 -0.589,-0.703 -1.078,-0.703 -0.292,0 -0.531,0.063 -0.719,0.188 -0.198,0.135 -0.297,0.312 -0.297,0.531 0,0.188 0.117,0.417 0.352,0.688 0.234,0.27 0.351,0.5 0.351,0.687 0,0.385 -0.135,0.714 -0.406,0.984 -0.26,0.261 -0.578,0.391 -0.953,0.391 -0.396,0 -0.729,-0.135 -1,-0.406 -0.26,-0.281 -0.391,-0.604 -0.391,-0.969 0,-0.75 0.3,-1.365 0.899,-1.844 0.599,-0.479 1.32,-0.718 2.164,-0.718 1.01,0 1.885,0.27 2.625,0.812 0.739,0.521 1.109,1.214 1.109,2.078 0,0.584 -0.104,1.084 -0.312,1.5 -0.198,0.448 -0.49,0.797 -0.875,1.047 -0.448,0.281 -0.834,0.5 -1.157,0.656 -0.458,0.209 -0.911,0.407 -1.359,0.594 -0.552,0.219 -0.979,0.427 -1.281,0.625 0.177,-0.042 0.354,-0.062 0.531,-0.062 0.604,0 1.229,0.192 1.875,0.578 0.667,0.396 1.182,0.593 1.547,0.593 0.219,0 0.396,-0.041 0.531,-0.125 0.125,-0.072 0.209,-0.156 0.25,-0.25 0.052,-0.125 0.099,-0.213 0.141,-0.265 0.052,-0.084 0.114,-0.125 0.187,-0.125 0.157,0 0.235,0.078 0.235,0.234 0,0.365 -0.261,0.807 -0.782,1.328 -0.51,0.521 -1.171,0.782 -1.984,0.782"
     id="path316"
     inkscape:connector-curvature="0" />
  <path
     class="TimeSig"
     d="m 26.884,101.501 c 0.386,0 0.716,-0.045 0.992,-0.133 0.276,-0.089 0.451,-0.133 0.524,-0.133 0.094,0 0.167,0.026 0.219,0.078 0.041,0.031 0.067,0.073 0.078,0.125 0,0.031 -0.016,0.073 -0.047,0.125 l -5.672,6.609 h 3.328 v -2.625 c 0,-0.166 0.047,-0.312 0.141,-0.437 0.156,-0.125 0.286,-0.203 0.39,-0.234 0.167,-0.073 0.375,-0.256 0.625,-0.547 0.209,-0.229 0.459,-0.636 0.75,-1.219 0.032,-0.083 0.089,-0.125 0.172,-0.125 0.156,0 0.245,0.094 0.266,0.281 v 4.906 h 1.437 c 0.177,0 0.282,0.094 0.313,0.282 0,0.198 -0.104,0.297 -0.313,0.297 H 28.65 v 0.156 c 0,0.521 0.13,0.963 0.39,1.328 0.303,0.365 0.657,0.547 1.063,0.547 0.156,0 0.234,0.078 0.234,0.234 0,0.156 -0.078,0.235 -0.234,0.235 -0.271,0 -0.714,-0.037 -1.328,-0.11 -0.563,-0.094 -1,-0.14 -1.313,-0.14 -0.323,0 -0.76,0.046 -1.312,0.14 -0.583,0.073 -1.016,0.11 -1.297,0.11 -0.156,0 -0.234,-0.079 -0.234,-0.235 0,-0.156 0.078,-0.234 0.234,-0.234 0.396,0 0.745,-0.182 1.047,-0.547 0.271,-0.365 0.406,-0.807 0.406,-1.328 v -0.156 h -3.328 c -0.229,0 -0.385,-0.053 -0.469,-0.157 -0.114,-0.073 -0.172,-0.177 -0.172,-0.312 0,-0.042 0.099,-0.177 0.297,-0.406 0.229,-0.261 0.464,-0.579 0.703,-0.954 0.292,-0.447 0.568,-0.906 0.828,-1.375 0.282,-0.531 0.511,-1.145 0.688,-1.843 0.187,-0.698 0.281,-1.412 0.281,-2.141 0,-0.208 0.094,-0.312 0.281,-0.312 0.042,0 0.125,0.02 0.25,0.062 0.042,0.01 0.125,0.029 0.25,0.055 0.125,0.026 0.224,0.049 0.297,0.07 0.24,0.042 0.464,0.063 0.672,0.063"
     id="path318"
     inkscape:connector-curvature="0" />
  <path
     class="TimeSig"
     d="m 27.306,58.751 c -0.396,0 -0.75,-0.071 -1.062,-0.211 -0.313,-0.141 -0.532,-0.289 -0.657,-0.446 -0.177,-0.198 -0.349,-0.349 -0.515,-0.453 -0.209,-0.146 -0.422,-0.219 -0.641,-0.219 -0.344,0 -0.625,0.105 -0.844,0.313 -0.229,0.198 -0.359,0.463 -0.39,0.797 -0.021,0.146 -0.099,0.219 -0.235,0.219 -0.156,0 -0.234,-0.073 -0.234,-0.219 0,-0.5 0.12,-0.953 0.359,-1.36 0.23,-0.416 0.516,-0.76 0.86,-1.031 0.281,-0.25 0.656,-0.552 1.125,-0.906 0.083,-0.063 0.25,-0.198 0.5,-0.406 0.25,-0.209 0.463,-0.386 0.64,-0.532 0.334,-0.281 0.625,-0.661 0.875,-1.14 0.23,-0.469 0.344,-0.974 0.344,-1.516 0,-0.667 -0.109,-1.239 -0.328,-1.719 -0.229,-0.468 -0.589,-0.703 -1.078,-0.703 -0.292,0 -0.531,0.063 -0.719,0.188 -0.198,0.135 -0.297,0.312 -0.297,0.531 0,0.188 0.117,0.417 0.352,0.688 0.234,0.27 0.351,0.5 0.351,0.687 0,0.385 -0.135,0.714 -0.406,0.984 -0.26,0.261 -0.578,0.391 -0.953,0.391 -0.396,0 -0.729,-0.135 -1,-0.406 -0.26,-0.281 -0.391,-0.604 -0.391,-0.969 0,-0.75 0.3,-1.365 0.899,-1.844 0.599,-0.479 1.32,-0.718 2.164,-0.718 1.01,0 1.885,0.27 2.625,0.812 0.739,0.521 1.109,1.214 1.109,2.078 0,0.583 -0.104,1.083 -0.312,1.5 -0.198,0.448 -0.49,0.797 -0.875,1.047 -0.448,0.281 -0.834,0.5 -1.157,0.656 -0.458,0.209 -0.911,0.407 -1.359,0.594 -0.552,0.219 -0.979,0.427 -1.281,0.625 0.177,-0.042 0.354,-0.062 0.531,-0.062 0.604,0 1.229,0.192 1.875,0.578 0.667,0.395 1.182,0.593 1.547,0.593 0.219,0 0.396,-0.041 0.531,-0.125 0.125,-0.073 0.209,-0.156 0.25,-0.25 0.052,-0.125 0.099,-0.213 0.141,-0.265 0.052,-0.084 0.114,-0.125 0.187,-0.125 0.157,0 0.235,0.078 0.235,0.234 0,0.365 -0.261,0.807 -0.782,1.328 -0.51,0.521 -1.171,0.782 -1.984,0.782"
     id="path320"
     inkscape:connector-curvature="0" />
  <path
     class="TimeSig"
     d="m 26.884,59.001 c 0.386,0 0.716,-0.045 0.992,-0.133 0.276,-0.089 0.451,-0.133 0.524,-0.133 0.094,0 0.167,0.026 0.219,0.078 0.041,0.031 0.067,0.073 0.078,0.125 0,0.031 -0.016,0.073 -0.047,0.125 l -5.672,6.609 h 3.328 v -2.625 c 0,-0.166 0.047,-0.312 0.141,-0.437 0.156,-0.125 0.286,-0.203 0.39,-0.234 0.167,-0.073 0.375,-0.256 0.625,-0.547 0.209,-0.23 0.459,-0.636 0.75,-1.219 0.032,-0.083 0.089,-0.125 0.172,-0.125 0.156,0 0.245,0.094 0.266,0.281 v 4.906 h 1.437 c 0.177,0 0.282,0.094 0.313,0.282 0,0.198 -0.104,0.297 -0.313,0.297 H 28.65 v 0.156 c 0,0.521 0.13,0.963 0.39,1.328 0.303,0.364 0.657,0.547 1.063,0.547 0.156,0 0.234,0.078 0.234,0.234 0,0.156 -0.078,0.235 -0.234,0.235 -0.271,0 -0.714,-0.037 -1.328,-0.11 -0.563,-0.094 -1,-0.14 -1.313,-0.14 -0.323,0 -0.76,0.046 -1.312,0.14 -0.583,0.073 -1.016,0.11 -1.297,0.11 -0.156,0 -0.234,-0.079 -0.234,-0.235 0,-0.156 0.078,-0.234 0.234,-0.234 0.396,0 0.745,-0.183 1.047,-0.547 0.271,-0.365 0.406,-0.807 0.406,-1.328 v -0.156 h -3.328 c -0.229,0 -0.385,-0.053 -0.469,-0.157 -0.114,-0.073 -0.172,-0.177 -0.172,-0.312 0,-0.042 0.099,-0.177 0.297,-0.406 0.229,-0.261 0.464,-0.579 0.703,-0.954 0.292,-0.448 0.568,-0.906 0.828,-1.375 0.282,-0.531 0.511,-1.145 0.688,-1.843 0.187,-0.698 0.281,-1.412 0.281,-2.141 0,-0.208 0.094,-0.312 0.281,-0.312 0.042,0 0.125,0.02 0.25,0.062 0.042,0.01 0.125,0.029 0.25,0.055 0.125,0.026 0.224,0.049 0.297,0.07 0.24,0.042 0.464,0.063 0.672,0.063"
     id="path322"
     inkscape:connector-curvature="0" />
  <path
     class="TimeSig"
     d="m 27.306,16.251 c -0.396,0 -0.75,-0.071 -1.062,-0.211 -0.313,-0.141 -0.532,-0.289 -0.657,-0.446 -0.177,-0.198 -0.349,-0.349 -0.515,-0.453 -0.209,-0.146 -0.422,-0.219 -0.641,-0.219 -0.344,0 -0.625,0.105 -0.844,0.313 -0.229,0.198 -0.359,0.463 -0.39,0.797 -0.021,0.146 -0.099,0.219 -0.235,0.219 -0.156,0 -0.234,-0.073 -0.234,-0.219 0,-0.5 0.12,-0.953 0.359,-1.36 0.23,-0.416 0.516,-0.76 0.86,-1.031 0.281,-0.25 0.656,-0.552 1.125,-0.906 0.083,-0.063 0.25,-0.198 0.5,-0.406 0.25,-0.209 0.463,-0.386 0.64,-0.532 0.334,-0.281 0.625,-0.661 0.875,-1.14 0.23,-0.469 0.344,-0.974 0.344,-1.516 0,-0.667 -0.109,-1.239 -0.328,-1.719 -0.229,-0.468 -0.589,-0.703 -1.078,-0.703 -0.292,0 -0.531,0.063 -0.719,0.188 -0.198,0.135 -0.297,0.312 -0.297,0.531 0,0.188 0.117,0.417 0.352,0.688 0.234,0.27 0.351,0.5 0.351,0.687 0,0.385 -0.135,0.714 -0.406,0.984 -0.26,0.261 -0.578,0.391 -0.953,0.391 -0.396,0 -0.729,-0.135 -1,-0.406 -0.26,-0.281 -0.391,-0.604 -0.391,-0.969 0,-0.75 0.3,-1.365 0.899,-1.844 0.599,-0.479 1.32,-0.718 2.164,-0.718 1.01,0 1.885,0.27 2.625,0.812 0.739,0.521 1.109,1.214 1.109,2.078 0,0.583 -0.104,1.083 -0.312,1.5 -0.198,0.448 -0.49,0.797 -0.875,1.047 -0.448,0.281 -0.834,0.5 -1.157,0.656 -0.458,0.209 -0.911,0.407 -1.359,0.594 -0.552,0.219 -0.979,0.427 -1.281,0.625 0.177,-0.042 0.354,-0.062 0.531,-0.062 0.604,0 1.229,0.192 1.875,0.578 0.667,0.395 1.182,0.593 1.547,0.593 0.219,0 0.396,-0.041 0.531,-0.125 0.125,-0.073 0.209,-0.156 0.25,-0.25 0.052,-0.125 0.099,-0.213 0.141,-0.265 0.052,-0.084 0.114,-0.125 0.187,-0.125 0.157,0 0.235,0.078 0.235,0.234 0,0.365 -0.261,0.807 -0.782,1.328 -0.51,0.521 -1.171,0.782 -1.984,0.782"
     id="path324"
     inkscape:connector-curvature="0" />
  <path
     class="TimeSig"
     d="m 26.884,16.501 c 0.386,0 0.716,-0.045 0.992,-0.133 0.276,-0.089 0.451,-0.133 0.524,-0.133 0.094,0 0.167,0.026 0.219,0.078 0.041,0.031 0.067,0.073 0.078,0.125 0,0.031 -0.016,0.073 -0.047,0.125 l -5.672,6.609 h 3.328 v -2.625 c 0,-0.166 0.047,-0.312 0.141,-0.437 0.156,-0.125 0.286,-0.203 0.39,-0.234 0.167,-0.073 0.375,-0.256 0.625,-0.547 0.209,-0.23 0.459,-0.636 0.75,-1.219 0.032,-0.083 0.089,-0.125 0.172,-0.125 0.156,0 0.245,0.094 0.266,0.281 v 4.906 h 1.437 c 0.177,0 0.282,0.094 0.313,0.282 0,0.198 -0.104,0.297 -0.313,0.297 H 28.65 v 0.156 c 0,0.521 0.13,0.963 0.39,1.328 0.303,0.364 0.657,0.547 1.063,0.547 0.156,0 0.234,0.078 0.234,0.234 0,0.156 -0.078,0.235 -0.234,0.235 -0.271,0 -0.714,-0.037 -1.328,-0.11 -0.563,-0.094 -1,-0.14 -1.313,-0.14 -0.323,0 -0.76,0.046 -1.312,0.14 -0.583,0.073 -1.016,0.11 -1.297,0.11 -0.156,0 -0.234,-0.079 -0.234,-0.235 0,-0.156 0.078,-0.234 0.234,-0.234 0.396,0 0.745,-0.183 1.047,-0.547 0.271,-0.365 0.406,-0.807 0.406,-1.328 v -0.156 h -3.328 c -0.229,0 -0.385,-0.053 -0.469,-0.157 -0.114,-0.073 -0.172,-0.177 -0.172,-0.312 0,-0.042 0.099,-0.177 0.297,-0.406 0.229,-0.261 0.464,-0.579 0.703,-0.954 0.292,-0.448 0.568,-0.906 0.828,-1.375 0.282,-0.531 0.511,-1.145 0.688,-1.843 0.187,-0.698 0.281,-1.412 0.281,-2.141 0,-0.208 0.094,-0.312 0.281,-0.312 0.042,0 0.125,0.02 0.25,0.062 0.042,0.01 0.125,0.029 0.25,0.055 0.125,0.026 0.224,0.049 0.297,0.07 0.24,0.042 0.464,0.063 0.672,0.063"
     id="path326"
     inkscape:connector-curvature="0" />
  <path
     class="Rest"
     d="m 394.904,14.688 c 0,-0.24 0.136,-0.5 0.407,-0.781 0.187,-0.209 0.474,-0.459 0.859,-0.75 0.281,-0.188 0.557,-0.479 0.828,-0.875 0.26,-0.375 0.391,-0.787 0.391,-1.235 0,-0.52 -0.167,-0.979 -0.5,-1.375 l -0.703,-0.843 c -0.053,-0.052 -0.079,-0.118 -0.079,-0.196 0,-0.078 0.037,-0.148 0.11,-0.211 0.094,-0.073 0.172,-0.109 0.234,-0.109 0.094,0 0.167,0.042 0.219,0.125 l 3.031,3.594 c 0.125,0.166 0.188,0.333 0.188,0.5 0,0.239 -0.131,0.5 -0.391,0.781 -0.167,0.188 -0.443,0.438 -0.828,0.75 -0.302,0.177 -0.589,0.469 -0.859,0.875 -0.261,0.375 -0.391,0.786 -0.391,1.234 0,0.552 0.156,1.016 0.469,1.391 l 1.672,1.969 c 0.041,0.041 0.072,0.109 0.093,0.203 0,0.083 -0.031,0.161 -0.093,0.234 -0.094,0.063 -0.172,0.094 -0.235,0.094 -0.021,0 -0.125,-0.073 -0.312,-0.219 -0.198,-0.156 -0.459,-0.307 -0.782,-0.453 -0.364,-0.135 -0.724,-0.203 -1.078,-0.203 -0.323,0 -0.588,0.089 -0.797,0.266 -0.177,0.187 -0.265,0.541 -0.265,1.062 0,0.792 0.187,1.417 0.562,1.875 0.042,0.052 0.047,0.115 0.016,0.188 -0.021,0.052 -0.068,0.078 -0.141,0.078 -0.083,0 -0.281,-0.235 -0.593,-0.703 -0.334,-0.49 -0.641,-1.058 -0.922,-1.703 -0.302,-0.678 -0.453,-1.235 -0.453,-1.672 0,-0.563 0.265,-0.844 0.796,-0.844 0.615,0 1.412,0.208 2.391,0.625 l -2.641,-3.172 c -0.135,-0.167 -0.203,-0.333 -0.203,-0.5"
     id="path328"
     inkscape:connector-curvature="0" />
  <path
     class="RepeatMeasure"
     d="m 394.512,131.969 h 2.5 l -9.5,10 h -2.5 l 9.5,-10 m -5.5,2.5 c 0,0.552 -0.447,1 -1,1 -0.552,0 -1,-0.448 -1,-1 0,-0.552 0.448,-1 1,-1 0.553,0 1,0.448 1,1 m 6,5 c 0,0.552 -0.447,1 -1,1 -0.552,0 -1,-0.448 -1,-1 0,-0.552 0.448,-1 1,-1 0.553,0 1,0.448 1,1"
     id="path330"
     inkscape:connector-curvature="0"
     style="fill-rule:evenodd" />
  <path
     class="RepeatMeasure"
     d="m 396.038,88.961 h 2.5 l -9.5,10 h -2.5 l 9.5,-10 m -5.5,2.5 c 0,0.552 -0.448,1 -1,1 -0.552,0 -1,-0.448 -1,-1 0,-0.553 0.448,-1 1,-1 0.552,0 1,0.447 1,1 m 6,5 c 0,0.552 -0.448,1 -1,1 -0.552,0 -1,-0.448 -1,-1 0,-0.553 0.448,-1 1,-1 0.552,0 1,0.447 1,1"
     id="path332"
     inkscape:connector-curvature="0"
     style="fill-rule:evenodd" />
  <path
     class="RepeatMeasure"
     d="m 298.619,131.969 h 2.5 l -9.5,10 h -2.5 l 9.5,-10 m -5.5,2.5 c 0,0.552 -0.447,1 -1,1 -0.552,0 -1,-0.448 -1,-1 0,-0.552 0.448,-1 1,-1 0.553,0 1,0.448 1,1 m 6,5 c 0,0.552 -0.447,1 -1,1 -0.552,0 -1,-0.448 -1,-1 0,-0.552 0.448,-1 1,-1 0.553,0 1,0.448 1,1"
     id="path334"
     inkscape:connector-curvature="0"
     style="fill-rule:evenodd" />
  <path
     class="RepeatMeasure"
     d="m 300.145,88.961 h 2.5 l -9.5,10 h -2.5 l 9.5,-10 m -5.5,2.5 c 0,0.552 -0.448,1 -1,1 -0.552,0 -1,-0.448 -1,-1 0,-0.553 0.448,-1 1,-1 0.552,0 1,0.447 1,1 m 6,5 c 0,0.552 -0.448,1 -1,1 -0.552,0 -1,-0.448 -1,-1 0,-0.553 0.448,-1 1,-1 0.552,0 1,0.447 1,1"
     id="path336"
     inkscape:connector-curvature="0"
     style="fill-rule:evenodd" />
  <path
     class="RepeatMeasure"
     d="m 201.476,131.969 h 2.5 l -9.5,10 h -2.5 l 9.5,-10 m -5.5,2.5 c 0,0.552 -0.447,1 -1,1 -0.552,0 -1,-0.448 -1,-1 0,-0.552 0.448,-1 1,-1 0.553,0 1,0.448 1,1 m 6,5 c 0,0.552 -0.447,1 -1,1 -0.552,0 -1,-0.448 -1,-1 0,-0.552 0.448,-1 1,-1 0.553,0 1,0.448 1,1"
     id="path338"
     inkscape:connector-curvature="0"
     style="fill-rule:evenodd" />
  <path
     class="RepeatMeasure"
     d="m 203.002,88.961 h 2.5 l -9.5,10 h -2.5 l 9.5,-10 m -5.5,2.5 c 0,0.552 -0.448,1 -1,1 -0.552,0 -1,-0.448 -1,-1 0,-0.553 0.448,-1 1,-1 0.552,0 1,0.447 1,1 m 6,5 c 0,0.552 -0.448,1 -1,1 -0.552,0 -1,-0.448 -1,-1 0,-0.553 0.448,-1 1,-1 0.552,0 1,0.447 1,1"
     id="path340"
     inkscape:connector-curvature="0"
     style="fill-rule:evenodd" />
  <path
     class="Beam"
     d="m 351.487,72.501 h 68.383 v 2.5 h -68.383 v -2.5"
     id="path342"
     inkscape:connector-curvature="0"
     style="fill-rule:evenodd" />
  <path
     class="Beam"
     d="m 351.487,68.751 h 6.6 v 2.5 h -6.6 v -2.5"
     id="path344"
     inkscape:connector-curvature="0"
     style="fill-rule:evenodd" />
  <path
     class="Beam"
     d="m 407.774,68.751 h -6.6 v 2.5 h 6.6 v -2.5"
     id="path346"
     inkscape:connector-curvature="0"
     style="fill-rule:evenodd" />
  <path
     class="Beam"
     d="m 299.136,72.501 h 33.548 v 2.5 h -33.548 v -2.5"
     id="path348"
     inkscape:connector-curvature="0"
     style="fill-rule:evenodd" />
  <path
     class="Beam"
     d="m 299.136,68.751 h 6.6 v 2.5 h -6.6 v -2.5"
     id="path350"
     inkscape:connector-curvature="0"
     style="fill-rule:evenodd" />
  <path
     class="Beam"
     d="m 332.684,68.751 h -6.6 v 2.5 h 6.6 v -2.5"
     id="path352"
     inkscape:connector-curvature="0"
     style="fill-rule:evenodd" />
  <path
     class="Beam"
     d="m 305.069,0 h 33.548 V 2.5 H 305.069 V 0"
     id="path354"
     inkscape:connector-curvature="0"
     style="fill-rule:evenodd" />
  <path
     class="Beam"
     d="m 305.069,3.75 h 6.6 v 2.501 h -6.6 V 3.75"
     id="path356"
     inkscape:connector-curvature="0"
     style="fill-rule:evenodd" />
  <path
     class="Beam"
     d="m 338.617,3.75 h -6.6 v 2.501 h 6.6 V 3.75"
     id="path358"
     inkscape:connector-curvature="0"
     style="fill-rule:evenodd" />
  <path
     class="Beam"
     d="m 253.586,72.501 h 20.895 v 2.5 h -20.895 v -2.5"
     id="path360"
     inkscape:connector-curvature="0"
     style="fill-rule:evenodd" />
  <path
     class="Beam"
     d="m 259.519,0 h 33.547 V 2.5 H 259.519 V 0"
     id="path362"
     inkscape:connector-curvature="0"
     style="fill-rule:evenodd" />
  <path
     class="Beam"
     d="m 293.066,3.75 h -6.6 v 2.501 h 6.6 V 3.75"
     id="path364"
     inkscape:connector-curvature="0"
     style="fill-rule:evenodd" />
  <path
     class="Beam"
     d="m 205.569,0 h 36.012 V 2.5 H 205.569 V 0"
     id="path366"
     inkscape:connector-curvature="0"
     style="fill-rule:evenodd" />
  <path
     class="Beam"
     d="m 205.569,3.75 h 6.6 v 2.501 h -6.6 V 3.75"
     id="path368"
     inkscape:connector-curvature="0"
     style="fill-rule:evenodd" />
  <path
     class="Beam"
     d="m 241.581,3.75 h -6.6 v 2.501 h 6.6 V 3.75"
     id="path370"
     inkscape:connector-curvature="0"
     style="fill-rule:evenodd" />
  <path
     class="Beam"
     d="m 157.201,72.501 h 66.66 v 2.5 h -66.66 v -2.5"
     id="path372"
     inkscape:connector-curvature="0"
     style="fill-rule:evenodd" />
  <path
     class="Beam"
     d="m 157.201,68.751 h 6.6 v 2.5 h -6.6 v -2.5"
     id="path374"
     inkscape:connector-curvature="0"
     style="fill-rule:evenodd" />
  <path
     class="Beam"
     d="m 212.073,68.751 h -6.6 v 2.5 h 6.6 v -2.5"
     id="path376"
     inkscape:connector-curvature="0"
     style="fill-rule:evenodd" />
  <path
     class="Beam"
     d="m 102.675,127.501 h 40.894 v 2.5 h -40.894 v -2.5"
     id="path378"
     inkscape:connector-curvature="0"
     style="fill-rule:evenodd" />
  <path
     class="Beam"
     d="m 129.504,131.251 h 14.065 v 2.5 h -14.065 v -2.5"
     id="path380"
     inkscape:connector-curvature="0"
     style="fill-rule:evenodd" />
  <path
     class="Beam"
     d="m 102.675,85.001 h 40.894 v 2.5 h -40.894 v -2.5"
     id="path382"
     inkscape:connector-curvature="0"
     style="fill-rule:evenodd" />
  <path
     class="Beam"
     d="m 143.569,88.751 h -6.6 v 2.5 h 6.6 v -2.5"
     id="path384"
     inkscape:connector-curvature="0"
     style="fill-rule:evenodd" />
  <path
     class="Beam"
     d="m 96.742,72.501 h 40.894 v 2.5 H 96.742 v -2.5"
     id="path386"
     inkscape:connector-curvature="0"
     style="fill-rule:evenodd" />
  <path
     class="Beam"
     d="m 96.742,68.751 h 6.6 v 2.5 h -6.6 v -2.5"
     id="path388"
     inkscape:connector-curvature="0"
     style="fill-rule:evenodd" />
  <path
     class="Beam"
     d="m 137.636,68.751 h -6.6 v 2.5 h 6.6 v -2.5"
     id="path390"
     inkscape:connector-curvature="0"
     style="fill-rule:evenodd" />
  <path
     class="Beam"
     d="m 54.383,127.501 h 35.528 v 2.5 H 54.383 v -2.5"
     id="path392"
     inkscape:connector-curvature="0"
     style="fill-rule:evenodd" />
  <path
     class="Beam"
     d="m 75.846,131.251 h 14.065 v 2.5 H 75.846 v -2.5"
     id="path394"
     inkscape:connector-curvature="0"
     style="fill-rule:evenodd" />
  <path
     class="Beam"
     d="m 54.383,85.001 h 35.528 v 2.5 H 54.383 v -2.5"
     id="path396"
     inkscape:connector-curvature="0"
     style="fill-rule:evenodd" />
  <path
     class="Beam"
     d="m 89.911,88.751 h -6.6 v 2.5 h 6.6 v -2.5"
     id="path398"
     inkscape:connector-curvature="0"
     style="fill-rule:evenodd" />
  <path
     class="Beam"
     d="m 48.45,72.501 h 22.113 v 2.5 H 48.45 v -2.5"
     id="path400"
     inkscape:connector-curvature="0"
     style="fill-rule:evenodd" />
  <path
     class="Beam"
     d="m 54.383,0 h 89.186 V 2.5 H 54.383 V 0"
     id="path402"
     inkscape:connector-curvature="0"
     style="fill-rule:evenodd" />
  <path
     class="Beam"
     d="m 75.846,3.75 h 6.6 v 2.501 h -6.6 V 3.75"
     id="path404"
     inkscape:connector-curvature="0"
     style="fill-rule:evenodd" />
  <path
     class="Beam"
     d="m 116.09,3.75 h 27.479 V 6.251 H 116.09 V 3.75"
     id="path406"
     inkscape:connector-curvature="0"
     style="fill-rule:evenodd" />
  <path
     class="NoteDot"
     d="m 262.255,14.555 c -0.224,-0.224 -0.336,-0.492 -0.336,-0.804 0,-0.313 0.112,-0.581 0.336,-0.805 0.224,-0.224 0.492,-0.336 0.804,-0.336 0.313,0 0.578,0.112 0.797,0.336 0.219,0.224 0.328,0.492 0.328,0.805 0,0.312 -0.109,0.58 -0.328,0.804 -0.219,0.224 -0.484,0.336 -0.797,0.336 -0.312,0 -0.58,-0.112 -0.804,-0.336"
     id="path412"
     inkscape:connector-curvature="0" />
  <path
     class="NoteDot"
     d="m 105.411,99.555 c -0.224,-0.224 -0.336,-0.492 -0.336,-0.804 0,-0.313 0.112,-0.581 0.336,-0.805 0.224,-0.224 0.492,-0.336 0.805,-0.336 0.312,0 0.578,0.112 0.797,0.336 0.218,0.224 0.328,0.492 0.328,0.805 0,0.312 -0.11,0.58 -0.328,0.804 -0.219,0.224 -0.485,0.336 -0.797,0.336 -0.313,0 -0.581,-0.112 -0.805,-0.336"
     id="path414"
     inkscape:connector-curvature="0" />
  <path
     class="NoteDot"
     d="m 57.119,99.555 c -0.224,-0.224 -0.336,-0.492 -0.336,-0.804 0,-0.313 0.112,-0.581 0.336,-0.805 0.224,-0.224 0.492,-0.336 0.804,-0.336 0.313,0 0.578,0.112 0.797,0.336 0.219,0.224 0.328,0.492 0.328,0.805 0,0.312 -0.109,0.58 -0.328,0.804 -0.219,0.224 -0.484,0.336 -0.797,0.336 -0.312,0 -0.58,-0.112 -0.804,-0.336"
     id="path416"
     inkscape:connector-curvature="0" />
</svg>
